<?xml version="1.0" encoding="utf-8"?>
<!-- Generator: Adobe Illustrator 28.2.0, SVG Export Plug-In . SVG Version: 6.00 Build 0)  -->
<svg version="1.1" id="nav" xmlns="http://www.w3.org/2000/svg" xmlns:xlink="http://www.w3.org/1999/xlink" x="0px" y="0px"
	 viewBox="0 0 53 293" enable-background="new 0 0 53 293" xml:space="preserve">
<path id="deckBase_00000112619160826207613670000018433375245054640060_" fill="#EBEEF0" d="M44.866,64.492v-4.786
	c0-4.148-1.595-6.318-1.595-6.318s-1.659-9.19-7.467-21.379c-5.807-12.189-9.381-11.36-9.381-11.36v0.014
	c-0.953,0.086-4.245,1.184-9.096,11.365C11.52,44.218,9.861,53.407,9.861,53.407s-1.595,2.17-1.595,6.318v4.786
	c0,0-2.149,1.915-2.149,5.361c0,3.446,0,45.374,0,45.374v35.099v46.65v39.184v16.146h2.085v9.253c0,0,0.319,6.063,3.829,7.658
	c0,0,2.808,2.17,14.55,2.17v-0.02c11.717-0.004,14.52-2.17,14.52-2.17c3.51-1.595,3.829-7.658,3.829-7.658v-29.787h2.085v-0.006
	v-34.79v-46.65v-35.099c0,0,0-41.928,0-45.374S44.866,64.492,44.866,64.492z"/>
<path id="outline_00000167361159148532122060000015343527962905690272_" fill="none" stroke="#A1AFC0" stroke-miterlimit="10" d="
	M51.255,278.974c0,6.6-5.4,12-12,12h-26c-6.6,0-12-5.4-12-12v-266c0-6.6,5.4-12,12-12h26c6.6,0,12,5.4,12,12V278.974z"/>
<path id="deck09" fill="#C2DEEF" d="M9.623,65.065H8.536c0,0,0,190.049,0,192.247c0,2.197,0.984,4.954,2.624,6.912
	c1.64,1.958,5.658,3.795,9.84,3.795s7.134,0,9.84,0s5.391-0.419,7.277-1.059c1.886-0.639,3.578-2.098,4.305-3.076
	c1.466-1.971,2.214-4.535,2.214-6.572c0-2.038,0.041-192.227,0.041-192.227h-1.025c0,0,0-5.513,0-8.39
	c0-2.09-1.564-5.279-2.46-6.752c-0.833-1.369-3.157-3.875-5.945-4.834c-2.788-0.959-4.387-1.278-8.569-1.278
	s-6.601,0.599-7.872,0.999c-1.271,0.4-4.889,2.195-6.563,4.886c-1.64,2.637-2.621,5.102-2.621,6.979
	C9.623,59.811,9.623,65.065,9.623,65.065z"/>
<g id="selection" display="none">
	<path display="inline" fill="#A1AFC0" d="M49.234,107.057v40.7h-46v-40.7L49.234,107.057 M51.234,105.057h-50v44.7h50V105.057
		L51.234,105.057z"/>
</g>
</svg>
