<?xml version="1.0" encoding="utf-8"?>
<!-- Generator: Adobe Illustrator 28.2.0, SVG Export Plug-In . SVG Version: 6.00 Build 0)  -->
<svg version="1.1" id="nav" xmlns="http://www.w3.org/2000/svg" xmlns:xlink="http://www.w3.org/1999/xlink" x="0px" y="0px"
	 viewBox="0 0 53 293" enable-background="new 0 0 53 293" xml:space="preserve">
<path id="deckBase_00000112619160826207613670000018433375245054640060_" fill="#EBEEF0" d="M44.866,64.492v-4.786
	c0-4.148-1.595-6.318-1.595-6.318s-1.659-9.19-7.467-21.379c-5.807-12.189-9.381-11.36-9.381-11.36v0.014
	c-0.953,0.086-4.245,1.184-9.096,11.365C11.52,44.218,9.861,53.407,9.861,53.407s-1.595,2.17-1.595,6.318v4.786
	c0,0-2.149,1.915-2.149,5.361c0,3.446,0,45.374,0,45.374v35.099v46.65v39.184v16.146h2.085v9.253c0,0,0.319,6.063,3.829,7.658
	c0,0,2.808,2.17,14.55,2.17v-0.02c11.717-0.004,14.52-2.17,14.52-2.17c3.51-1.595,3.829-7.658,3.829-7.658v-29.787h2.085v-0.006
	v-34.79v-46.65v-35.099c0,0,0-41.928,0-45.374S44.866,64.492,44.866,64.492z"/>
<path id="outline_00000167361159148532122060000015343527962905690272_" fill="none" stroke="#A1AFC0" stroke-miterlimit="10" d="
	M51.255,278.974c0,6.6-5.4,12-12,12h-26c-6.6,0-12-5.4-12-12v-266c0-6.6,5.4-12,12-12h26c6.6,0,12,5.4,12,12V278.974z"/>
<path id="deck12" fill="#C2DEEF" d="M44.819,65.051h-1.013c0,0-0.104-2.006-0.104-4.135c0-2.129-1.766-6.559-4.931-9.449
	c-3.996-3.649-12.189-3.39-12.189-3.39s-8.043-0.292-12.125,3.341c-3.904,3.475-4.99,8.049-4.99,9.498c0,1.449,0,4.106,0,4.106
	H8.395c0,0,0,147.186,0,182.919c0,1.804,0,3.329,0,4.544c0.001,2.581,1.036,3.012,1.911,2.839c0.876-0.172,2.097-2.068,3.212-3.304
	c1.115-1.235,2.256-1.235,2.256-1.235h21.617c0,0,1.141,0,2.256,1.235c1.115,1.235,2.336,3.131,3.212,3.304
	c0.875,0.172,1.91-0.258,1.911-2.839c0-0.002,0-0.003,0-0.005c0-2.585,0-4.539,0-4.539h0C44.77,212.559,44.819,65.051,44.819,65.051
	z"/>
<g id="selection" display="none">
	<path display="inline" fill="#A1AFC0" d="M49.234,107.057v40.7h-46v-40.7L49.234,107.057 M51.234,105.057h-50v44.7h50V105.057
		L51.234,105.057z"/>
</g>
</svg>
