<?xml version="1.0" encoding="utf-8"?>
<!-- Generator: Adobe Illustrator 27.0.0, SVG Export Plug-In . SVG Version: 6.00 Build 0)  -->
<svg version="1.1" id="Layer_1" xmlns="http://www.w3.org/2000/svg" xmlns:xlink="http://www.w3.org/1999/xlink" x="0px" y="0px"
	 viewBox="0 0 588 3370" enable-background="new 0 0 588 3370" xml:space="preserve">
<metadata><?xpacket begin="﻿" id="W5M0MpCehiHzreSzNTczkc9d"?>
<x:xmpmeta xmlns:x="adobe:ns:meta/" x:xmptk="Adobe XMP Core 8.0-c001 1.000000, 0000/00/00-00:00:00        ">
   <rdf:RDF xmlns:rdf="http://www.w3.org/1999/02/22-rdf-syntax-ns#">
      <rdf:Description rdf:about=""
            xmlns:dc="http://purl.org/dc/elements/1.1/"
            xmlns:dp="http://disney-parks.com/aem">
         <dc:format>image/svg+xml</dc:format>
         <dc:modified>2026-02-25T19:42:20.877Z</dc:modified>
         <dp:destination>
            <rdf:Bag>
               <rdf:li>disney-parks:destinations/disney-cruise-line</rdf:li>
            </rdf:Bag>
         </dp:destination>
         <dp:asset-category>
            <rdf:Bag>
               <rdf:li>disney-parks:categories/graphics</rdf:li>
            </rdf:Bag>
         </dp:asset-category>
         <dp:project-id>
            <rdf:Bag>
               <rdf:li>https://myjira.disney.com/browse/DCL-110738</rdf:li>
            </rdf:Bag>
         </dp:project-id>
         <dp:keywords>
            <rdf:Bag>
               <rdf:li>disney-parks:keywords/deck</rdf:li>
               <rdf:li>disney-parks:keywords/cruise-ship</rdf:li>
            </rdf:Bag>
         </dp:keywords>
      </rdf:Description>
   </rdf:RDF>
</x:xmpmeta>
                                                                                                    
                                                                                                    
                                                                                                    
                                                                                                    
                                                                                                    
                                                                                                    
                                                                                                    
                                                                                                    
                                                                                                    
                                                                                                    
                                                                                                    
                                                                                                    
                                                                                                    
                                                                                                    
                                                                                                    
                                                                                                    
                                                                                                    
                                                                                                    
                                                                                                    
                                                                                                    
                           
<?xpacket end="w"?></metadata>
<g id="ship">
	<path id="ship-outline" fill="none" stroke="#DEDEDE" stroke-width="4.2279" stroke-miterlimit="10" d="M523.466,2505.642v-587.506
		v-694.125V755.624c0-182.035-32.882-279.415-32.882-279.415c-46.253-166.913-116.537-291.915-116.537-291.915
		c-49.835-91.39-75.072-99.368-79.235-99.509c-0.355-0.079-1.845-0.079-2.2,0c-4.163,0.141-28.201,7.351-81.103,99.509
		c0,0-70.284,125.001-116.537,291.915c0,0-31.014,98.916-31.014,279.415v468.387v694.125v587.506v638.241
		c0,0,1.026,102.241,4.697,111.8c3.671,9.559,28.34,52.172,98.087,67.614c0,0,68.278,8.088,126.278,8.088h1.383
		c58,0,126.278-8.088,126.278-8.088c69.746-15.441,93.526-59.466,97.197-69.025C521.549,3244.713,523.466,2505.642,523.466,2505.642
		z"/>
	<g id="elevator_00000155842485886858170050000002991967846039165090_">
		<g id="elevator-box_00000080895734764096116150000004729514944143239831_">
			<rect x="214.218" y="1231.406" fill="#9FAEBF" width="29.834" height="22.429"/>
			<rect x="214.218" y="1255.48" fill="#9FAEBF" width="29.834" height="22.429"/>
			<rect x="214.218" y="1279.555" fill="#9FAEBF" width="29.834" height="22.429"/>
			<rect x="214.218" y="1183.256" fill="#9FAEBF" width="29.834" height="22.429"/>
			<rect x="214.218" y="1207.331" fill="#9FAEBF" width="29.834" height="22.429"/>
			<rect x="344.184" y="1231.406" fill="#9FAEBF" width="29.834" height="22.429"/>
			<rect x="344.184" y="1255.48" fill="#9FAEBF" width="29.834" height="22.429"/>
			<rect x="344.184" y="1279.555" fill="#9FAEBF" width="29.834" height="22.429"/>
			<rect x="344.184" y="1183.256" fill="#9FAEBF" width="29.834" height="22.429"/>
			<rect x="344.184" y="1207.331" fill="#9FAEBF" width="29.834" height="22.429"/>
			<rect x="256.397" y="1342.7" fill="#9FAEBF" width="25.078" height="24.015"/>
			<rect x="311.189" y="1342.7" fill="#9FAEBF" width="25.078" height="24.015"/>
		</g>
		<g id="elevator-icon_00000053505875850563940630000018417779687595024010_">
			<polygon fill="#FFFFFF" points="232.903,1243.039 226.4,1243.039 226.4,1248.53 233.729,1248.53 233.729,1250.205 
				224.232,1250.205 224.232,1235.035 233.316,1235.035 233.316,1236.711 226.4,1236.711 226.4,1241.55 232.903,1241.55 
				232.903,1243.039 			"/>
			<polygon fill="#FFFFFF" points="232.903,1265.532 226.4,1265.532 226.4,1260.785 233.316,1260.785 233.316,1259.11 
				224.232,1259.11 224.232,1274.28 233.729,1274.28 233.729,1272.605 226.4,1272.605 226.4,1267.114 232.903,1267.114 
				232.903,1265.532 			"/>
			<polygon fill="#FFFFFF" points="232.903,1289.606 226.4,1289.606 226.4,1284.86 233.316,1284.86 233.316,1283.185 
				224.232,1283.185 224.232,1298.355 233.729,1298.355 233.729,1296.679 226.4,1296.679 226.4,1291.188 232.903,1291.188 
				232.903,1289.606 			"/>
			<polygon fill="#FFFFFF" points="232.903,1194.89 226.4,1194.89 226.4,1200.381 233.729,1200.381 233.729,1202.056 
				224.232,1202.056 224.232,1186.886 233.316,1186.886 233.316,1188.561 226.4,1188.561 226.4,1193.401 232.903,1193.401 
				232.903,1194.89 			"/>
			<polygon fill="#FFFFFF" points="232.903,1217.382 226.4,1217.382 226.4,1212.636 233.316,1212.636 233.316,1210.961 
				224.232,1210.961 224.232,1226.131 233.729,1226.131 233.729,1224.455 226.4,1224.455 226.4,1218.964 232.903,1218.964 
				232.903,1217.382 			"/>
			<polygon fill="#FFFFFF" points="363.076,1241.55 356.572,1241.55 356.572,1236.711 363.489,1236.711 363.489,1235.035 
				354.404,1235.035 354.404,1250.205 363.902,1250.205 363.902,1248.53 356.572,1248.53 356.572,1243.039 363.076,1243.039 
				363.076,1241.55 			"/>
			<polygon fill="#FFFFFF" points="363.076,1265.532 356.572,1265.532 356.572,1260.785 363.489,1260.785 363.489,1259.11 
				354.404,1259.11 354.404,1274.28 363.902,1274.28 363.902,1272.605 356.572,1272.605 356.572,1267.114 363.076,1267.114 
				363.076,1265.532 			"/>
			<polygon fill="#FFFFFF" points="363.076,1289.606 356.572,1289.606 356.572,1284.86 363.489,1284.86 363.489,1283.185 
				354.404,1283.185 354.404,1298.355 363.902,1298.355 363.902,1296.679 356.572,1296.679 356.572,1291.188 363.076,1291.188 
				363.076,1289.606 			"/>
			<polygon fill="#FFFFFF" points="363.076,1193.401 356.572,1193.401 356.572,1188.561 363.489,1188.561 363.489,1186.886 
				354.404,1186.886 354.404,1202.056 363.902,1202.056 363.902,1200.381 356.572,1200.381 356.572,1194.89 363.076,1194.89 
				363.076,1193.401 			"/>
			<polygon fill="#FFFFFF" points="363.076,1217.382 356.572,1217.382 356.572,1212.636 363.489,1212.636 363.489,1210.961 
				354.404,1210.961 354.404,1226.131 363.902,1226.131 363.902,1224.455 356.572,1224.455 356.572,1218.964 363.076,1218.964 
				363.076,1217.382 			"/>
			<polygon fill="#FFFFFF" points="273.323,1353.833 266.819,1353.833 266.819,1349.086 273.736,1349.086 273.736,1347.411 
				264.651,1347.411 264.651,1362.581 274.149,1362.581 274.149,1360.906 266.819,1360.906 266.819,1355.415 273.323,1355.415 
				273.323,1353.833 			"/>
			<polygon fill="#FFFFFF" points="328.091,1353.833 321.587,1353.833 321.587,1349.086 328.504,1349.086 328.504,1347.411 
				319.42,1347.411 319.42,1362.581 328.917,1362.581 328.917,1360.906 321.587,1360.906 321.587,1355.415 328.091,1355.415 
				328.091,1353.833 			"/>
		</g>
		<g id="elevator_00000124855145811217517720000001238585728425960610_">
			<g id="elevator-box_00000155840273306637797390000016638824089930713788_">
				<g>
					<rect x="214.874" y="2318.517" fill="#9FAEBF" width="29.834" height="22.429"/>
					<rect x="344.84" y="2318.517" fill="#9FAEBF" width="29.834" height="22.429"/>
				</g>
				<g>
					<rect x="214.874" y="2347.253" fill="#9FAEBF" width="29.834" height="22.429"/>
					<rect x="344.84" y="2347.253" fill="#9FAEBF" width="29.834" height="22.429"/>
				</g>
				<g>
					<rect x="214.874" y="2375.989" fill="#9FAEBF" width="29.834" height="22.429"/>
					<rect x="344.84" y="2375.989" fill="#9FAEBF" width="29.834" height="22.429"/>
				</g>
				<g>
					<rect x="214.874" y="2261.045" fill="#9FAEBF" width="29.834" height="22.429"/>
					<rect x="344.84" y="2261.045" fill="#9FAEBF" width="29.834" height="22.429"/>
				</g>
				<g>
					<rect x="214.874" y="2289.781" fill="#9FAEBF" width="29.834" height="22.429"/>
					<rect x="344.84" y="2289.781" fill="#9FAEBF" width="29.834" height="22.429"/>
				</g>
				<rect x="255.209" y="2446.011" fill="#9FAEBF" width="25.078" height="24.015"/>
				<rect x="282.605" y="2446.011" fill="#9FAEBF" width="25.078" height="24.015"/>
				<rect x="310.001" y="2446.011" fill="#9FAEBF" width="25.078" height="24.015"/>
			</g>
			<g id="elevator-icon_00000065786860912589605540000015245783580790729870_">
				<polygon fill="#FFFFFF" points="233.559,2329.863 227.055,2329.863 227.055,2335.354 234.385,2335.354 234.385,2337.029 
					224.887,2337.029 224.887,2321.859 233.972,2321.859 233.972,2323.534 227.055,2323.534 227.055,2328.374 233.559,2328.374 
					233.559,2329.863 				"/>
				<polygon fill="#FFFFFF" points="233.559,2357.25 227.055,2357.25 227.055,2352.503 233.972,2352.503 233.972,2350.828 
					224.887,2350.828 224.887,2365.998 234.385,2365.998 234.385,2364.323 227.055,2364.323 227.055,2358.832 233.559,2358.832 
					233.559,2357.25 				"/>
				<polygon fill="#FFFFFF" points="233.559,2386.032 227.055,2386.032 227.055,2381.286 233.972,2381.286 233.972,2379.611 
					224.887,2379.611 224.887,2394.781 234.385,2394.781 234.385,2393.106 227.055,2393.106 227.055,2387.615 233.559,2387.615 
					233.559,2386.032 				"/>
				<polygon fill="#FFFFFF" points="233.559,2272.678 227.055,2272.678 227.055,2278.169 234.385,2278.169 234.385,2279.844 
					224.887,2279.844 224.887,2264.674 233.972,2264.674 233.972,2266.35 227.055,2266.35 227.055,2271.189 233.559,2271.189 
					233.559,2272.678 				"/>
				<polygon fill="#FFFFFF" points="233.559,2299.068 227.055,2299.068 227.055,2294.322 233.972,2294.322 233.972,2292.646 
					224.887,2292.646 224.887,2307.816 234.385,2307.816 234.385,2306.141 227.055,2306.141 227.055,2300.65 233.559,2300.65 
					233.559,2299.068 				"/>
				<polygon fill="#FFFFFF" points="363.731,2328.374 357.228,2328.374 357.228,2323.534 364.144,2323.534 364.144,2321.859 
					355.06,2321.859 355.06,2337.029 364.557,2337.029 364.557,2335.354 357.228,2335.354 357.228,2329.863 363.731,2329.863 
					363.731,2328.374 				"/>
				<polygon fill="#FFFFFF" points="363.731,2357.25 357.228,2357.25 357.228,2352.503 364.144,2352.503 364.144,2350.828 
					355.06,2350.828 355.06,2365.998 364.557,2365.998 364.557,2364.323 357.228,2364.323 357.228,2358.832 363.731,2358.832 
					363.731,2357.25 				"/>
				<polygon fill="#FFFFFF" points="363.731,2386.032 357.228,2386.032 357.228,2381.286 364.144,2381.286 364.144,2379.611 
					355.06,2379.611 355.06,2394.781 364.557,2394.781 364.557,2393.106 357.228,2393.106 357.228,2387.615 363.731,2387.615 
					363.731,2386.032 				"/>
				<polygon fill="#FFFFFF" points="363.731,2271.189 357.228,2271.189 357.228,2266.35 364.144,2266.35 364.144,2264.674 
					355.06,2264.674 355.06,2279.844 364.557,2279.844 364.557,2278.169 357.228,2278.169 357.228,2272.678 363.731,2272.678 
					363.731,2271.189 				"/>
				<polygon fill="#FFFFFF" points="363.731,2299.068 357.228,2299.068 357.228,2294.322 364.144,2294.322 364.144,2292.646 
					355.06,2292.646 355.06,2307.816 364.557,2307.816 364.557,2306.141 357.228,2306.141 357.228,2300.65 363.731,2300.65 
					363.731,2299.068 				"/>
				<polygon fill="#FFFFFF" points="271.695,2456.809 265.191,2456.809 265.191,2452.062 272.108,2452.062 272.108,2450.387 
					263.023,2450.387 263.023,2465.557 272.521,2465.557 272.521,2463.882 265.191,2463.882 265.191,2458.391 271.695,2458.391 
					271.695,2456.809 				"/>
				<polygon fill="#FFFFFF" points="298.748,2456.809 292.244,2456.809 292.244,2452.062 299.161,2452.062 299.161,2450.387 
					290.076,2450.387 290.076,2465.557 299.574,2465.557 299.574,2463.882 292.244,2463.882 292.244,2458.391 298.748,2458.391 
					298.748,2456.809 				"/>
				<polygon fill="#FFFFFF" points="326.463,2456.809 319.96,2456.809 319.96,2452.062 326.876,2452.062 326.876,2450.387 
					317.792,2450.387 317.792,2465.557 327.289,2465.557 327.289,2463.882 319.96,2463.882 319.96,2458.391 326.463,2458.391 
					326.463,2456.809 				"/>
			</g>
		</g>
	</g>
	<g id="stairs_00000117645054125571166070000014033436804502645143_">
		
			<path id="stairs_00000181804515609217528400000013725984707266737818_" fill="none" stroke="#DEDEDE" stroke-width="1.057" stroke-linecap="round" stroke-linejoin="round" stroke-miterlimit="10" d="
			M175.263,1283.531h-14.685 M190.804,1283.531h-14.685 M190.804,1280.689h-14.685 M190.804,1263.745h-14.685 M175.385,1291.634
			v-29.362 M175.263,1272.165h-14.685 M175.263,1269.323h-14.685 M175.263,1266.587h-14.685 M175.263,1263.745h-14.685
			 M193.619,1266.587h14.069 M193.619,1269.323h14.069 M193.65,1275.006h13.916 M193.619,1272.165h14.069 M157.764,1266.587h-14.685
			 M157.764,1269.323h-14.685 M157.845,1275.006h-14.644 M157.764,1272.165h-14.685 M175.263,1280.689h-14.685 M176.119,1263.745
			h-0.857 M175.263,1275.006h-14.685 M190.804,1275.006h-14.685 M190.804,1277.848h-14.685 M190.804,1286.372h-14.685
			 M175.263,1286.372h-14.685 M175.263,1277.848h-14.685 M190.804,1266.587h-14.685 M190.804,1272.165h-14.685 M190.804,1269.323
			h-14.685 M193.374,1277.111v-13.997c0-0.526-0.489-1.158-1.224-1.158c-0.734,0-1.224,0.526-1.224,1.158v28.52 M158.008,1277.111
			v-13.997c0-0.631,0.489-1.158,1.101-1.158c0.734,0,1.224,0.631,1.224,1.158v28.52 M208.181,1277.111v-27.468
			c0-0.316-0.245-0.526-0.612-0.526l0,0h-63.879c-0.367,0-0.612,0.211-0.612,0.526v27.468"/>
		
			<path id="stairs_00000141424789298032244910000006323477056650623408_" fill="none" stroke="#DEDEDE" stroke-width="1.057" stroke-linecap="round" stroke-linejoin="round" stroke-miterlimit="10" d="
			M413.462,1283.531h-14.685 M429.003,1283.531h-14.685 M429.003,1280.689h-14.685 M429.003,1263.745h-14.685 M413.584,1291.634
			v-29.362 M413.462,1272.165h-14.685 M413.462,1269.323h-14.685 M413.462,1266.587h-14.685 M413.462,1263.745h-14.685
			 M431.818,1266.587h14.069 M431.818,1269.323h14.069 M431.849,1275.006h13.916 M431.818,1272.165h14.069 M395.963,1266.587
			h-14.685 M395.963,1269.323h-14.685 M396.044,1275.006H381.4 M395.963,1272.165h-14.685 M413.462,1280.689h-14.685
			 M414.319,1263.745h-0.857 M413.462,1275.006h-14.685 M429.003,1275.006h-14.685 M429.003,1277.848h-14.685 M429.003,1286.372
			h-14.685 M413.462,1286.372h-14.685 M413.462,1277.848h-14.685 M429.003,1266.587h-14.685 M429.003,1272.165h-14.685
			 M429.003,1269.323h-14.685 M431.573,1277.111v-13.997c0-0.526-0.489-1.158-1.224-1.158s-1.224,0.526-1.224,1.158v28.52
			 M396.207,1277.111v-13.997c0-0.631,0.489-1.158,1.101-1.158c0.734,0,1.224,0.631,1.224,1.158v28.52 M446.38,1277.111v-27.468
			c0-0.316-0.245-0.526-0.612-0.526l0,0H381.89c-0.367,0-0.612,0.211-0.612,0.526v27.468"/>
		
			<path id="stairs_00000169543140497701493060000011982538418937857925_" fill="none" stroke="#DEDEDE" stroke-width="1.057" stroke-linecap="round" stroke-linejoin="round" stroke-miterlimit="10" d="
			M175.263,2403.116h-14.685 M190.804,2403.116h-14.685 M190.804,2400.274h-14.685 M190.804,2383.331h-14.685 M175.385,2411.219
			v-29.362 M175.263,2391.75h-14.685 M175.263,2388.908h-14.685 M175.263,2386.172h-14.685 M175.263,2383.331h-14.685
			 M193.619,2386.172h14.069 M193.619,2388.908h14.069 M193.65,2394.591h13.916 M193.619,2391.75h14.069 M157.764,2386.172h-14.685
			 M157.764,2388.908h-14.685 M157.845,2394.591h-14.644 M157.764,2391.75h-14.685 M175.263,2400.274h-14.685 M176.119,2383.331
			h-0.857 M175.263,2394.591h-14.685 M190.804,2394.591h-14.685 M190.804,2397.433h-14.685 M190.804,2405.957h-14.685
			 M175.263,2405.957h-14.685 M175.263,2397.433h-14.685 M190.804,2386.172h-14.685 M190.804,2391.75h-14.685 M190.804,2388.908
			h-14.685 M193.374,2396.696v-13.997c0-0.526-0.489-1.158-1.224-1.158c-0.734,0-1.224,0.526-1.224,1.158v28.52 M158.008,2396.696
			v-13.997c0-0.631,0.489-1.158,1.101-1.158c0.734,0,1.224,0.632,1.224,1.158v28.52 M208.181,2396.696v-27.468
			c0-0.316-0.245-0.526-0.612-0.526l0,0h-63.879c-0.367,0-0.612,0.21-0.612,0.526v27.468"/>
		
			<path id="stairs_00000060027819440697675540000001382785753209078933_" fill="none" stroke="#DEDEDE" stroke-width="1.057" stroke-linecap="round" stroke-linejoin="round" stroke-miterlimit="10" d="
			M412.24,2403.116h-14.685 M427.781,2403.116h-14.685 M427.781,2400.274h-14.685 M427.781,2383.331h-14.685 M412.362,2411.219
			v-29.362 M412.24,2391.75h-14.685 M412.24,2388.908h-14.685 M412.24,2386.172h-14.685 M412.24,2383.331h-14.685 M430.596,2386.172
			h14.069 M430.596,2388.908h14.069 M430.627,2394.591h13.916 M430.596,2391.75h14.069 M394.74,2386.172h-14.685 M394.74,2388.908
			h-14.685 M394.822,2394.591h-14.644 M394.74,2391.75h-14.685 M412.24,2400.274h-14.685 M413.096,2383.331h-0.857 M412.24,2394.591
			h-14.685 M427.781,2394.591h-14.685 M427.781,2397.433h-14.685 M427.781,2405.957h-14.685 M412.24,2405.957h-14.685
			 M412.24,2397.433h-14.685 M427.781,2386.172h-14.685 M427.781,2391.75h-14.685 M427.781,2388.908h-14.685 M430.351,2396.696
			v-13.997c0-0.526-0.489-1.158-1.224-1.158s-1.224,0.526-1.224,1.158v28.52 M394.985,2396.696v-13.997
			c0-0.631,0.489-1.158,1.101-1.158c0.734,0,1.224,0.632,1.224,1.158v28.52 M445.158,2396.696v-27.468
			c0-0.316-0.245-0.526-0.612-0.526l0,0h-63.879c-0.367,0-0.612,0.21-0.612,0.526v27.468"/>
		
			<path id="stairs" fill="none" stroke="#DFDFDF" stroke-width="1.057" stroke-linecap="round" stroke-linejoin="round" stroke-miterlimit="10" d="
			M373.222,1671.643v24.917c0,0,0.068,23.069-23.89,19.509l-25.602-10.131l0.78,0.478l5.325-13.56l-1.45-0.609l25.602,10.131
			c5.339-0.411,4.518-5.203,4.518-5.203v-24.917l0.045,2.367h14.672v3.029H358.55v3.029h14.672v2.917H358.55v3.029h14.672v3.029
			H358.55v3.029h14.672c0,0,1.998,12.95-7.514,20.268c-8.77,6.423-18.953,2.193-18.953,2.193l5.325-13.56l-2.82-1.107l-5.325,13.56
			l-2.715-1.066l5.325-13.56l-8.355-3.281l-5.325,13.56l2.82,1.107l5.325-13.56l2.715,1.066l-5.325,13.56l-8.355-3.281l5.325-13.56
			l-2.82-1.107l-5.325,13.56"/>
	</g>
	<g id="inaccessible_00000116210539986645544730000000280194313946762933_">
		<path id="inaccessible_00000176749916399149874000000012193746370968335283_" fill="#E9E9E9" d="M520.98,2753.258h-70.926v23.605
			h-88.228v12.814h-67.319h-0.673h-67.319v-12.814h-87.971v-23.605l-72.4-0.031c0,0-3.418,436.763,3.35,497.523
			c1.761,15.811,38.597,59.522,97.453,70.268c0,0,68.681,8.248,126.059,8.248h1.368c57.378,0,127.23-8.156,127.23-8.156
			c68.603-16.107,90.083-57.124,93.827-66.554C520.585,3241.576,520.98,2753.258,520.98,2753.258z"/>
		
			<path id="inaccessible_00000142879744348251500110000003146844197817624466_" fill="#E9E9E9" stroke="#E9E9E9" stroke-width="1.057" stroke-linecap="round" stroke-linejoin="round" stroke-miterlimit="10" d="
			M488.89,479.971C443.139,311.89,372.185,186.325,372.185,186.325C322.891,94.296,297.927,86.262,293.809,86.12
			c-0.351-0.079-27.413,3.075-80.118,98.699c0,0-71.331,125.189-117.082,293.27c0,0-25.855,88.442-29.741,245.458l454.023-1.129
			C516.797,564.18,488.89,479.971,488.89,479.971z"/>
		
			<path id="inaccessible_00000152254297631930554600000002573023666430176897_" fill="#E9E9E9" stroke="#E9E9E9" stroke-width="1.057" stroke-linecap="round" stroke-linejoin="round" stroke-miterlimit="10" d="
			M141.032,722.794l-0.699,844.422H65.58c0,0,0.158-810.163,0.535-844.798L141.032,722.794z"/>
		
			<path id="inaccessible_00000146458788367180545820000000542774153458798257_" fill="#E9E9E9" stroke="#E9E9E9" stroke-width="1.057" stroke-linecap="round" stroke-linejoin="round" stroke-miterlimit="10" d="
			M520.676,722.362l0.008,1125.512H448.42c0,0,0.153-1079.297,0.517-1125.438L520.676,722.362z"/>
		<polygon fill="#E9E9E9" points="155.96,1719.381 155.96,1770.91 209.94,1770.91 209.94,1813.77 140.6,1813.77 140.6,1799.97 
			64.73,1799.97 65.17,1552.53 135.85,1553.88 209.94,1629.27 209.94,1719.381 		"/>
		<rect x="155.96" y="1719.381" fill="#E9E9E9" width="8.369" height="24.787"/>
		<polygon id="inaccessible_00000132781899627060953840000015349448835779288982_" fill="#E9E9E9" points="379.932,1770.915 
			379.932,1813.77 448.228,1813.77 448.228,1915.05 324.205,1915.05 324.205,1770.915 		"/>
		<polygon id="inaccessible_00000044174600983560897370000002715944747024931456_" fill="#E9E9E9" points="521.772,2283.613 
			463.506,2283.613 463.506,2256.15 446.163,2256.15 446.163,2225.635 521.391,2225.635 		"/>
		<polygon id="inaccessible_00000114034086432915900910000011799731597681174205_" fill="#E9E9E9" points="166.498,2098.491 
			166.498,2079.674 65.78,2011.525 65.78,2284.122 123.051,2284.122 123.051,2255.133 157.852,2255.133 156.835,2099 		"/>
		
			<rect id="inaccessible_00000063632054033879363440000004760709042048315319_" x="139.277" y="1047.125" fill="#E9E9E9" width="70.544" height="199.555"/>
		
			<rect id="inaccessible_00000107582432656578621380000002625768510193005989_" x="282.672" y="1342.526" fill="#E9E9E9" width="27.541" height="48.887"/>
		
			<rect id="inaccessible_00000045606366226417602660000008829101079202534831_" x="500.492" y="2324.686" transform="matrix(6.123234e-17 -1 1 6.123234e-17 -1822.3185 2846.0305)" fill="#E9E9E9" width="22.729" height="18.976"/>
		
			<rect id="inaccessible_00000181775079574379787070000002570850645820958906_" x="379.101" y="1047.125" fill="#E9E9E9" width="70.544" height="199.555"/>
		
			<rect id="inaccessible_00000156569291190239692050000005507351314165968315_" x="139.265" y="2095.359" fill="#E9E9E9" width="70.557" height="271.224"/>
		
			<rect id="inaccessible_00000125572453119023942240000005059561347459100041_" x="377.428" y="2095.359" fill="#E9E9E9" width="70.557" height="270.829"/>
		
			<rect id="inaccessible_00000178895867001100254070000008204683549954311611_" x="139.265" y="1340.68" fill="#E9E9E9" width="70.557" height="55.001"/>
		
			<rect id="inaccessible_00000037681841177600708910000005629337121774120592_" x="377.781" y="1340.68" fill="#E9E9E9" width="70.557" height="491.678"/>
		
			<rect id="inaccessible_00000054987799296058678630000000903786527196514435_" x="324.205" y="1719.381" fill="#E9E9E9" width="54.074" height="51.534"/>
		
			<polygon id="inaccessible_00000023960484641767104930000001390724594818707610_" fill="#E9E9E9" stroke="#E9E9E9" stroke-width="1.057" stroke-linecap="round" stroke-linejoin="round" stroke-miterlimit="10" points="
			377.254,1021.942 376.587,996.57 447.927,955.758 448.5,1006.423 390.05,1006.724 390.05,1021.97 		"/>
		
			<polygon id="inaccessible" fill="#E9E9E9" stroke="#E9E9E9" stroke-width="1.057" stroke-linecap="round" stroke-linejoin="round" stroke-miterlimit="10" points="
			211.606,1021.942 211.801,995.421 140.672,953.95 140.36,998.423 162.149,998.423 162.149,1006.724 198.809,1006.724 
			198.809,1021.97 		"/>
		<path id="inaccessible_00000127756455870546225690000015387167898588639128_" fill="#E9E9E9" d="M258.277,979.17v-27.685h72.399
			v27.12c0,0-9.691-7.906-35.667-7.906C272.797,970.7,258.277,979.17,258.277,979.17z"/>
		
			<rect id="inaccessible_00000129190836403264165560000007227736215243576726_" x="109.283" y="2247.863" fill="#E9E9E9" width="41.048" height="73.721"/>
		
			<rect id="inaccessible_00000162331446322165698660000005652628688460640702_" x="441.026" y="2247.863" fill="#E9E9E9" width="41.048" height="73.721"/>
		<circle fill="#E9E9E9" cx="285.111" cy="1638.427" r="50.492"/>
	</g>
	<g id="escalator_up_00000037656717677770070630000007456822293012595348_">
		
			<path fill="none" stroke="#DEDEDE" stroke-width="1.0575" stroke-linecap="round" stroke-linejoin="round" stroke-miterlimit="10" d="
			M308.231,1064.533h1.247c1.038,0,1.88,0.842,1.88,1.88v37.232c0,1.038-0.842,1.88-1.88,1.88h-29.975
			c-1.038,0-1.88-0.842-1.88-1.88v-37.232c0-1.038,0.842-1.88,1.88-1.88h1.479"/>
		
			<line fill="none" stroke="#DEDEDE" stroke-width="1.0575" stroke-linecap="round" stroke-linejoin="round" stroke-miterlimit="10" x1="293.686" y1="1064.533" x2="295.525" y2="1064.533"/>
		
			<line fill="none" stroke="#DEDEDE" stroke-width="1.0575" stroke-linecap="round" stroke-miterlimit="10" x1="280.981" y1="1057.933" x2="280.981" y2="1105.526"/>
		
			<line fill="none" stroke="#DEDEDE" stroke-width="1.0575" stroke-linecap="round" stroke-miterlimit="10" x1="293.686" y1="1057.933" x2="293.686" y2="1105.526"/>
		
			<line fill="none" stroke="#DEDEDE" stroke-width="1.0575" stroke-linecap="round" stroke-miterlimit="10" x1="280.981" y1="1079.066" x2="293.686" y2="1079.066"/>
		
			<line fill="none" stroke="#DEDEDE" stroke-width="1.0575" stroke-linecap="round" stroke-miterlimit="10" x1="280.981" y1="1083.695" x2="293.686" y2="1083.695"/>
		
			<line fill="none" stroke="#DEDEDE" stroke-width="1.0575" stroke-linecap="round" stroke-miterlimit="10" x1="280.981" y1="1088.323" x2="293.686" y2="1088.323"/>
		
			<line fill="none" stroke="#DEDEDE" stroke-width="1.0575" stroke-linecap="round" stroke-miterlimit="10" x1="280.981" y1="1092.952" x2="293.686" y2="1092.952"/>
		
			<line fill="none" stroke="#DEDEDE" stroke-width="1.0575" stroke-linecap="round" stroke-miterlimit="10" x1="280.981" y1="1097.58" x2="293.686" y2="1097.58"/>
		
			<line fill="none" stroke="#DEDEDE" stroke-width="1.0575" stroke-linecap="round" stroke-miterlimit="10" x1="280.981" y1="1102.209" x2="293.686" y2="1102.209"/>
		
			<line fill="none" stroke="#DEDEDE" stroke-width="1.0575" stroke-linecap="round" stroke-miterlimit="10" x1="295.525" y1="1057.933" x2="295.525" y2="1105.526"/>
		
			<line fill="none" stroke="#DEDEDE" stroke-width="1.0575" stroke-linecap="round" stroke-miterlimit="10" x1="308.231" y1="1057.933" x2="308.231" y2="1105.526"/>
		
			<line fill="none" stroke="#DEDEDE" stroke-width="1.0575" stroke-linecap="round" stroke-miterlimit="10" x1="295.525" y1="1079.066" x2="308.231" y2="1079.066"/>
		
			<line fill="none" stroke="#DEDEDE" stroke-width="1.0575" stroke-linecap="round" stroke-miterlimit="10" x1="295.525" y1="1083.695" x2="308.231" y2="1083.695"/>
		
			<line fill="none" stroke="#DEDEDE" stroke-width="1.0575" stroke-linecap="round" stroke-miterlimit="10" x1="280.981" y1="1074.437" x2="293.686" y2="1074.437"/>
		
			<line fill="none" stroke="#DEDEDE" stroke-width="1.0575" stroke-linecap="round" stroke-miterlimit="10" x1="295.525" y1="1074.437" x2="308.231" y2="1074.437"/>
		
			<line fill="none" stroke="#DEDEDE" stroke-width="1.0575" stroke-linecap="round" stroke-miterlimit="10" x1="280.981" y1="1069.807" x2="293.686" y2="1069.807"/>
		
			<line fill="none" stroke="#DEDEDE" stroke-width="1.0575" stroke-linecap="round" stroke-miterlimit="10" x1="295.525" y1="1069.807" x2="308.231" y2="1069.807"/>
		
			<line fill="none" stroke="#DEDEDE" stroke-width="1.0575" stroke-linecap="round" stroke-miterlimit="10" x1="295.525" y1="1088.323" x2="308.231" y2="1088.323"/>
		
			<line fill="none" stroke="#DEDEDE" stroke-width="1.0575" stroke-linecap="round" stroke-miterlimit="10" x1="295.525" y1="1092.952" x2="308.231" y2="1092.952"/>
		
			<line fill="none" stroke="#DEDEDE" stroke-width="1.0575" stroke-linecap="round" stroke-miterlimit="10" x1="295.525" y1="1097.58" x2="308.231" y2="1097.58"/>
		
			<line fill="none" stroke="#DEDEDE" stroke-width="1.0575" stroke-linecap="round" stroke-miterlimit="10" x1="295.525" y1="1102.209" x2="308.231" y2="1102.209"/>
	</g>
	<g id="elevator_00000181794613959236981520000017897219325109148092_">
		<g id="elevator-icon_00000007422448675541881070000009336832488542090118_">
			<polygon fill="#FFFFFF" points="233.621,2329.992 227.118,2329.992 227.118,2335.483 234.447,2335.483 234.447,2337.158 
				224.95,2337.158 224.95,2321.988 234.034,2321.988 234.034,2323.663 227.118,2323.663 227.118,2328.503 233.621,2328.503 
				233.621,2329.992 			"/>
			<polygon fill="#FFFFFF" points="233.621,2357.379 227.118,2357.379 227.118,2352.632 234.034,2352.632 234.034,2350.957 
				224.95,2350.957 224.95,2366.127 234.447,2366.127 234.447,2364.452 227.118,2364.452 227.118,2358.961 233.621,2358.961 
				233.621,2357.379 			"/>
			<polygon fill="#FFFFFF" points="233.621,2386.162 227.118,2386.162 227.118,2381.415 234.034,2381.415 234.034,2379.74 
				224.95,2379.74 224.95,2394.91 234.447,2394.91 234.447,2393.235 227.118,2393.235 227.118,2387.744 233.621,2387.744 
				233.621,2386.162 			"/>
			<polygon fill="#FFFFFF" points="233.621,2272.807 227.118,2272.807 227.118,2278.298 234.447,2278.298 234.447,2279.974 
				224.95,2279.974 224.95,2264.803 234.034,2264.803 234.034,2266.479 227.118,2266.479 227.118,2271.318 233.621,2271.318 
				233.621,2272.807 			"/>
			<polygon fill="#FFFFFF" points="233.621,2299.197 227.118,2299.197 227.118,2294.451 234.034,2294.451 234.034,2292.775 
				224.95,2292.775 224.95,2307.946 234.447,2307.946 234.447,2306.27 227.118,2306.27 227.118,2300.779 233.621,2300.779 
				233.621,2299.197 			"/>
			<polygon fill="#FFFFFF" points="363.794,2328.503 357.29,2328.503 357.29,2323.663 364.207,2323.663 364.207,2321.988 
				355.122,2321.988 355.122,2337.158 364.62,2337.158 364.62,2335.483 357.29,2335.483 357.29,2329.992 363.794,2329.992 
				363.794,2328.503 			"/>
			<polygon fill="#FFFFFF" points="363.794,2357.379 357.29,2357.379 357.29,2352.632 364.207,2352.632 364.207,2350.957 
				355.122,2350.957 355.122,2366.127 364.62,2366.127 364.62,2364.452 357.29,2364.452 357.29,2358.961 363.794,2358.961 
				363.794,2357.379 			"/>
			<polygon fill="#FFFFFF" points="363.794,2386.162 357.29,2386.162 357.29,2381.415 364.207,2381.415 364.207,2379.74 
				355.122,2379.74 355.122,2394.91 364.62,2394.91 364.62,2393.235 357.29,2393.235 357.29,2387.744 363.794,2387.744 
				363.794,2386.162 			"/>
			<polygon fill="#FFFFFF" points="363.794,2271.318 357.29,2271.318 357.29,2266.479 364.207,2266.479 364.207,2264.803 
				355.122,2264.803 355.122,2279.974 364.62,2279.974 364.62,2278.298 357.29,2278.298 357.29,2272.807 363.794,2272.807 
				363.794,2271.318 			"/>
			<polygon fill="#FFFFFF" points="363.794,2299.197 357.29,2299.197 357.29,2294.451 364.207,2294.451 364.207,2292.775 
				355.122,2292.775 355.122,2307.946 364.62,2307.946 364.62,2306.27 357.29,2306.27 357.29,2300.779 363.794,2300.779 
				363.794,2299.197 			"/>
			<polygon fill="#FFFFFF" points="271.757,2456.938 265.254,2456.938 265.254,2452.191 272.17,2452.191 272.17,2450.516 
				263.086,2450.516 263.086,2465.686 272.583,2465.686 272.583,2464.011 265.253,2464.011 265.253,2458.52 271.757,2458.52 
				271.757,2456.938 			"/>
			<polygon fill="#FFFFFF" points="298.81,2456.938 292.306,2456.938 292.306,2452.191 299.223,2452.191 299.223,2450.516 
				290.139,2450.516 290.139,2465.686 299.636,2465.686 299.636,2464.011 292.306,2464.011 292.306,2458.52 298.81,2458.52 
				298.81,2456.938 			"/>
			<polygon fill="#FFFFFF" points="326.526,2456.938 320.022,2456.938 320.022,2452.191 326.939,2452.191 326.939,2450.516 
				317.854,2450.516 317.854,2465.686 327.351,2465.686 327.351,2464.011 320.022,2464.011 320.022,2458.52 326.526,2458.52 
				326.526,2456.938 			"/>
		</g>
	</g>
	<g id="escalator_down_00000001626907018402219500000006274195031588543662_">
		
			<line fill="none" stroke="#DFDFDF" stroke-width="1.0575" stroke-linecap="round" stroke-miterlimit="10" x1="266.651" y1="2209.091" x2="251.793" y2="2126.783"/>
		
			<line fill="none" stroke="#DFDFDF" stroke-width="1.0575" stroke-linecap="round" stroke-miterlimit="10" x1="253.142" y1="2214.186" x2="237.87" y2="2129.592"/>
		
			<line fill="none" stroke="#DFDFDF" stroke-width="1.0575" stroke-linecap="round" stroke-miterlimit="10" x1="266.485" y1="2208.057" x2="252.51" y2="2210.579"/>
		
			<line fill="none" stroke="#DFDFDF" stroke-width="1.0575" stroke-linecap="round" stroke-miterlimit="10" x1="265.641" y1="2203.381" x2="251.666" y2="2205.904"/>
		
			<line fill="none" stroke="#DFDFDF" stroke-width="1.0575" stroke-linecap="round" stroke-miterlimit="10" x1="264.797" y1="2198.706" x2="250.822" y2="2201.228"/>
		
			<line fill="none" stroke="#DFDFDF" stroke-width="1.0575" stroke-linecap="round" stroke-miterlimit="10" x1="263.953" y1="2194.03" x2="249.978" y2="2196.552"/>
		
			<line fill="none" stroke="#DFDFDF" stroke-width="1.0575" stroke-linecap="round" stroke-miterlimit="10" x1="263.109" y1="2189.354" x2="249.134" y2="2191.877"/>
		
			<line fill="none" stroke="#DFDFDF" stroke-width="1.0575" stroke-linecap="round" stroke-miterlimit="10" x1="262.265" y1="2184.679" x2="248.29" y2="2187.201"/>
		
			<line fill="none" stroke="#DFDFDF" stroke-width="1.0575" stroke-linecap="round" stroke-miterlimit="10" x1="261.421" y1="2180.003" x2="247.446" y2="2182.525"/>
		
			<line fill="none" stroke="#DFDFDF" stroke-width="1.0575" stroke-linecap="round" stroke-miterlimit="10" x1="260.577" y1="2175.327" x2="246.602" y2="2177.85"/>
		
			<line fill="none" stroke="#DFDFDF" stroke-width="1.0575" stroke-linecap="round" stroke-miterlimit="10" x1="259.733" y1="2170.652" x2="245.758" y2="2173.174"/>
		
			<line fill="none" stroke="#DFDFDF" stroke-width="1.0575" stroke-linecap="round" stroke-miterlimit="10" x1="258.889" y1="2165.976" x2="244.914" y2="2168.498"/>
		
			<line fill="none" stroke="#DFDFDF" stroke-width="1.0575" stroke-linecap="round" stroke-miterlimit="10" x1="258.045" y1="2161.3" x2="244.07" y2="2163.823"/>
		
			<line fill="none" stroke="#DFDFDF" stroke-width="1.0575" stroke-linecap="round" stroke-miterlimit="10" x1="257.201" y1="2156.625" x2="243.227" y2="2159.147"/>
		
			<line fill="none" stroke="#DFDFDF" stroke-width="1.0575" stroke-linecap="round" stroke-miterlimit="10" x1="256.357" y1="2151.949" x2="242.383" y2="2154.471"/>
		
			<line fill="none" stroke="#DFDFDF" stroke-width="1.0575" stroke-linecap="round" stroke-miterlimit="10" x1="255.513" y1="2147.273" x2="241.539" y2="2149.796"/>
		
			<line fill="none" stroke="#DFDFDF" stroke-width="1.0575" stroke-linecap="round" stroke-miterlimit="10" x1="254.669" y1="2142.598" x2="240.695" y2="2145.12"/>
		
			<line fill="none" stroke="#DFDFDF" stroke-width="1.0575" stroke-linecap="round" stroke-miterlimit="10" x1="253.825" y1="2137.922" x2="239.851" y2="2140.444"/>
		
			<line fill="none" stroke="#DFDFDF" stroke-width="1.0575" stroke-linecap="round" stroke-miterlimit="10" x1="221.357" y1="2212.951" x2="222.935" y2="2129.328"/>
		
			<line fill="none" stroke="#DFDFDF" stroke-width="1.0575" stroke-linecap="round" stroke-miterlimit="10" x1="235.505" y1="2215.832" x2="237.128" y2="2129.886"/>
		
			<line fill="none" stroke="#DFDFDF" stroke-width="1.0575" stroke-linecap="round" stroke-miterlimit="10" x1="221.357" y1="2211.904" x2="235.555" y2="2212.171"/>
		
			<line fill="none" stroke="#DFDFDF" stroke-width="1.0575" stroke-linecap="round" stroke-miterlimit="10" x1="221.447" y1="2207.153" x2="235.644" y2="2207.421"/>
		
			<line fill="none" stroke="#DFDFDF" stroke-width="1.0575" stroke-linecap="round" stroke-miterlimit="10" x1="221.536" y1="2202.403" x2="235.734" y2="2202.67"/>
		
			<line fill="none" stroke="#DFDFDF" stroke-width="1.0575" stroke-linecap="round" stroke-miterlimit="10" x1="221.626" y1="2197.653" x2="235.824" y2="2197.92"/>
		
			<line fill="none" stroke="#DFDFDF" stroke-width="1.0575" stroke-linecap="round" stroke-miterlimit="10" x1="221.715" y1="2192.902" x2="235.913" y2="2193.17"/>
		
			<line fill="none" stroke="#DFDFDF" stroke-width="1.0575" stroke-linecap="round" stroke-miterlimit="10" x1="221.805" y1="2188.152" x2="236.003" y2="2188.419"/>
		
			<line fill="none" stroke="#DFDFDF" stroke-width="1.0575" stroke-linecap="round" stroke-miterlimit="10" x1="221.895" y1="2183.401" x2="236.092" y2="2183.669"/>
		
			<line fill="none" stroke="#DFDFDF" stroke-width="1.0575" stroke-linecap="round" stroke-miterlimit="10" x1="221.984" y1="2178.651" x2="236.182" y2="2178.919"/>
		
			<line fill="none" stroke="#DFDFDF" stroke-width="1.0575" stroke-linecap="round" stroke-miterlimit="10" x1="222.074" y1="2173.901" x2="236.271" y2="2174.168"/>
		
			<line fill="none" stroke="#DFDFDF" stroke-width="1.0575" stroke-linecap="round" stroke-miterlimit="10" x1="222.163" y1="2169.15" x2="236.361" y2="2169.418"/>
		
			<line fill="none" stroke="#DFDFDF" stroke-width="1.0575" stroke-linecap="round" stroke-miterlimit="10" x1="222.253" y1="2164.4" x2="236.45" y2="2164.667"/>
		
			<line fill="none" stroke="#DFDFDF" stroke-width="1.0575" stroke-linecap="round" stroke-miterlimit="10" x1="222.342" y1="2159.649" x2="236.54" y2="2159.917"/>
		
			<line fill="none" stroke="#DFDFDF" stroke-width="1.0575" stroke-linecap="round" stroke-miterlimit="10" x1="222.432" y1="2154.899" x2="236.63" y2="2155.167"/>
		
			<line fill="none" stroke="#DFDFDF" stroke-width="1.0575" stroke-linecap="round" stroke-miterlimit="10" x1="222.521" y1="2150.149" x2="236.719" y2="2150.416"/>
		
			<line fill="none" stroke="#DFDFDF" stroke-width="1.0575" stroke-linecap="round" stroke-miterlimit="10" x1="222.611" y1="2145.398" x2="236.809" y2="2145.666"/>
		
			<line fill="none" stroke="#DFDFDF" stroke-width="1.0575" stroke-linecap="round" stroke-miterlimit="10" x1="222.701" y1="2140.648" x2="236.898" y2="2140.916"/>
		
			<path fill="none" stroke="#DFDFDF" stroke-width="1.0575" stroke-linecap="round" stroke-linejoin="round" stroke-miterlimit="10" d="
			M253.142,2214.186l4.15,0.204c6.463,0.317,11.54-5.463,10.391-11.832l-12.868-71.286l-2.132,0.43"/>
		
			<path fill="none" stroke="#DFDFDF" stroke-width="1.0575" stroke-linecap="round" stroke-linejoin="round" stroke-miterlimit="10" d="
			M251.775,2214.022"/>
		
			<path fill="none" stroke="#DFDFDF" stroke-width="1.0575" stroke-linecap="round" stroke-linejoin="round" stroke-miterlimit="10" d="
			M222.853,2134.361l-2.329-0.092l-1.365,72.426c-0.122,6.47,5.81,11.37,12.14,10.029l4.206-0.891"/>
	</g>
	<g id="escalator_down_00000144296601978879900770000003837043372234635417_">
		
			<line fill="none" stroke="#DFDFDF" stroke-width="1.0575" stroke-linecap="round" stroke-miterlimit="10" x1="323.87" y1="2209.091" x2="338.729" y2="2126.783"/>
		
			<line fill="none" stroke="#DFDFDF" stroke-width="1.0575" stroke-linecap="round" stroke-miterlimit="10" x1="337.38" y1="2214.186" x2="352.652" y2="2129.592"/>
		
			<line fill="none" stroke="#DFDFDF" stroke-width="1.0575" stroke-linecap="round" stroke-miterlimit="10" x1="324.037" y1="2208.057" x2="338.011" y2="2210.579"/>
		
			<line fill="none" stroke="#DFDFDF" stroke-width="1.0575" stroke-linecap="round" stroke-miterlimit="10" x1="324.881" y1="2203.381" x2="338.855" y2="2205.904"/>
		


			<line fill="none" stroke="#DFDFDF" stroke-width="1.0575" stroke-linecap="round" stroke-miterlimit="10" x1="325.725" y1="2198.706" x2="339.699" y2="2201.228"/>
		
			<line fill="none" stroke="#DFDFDF" stroke-width="1.0575" stroke-linecap="round" stroke-miterlimit="10" x1="326.569" y1="2194.03" x2="340.543" y2="2196.552"/>
		
			<line fill="none" stroke="#DFDFDF" stroke-width="1.0575" stroke-linecap="round" stroke-miterlimit="10" x1="327.413" y1="2189.354" x2="341.387" y2="2191.877"/>
		
			<line fill="none" stroke="#DFDFDF" stroke-width="1.0575" stroke-linecap="round" stroke-miterlimit="10" x1="328.257" y1="2184.679" x2="342.231" y2="2187.201"/>
		
			<line fill="none" stroke="#DFDFDF" stroke-width="1.0575" stroke-linecap="round" stroke-miterlimit="10" x1="329.101" y1="2180.003" x2="343.075" y2="2182.525"/>
		
			<line fill="none" stroke="#DFDFDF" stroke-width="1.0575" stroke-linecap="round" stroke-miterlimit="10" x1="329.945" y1="2175.327" x2="343.919" y2="2177.85"/>
		
			<line fill="none" stroke="#DFDFDF" stroke-width="1.0575" stroke-linecap="round" stroke-miterlimit="10" x1="330.789" y1="2170.652" x2="344.763" y2="2173.174"/>
		
			<line fill="none" stroke="#DFDFDF" stroke-width="1.0575" stroke-linecap="round" stroke-miterlimit="10" x1="331.633" y1="2165.976" x2="345.607" y2="2168.498"/>
		
			<line fill="none" stroke="#DFDFDF" stroke-width="1.0575" stroke-linecap="round" stroke-miterlimit="10" x1="332.477" y1="2161.3" x2="346.451" y2="2163.823"/>
		
			<line fill="none" stroke="#DFDFDF" stroke-width="1.0575" stroke-linecap="round" stroke-miterlimit="10" x1="333.321" y1="2156.625" x2="347.295" y2="2159.147"/>
		
			<line fill="none" stroke="#DFDFDF" stroke-width="1.0575" stroke-linecap="round" stroke-miterlimit="10" x1="334.165" y1="2151.949" x2="348.139" y2="2154.471"/>
		
			<line fill="none" stroke="#DFDFDF" stroke-width="1.0575" stroke-linecap="round" stroke-miterlimit="10" x1="335.009" y1="2147.273" x2="348.983" y2="2149.796"/>
		
			<line fill="none" stroke="#DFDFDF" stroke-width="1.0575" stroke-linecap="round" stroke-miterlimit="10" x1="335.853" y1="2142.598" x2="349.827" y2="2145.12"/>
		
			<line fill="none" stroke="#DFDFDF" stroke-width="1.0575" stroke-linecap="round" stroke-miterlimit="10" x1="336.697" y1="2137.922" x2="350.671" y2="2140.444"/>
		
			<line fill="none" stroke="#DFDFDF" stroke-width="1.0575" stroke-linecap="round" stroke-miterlimit="10" x1="369.165" y1="2212.951" x2="367.586" y2="2129.328"/>
		
			<line fill="none" stroke="#DFDFDF" stroke-width="1.0575" stroke-linecap="round" stroke-miterlimit="10" x1="355.016" y1="2215.832" x2="353.394" y2="2129.886"/>
		
			<line fill="none" stroke="#DFDFDF" stroke-width="1.0575" stroke-linecap="round" stroke-miterlimit="10" x1="369.164" y1="2211.904" x2="354.967" y2="2212.171"/>
		
			<line fill="none" stroke="#DFDFDF" stroke-width="1.0575" stroke-linecap="round" stroke-miterlimit="10" x1="369.075" y1="2207.153" x2="354.877" y2="2207.421"/>
		
			<line fill="none" stroke="#DFDFDF" stroke-width="1.0575" stroke-linecap="round" stroke-miterlimit="10" x1="368.985" y1="2202.403" x2="354.787" y2="2202.67"/>
		
			<line fill="none" stroke="#DFDFDF" stroke-width="1.0575" stroke-linecap="round" stroke-miterlimit="10" x1="368.896" y1="2197.653" x2="354.698" y2="2197.92"/>
		
			<line fill="none" stroke="#DFDFDF" stroke-width="1.0575" stroke-linecap="round" stroke-miterlimit="10" x1="368.806" y1="2192.902" x2="354.608" y2="2193.17"/>
		
			<line fill="none" stroke="#DFDFDF" stroke-width="1.0575" stroke-linecap="round" stroke-miterlimit="10" x1="368.716" y1="2188.152" x2="354.519" y2="2188.419"/>
		
			<line fill="none" stroke="#DFDFDF" stroke-width="1.0575" stroke-linecap="round" stroke-miterlimit="10" x1="368.627" y1="2183.401" x2="354.429" y2="2183.669"/>
		
			<line fill="none" stroke="#DFDFDF" stroke-width="1.0575" stroke-linecap="round" stroke-miterlimit="10" x1="368.537" y1="2178.651" x2="354.34" y2="2178.919"/>
		
			<line fill="none" stroke="#DFDFDF" stroke-width="1.0575" stroke-linecap="round" stroke-miterlimit="10" x1="368.448" y1="2173.901" x2="354.25" y2="2174.168"/>
		
			<line fill="none" stroke="#DFDFDF" stroke-width="1.0575" stroke-linecap="round" stroke-miterlimit="10" x1="368.358" y1="2169.15" x2="354.161" y2="2169.418"/>
		
			<line fill="none" stroke="#DFDFDF" stroke-width="1.0575" stroke-linecap="round" stroke-miterlimit="10" x1="368.269" y1="2164.4" x2="354.071" y2="2164.667"/>
		
			<line fill="none" stroke="#DFDFDF" stroke-width="1.0575" stroke-linecap="round" stroke-miterlimit="10" x1="368.179" y1="2159.649" x2="353.981" y2="2159.917"/>
		
			<line fill="none" stroke="#DFDFDF" stroke-width="1.0575" stroke-linecap="round" stroke-miterlimit="10" x1="368.09" y1="2154.899" x2="353.892" y2="2155.167"/>
		
			<line fill="none" stroke="#DFDFDF" stroke-width="1.0575" stroke-linecap="round" stroke-miterlimit="10" x1="368" y1="2150.149" x2="353.802" y2="2150.416"/>
		
			<line fill="none" stroke="#DFDFDF" stroke-width="1.0575" stroke-linecap="round" stroke-miterlimit="10" x1="367.91" y1="2145.398" x2="353.713" y2="2145.666"/>
		
			<line fill="none" stroke="#DFDFDF" stroke-width="1.0575" stroke-linecap="round" stroke-miterlimit="10" x1="367.821" y1="2140.648" x2="353.623" y2="2140.916"/>
		
			<path fill="none" stroke="#DFDFDF" stroke-width="1.0575" stroke-linecap="round" stroke-linejoin="round" stroke-miterlimit="10" d="
			M337.38,2214.186l-4.15,0.204c-6.463,0.317-11.54-5.463-10.391-11.832l12.868-71.286l2.132,0.43"/>
		
			<path fill="none" stroke="#DFDFDF" stroke-width="1.0575" stroke-linecap="round" stroke-linejoin="round" stroke-miterlimit="10" d="
			M338.746,2214.022"/>
		
			<path fill="none" stroke="#DFDFDF" stroke-width="1.0575" stroke-linecap="round" stroke-linejoin="round" stroke-miterlimit="10" d="
			M367.668,2134.361l2.329-0.092l1.365,72.426c0.122,6.47-5.81,11.37-12.14,10.029l-4.206-0.891"/>
	</g>
</g>
<g id="VenueBG">
	<path fill="none" stroke="#E9E9E9" stroke-miterlimit="10" d="M377.334,1355.744H337.43v10.97h-27.239l0.022,24.782l-27.538-0.102
		l0.052-24.679h-27.453v-10.517H210.01v39.484l-68.542,0.245l-0.115,163.136l44.066,44.801l19.603-18.673h15.871v29.928
		c0,0-7.255,32.195,4.535,53.961c0,0,9.978,18.138,19.047,24.486v25.816h79.973c0,0-4.909-14.306,1.193-22.188
		c3.27-4.224,19.952-6.348,30.754-26.033h20.94V1355.744z"/>
	
		<rect id="_x3C_Path_x3E_" x="209.796" y="1696.792" fill="none" stroke="#E9E9E9" stroke-miterlimit="10" width="34.636" height="22.588"/>
	
		<polygon fill="none" stroke="#DEDEDE" stroke-width="1.057" stroke-linecap="round" stroke-linejoin="round" stroke-miterlimit="10" points="
		139.035,2321.266 109.174,2321.266 109.423,2284.122 64.274,2284.122 64.274,2474.333 107.584,2474.333 107.584,2455.512 
		124.34,2438.983 138.519,2438.983 	"/>
	
		<polygon fill="none" stroke="#DEDEDE" stroke-width="1.057" stroke-linecap="round" stroke-linejoin="round" stroke-miterlimit="10" points="
		524.408,2474.333 524.419,2345.547 502.364,2345.547 502.364,2322.844 524.408,2322.932 524.408,2283.613 482.02,2283.613 
		482.02,2320.815 447.74,2321.097 447.74,2474.329 	"/>
	<path fill="none" stroke="#E9E9E9" stroke-miterlimit="10" d="M262.419,1803.494l-52.104-0.281v10.756l-69.667,0.007v-14.001
		H66.238v136.536h78.84c0,0-1.663-27.554,11.164-33.254c12.827-5.701,30.642-2.138,49.882-16.39s26.603-37.055,27.554-40.618
		s2.546-13.386,8.076-18.052c7.601-6.413,20.478-5.758,20.478-5.758L262.419,1803.494z"/>
	
		<polygon fill="none" stroke="#DEDEDE" stroke-width="1.057" stroke-linecap="round" stroke-linejoin="round" stroke-miterlimit="10" points="
		63.717,2474.333 63.717,2752.653 138.57,2752.653 138.57,2776.47 225.673,2776.47 225.673,2789.4 293.722,2789.4 294.402,2789.4 
		362.451,2789.4 362.451,2776.47 449.554,2776.47 449.554,2752.653 522.85,2752.653 522.961,2474.333 	"/>
	
		<polygon id="restroom-box_00000168097096959785678470000008345903089914495387_" fill="none" stroke="#E9E9E9" stroke-miterlimit="10" points="
		390.124,1046.825 448.554,1046.825 448.532,1006.267 390.083,1006.571 	"/>
	<polygon id="restroom-box" fill="none" stroke="#E9E9E9" stroke-miterlimit="10" points="198.768,1046.722 140.338,1046.722 
		140.36,998.423 162.148,998.423 162.148,1006.724 198.809,1006.724 	"/>
	<path fill="none" stroke="#E9E9E9" stroke-miterlimit="10" d="M141.704,724.62l-0.856,229.331l91.617,53.659
		c0,0,8.733-18.464,23.454-27.446c14.721-8.982,35.68-9.731,35.68-9.731h6.487c0,0,20.211-0.749,34.433,8.982
		s25.7,27.197,25.7,27.197l89.884-50.854v-232.09L141.704,724.62z"/>
	
		<path fill="none" stroke="#DEDEDE" stroke-width="1.057" stroke-linecap="round" stroke-linejoin="round" stroke-miterlimit="10" d="
		M290.161,2086.514l74.392-60.086l-23.219-41.633c-6.772-12.143-17.3-21.889-30.166-27.159c-6.309-2.584-13.702-4.366-22.095-4.366
		c-30.52,0-50.654,25.857-54.045,45.144c-1.287,7.321-0.925,15.099,0.019,21.934c1.604,11.607,7.3,22.258,15.93,30.183
		L290.161,2086.514z"/>
	<rect x="209.822" y="1056.528" fill="none" stroke="#E9E9E9" stroke-miterlimit="10" width="46.575" height="84.154"/>
	<rect x="209.822" y="1152.127" fill="none" stroke="#E9E9E9" stroke-miterlimit="10" width="34.231" height="28.188"/>
	<rect x="332.526" y="1056.528" fill="none" stroke="#E9E9E9" stroke-miterlimit="10" width="46.575" height="84.154"/>
	<path fill="none" stroke="#DEDEDE" stroke-width="1.057" stroke-linejoin="round" stroke-miterlimit="10" d="M377.953,2095.359
		v-75.46c0-28.021,22.715-50.735,50.735-50.735h0v-54.113"/>
	
		<rect x="243.817" y="2474.333" fill="none" stroke="#DEDEDE" stroke-width="1.057" stroke-linecap="round" stroke-linejoin="round" stroke-miterlimit="10" width="100.366" height="54.934"/>
	
		<rect x="209.797" y="2221.303" fill="none" stroke="#DEDEDE" stroke-width="1.057" stroke-linecap="round" stroke-linejoin="round" stroke-miterlimit="10" width="57.428" height="35.878"/>
	
		<rect x="320.225" y="2221.303" fill="none" stroke="#DEDEDE" stroke-width="1.057" stroke-linecap="round" stroke-linejoin="round" stroke-miterlimit="10" width="57.428" height="35.878"/>
	
		<rect id="_x3C_Path_x3E__00000057857770909814646940000008882610674298060929_" x="164.329" y="1719.381" fill="none" stroke="#E9E9E9" stroke-miterlimit="10" width="45.451" height="24.787"/>
</g>
<g id="venueLabels">
	<text transform="matrix(1 0 0 1 233.906 852.9853)"><tspan x="0" y="0" fill="#A1AFC0" font-family="'Avenir-Book'" font-size="14px">Walt Disney Theatre</tspan></text>
	<g>
		<path fill="#A1AFC0" d="M307.255,822.13c-0.036-0.379-0.329-0.674-0.769-0.7c-0.074,0.003-0.333,0.026-0.515,0.193
			c-0.1,0.085-0.905,0.605-2.052,0.838c-0.977,0.199-2.186,0.322-3.411,0.341c-0.287,0.005-0.548-0.008-0.79-0.032
			c0.466,2.278,0.525,4.503,0.173,6.442c0.046-0.001,0.088-0.01,0.136-0.009c0.312,0,0.604,0.02,0.876,0.054
			c1.152,0.141,1.966,0.57,2.863,1.463c0.246,0.247,0.219,0.608-0.065,0.806c-0.28,0.196-0.71,0.159-0.956-0.089
			c-0.845-0.848-1.423-1.081-2.678-1.096c-0.158-0.001-0.308,0.016-0.452,0.042c-0.412,1.405-1.051,2.544-1.902,3.339
			c0.938,1.25,2.068,1.966,3.295,2.036c0.107,0.006,0.214,0.005,0.32,0c0.184-0.008,0.369-0.031,0.551-0.068
			c2.36-0.481,4.315-3.378,5.107-7.581l0.246-1.718c0.059-0.59,0.095-1.141,0.111-1.684C307.364,823.866,307.335,823,307.255,822.13
			z M303.669,827.522c-0.202,0.1-0.448,0.142-0.72,0.119c-0.872-0.065-1.544-0.712-1.712-1.652
			c-0.014-0.069,0.009-0.134,0.053-0.186c0.017-0.023,0.04-0.035,0.065-0.047c0.036-0.018,0.071-0.028,0.115-0.023l2.536,0.185
			c0.101,0.009,0.182,0.083,0.201,0.182C304.368,827.02,303.938,827.387,303.669,827.522z"/>
		<path fill="#A1AFC0" d="M298.272,821.273c-0.229-0.811-0.514-1.626-0.843-2.419c-0.116-0.293-0.42-0.477-0.755-0.462
			c-0.072,0.003-0.138,0.016-0.178,0.028c-0.194,0.049-0.36,0.182-0.454,0.358c-0.365,0.643-1.343,1.809-3.825,2.377
			c-1.211,0.277-2.439,0.456-3.461,0.501c-1.321,0.059-1.662-0.124-1.683-0.135c-0.229-0.123-0.418-0.1-0.616-0.045
			c-0.361,0.115-0.579,0.477-0.518,0.855c0.133,0.855,0.316,1.704,0.548,2.523c0.148,0.521,0.32,1.047,0.531,1.623l0.668,1.608
			c1.811,3.867,4.457,6.2,6.908,6.091c0.292-0.013,0.586-0.062,0.883-0.147c1.66-0.512,2.842-2.18,3.329-4.695
			C299.265,826.981,299.075,824.118,298.272,821.273z M294.572,823.547c0.218-0.272,0.571-0.402,1.003-0.367
			c0.81,0.068,1.432,0.661,1.607,1.522c0.016,0.026,0.023,0.059,0.025,0.09c0.005,0.112-0.085,0.212-0.2,0.217l-0.009,0.001
			c-0.008,0-0.018,0.001-0.027-0.002l-2.415-0.193c-0.094-0.01-0.172-0.08-0.187-0.174
			C294.273,824.065,294.425,823.73,294.572,823.547z M290.977,826.623c-0.027,0.002-0.054,0.001-0.08-0.009
			c-0.063-0.023-0.114-0.069-0.137-0.138c-0.307-0.904-0.036-1.795,0.696-2.275c0.228-0.152,0.462-0.234,0.689-0.245
			c0.299-0.013,0.853,0.099,1.159,0.982c0.033,0.097-0.003,0.2-0.086,0.257l-2.129,1.393
			C291.054,826.612,291.018,826.621,290.977,826.623z M295.014,830.424c-0.265,0.051-0.517,0.079-0.756,0.09
			c-1.002,0.045-1.76-0.261-2.657-1.025c-0.249-0.21-0.28-0.582-0.068-0.831c0.207-0.246,0.581-0.278,0.829-0.065
			c0.848,0.726,1.376,0.87,2.446,0.68c0.925-0.169,1.472-0.994,1.568-1.525c0.056-0.322,0.366-0.533,0.681-0.475
			c0.318,0.052,0.532,0.36,0.475,0.682C297.385,828.793,296.593,830.146,295.014,830.424z"/>
		<path fill="#A1AFC0" d="M303.513,817.453c0.201,0.015,0.258,0.152,0.122,0.3l-0.703,0.779c-0.135,0.151-0.208,0.43-0.157,0.627
			l0.247,1.016c0.048,0.196-0.063,0.288-0.249,0.207l-0.966-0.424c-0.184-0.083-0.476-0.061-0.648,0.042l-0.903,0.549
			c-0.173,0.108-0.294,0.029-0.275-0.168l0.108-1.041c0.022-0.199-0.088-0.468-0.243-0.599l-0.805-0.676
			c-0.152-0.133-0.117-0.272,0.081-0.314l1.033-0.221c0.197-0.042,0.421-0.227,0.498-0.414l0.401-0.966
			c0.078-0.186,0.223-0.197,0.326-0.02l0.531,0.905c0.101,0.168,0.35,0.326,0.551,0.338L303.513,817.453z"/>
		<path fill="#A1AFC0" d="M290.395,833.982c0.138,0.036,0.161,0.14,0.046,0.228l-0.598,0.461c-0.116,0.091-0.202,0.278-0.192,0.425
			l0.044,0.751c0.008,0.145-0.082,0.197-0.203,0.116l-0.631-0.426c-0.12-0.082-0.33-0.104-0.465-0.053l-0.709,0.273
			c-0.136,0.056-0.212-0.017-0.173-0.155l0.209-0.724c0.04-0.138-0.002-0.343-0.096-0.456l-0.483-0.583
			c-0.091-0.113-0.048-0.208,0.098-0.212l0.761-0.023c0.143-0.005,0.326-0.108,0.407-0.231l0.407-0.633
			c0.079-0.12,0.183-0.11,0.233,0.027l0.26,0.71c0.05,0.134,0.208,0.277,0.349,0.311L290.395,833.982z"/>
	</g>
	<text transform="matrix(1 0 0 1 144.0993 1041.8016)"><tspan x="0" y="0" fill="#A1AFC0" font-family="'Avenir-Book'" font-size="12px">Restroom</tspan></text>
	<text transform="matrix(1 0 0 1 393.7565 1041.8016)"><tspan x="0" y="0" fill="#A1AFC0" font-family="'Avenir-Book'" font-size="12px">Restroom</tspan></text>
	<g>
		<path id="restroom-icon3_00000179609482979182752390000004194782983697334670_" fill="#A1AFC0" d="M167.292,1014.323
			c0-1.181,0.945-2.362,2.362-2.362c1.181,0,2.362,0.945,2.362,2.362c0,1.181-0.945,2.362-2.362,2.362
			C168.354,1016.448,167.292,1015.504,167.292,1014.323z M169.889,1026.721c0,0,0,3.188,0,4.133c0,0.59,0.472,1.063,1.063,1.063
			s1.063-0.472,1.063-1.063c0-0.472,0-0.59,0-4.133c0,0,0.827,0,1.653,0c0.827,0,0.472-0.827,0.472-0.827l-2.362-6.14h0.59
			l1.417,3.779c0.118,0.472,0.708,0.827,1.063,0.59c0.472-0.118,0.708-0.708,0.59-1.063c-0.118-0.354-1.417-3.779-1.417-3.779
			s-0.472-2.125-2.48-2.125c-0.59,0-3.07,0-3.66,0c-1.771,0-2.48,2.125-2.48,2.125s-1.417,3.424-1.535,3.779
			c-0.118,0.472,0.118,0.945,0.59,1.063c0.472,0.118,0.945-0.118,1.063-0.59l1.417-3.779h0.59l-2.362,6.14
			c0,0-0.472,0.827,0.59,0.827s1.535,0,1.535,0c0,3.66,0,3.66,0,4.133c0,0.59,0.472,1.063,1.063,1.063s1.063-0.472,1.063-1.063
			c0-0.827,0-4.133,0-4.133H169.889z"/>
	</g>
	<g>
		<path id="restroom-icon6_00000183965442048304129830000010362034028262172845_" fill="#A1AFC0" d="M417.252,1014.177
			c0-1.299,1.063-2.244,2.243-2.244c1.299,0,2.243,1.063,2.243,2.244c0,1.299-1.063,2.244-2.243,2.244
			C418.197,1016.538,417.252,1015.476,417.252,1014.177z M417.016,1017.011c-1.653,0-2.952,0.827-2.952,2.48
			c0,0.827,0,4.251,0,4.841c0,0.59,0.472,0.945,0.945,0.945c0.59,0,0.945-0.472,0.945-0.945c0-0.59,0-4.133,0-4.133h0.472
			c0,0,0,9.328,0,10.391c0,0.708,0.59,1.299,1.299,1.299c0.708,0,1.299-0.59,1.299-1.299c0-1.063,0-5.314,0-5.314h0.59
			c0,0,0,4.133,0,5.314c0,0.708,0.59,1.299,1.299,1.299c0.708,0,1.299-0.59,1.299-1.299c0-1.063,0-10.391,0-10.391h0.472
			c0,0,0,3.424,0,4.133c0,0.59,0.472,0.945,0.945,0.945c0.59,0,0.945-0.472,0.945-0.945c0-0.59,0-4.015,0-4.841
			c0-1.653-1.299-2.48-2.952-2.48C421.149,1017.011,417.725,1017.011,417.016,1017.011z"/>
	</g>
	<text transform="matrix(1 0 0 1 68.9715 2396.0464)"><tspan x="0" y="0" fill="#A1AFC0" font-family="'Avenir-Book'" font-size="14px">Buccaneer</tspan><tspan x="22.316" y="16" fill="#A1AFC0" font-family="'Avenir-Book'" font-size="14px">Bar</tspan></text>
	<path fill="#A1AFC0" d="M109.554,2367.202c0.341-0.342,0.442-0.846,0.258-1.292c-0.186-0.441-0.614-0.728-1.092-0.728h-2.891
		l0.891-2.653c0.155-0.466-0.095-0.967-0.559-1.125c-0.469-0.156-0.967,0.095-1.123,0.559l-1.083,3.22h-9.363
		c-0.483,0-0.913,0.287-1.092,0.728c-0.186,0.446-0.086,0.952,0.255,1.291l6.984,6.984v5.313h-2.331
		c-0.514,0-0.931,0.416-0.931,0.93c0,0.512,0.417,0.929,0.931,0.929h6.495c0.514,0,0.93-0.417,0.93-0.929
		c0-0.514-0.416-0.93-0.93-0.93h-2.331v-5.313L109.554,2367.202z M108.719,2366.365l-1.848,1.845
		c-0.048-0.019-0.1-0.034-0.155-0.034h-1.895l0.609-1.812H108.719z M103.557,2366.365l-0.545,1.624
		c-0.02,0.062-0.017,0.125-0.023,0.188h-6.395c-0.055,0-0.106,0.015-0.156,0.034l-1.845-1.844L103.557,2366.365z M104.258,2370.243
		c0,0.544-0.442,0.985-0.989,0.985c-0.545,0-0.986-0.441-0.986-0.985c0-0.545,0.441-0.988,0.986-0.988
		C103.816,2369.255,104.258,2369.697,104.258,2370.243z"/>
	<text transform="matrix(1 0 0 1 242.4107 2631.866)"><tspan x="0" y="0" fill="#A1AFC0" font-family="'Avenir-Book'" font-size="14px">Navigator’s Club</tspan><tspan x="18.543" y="16" fill="#A1AFC0" font-family="'Avenir-Book'" font-size="14px">Restaurant</tspan></text>
	<text transform="matrix(1 0 0 1 185.9147 2492.48)"><tspan x="0" y="0" fill="#A1AFC0" font-family="'Avenir-Book'" font-size="14px">Minnie</tspan><tspan x="-6.216" y="16" fill="#A1AFC0" font-family="'Avenir-Book'" font-size="14px">Entrance</tspan></text>
	<text transform="matrix(1 0 0 1 358.7314 2492.48)"><tspan x="0" y="0" fill="#A1AFC0" font-family="'Avenir-Book'" font-size="14px">Mickey</tspan><tspan x="-5.558" y="16" fill="#A1AFC0" font-family="'Avenir-Book'" font-size="14px">Entrance</tspan></text>
	<g>
		<path fill="#A1AFC0" d="M299.284,2599.269c-0.157-0.061-0.333-0.102-0.563-0.102c-2.346,0-2.825,1.074-2.825,2.398v4.957
			c0,0.932,0.391,1.73,1.333,2.128v6.758c0,0.972,0.787,1.76,1.758,1.76c0.971,0,1.759-0.787,1.759-1.76v-14.411
			C300.747,2600.126,300.113,2599.409,299.284,2599.269z"/>
		<path fill="#A1AFC0" d="M293.937,2600.252c0-0.414-0.333-0.748-0.746-0.748c-0.355,0-0.654,0.251-0.729,0.584v3.838
			c0,0.309-0.251,0.561-0.558,0.561c-0.31,0-0.56-0.252-0.56-0.561v-3.69c-0.009-0.406-0.338-0.732-0.746-0.732
			c-0.381,0-0.696,0.284-0.74,0.651v3.771c0,0.309-0.251,0.561-0.559,0.561c-0.309,0-0.559-0.252-0.559-0.561v-3.757
			c-0.041-0.373-0.356-0.665-0.741-0.665c-0.413,0-0.746,0.335-0.746,0.748v3.677v1.224v0.639c0,0.778,0.673,1.286,1.59,1.549v8.066
			c0,0.972,0.787,1.76,1.759,1.76c0.971,0,1.759-0.787,1.759-1.76v-8.118c0.917-0.283,1.59-0.786,1.59-1.497v-1.863
			c0-0.061-0.006-0.121-0.014-0.179V2600.252z"/>
	</g>
	<text transform="matrix(1 0 0 1 205.3755 1099.047)"><tspan x="0" y="0" fill="#A1AFC0" font-family="'Avenir-Book'" font-size="14px">Premiere</tspan><tspan x="8.029" y="16" fill="#A1AFC0" font-family="'Avenir-Book'" font-size="14px">Sips &amp;</tspan><tspan x="6.587" y="32" fill="#A1AFC0" font-family="'Avenir-Book'" font-size="14px">Snacks</tspan></text>
	<text transform="matrix(1 0 0 1 328.0798 1099.047)"><tspan x="0" y="0" fill="#A1AFC0" font-family="'Avenir-Book'" font-size="14px">Premiere</tspan><tspan x="8.029" y="16" fill="#A1AFC0" font-family="'Avenir-Book'" font-size="14px">Sips &amp;</tspan><tspan x="6.587" y="32" fill="#A1AFC0" font-family="'Avenir-Book'" font-size="14px">Snacks</tspan></text>
	<text transform="matrix(1 0 0 1 212.9485 1481.9871)"><tspan x="0" y="0" fill="#A1AFC0" font-family="'Avenir-Book'" font-size="14px">Enchanted Summer</tspan><tspan x="28.154" y="16" fill="#A1AFC0" font-family="'Avenir-Book'" font-size="14px">Restaurant</tspan></text>
	<text transform="matrix(1 0 0 1 218.0095 1538.7498)" fill="#A1AFC0" font-family="'Avenir-Book'" font-size="14px">Olaf Dining Room</text>
	<g>
		<path fill="#A1AFC0" d="M279.433,1449.39c-0.157-0.061-0.333-0.102-0.563-0.102c-2.346,0-2.825,1.075-2.825,2.398v4.957
			c0,0.932,0.391,1.73,1.333,2.128v6.758c0,0.972,0.787,1.759,1.758,1.759c0.971,0,1.759-0.787,1.759-1.759v-14.411
			C280.896,1450.247,280.261,1449.53,279.433,1449.39z"/>
		<path fill="#A1AFC0" d="M274.086,1450.373c0-0.413-0.333-0.748-0.746-0.748c-0.355,0-0.654,0.251-0.729,0.584v3.838
			c0,0.309-0.251,0.561-0.558,0.561c-0.31,0-0.56-0.252-0.56-0.561v-3.69c-0.009-0.406-0.338-0.732-0.746-0.732
			c-0.381,0-0.696,0.284-0.74,0.651v3.771c0,0.309-0.251,0.561-0.559,0.561c-0.309,0-0.559-0.252-0.559-0.561v-3.757
			c-0.041-0.373-0.356-0.665-0.741-0.665c-0.413,0-0.746,0.335-0.746,0.748v3.677v1.224v0.639c0,0.778,0.673,1.286,1.59,1.548v8.066
			c0,0.972,0.787,1.759,1.759,1.759c0.971,0,1.759-0.787,1.759-1.759v-8.118c0.917-0.283,1.59-0.786,1.59-1.496v-1.863
			c0-0.061-0.006-0.121-0.014-0.179V1450.373z"/>
	</g>
	<text transform="matrix(1 0 0 1 426.4349 1996.73)"><tspan x="0" y="0" fill="#A1AFC0" font-family="'Avenir-Book'" font-size="14px">Enchanted</tspan><tspan x="7.399" y="16" fill="#A1AFC0" font-family="'Avenir-Book'" font-size="14px">Summer</tspan><tspan x="0.28" y="32" fill="#A1AFC0" font-family="'Avenir-Book'" font-size="14px">Restaurant</tspan></text>
	<text transform="matrix(1 0 0 1 432.0067 2061.853)"><tspan x="0" y="0" fill="#A1AFC0" font-family="'Avenir-Book'" font-size="14px">Maximus</tspan><tspan x="-13.215" y="16" fill="#A1AFC0" font-family="'Avenir-Book'" font-size="14px">Dining Room</tspan></text>
	<g>
		<path fill="#A1AFC0" d="M465.046,1964.133c-0.157-0.061-0.333-0.103-0.563-0.103c-2.346,0-2.825,1.075-2.825,2.398v4.957
			c0,0.932,0.391,1.73,1.333,2.128v6.758c0,0.972,0.787,1.759,1.758,1.759c0.971,0,1.759-0.787,1.759-1.759v-14.411
			C466.508,1964.99,465.874,1964.273,465.046,1964.133z"/>
		<path fill="#A1AFC0" d="M459.699,1965.116c0-0.413-0.333-0.748-0.746-0.748c-0.355,0-0.654,0.251-0.729,0.584v3.838
			c0,0.309-0.251,0.561-0.558,0.561c-0.31,0-0.56-0.252-0.56-0.561v-3.69c-0.009-0.406-0.338-0.732-0.746-0.732
			c-0.381,0-0.695,0.284-0.74,0.651v3.771c0,0.309-0.251,0.561-0.56,0.561c-0.309,0-0.559-0.252-0.559-0.561v-3.757
			c-0.041-0.373-0.356-0.665-0.741-0.665c-0.413,0-0.746,0.335-0.746,0.748v3.677v1.224v0.639c0,0.778,0.673,1.286,1.59,1.548v8.066
			c0,0.972,0.787,1.759,1.759,1.759c0.971,0,1.759-0.787,1.759-1.759v-8.118c0.917-0.283,1.59-0.786,1.59-1.496v-1.863
			c0-0.061-0.006-0.121-0.014-0.179V1965.116z"/>
	</g>
	<text transform="matrix(1 0 0 1 114.2712 1995.7808)"><tspan x="0" y="0" fill="#A1AFC0" font-family="'Avenir-Book'" font-size="14px">Guest</tspan><tspan x="-6.874" y="16" fill="#A1AFC0" font-family="'Avenir-Book'" font-size="14px">Services</tspan></text>
	<text transform="matrix(1 0 0 1 100.9617 1876.0115)" fill="#A1AFC0" font-family="'Avenir-Book'" font-size="14px">Spellbound</text>
	<path fill="#A1AFC0" d="M144.771,1847.167c0.341-0.341,0.442-0.846,0.258-1.292c-0.186-0.442-0.614-0.728-1.092-0.728h-2.891
		l0.891-2.653c0.155-0.466-0.095-0.967-0.559-1.125c-0.469-0.156-0.967,0.095-1.123,0.559l-1.083,3.22h-9.363
		c-0.483,0-0.913,0.287-1.092,0.728c-0.186,0.446-0.086,0.952,0.255,1.291l6.984,6.984v5.313h-2.331
		c-0.514,0-0.931,0.416-0.931,0.93c0,0.513,0.417,0.929,0.931,0.929h6.495c0.514,0,0.93-0.416,0.93-0.929
		c0-0.514-0.416-0.93-0.93-0.93h-2.331v-5.313L144.771,1847.167z M143.936,1846.329l-1.848,1.845
		c-0.048-0.019-0.1-0.034-0.155-0.034h-1.895l0.609-1.812H143.936z M138.774,1846.329l-0.545,1.623
		c-0.02,0.063-0.017,0.125-0.023,0.188h-6.395c-0.055,0-0.106,0.015-0.156,0.034l-1.845-1.844L138.774,1846.329z M139.475,1850.208
		c0,0.544-0.442,0.985-0.989,0.985c-0.545,0-0.986-0.441-0.986-0.985c0-0.545,0.441-0.988,0.986-0.988
		C139.033,1849.22,139.475,1849.662,139.475,1850.208z"/>
	<text transform="matrix(1 0 0 1 260.2836 2022.5734)" fill="#A1AFC0" font-family="'Avenir-Book'" font-size="14px">Royal Court</text>
	<text transform="matrix(1 0 0 1 206.9114 1932.0227)"><tspan x="0" y="0" fill="#A1AFC0" font-family="'Avenir-Book'" font-size="14px" letter-spacing="-1">Town Square</tspan></text>
	<path fill="#A1AFC0" d="M302.79,1993.729c0.341-0.341,0.442-0.846,0.258-1.292c-0.186-0.442-0.614-0.728-1.092-0.728h-2.891
		l0.891-2.653c0.155-0.466-0.095-0.967-0.559-1.125c-0.469-0.156-0.967,0.095-1.123,0.559l-1.083,3.22h-9.362
		c-0.483,0-0.913,0.287-1.092,0.728c-0.186,0.446-0.086,0.952,0.255,1.291l6.984,6.984v5.313h-2.331
		c-0.514,0-0.931,0.416-0.931,0.93c0,0.513,0.417,0.929,0.931,0.929h6.495c0.514,0,0.93-0.416,0.93-0.929
		c0-0.514-0.416-0.93-0.93-0.93h-2.331v-5.313L302.79,1993.729z M301.956,1992.891l-1.848,1.845c-0.048-0.019-0.1-0.034-0.155-0.034
		h-1.895l0.609-1.812H301.956z M296.794,1992.891l-0.545,1.623c-0.02,0.063-0.017,0.125-0.023,0.188h-6.395
		c-0.055,0-0.106,0.015-0.156,0.034l-1.845-1.844L296.794,1992.891z M297.495,1996.77c0,0.544-0.442,0.985-0.989,0.985
		c-0.545,0-0.986-0.441-0.986-0.985c0-0.545,0.441-0.988,0.986-0.988C297.053,1995.782,297.495,1996.224,297.495,1996.77z"/>
	<text transform="matrix(1 0 0 1 464.0511 2395.9219)"><tspan x="0" y="0" fill="#A1AFC0" font-family="'Avenir-Book'" font-size="14px">Marvel</tspan><tspan x="5.971" y="16" fill="#A1AFC0" font-family="'Avenir-Book'" font-size="14px">Style</tspan><tspan x="0.917" y="32" fill="#A1AFC0" font-family="'Avenir-Book'" font-size="14px">Studio</tspan></text>
	<text transform="matrix(1 0 0 1 156.1845 1756.4321)"><tspan x="0" y="0" fill="#A1AFC0" font-family="'Avenir-Book'" font-size="14px">Restroom</tspan></text>
	<g>
		<path fill="#A1AFC0" d="M307.705,2503.362c-3.457-0.213-6.12-3.083-6.12-6.499l0,0c0-0.133,0.005-0.269,0.014-0.404l0,0l0,0
			c0.16-2.592,1.809-4.711,4.02-5.632l0,0c0.027-0.01,0.055-0.007,0.077,0.007l0,0c0.023,0.014,0.037,0.038,0.039,0.067l0,0
			l0.098,1.549c0.002,0.035-0.016,0.064-0.044,0.079l0,0c-1.466,0.776-2.479,2.253-2.589,4.029l0,0
			c-0.006,0.103-0.009,0.204-0.009,0.304l0,0c0,2.577,2.006,4.738,4.611,4.898l0,0c0.109,0.005,0.218,0.008,0.326,0.008l0,0
			c2.197-0.001,3.975-1.378,4.767-3.568l0,0c0.011-0.033,0.042-0.055,0.078-0.055l0,0c0.035,0,0.065,0.021,0.078,0.053l0,0
			c0.08,0.216,0.26,0.668,0.421,1.064l0,0c0.161,0.397,0.3,0.741,0.3,0.741v0.002c0.011,0.021,0.01,0.049-0.003,0.072l0,0
			c-1.128,1.981-3.258,3.297-5.661,3.297l0,0C307.975,2503.373,307.84,2503.369,307.705,2503.362L307.705,2503.362z"/>
		<path fill="#A1AFC0" d="M312.718,2495.454l-4.206-0.001c-1.391,0.034-1.865-0.252-1.897-1.953
			c-0.166-2.402-0.435-6.355-0.525-7.912c-0.012-0.172-0.012-0.389,0.003-0.558c0.066-0.924,0.837-1.656,1.78-1.656
			c0.983,0,1.781,0.797,1.781,1.782c0,0.94-0.728,1.707-1.65,1.776l0.251,3.434l3.547-0.002c0.518,0,0.918,0.436,0.918,0.942
			c0,0.507-0.414,0.926-0.933,0.926l-3.423,0.009l0.091,1.333l4.108-0.001c0.989-0.013,1.082,0.061,1.33,0.271
			c0.125,0.107,0.208,0.247,0.293,0.436c0.085,0.187,0.173,0.423,0.308,0.713c0.194,0.492,1.814,4.477,1.814,4.477l0.947-0.393
			c0.138-0.077,0.3-0.124,0.469-0.124c0.518,0,0.939,0.411,0.939,0.918c0,0.389-0.213,0.74-0.565,0.874l-1.831,0.758
			c-0.902,0.31-1.274-0.304-1.47-0.8c-0.205-0.523-2.004-5.073-2.074-5.247L312.718,2495.454z"/>
	</g>
	<text transform="matrix(1 0 0 1 265.1317 2520.2271)"><tspan x="0" y="0" fill="#A1AFC0" font-family="'Avenir-Book'" font-size="14px">Restroom</tspan></text>
	<g>
		<path id="restroom-icon6_00000080923361439342895730000011460824913778795652_" fill="#A1AFC0" d="M279.138,2485.631
			c0-1.299,1.063-2.244,2.243-2.244c1.299,0,2.243,1.063,2.243,2.244c0,1.299-1.063,2.243-2.243,2.243
			C280.083,2487.992,279.138,2486.929,279.138,2485.631z M278.902,2488.465c-1.653,0-2.952,0.826-2.952,2.479
			c0,0.827,0,4.251,0,4.841c0,0.59,0.472,0.945,0.945,0.945c0.59,0,0.945-0.472,0.945-0.945c0-0.591,0-4.133,0-4.133h0.472
			c0,0,0,9.328,0,10.391c0,0.708,0.59,1.299,1.299,1.299s1.299-0.59,1.299-1.299c0-1.063,0-5.313,0-5.313h0.59c0,0,0,4.133,0,5.313
			c0,0.708,0.59,1.299,1.299,1.299c0.708,0,1.299-0.59,1.299-1.299c0-1.063,0-10.391,0-10.391h0.472c0,0,0,3.424,0,4.133
			c0,0.59,0.472,0.945,0.945,0.945c0.59,0,0.945-0.472,0.945-0.945c0-0.591,0-4.015,0-4.841c0-1.653-1.299-2.479-2.952-2.479
			C283.035,2488.465,279.611,2488.465,278.902,2488.465z"/>
		<path id="restroom-icon3_00000055673450643462845300000003636062080950778293_" fill="#A1AFC0" d="M291.773,2485.749
			c0-1.181,0.945-2.362,2.362-2.362c1.181,0,2.362,0.945,2.362,2.362c0,1.181-0.945,2.362-2.362,2.362
			C292.835,2487.874,291.773,2486.929,291.773,2485.749z M294.37,2498.147c0,0,0,3.188,0,4.133c0,0.59,0.472,1.063,1.063,1.063
			s1.063-0.472,1.063-1.063c0-0.472,0-0.591,0-4.133c0,0,0.827,0,1.653,0s0.472-0.827,0.472-0.827l-2.362-6.14h0.59l1.417,3.779
			c0.118,0.472,0.708,0.827,1.063,0.591c0.472-0.118,0.708-0.708,0.59-1.063c-0.118-0.354-1.417-3.779-1.417-3.779
			s-0.472-2.125-2.48-2.125c-0.59,0-3.07,0-3.66,0c-1.771,0-2.48,2.125-2.48,2.125s-1.417,3.424-1.535,3.779
			c-0.118,0.472,0.118,0.945,0.59,1.063c0.472,0.118,0.945-0.118,1.063-0.591l1.417-3.779h0.59l-2.362,6.14
			c0,0-0.472,0.827,0.59,0.827c1.063,0,1.535,0,1.535,0c0,3.66,0,3.66,0,4.133c0,0.59,0.472,1.063,1.063,1.063
			s1.063-0.472,1.063-1.063c0-0.827,0-4.133,0-4.133H294.37z"/>
	</g>
	<g>
		<path fill="#A1AFC0" d="M238.159,1176.293c-3.457-0.213-6.12-3.083-6.12-6.499l0,0c0-0.133,0.005-0.269,0.014-0.404l0,0l0,0
			c0.16-2.592,1.809-4.711,4.02-5.632l0,0c0.027-0.01,0.055-0.007,0.077,0.007l0,0c0.023,0.014,0.037,0.038,0.039,0.067l0,0
			l0.098,1.549c0.002,0.035-0.015,0.064-0.044,0.079l0,0c-1.466,0.776-2.479,2.254-2.589,4.029l0,0
			c-0.006,0.103-0.009,0.204-0.009,0.304l0,0c0,2.577,2.006,4.738,4.611,4.898l0,0c0.109,0.005,0.218,0.008,0.326,0.008l0,0
			c2.197-0.001,3.975-1.378,4.767-3.568l0,0c0.011-0.033,0.042-0.055,0.078-0.055l0,0c0.035,0,0.065,0.021,0.078,0.053l0,0
			c0.08,0.216,0.26,0.668,0.421,1.064l0,0c0.161,0.397,0.3,0.741,0.3,0.741v0.002c0.011,0.021,0.01,0.049-0.003,0.072l0,0
			c-1.128,1.981-3.258,3.297-5.661,3.297l0,0C238.429,1176.304,238.294,1176.3,238.159,1176.293L238.159,1176.293z"/>
		<path fill="#A1AFC0" d="M243.172,1168.385l-4.206-0.001c-1.391,0.034-1.865-0.252-1.897-1.953
			c-0.166-2.402-0.435-6.355-0.525-7.912c-0.012-0.172-0.012-0.389,0.003-0.558c0.066-0.924,0.837-1.656,1.78-1.656
			c0.983,0,1.781,0.797,1.781,1.782c0,0.94-0.728,1.707-1.65,1.776l0.251,3.434l3.547-0.002c0.518,0,0.918,0.436,0.918,0.942
			c0,0.507-0.414,0.926-0.933,0.926l-3.423,0.009l0.091,1.333l4.108-0.002c0.989-0.013,1.082,0.061,1.33,0.271
			c0.124,0.107,0.208,0.247,0.293,0.436c0.085,0.187,0.173,0.423,0.308,0.713c0.194,0.492,1.814,4.477,1.814,4.477l0.947-0.393
			c0.138-0.077,0.299-0.124,0.469-0.124c0.518,0,0.939,0.411,0.939,0.918c0,0.389-0.213,0.74-0.565,0.874l-1.831,0.758
			c-0.902,0.31-1.274-0.304-1.47-0.8c-0.205-0.523-2.004-5.073-2.074-5.247L243.172,1168.385z"/>
	</g>
	<text transform="matrix(1 0 0 1 250.6201 1170.9669)"><tspan x="0" y="0" fill="#A1AFC0" font-family="'Avenir-Book'" font-size="14px">Restroom</tspan></text>
	<g>
		<path id="restroom-icon6_00000034053551744210090530000009123564361835200949_" fill="#A1AFC0" d="M209.592,1158.561
			c0-1.299,1.063-2.244,2.243-2.244c1.299,0,2.243,1.063,2.243,2.244c0,1.299-1.063,2.244-2.243,2.244
			C210.537,1160.923,209.592,1159.86,209.592,1158.561z M209.356,1161.395c-1.653,0-2.952,0.827-2.952,2.48c0,0.827,0,4.251,0,4.841
			c0,0.59,0.472,0.945,0.945,0.945c0.59,0,0.945-0.472,0.945-0.945c0-0.59,0-4.133,0-4.133h0.472c0,0,0,9.328,0,10.391
			c0,0.708,0.59,1.299,1.299,1.299c0.708,0,1.299-0.59,1.299-1.299c0-1.063,0-5.314,0-5.314h0.59c0,0,0,4.133,0,5.314
			c0,0.708,0.59,1.299,1.299,1.299s1.299-0.59,1.299-1.299c0-1.063,0-10.391,0-10.391h0.472c0,0,0,3.424,0,4.133
			c0,0.59,0.472,0.945,0.945,0.945c0.59,0,0.945-0.472,0.945-0.945c0-0.59,0-4.015,0-4.841c0-1.653-1.299-2.48-2.952-2.48
			C213.489,1161.395,210.064,1161.395,209.356,1161.395z"/>
		<path id="restroom-icon3_00000149341318032295557040000000555678993889333659_" fill="#A1AFC0" d="M222.227,1158.68
			c0-1.181,0.945-2.362,2.362-2.362c1.181,0,2.362,0.945,2.362,2.362c0,1.181-0.945,2.362-2.362,2.362
			C223.289,1160.805,222.227,1159.86,222.227,1158.68z M224.824,1171.078c0,0,0,3.188,0,4.133c0,0.59,0.472,1.063,1.063,1.063
			s1.063-0.472,1.063-1.063c0-0.472,0-0.59,0-4.133c0,0,0.827,0,1.653,0c0.827,0,0.472-0.827,0.472-0.827l-2.362-6.14h0.59
			l1.417,3.779c0.118,0.472,0.708,0.827,1.063,0.59c0.472-0.118,0.708-0.708,0.59-1.063c-0.118-0.354-1.417-3.779-1.417-3.779
			s-0.472-2.125-2.48-2.125c-0.59,0-3.07,0-3.66,0c-1.771,0-2.48,2.125-2.48,2.125s-1.417,3.424-1.535,3.779
			c-0.118,0.472,0.118,0.945,0.59,1.063c0.472,0.118,0.945-0.118,1.063-0.59l1.417-3.779h0.59l-2.362,6.14
			c0,0-0.472,0.827,0.59,0.827s1.535,0,1.535,0c0,3.66,0,3.66,0,4.133c0,0.59,0.472,1.063,1.063,1.063s1.063-0.472,1.063-1.063
			c0-0.827,0-4.133,0-4.133H224.824z"/>
	</g>
	<g>
		<path fill="#A1AFC0" d="M237.512,1718.045c-3.457-0.213-6.12-3.083-6.12-6.499l0,0c0-0.133,0.005-0.269,0.014-0.404l0,0l0,0
			c0.16-2.592,1.809-4.711,4.02-5.632l0,0c0.027-0.01,0.055-0.007,0.077,0.007l0,0c0.023,0.014,0.037,0.038,0.039,0.067l0,0
			l0.098,1.549c0.002,0.035-0.016,0.064-0.044,0.079l0,0c-1.467,0.776-2.479,2.254-2.589,4.029l0,0
			c-0.006,0.103-0.009,0.204-0.009,0.304l0,0c0,2.577,2.006,4.738,4.611,4.898l0,0c0.109,0.005,0.218,0.008,0.326,0.008l0,0
			c2.197-0.001,3.975-1.378,4.767-3.568l0,0c0.011-0.033,0.042-0.055,0.078-0.055l0,0c0.035,0,0.065,0.021,0.078,0.053l0,0
			c0.08,0.216,0.26,0.668,0.421,1.064l0,0c0.161,0.397,0.3,0.741,0.3,0.741v0.002c0.011,0.021,0.01,0.049-0.003,0.072l0,0
			c-1.128,1.981-3.258,3.297-5.661,3.297l0,0C237.782,1718.056,237.647,1718.052,237.512,1718.045L237.512,1718.045z"/>
		<path fill="#A1AFC0" d="M242.525,1710.136l-4.206-0.001c-1.391,0.034-1.865-0.252-1.897-1.953
			c-0.166-2.402-0.435-6.355-0.525-7.912c-0.012-0.172-0.012-0.389,0.003-0.558c0.066-0.924,0.837-1.656,1.78-1.656
			c0.983,0,1.781,0.797,1.781,1.782c0,0.94-0.728,1.707-1.65,1.776l0.251,3.434l3.547-0.002c0.518,0,0.918,0.436,0.918,0.942
			c0,0.507-0.414,0.926-0.933,0.926l-3.423,0.009l0.091,1.333l4.108-0.002c0.989-0.013,1.082,0.061,1.33,0.271
			c0.124,0.107,0.207,0.247,0.293,0.436c0.085,0.187,0.173,0.423,0.308,0.713c0.194,0.492,1.814,4.477,1.814,4.477l0.947-0.393
			c0.138-0.077,0.299-0.124,0.469-0.124c0.518,0,0.939,0.411,0.939,0.918c0,0.389-0.213,0.74-0.565,0.874l-1.831,0.758
			c-0.902,0.31-1.274-0.304-1.47-0.8c-0.205-0.523-2.004-5.073-2.074-5.247L242.525,1710.136z"/>
	</g>
	<g>
		<path id="restroom-icon6_00000114055021377480638810000003660096933956235166_" fill="#A1AFC0" d="M208.945,1700.313
			c0-1.299,1.063-2.244,2.243-2.244c1.299,0,2.243,1.063,2.243,2.244c0,1.299-1.063,2.244-2.243,2.244
			C209.89,1702.675,208.945,1701.612,208.945,1700.313z M208.709,1703.147c-1.653,0-2.952,0.827-2.952,2.48c0,0.827,0,4.251,0,4.841
			c0,0.59,0.472,0.945,0.945,0.945c0.59,0,0.945-0.472,0.945-0.945c0-0.59,0-4.133,0-4.133h0.472c0,0,0,9.328,0,10.391
			c0,0.708,0.59,1.299,1.299,1.299s1.299-0.59,1.299-1.299c0-1.063,0-5.313,0-5.313h0.59c0,0,0,4.133,0,5.313
			c0,0.708,0.59,1.299,1.299,1.299s1.299-0.59,1.299-1.299c0-1.063,0-10.391,0-10.391h0.472c0,0,0,3.424,0,4.133
			c0,0.59,0.472,0.945,0.945,0.945c0.59,0,0.945-0.472,0.945-0.945c0-0.59,0-4.015,0-4.841c0-1.653-1.299-2.48-2.952-2.48
			C212.842,1703.147,209.418,1703.147,208.709,1703.147z"/>
		<path id="restroom-icon3_00000005234863845513382540000010319154998637692856_" fill="#A1AFC0" d="M221.58,1700.432
			c0-1.181,0.945-2.362,2.362-2.362c1.181,0,2.362,0.945,2.362,2.362c0,1.181-0.945,2.362-2.362,2.362
			C222.642,1702.557,221.58,1701.612,221.58,1700.432z M224.177,1712.83c0,0,0,3.188,0,4.133c0,0.59,0.472,1.063,1.063,1.063
			s1.063-0.472,1.063-1.063c0-0.472,0-0.59,0-4.133c0,0,0.827,0,1.653,0c0.827,0,0.472-0.827,0.472-0.827l-2.362-6.14h0.59
			l1.417,3.779c0.118,0.472,0.708,0.827,1.063,0.59c0.472-0.118,0.708-0.708,0.59-1.063s-1.417-3.779-1.417-3.779
			s-0.472-2.125-2.48-2.125c-0.59,0-3.07,0-3.66,0c-1.771,0-2.48,2.125-2.48,2.125s-1.417,3.424-1.535,3.779
			c-0.118,0.472,0.118,0.945,0.59,1.063c0.472,0.118,0.945-0.118,1.063-0.59l1.417-3.779h0.59l-2.362,6.14
			c0,0-0.472,0.827,0.59,0.827c1.063,0,1.535,0,1.535,0c0,3.66,0,3.66,0,4.133c0,0.59,0.472,1.063,1.063,1.063
			s1.063-0.472,1.063-1.063c0-0.827,0-4.133,0-4.133H224.177z"/>
	</g>
	<g>
		<path fill="#A1AFC0" d="M198.837,1741.763c-3.457-0.213-6.12-3.083-6.12-6.499l0,0c0-0.133,0.005-0.269,0.014-0.404l0,0l0,0
			c0.16-2.592,1.809-4.711,4.02-5.632l0,0c0.027-0.01,0.055-0.007,0.077,0.007l0,0c0.023,0.014,0.037,0.038,0.039,0.067l0,0
			l0.098,1.549c0.002,0.035-0.015,0.064-0.044,0.079l0,0c-1.466,0.776-2.479,2.254-2.589,4.029l0,0
			c-0.006,0.103-0.009,0.204-0.009,0.304l0,0c0,2.577,2.006,4.738,4.611,4.898l0,0c0.109,0.005,0.218,0.008,0.326,0.008l0,0
			c2.197-0.001,3.975-1.378,4.767-3.568l0,0c0.011-0.033,0.042-0.055,0.078-0.055l0,0c0.035,0,0.065,0.021,0.078,0.053l0,0
			c0.08,0.216,0.26,0.668,0.421,1.064l0,0c0.161,0.397,0.3,0.741,0.3,0.741v0.002c0.011,0.021,0.01,0.049-0.003,0.072l0,0
			c-1.128,1.981-3.258,3.297-5.661,3.297l0,0C199.107,1741.774,198.972,1741.77,198.837,1741.763L198.837,1741.763z"/>
		<path fill="#A1AFC0" d="M203.85,1733.855l-4.206-0.001c-1.391,0.034-1.865-0.252-1.897-1.953
			c-0.166-2.402-0.435-6.355-0.525-7.912c-0.012-0.172-0.012-0.389,0.003-0.558c0.066-0.924,0.837-1.656,1.78-1.656
			c0.983,0,1.781,0.797,1.781,1.782c0,0.94-0.728,1.707-1.65,1.776l0.251,3.434l3.547-0.002c0.518,0,0.918,0.436,0.918,0.942
			c0,0.507-0.414,0.926-0.933,0.926l-3.423,0.009l0.091,1.333l4.108-0.002c0.989-0.013,1.082,0.061,1.33,0.271
			c0.124,0.107,0.208,0.247,0.293,0.436c0.085,0.188,0.173,0.423,0.308,0.713c0.194,0.492,1.814,4.477,1.814,4.477l0.947-0.393
			c0.138-0.077,0.299-0.124,0.469-0.124c0.518,0,0.939,0.411,0.939,0.918c0,0.389-0.213,0.74-0.565,0.874l-1.831,0.758
			c-0.902,0.31-1.274-0.304-1.47-0.8c-0.205-0.523-2.004-5.073-2.074-5.247L203.85,1733.855z"/>
	</g>
	<g>
		<path id="restroom-icon6_00000000923648906496493200000007217624251028765375_" fill="#A1AFC0" d="M170.271,1724.032
			c0-1.299,1.063-2.244,2.243-2.244c1.299,0,2.243,1.063,2.243,2.244c0,1.299-1.063,2.244-2.243,2.244
			C171.215,1726.393,170.271,1725.331,170.271,1724.032z M170.034,1726.866c-1.653,0-2.952,0.827-2.952,2.48
			c0,0.827,0,4.251,0,4.841c0,0.59,0.472,0.945,0.945,0.945c0.59,0,0.945-0.472,0.945-0.945c0-0.59,0-4.133,0-4.133h0.472
			c0,0,0,9.328,0,10.391c0,0.708,0.59,1.299,1.299,1.299c0.708,0,1.299-0.59,1.299-1.299c0-1.063,0-5.313,0-5.313h0.59
			c0,0,0,4.133,0,5.313c0,0.708,0.59,1.299,1.299,1.299s1.299-0.59,1.299-1.299c0-1.063,0-10.391,0-10.391h0.472
			c0,0,0,3.424,0,4.133c0,0.59,0.472,0.945,0.945,0.945c0.59,0,0.945-0.472,0.945-0.945c0-0.59,0-4.015,0-4.841
			c0-1.653-1.299-2.48-2.952-2.48C174.167,1726.866,170.743,1726.866,170.034,1726.866z"/>
		<path id="restroom-icon3_00000072966626523320482860000004667768993443399599_" fill="#A1AFC0" d="M182.905,1724.15
			c0-1.181,0.945-2.362,2.362-2.362c1.181,0,2.362,0.945,2.362,2.362c0,1.181-0.945,2.362-2.362,2.362
			C183.968,1726.275,182.905,1725.331,182.905,1724.15z M185.503,1736.548c0,0,0,3.188,0,4.133c0,0.59,0.472,1.063,1.063,1.063
			s1.063-0.472,1.063-1.063c0-0.472,0-0.59,0-4.133c0,0,0.827,0,1.653,0c0.827,0,0.472-0.827,0.472-0.827l-2.362-6.14h0.59
			l1.417,3.779c0.118,0.472,0.708,0.827,1.063,0.59c0.472-0.118,0.708-0.708,0.59-1.063c-0.118-0.354-1.417-3.779-1.417-3.779
			s-0.472-2.125-2.48-2.125c-0.59,0-3.07,0-3.66,0c-1.771,0-2.48,2.125-2.48,2.125s-1.417,3.424-1.535,3.779
			c-0.118,0.472,0.118,0.945,0.59,1.063c0.472,0.118,0.945-0.118,1.063-0.59l1.417-3.779h0.59l-2.362,6.14
			c0,0-0.472,0.827,0.59,0.827s1.535,0,1.535,0c0,3.66,0,3.66,0,4.133c0,0.59,0.472,1.063,1.063,1.063s1.063-0.472,1.063-1.063
			c0-0.827,0-4.133,0-4.133H185.503z"/>
	</g>
	<text transform="matrix(1 0 0 1 213.1442 2253.9448)"><tspan x="0" y="0" fill="#A1AFC0" font-family="'Avenir-Book'" font-size="12px">Restroom</tspan></text>
	<g>
		<path id="restroom-icon3_00000105426205616635537060000014035258220073586306_" fill="#A1AFC0" d="M236.15,2226.9
			c0-1.181,0.945-2.362,2.362-2.362c1.181,0,2.362,0.945,2.362,2.362c0,1.181-0.945,2.362-2.362,2.362
			C237.212,2229.026,236.15,2228.081,236.15,2226.9z M238.747,2239.299c0,0,0,3.188,0,4.133c0,0.591,0.472,1.063,1.063,1.063
			s1.063-0.472,1.063-1.063c0-0.472,0-0.59,0-4.133c0,0,0.827,0,1.653,0c0.827,0,0.472-0.827,0.472-0.827l-2.362-6.14h0.59
			l1.417,3.779c0.118,0.472,0.708,0.827,1.063,0.59c0.472-0.118,0.708-0.708,0.59-1.063c-0.118-0.354-1.417-3.779-1.417-3.779
			s-0.472-2.125-2.48-2.125c-0.59,0-3.07,0-3.66,0c-1.771,0-2.48,2.125-2.48,2.125s-1.417,3.424-1.535,3.779
			c-0.118,0.472,0.118,0.945,0.59,1.063s0.945-0.118,1.063-0.59l1.417-3.779h0.59l-2.362,6.14c0,0-0.472,0.827,0.59,0.827
			c1.063,0,1.535,0,1.535,0c0,3.66,0,3.66,0,4.133c0,0.591,0.472,1.063,1.063,1.063s1.063-0.472,1.063-1.063
			c0-0.826,0-4.133,0-4.133H238.747z"/>
	</g>
	<text transform="matrix(1 0 0 1 323.5718 2253.9448)"><tspan x="0" y="0" fill="#A1AFC0" font-family="'Avenir-Book'" font-size="12px">Restroom</tspan></text>
	<g>
		<path id="restroom-icon6_00000070111716949033713600000016250904687922485136_" fill="#A1AFC0" d="M346.872,2226.782
			c0-1.299,1.063-2.244,2.243-2.244c1.299,0,2.243,1.063,2.243,2.244c0,1.299-1.063,2.243-2.243,2.243
			C347.817,2229.144,346.872,2228.081,346.872,2226.782z M346.636,2229.616c-1.653,0-2.952,0.827-2.952,2.48
			c0,0.826,0,4.251,0,4.841c0,0.591,0.472,0.945,0.945,0.945c0.59,0,0.945-0.472,0.945-0.945c0-0.59,0-4.133,0-4.133h0.472
			c0,0,0,9.328,0,10.391c0,0.708,0.59,1.299,1.299,1.299c0.708,0,1.299-0.59,1.299-1.299c0-1.063,0-5.314,0-5.314h0.59
			c0,0,0,4.133,0,5.314c0,0.708,0.59,1.299,1.299,1.299s1.299-0.59,1.299-1.299c0-1.063,0-10.391,0-10.391h0.472
			c0,0,0,3.424,0,4.133c0,0.591,0.472,0.945,0.945,0.945c0.59,0,0.945-0.472,0.945-0.945c0-0.59,0-4.015,0-4.841
			c0-1.653-1.299-2.48-2.952-2.48C350.769,2229.616,347.345,2229.616,346.636,2229.616z"/>
	</g>
	<path fill="#A1AFC0" d="M493.647,2365.076c-0.025-0.542-0.469-0.907-1.011-0.907h-3.357c0.014-0.403,0.006-1.334-0.002-1.847
		c0-1.737-1.565-3.641-4.092-3.641c-2.372,0-4.093,1.563-4.093,3.68c-0.007,0.49-0.016,1.405-0.002,1.808h-3.357
		c-0.543,0-0.987,0.365-1.012,0.907l-0.657,14.529c-0.012,0.252,0.069,0.539,0.234,0.71c0.187,0.196,0.462,0.365,0.776,0.365h16.225
		c0.279,0,0.537-0.19,0.729-0.392c0.191-0.202,0.29-0.475,0.277-0.752L493.647,2365.076z M482.494,2362.367l0.001-0.075
		c0-1.3,1.106-2.222,2.689-2.222c1.755,0,2.689,1.275,2.689,2.2l0.001,0.101c0.012,0.845,0.013,1.396,0.001,1.798h-5.382
		C482.481,2363.767,482.482,2363.213,482.494,2362.367z M490.906,2371.239c-0.492,0.664-1.337,0.927-2.186,0.786
		c0.222,0.492,0.354,1.028,0.354,1.604c0,2.147-1.743,3.89-3.889,3.89c-2.149,0-3.891-1.743-3.891-3.89
		c0-0.576,0.131-1.112,0.353-1.604c-0.851,0.141-1.694-0.122-2.183-0.786c-0.746-1.001-0.41-2.52,0.757-3.383
		c1.16-0.863,2.71-0.754,3.456,0.249c0.391,0.529,0.474,1.2,0.302,1.843c0.383-0.124,0.783-0.209,1.206-0.209
		c0.422,0,0.82,0.085,1.202,0.209c-0.171-0.643-0.087-1.314,0.304-1.843c0.746-1.003,2.292-1.112,3.458-0.249
		C491.312,2368.719,491.651,2370.238,490.906,2371.239z"/>
	<g>
		<g>
			<path fill="#A1AFC0" d="M123.599,1970.354v8.282c0,0.235,0.191,0.426,0.424,0.426h17.568c0.233,0,0.424-0.191,0.424-0.426v-8.282
				H123.599z"/>
		</g>
		<g>
			<path fill="#A1AFC0" d="M130.516,1963.345c1.736,0,3.142-1.406,3.142-3.14c0-1.736-1.406-3.142-3.142-3.142
				c-1.735,0-3.141,1.406-3.141,3.142C127.374,1961.94,128.781,1963.345,130.516,1963.345z"/>
			<path fill="#A1AFC0" d="M142.688,1966.454h-7.599v-0.058c0-1.77-0.756-2.852-1.91-3.429c-0.675,0.694-1.616,1.125-2.661,1.125
				c-1.032,0-1.972-0.425-2.643-1.11c-1.139,0.581-1.881,1.66-1.881,3.414v0.058h-3.066c-0.293,0-0.531,0.237-0.531,0.53v2.055
				c0,0.293,0.239,0.53,0.531,0.53h19.761c0.293,0,0.53-0.237,0.53-0.53v-2.055C143.218,1966.691,142.981,1966.454,142.688,1966.454
				z"/>
			<path fill="#A1AFC0" d="M137.054,1964.587h3.613c0.015,0,0.028-0.012,0.029-0.028l0.003-0.023
				c0.001-0.018,0.002-0.034,0.002-0.051c0-0.681-0.675-1.243-1.555-1.346v-0.164h0.232c0.016,0,0.029-0.013,0.029-0.03v-0.488
				c0-0.016-0.013-0.029-0.029-0.029h-1.036c-0.016,0-0.028,0.013-0.028,0.029v0.488c0,0.017,0.012,0.03,0.028,0.03h0.232v0.164
				c-0.88,0.103-1.554,0.665-1.554,1.346c0,0.026,0.002,0.05,0.004,0.075C137.026,1964.575,137.038,1964.587,137.054,1964.587z"/>
			<path fill="#A1AFC0" d="M140.992,1965.713c0.016,0,0.03-0.012,0.03-0.03v-0.82c0-0.018-0.014-0.032-0.03-0.032h-4.263
				c-0.017,0-0.031,0.014-0.031,0.032v0.82c0,0.018,0.014,0.03,0.031,0.03H140.992z"/>
		</g>
	</g>
	<g>
		<path fill="#A1AFC0" d="M235.696,1070.634c-0.207,0-0.404-0.121-0.492-0.323c-0.154-0.349-0.562-0.584-1.018-0.584
			c-0.45,0-0.858,0.231-1.014,0.575c-0.123,0.271-0.442,0.39-0.711,0.268c-0.27-0.122-0.39-0.441-0.268-0.711
			c0.331-0.733,1.113-1.206,1.992-1.206c0.889,0,1.675,0.481,2.001,1.227c0.12,0.272-0.005,0.588-0.277,0.708
			C235.841,1070.619,235.768,1070.634,235.696,1070.634z"/>
		<path fill="#A1AFC0" d="M241.306,1068.508c-0.258-0.588-0.748-1.039-1.383-1.27c-0.22-0.081-0.448-0.13-0.68-0.149
			c-0.012-0.207-0.057-0.415-0.139-0.614c-0.212-0.515-0.649-0.927-1.199-1.134c-0.795-0.301-1.654-0.135-2.234,0.366
			c-0.681-0.708-1.682-1.131-2.775-1.131c-0.958,0-1.847,0.327-2.512,0.887c-0.342-0.547-0.943-0.887-1.598-0.887
			c-0.264,0-0.52,0.054-0.763,0.161c-0.434,0.194-0.772,0.535-0.961,0.967c-0.111,0.025-0.22,0.061-0.325,0.108
			c-0.88,0.393-1.279,1.415-0.911,2.295c-0.139,0.088-0.271,0.188-0.384,0.308c-0.437,0.458-0.615,1.072-0.488,1.684
			c0.075,0.363,0.431,0.596,0.795,0.521c0.362-0.075,0.596-0.431,0.521-0.794c-0.036-0.177,0.015-0.348,0.145-0.484
			c0.138-0.145,0.341-0.223,0.561-0.231c0.023,0.006,0.043,0.019,0.065,0.023c0.393,0.416,0.945,0.662,1.537,0.662
			c0.295,0,0.582-0.06,0.853-0.18c0.916-0.408,1.392-1.388,1.211-2.33c0.027-0.037,0.059-0.069,0.078-0.111
			c0.341-0.751,1.216-1.258,2.176-1.258c0.971,0,1.849,0.514,2.184,1.278c0.119,0.271,0.401,0.43,0.693,0.398
			c0.293-0.034,0.529-0.255,0.583-0.545c0.007-0.044,0.02-0.081,0.035-0.116c0.154-0.338,0.631-0.491,1.041-0.336
			c0.202,0.077,0.359,0.218,0.43,0.389c0.039,0.092,0.068,0.236-0.006,0.4c-0.014,0.03-0.034,0.056-0.052,0.081
			c-0.138,0.198-0.159,0.458-0.056,0.677c0.02,0.041,0.048,0.089,0.077,0.126c0.177,0.236,0.488,0.33,0.764,0.228
			c0.286-0.102,0.595-0.102,0.876,0.001c0.285,0.104,0.504,0.299,0.612,0.548c0.066,0.148,0.119,0.383,0.005,0.655
			c-0.144,0.341,0.018,0.735,0.36,0.879c0.084,0.034,0.173,0.052,0.259,0.052c0.263,0,0.512-0.156,0.62-0.413
			C241.552,1069.666,241.547,1069.058,241.306,1068.508z M228.997,1068.632c-0.137,0.06-0.279,0.089-0.42,0.089
			c-0.398,0-0.778-0.23-0.949-0.616c-0.004-0.008-0.004-0.015-0.007-0.022c-0.059,0.015-0.12,0.022-0.179,0.022
			c-0.262,0-0.51-0.144-0.623-0.399c-0.155-0.348,0.003-0.757,0.352-0.912c0.09-0.039,0.182-0.058,0.274-0.058
			c0.166,0,0.326,0.061,0.452,0.168c0.049-0.042,0.102-0.078,0.158-0.112c-0.002-0.005-0.004-0.006-0.006-0.009
			c-0.181-0.407,0.003-0.884,0.41-1.064c0.106-0.047,0.217-0.07,0.326-0.07c0.31,0,0.605,0.179,0.739,0.479
			c0.137,0.31,0.061,0.659-0.161,0.888c0.063,0.073,0.12,0.154,0.161,0.247C229.756,1067.787,229.52,1068.4,228.997,1068.632z"/>
		<path fill="#A1AFC0" d="M242.638,1081.561c-0.242-0.406-0.63-0.702-1.074-0.836c-0.038-0.108-0.087-0.213-0.145-0.312
			c-0.313-0.522-0.88-0.848-1.487-0.859l1.022-6.475h0.088c0.445,0,0.805-0.361,0.805-0.806s-0.361-0.806-0.805-0.806h-15.678
			c-0.445,0-0.806,0.361-0.806,0.806s0.361,0.806,0.806,0.806h0.086l1.794,11.359c0.013,0.079,0.081,0.137,0.161,0.137h1.627
			c0.003,0,0.006,0,0.008,0c0.09,0,0.163-0.073,0.163-0.162c0-0.027-0.006-0.05-0.017-0.072l-1.589-11.262h2.152l0.562,11.342
			c0.005,0.086,0.077,0.155,0.163,0.155h1.895c0.003,0,0.005,0,0.008,0c0.09,0,0.162-0.073,0.162-0.162
			c0-0.02-0.003-0.038-0.009-0.055l-0.306-11.279h2.059l-0.307,11.33c-0.001,0.044,0.016,0.086,0.046,0.117
			c0.031,0.032,0.072,0.05,0.116,0.05h1.895c0.087,0,0.158-0.069,0.162-0.155l0.562-11.342h2.071l-1.413,11.314
			c-0.005,0.046,0.009,0.092,0.039,0.128c0.032,0.034,0.076,0.055,0.122,0.055h0.656h0.767h0.844c0.005,0,0.009-0.003,0.012-0.003
			c0.013,0,0.025,0.003,0.038,0.003c0.311,0,0.506-0.069,0.785-0.202c0.116,0.022,0.233,0.033,0.35,0.033
			c0.337,0,0.668-0.091,0.957-0.262c0.434-0.258,0.74-0.668,0.863-1.156C242.971,1082.5,242.897,1081.993,242.638,1081.561z
			 M241.437,1083.215c-0.127,0.076-0.269,0.113-0.409,0.113c-0.176,0-0.35-0.058-0.491-0.166c-0.066,0.072-0.138,0.137-0.226,0.188
			c-0.166,0.099-0.349,0.146-0.531,0.146c-0.353,0-0.697-0.18-0.891-0.506c-0.294-0.494-0.13-1.129,0.36-1.422
			c0.007-0.004,0.015-0.006,0.02-0.009c-0.118-0.309-0.016-0.666,0.278-0.841c0.111-0.066,0.232-0.097,0.352-0.097
			c0.237,0,0.466,0.12,0.596,0.338c0.14,0.236,0.12,0.52-0.023,0.734c0.048,0.044,0.091,0.092,0.13,0.143
			c0.003-0.001,0.006-0.005,0.009-0.007c0.13-0.077,0.272-0.114,0.412-0.114c0.275,0,0.543,0.141,0.693,0.394
			C241.945,1082.49,241.821,1082.988,241.437,1083.215z"/>
	</g>
	<g>
		<path fill="#A1AFC0" d="M358.248,1070.634c-0.207,0-0.404-0.121-0.492-0.323c-0.154-0.349-0.562-0.584-1.018-0.584
			c-0.45,0-0.858,0.231-1.014,0.575c-0.123,0.271-0.442,0.39-0.711,0.268c-0.27-0.122-0.39-0.441-0.268-0.711
			c0.331-0.733,1.113-1.206,1.992-1.206c0.889,0,1.675,0.481,2.001,1.227c0.12,0.272-0.005,0.588-0.277,0.708
			C358.393,1070.619,358.32,1070.634,358.248,1070.634z"/>
		<path fill="#A1AFC0" d="M363.857,1068.508c-0.258-0.588-0.748-1.039-1.383-1.27c-0.22-0.081-0.448-0.13-0.68-0.149
			c-0.012-0.207-0.057-0.415-0.139-0.614c-0.212-0.515-0.649-0.927-1.199-1.134c-0.795-0.301-1.654-0.135-2.234,0.366
			c-0.681-0.708-1.682-1.131-2.775-1.131c-0.958,0-1.847,0.327-2.512,0.887c-0.342-0.547-0.943-0.887-1.598-0.887
			c-0.264,0-0.52,0.054-0.763,0.161c-0.434,0.194-0.772,0.535-0.961,0.967c-0.111,0.025-0.22,0.061-0.325,0.108
			c-0.88,0.393-1.279,1.415-0.911,2.295c-0.139,0.088-0.271,0.188-0.384,0.308c-0.437,0.458-0.615,1.072-0.488,1.684
			c0.075,0.363,0.431,0.596,0.795,0.521c0.362-0.075,0.596-0.431,0.521-0.794c-0.036-0.177,0.015-0.348,0.145-0.484
			c0.138-0.145,0.341-0.223,0.561-0.231c0.023,0.006,0.043,0.019,0.065,0.023c0.393,0.416,0.945,0.662,1.537,0.662
			c0.295,0,0.582-0.06,0.853-0.18c0.916-0.408,1.392-1.388,1.211-2.33c0.027-0.037,0.059-0.069,0.078-0.111
			c0.341-0.751,1.216-1.258,2.176-1.258c0.971,0,1.849,0.514,2.184,1.278c0.119,0.271,0.401,0.43,0.693,0.398
			c0.293-0.034,0.529-0.255,0.583-0.545c0.007-0.044,0.02-0.081,0.035-0.116c0.154-0.338,0.631-0.491,1.041-0.336
			c0.202,0.077,0.359,0.218,0.43,0.389c0.039,0.092,0.068,0.236-0.006,0.4c-0.014,0.03-0.034,0.056-0.052,0.081
			c-0.138,0.198-0.159,0.458-0.056,0.677c0.02,0.041,0.048,0.089,0.077,0.126c0.177,0.236,0.488,0.33,0.764,0.228
			c0.286-0.102,0.595-0.102,0.876,0.001c0.285,0.104,0.504,0.299,0.612,0.548c0.066,0.148,0.119,0.383,0.005,0.655
			c-0.144,0.341,0.018,0.735,0.36,0.879c0.084,0.034,0.173,0.052,0.259,0.052c0.263,0,0.512-0.156,0.62-0.413
			C364.104,1069.666,364.099,1069.058,363.857,1068.508z M351.549,1068.632c-0.137,0.06-0.279,0.089-0.42,0.089
			c-0.398,0-0.778-0.23-0.949-0.616c-0.004-0.008-0.004-0.015-0.007-0.022c-0.059,0.015-0.12,0.022-0.179,0.022
			c-0.262,0-0.51-0.144-0.623-0.399c-0.155-0.348,0.003-0.757,0.352-0.912c0.09-0.039,0.182-0.058,0.274-0.058
			c0.166,0,0.326,0.061,0.452,0.168c0.049-0.042,0.102-0.078,0.158-0.112c-0.002-0.005-0.004-0.006-0.006-0.009
			c-0.181-0.407,0.003-0.884,0.41-1.064c0.106-0.047,0.217-0.07,0.326-0.07c0.31,0,0.605,0.179,0.739,0.479
			c0.137,0.31,0.061,0.659-0.161,0.888c0.063,0.073,0.12,0.154,0.161,0.247C352.308,1067.787,352.072,1068.4,351.549,1068.632z"/>
		<path fill="#A1AFC0" d="M365.19,1081.561c-0.242-0.406-0.63-0.702-1.074-0.836c-0.038-0.108-0.087-0.213-0.145-0.312
			c-0.313-0.522-0.88-0.848-1.487-0.859l1.022-6.475h0.088c0.445,0,0.805-0.361,0.805-0.806s-0.361-0.806-0.805-0.806h-15.678
			c-0.445,0-0.806,0.361-0.806,0.806s0.361,0.806,0.806,0.806h0.086l1.794,11.359c0.013,0.079,0.081,0.137,0.161,0.137h1.627
			c0.003,0,0.006,0,0.008,0c0.09,0,0.163-0.073,0.163-0.162c0-0.027-0.006-0.05-0.017-0.072l-1.589-11.262h2.152l0.562,11.342
			c0.005,0.086,0.077,0.155,0.163,0.155h1.895c0.003,0,0.005,0,0.008,0c0.09,0,0.162-0.073,0.162-0.162
			c0-0.02-0.003-0.038-0.009-0.055l-0.306-11.279h2.059l-0.307,11.33c-0.001,0.044,0.016,0.086,0.046,0.117
			c0.031,0.032,0.072,0.05,0.116,0.05h1.895c0.087,0,0.158-0.069,0.162-0.155l0.562-11.342h2.071l-1.413,11.314
			c-0.005,0.046,0.009,0.092,0.039,0.128c0.032,0.034,0.076,0.055,0.122,0.055h0.656h0.767h0.844c0.005,0,0.009-0.003,0.012-0.003
			c0.013,0,0.025,0.003,0.038,0.003c0.311,0,0.506-0.069,0.785-0.202c0.116,0.022,0.233,0.033,0.35,0.033
			c0.337,0,0.668-0.091,0.957-0.262c0.434-0.258,0.74-0.668,0.863-1.156C365.523,1082.5,365.449,1081.993,365.19,1081.561z
			 M363.989,1083.215c-0.127,0.076-0.269,0.113-0.409,0.113c-0.176,0-0.35-0.058-0.491-0.166c-0.066,0.072-0.138,0.137-0.226,0.188
			c-0.166,0.099-0.349,0.146-0.531,0.146c-0.353,0-0.697-0.18-0.891-0.506c-0.294-0.494-0.13-1.129,0.36-1.422
			c0.007-0.004,0.015-0.006,0.02-0.009c-0.118-0.309-0.016-0.666,0.278-0.841c0.111-0.066,0.232-0.097,0.352-0.097
			c0.237,0,0.466,0.12,0.596,0.338c0.14,0.236,0.12,0.52-0.023,0.734c0.048,0.044,0.091,0.092,0.13,0.143
			c0.003-0.001,0.006-0.005,0.009-0.007c0.13-0.077,0.272-0.114,0.412-0.114c0.275,0,0.543,0.141,0.693,0.394
			C364.497,1082.49,364.373,1082.988,363.989,1083.215z"/>
	</g>
</g>
<g id="sections">
	<rect id="aft" x="-0.056" y="2174.558" opacity="0.32" fill="none" width="588" height="1195.442"/>
	<rect id="mid" x="-0.056" y="1106.822" opacity="0.32" fill="none" width="588" height="1067.736"/>
	<rect id="forward" x="-0.056" y="0" opacity="0.32" fill="none" width="588" height="1106.822"/>
</g>
</svg>
