<?xml version="1.0" encoding="utf-8"?>
<!-- Generator: Adobe Illustrator 27.0.0, SVG Export Plug-In . SVG Version: 6.00 Build 0)  -->
<svg version="1.1" id="Layer_1" xmlns="http://www.w3.org/2000/svg" xmlns:xlink="http://www.w3.org/1999/xlink" x="0px" y="0px"
	 viewBox="0 0 588 3370" enable-background="new 0 0 588 3370" xml:space="preserve">
<metadata><?xpacket begin="﻿" id="W5M0MpCehiHzreSzNTczkc9d"?>
<x:xmpmeta xmlns:x="adobe:ns:meta/" x:xmptk="Adobe XMP Core 8.0-c001 1.000000, 0000/00/00-00:00:00        ">
   <rdf:RDF xmlns:rdf="http://www.w3.org/1999/02/22-rdf-syntax-ns#">
      <rdf:Description rdf:about=""
            xmlns:dc="http://purl.org/dc/elements/1.1/"
            xmlns:dp="http://disney-parks.com/aem">
         <dc:format>image/svg+xml</dc:format>
         <dc:modified>2026-02-25T19:29:34.934Z</dc:modified>
         <dp:asset-category>
            <rdf:Bag>
               <rdf:li>disney-parks:categories/graphics</rdf:li>
            </rdf:Bag>
         </dp:asset-category>
         <dp:destination>
            <rdf:Bag>
               <rdf:li>disney-parks:destinations/disney-cruise-line</rdf:li>
            </rdf:Bag>
         </dp:destination>
         <dp:project-id>
            <rdf:Bag>
               <rdf:li>https://myjira.disney.com/browse/DCL-110752</rdf:li>
            </rdf:Bag>
         </dp:project-id>
         <dp:keywords>
            <rdf:Bag>
               <rdf:li>disney-parks:keywords/deck</rdf:li>
               <rdf:li>disney-parks:keywords/cruise-ship</rdf:li>
            </rdf:Bag>
         </dp:keywords>
      </rdf:Description>
   </rdf:RDF>
</x:xmpmeta>
                                                                                                    
                                                                                                    
                                                                                                    
                                                                                                    
                                                                                                    
                                                                                                    
                                                                                                    
                                                                                                    
                                                                                                    
                                                                                                    
                                                                                                    
                                                                                                    
                                                                                                    
                                                                                                    
                                                                                                    
                                                                                                    
                                                                                                    
                                                                                                    
                                                                                                    
                                                                                                    
                           
<?xpacket end="w"?></metadata>
<g id="shipbase_00000031205135256416690820000000416157980043896470_">
	
		<path id="shipbase_00000088843830132147549910000011943915648271906221_" fill="none" stroke="#DEDEDE" stroke-width="4.2279" stroke-miterlimit="10" d="
		M531.817,3217.041v-78.229v-646.698v-595.29V1193.5V718.907c2.765-200.613-21.997-285.006-21.997-285.006
		c-36.706-171.084-114.805-295.377-114.805-295.377c-51.877-98.068-87.689-99.201-91.852-99.344c-0.355-0.08-1.845-0.08-2.2,0
		c-4.163,0.142-43.656,4.351-93.35,102.195c0,0-78.666,134.026-114.242,293.666c0,0-21.948,74.129-21.062,283.866V1193.5v703.322
		v595.29v646.698v78.229c0,0-1.468,22.352,2.203,32.037c3.577,9.437,21.781,64.473,95.351,81.383
		c3.449,0.793,9.149,1.743,12.665,2.125c19.226,2.088,72.339,7.357,118.844,7.357h1.383c48.415,0,103.992-5.71,121.039-7.598
		c3.693-0.409,7.325-1.187,10.953-1.996c73.792-16.46,91.299-71.855,94.868-81.272
		C533.285,3239.392,531.817,3217.041,531.817,3217.041z"/>
</g>
<g id="ship">
	
		<rect id="inaccessible_00000132770887737549517500000006404942178021942201_" x="295.978" y="944.687" fill="#E9E9E9" stroke="#E9E9E9" stroke-width="1.057" stroke-linecap="round" stroke-linejoin="round" stroke-miterlimit="10" width="72.665" height="54.901"/>
	
		<rect id="inaccessible_00000175309821103662708000000017217528491276671392_" x="369.082" y="944.687" fill="#E9E9E9" stroke="#E9E9E9" stroke-width="1.057" stroke-linecap="round" stroke-linejoin="round" stroke-miterlimit="10" width="21.419" height="270.387"/>
	
		<path id="inaccessible_00000166666266990037253470000010066858311959093654_" fill="#E9E9E9" stroke="#E9E9E9" stroke-width="1.057" stroke-linecap="round" stroke-linejoin="round" stroke-miterlimit="10" d="
		M216.92,1595.041c0,0,11.265,27.614,31.327,37.383H217.79L216.92,1595.041z"/>
	
		<path id="inaccessible_00000047053051826504609400000005038373396565369275_" fill="#E9E9E9" stroke="#E9E9E9" stroke-width="1.057" stroke-linecap="round" stroke-linejoin="round" stroke-miterlimit="10" d="
		M388.293,1593.064c0,0-11.265,27.614-31.327,37.383h30.456L388.293,1593.064z"/>
	
		<path id="inaccessible_00000163031289664106285920000008235180769708503460_" fill="none" stroke="#DEDEDE" stroke-width="1.057" stroke-linecap="round" stroke-linejoin="round" stroke-miterlimit="10" d="
		M370.04,3318.769v-38.97H233.722v38.97h-12.131v17.286c0,0,55.708,4.334,80.29,4.094c24.581,0.24,80.29-4.094,80.29-4.094v-17.286
		H370.04z"/>
	
		<rect id="inaccessible_00000099660755066762259220000017235576349283288247_" x="212.923" y="2559.333" fill="#E9E9E9" stroke="#E9E9E9" stroke-width="1.057" stroke-linecap="round" stroke-linejoin="round" stroke-miterlimit="10" width="36.953" height="268.063"/>
	
		<rect id="inaccessible_00000055705121571244954730000011305274377126789771_" x="196.457" y="2825.828" fill="#E9E9E9" stroke="#E9E9E9" stroke-width="1.057" stroke-linecap="round" stroke-linejoin="round" stroke-miterlimit="10" width="37.387" height="242.004"/>
	
		<rect id="inaccessible_00000146485046399607298500000009103735341176354476_" x="216.872" y="1511.846" fill="#E9E9E9" stroke="#E9E9E9" stroke-width="1.057" stroke-linecap="round" stroke-linejoin="round" stroke-miterlimit="10" width="32.933" height="14.751"/>
	
		<rect id="inaccessible_00000032607240689483524570000010006205457722982823_" x="216.872" y="1725.91" fill="#E9E9E9" stroke="#E9E9E9" stroke-width="1.057" stroke-linecap="round" stroke-linejoin="round" stroke-miterlimit="10" width="32.933" height="28.895"/>
	
		<rect id="inaccessible_00000018228380369375261550000013243791682726495384_" x="197.672" y="1754.71" fill="#E9E9E9" stroke="#E9E9E9" stroke-width="1.057" stroke-linecap="round" stroke-linejoin="round" stroke-miterlimit="10" width="32.933" height="109.311"/>
	
		<rect id="inaccessible_00000177484413659445565660000000194471181334744242_" x="371.601" y="1754.71" fill="#E9E9E9" stroke="#E9E9E9" stroke-width="1.057" stroke-linecap="round" stroke-linejoin="round" stroke-miterlimit="10" width="32.933" height="109.311"/>
	
		<rect id="inaccessible_00000100367321156142892790000016803335031571899530_" x="216.872" y="1860.419" fill="#E9E9E9" stroke="#E9E9E9" stroke-width="1.057" stroke-linecap="round" stroke-linejoin="round" stroke-miterlimit="10" width="33.833" height="54.374"/>
	
		<rect id="inaccessible_00000150815931463131114300000003402793548373349791_" x="358.552" y="1848.342" fill="#E9E9E9" stroke="#E9E9E9" stroke-width="1.057" stroke-linecap="round" stroke-linejoin="round" stroke-miterlimit="10" width="28.534" height="66.45"/>
	
		<rect id="inaccessible_00000141452407425409325440000014250882694944832906_" x="347.526" y="2081.168" fill="#E9E9E9" stroke="#E9E9E9" stroke-width="1.057" stroke-linecap="round" stroke-linejoin="round" stroke-miterlimit="10" width="39.56" height="32.454"/>
	
		<rect id="inaccessible_00000051377468712377516100000011560007479477418402_" x="216.687" y="2080.563" fill="#E9E9E9" stroke="#E9E9E9" stroke-width="1.057" stroke-linecap="round" stroke-linejoin="round" stroke-miterlimit="10" width="39.56" height="33.059"/>
	
		<rect id="inaccessible_00000020358535782098637670000001517406070951046027_" x="354.436" y="1724.781" fill="#E9E9E9" stroke="#E9E9E9" stroke-width="1.057" stroke-linecap="round" stroke-linejoin="round" stroke-miterlimit="10" width="32.933" height="29.747"/>
	
		<rect id="inaccessible_00000044162271316623618190000000425816290824414611_" x="274.505" y="1696.922" fill="#E9E9E9" stroke="#E9E9E9" stroke-width="1.057" stroke-linecap="round" stroke-linejoin="round" stroke-miterlimit="10" width="54.707" height="57.883"/>
	
		<rect id="inaccessible_00000158743724180192780750000000553377090800211102_" x="152.226" y="1369.395" fill="#E9E9E9" stroke="#E9E9E9" stroke-width="1.057" stroke-linecap="round" stroke-linejoin="round" stroke-miterlimit="10" width="65.6" height="1035.45"/>
	
		<rect id="inaccessible_00000178186547326637596510000008388638999263290776_" x="152.226" y="2498.525" fill="#E9E9E9" stroke="#E9E9E9" stroke-width="1.057" stroke-linecap="round" stroke-linejoin="round" stroke-miterlimit="10" width="65.6" height="599.863"/>
	
		<polygon id="inaccessible_00000065054727703979836670000008762902346435524785_" fill="#E9E9E9" stroke="#E9E9E9" stroke-width="1.057" stroke-linecap="round" stroke-linejoin="round" stroke-miterlimit="10" points="
		452.468,3099.144 385.47,3098.969 385.47,2498.525 452.468,2498.525 	"/>
	
		<rect id="inaccessible_00000164492854169373162130000007481574560635477126_" x="284.405" y="2626.725" fill="#E9E9E9" stroke="#E9E9E9" stroke-width="1.057" stroke-linecap="round" stroke-linejoin="round" stroke-miterlimit="10" width="105.833" height="401.945"/>
	
		<rect id="inaccessible_00000047031888557976105790000000170709751715186068_" x="319.855" y="2953.846" fill="#E9E9E9" stroke="#E9E9E9" stroke-width="1.057" stroke-linecap="round" stroke-linejoin="round" stroke-miterlimit="10" width="105.109" height="144.172"/>
	
		<rect id="inaccessible_00000096738766773128297940000009149448716604505279_" x="352.101" y="2980.559" fill="#E9E9E9" stroke="#E9E9E9" stroke-width="1.057" stroke-linecap="round" stroke-linejoin="round" stroke-miterlimit="10" width="33.916" height="144.172"/>
	
		<rect id="inaccessible_00000113352351359700683380000016742968172743705756_" x="386.012" y="1369.395" fill="#E9E9E9" stroke="#E9E9E9" stroke-width="1.057" stroke-linecap="round" stroke-linejoin="round" stroke-miterlimit="10" width="65.6" height="1035.168"/>
	
		<rect id="inaccessible_00000043443115987803181180000004123044702451953041_" x="75.179" y="1165.104" fill="#E9E9E9" stroke="#E9E9E9" stroke-width="1.057" stroke-linecap="round" stroke-linejoin="round" stroke-miterlimit="10" width="76.6" height="2006.487"/>
	
		<polygon id="inaccessible_00000124144705158976029630000005904263458899509438_" fill="#E9E9E9" stroke="#E9E9E9" stroke-width="1.057" stroke-linecap="round" stroke-linejoin="round" stroke-miterlimit="10" points="
		383.366,722.254 210.979,722.254 210.979,722.343 74.623,722.343 74.623,725.05 74.616,725.05 74.623,725.05 74.623,1280.327 
		217.228,1280.327 217.228,944.701 383.366,944.701 383.366,1280.327 529.956,1280.327 529.956,722.207 383.366,722.207 	"/>
	
		<path id="inaccessible_00000091005449042823010370000000332671256808224140_" fill="#E9E9E9" stroke="#E9E9E9" stroke-width="1.057" stroke-linecap="round" stroke-linejoin="round" stroke-miterlimit="10" d="
		M508.107,436.609c-36.464-171.084-114.048-295.377-114.048-295.377c-51.535-98.068-87.111-99.201-91.246-99.344
		c-0.353-0.08-1.833-0.08-2.186,0c-4.136,0.142-43.368,4.351-92.734,102.195c0,0-78.147,134.026-113.489,293.666
		c0,0-21.803,74.129-20.923,283.865h456.477C532.705,521.002,508.107,436.609,508.107,436.609z"/>
	
		<rect id="inaccessible_00000122688378242701597730000009686994356780554659_" x="452.427" y="1164.528" fill="#E9E9E9" stroke="#E9E9E9" stroke-width="1.057" stroke-linecap="round" stroke-linejoin="round" stroke-miterlimit="10" width="77.54" height="2006.911"/>
	
		<rect id="inaccessible" x="289.183" y="1365.773" fill="#E9E9E9" stroke="#E9E9E9" stroke-width="1.057" stroke-linecap="round" stroke-linejoin="round" stroke-miterlimit="10" width="28.385" height="52.098"/>
	
		<rect id="inaccessible_00000033347650851639787560000015864403882371580840_" x="252.465" y="2504.872" fill="#E9E9E9" stroke="#E9E9E9" stroke-width="1.057" stroke-linecap="round" stroke-linejoin="round" stroke-miterlimit="10" width="99.32" height="11.556"/>
	<g id="elevator_00000137850132673913300810000001047128328725211026_">
		<g id="elevator-box_00000077294859094779690150000009891616209044034439_">
			<g>
				<rect x="221.819" y="2353.197" fill="#9FAEBF" width="29.834" height="22.429"/>
				<rect x="351.785" y="2353.197" fill="#9FAEBF" width="29.834" height="22.429"/>
			</g>
			<g>
				<rect x="221.819" y="2381.933" fill="#9FAEBF" width="29.834" height="22.429"/>
				<rect x="351.785" y="2381.933" fill="#9FAEBF" width="29.834" height="22.429"/>
			</g>
			<g>
				<rect x="221.819" y="2410.669" fill="#9FAEBF" width="29.834" height="22.429"/>
				<rect x="351.785" y="2410.669" fill="#9FAEBF" width="29.834" height="22.429"/>
			</g>
			<g>
				<rect x="221.819" y="2295.725" fill="#9FAEBF" width="29.834" height="22.429"/>
				<rect x="351.785" y="2295.725" fill="#9FAEBF" width="29.834" height="22.429"/>
			</g>
			<g>
				<rect x="221.819" y="2324.461" fill="#9FAEBF" width="29.834" height="22.429"/>
				<rect x="351.785" y="2324.461" fill="#9FAEBF" width="29.834" height="22.429"/>
			</g>
			<rect x="262.155" y="2480.691" fill="#9FAEBF" width="25.078" height="24.015"/>
			<rect x="289.551" y="2480.691" fill="#9FAEBF" width="25.078" height="24.015"/>
			<rect x="316.947" y="2480.691" fill="#9FAEBF" width="25.078" height="24.015"/>
		</g>
		<g id="elevator-icon_00000030446164290302705790000015834116502990464912_">
			<polygon fill="#FFFFFF" points="240.504,2364.543 234.001,2364.543 234.001,2370.034 241.33,2370.034 241.33,2371.709 
				231.833,2371.709 231.833,2356.539 240.917,2356.539 240.917,2358.214 234.001,2358.214 234.001,2363.054 240.504,2363.054 
				240.504,2364.543 			"/>
			<polygon fill="#FFFFFF" points="240.504,2391.93 234.001,2391.93 234.001,2387.183 240.917,2387.183 240.917,2385.508 
				231.833,2385.508 231.833,2400.678 241.33,2400.678 241.33,2399.003 234.001,2399.003 234.001,2393.512 240.504,2393.512 
				240.504,2391.93 			"/>
			<polygon fill="#FFFFFF" points="240.504,2420.713 234.001,2420.713 234.001,2415.966 240.917,2415.966 240.917,2414.291 
				231.833,2414.291 231.833,2429.461 241.33,2429.461 241.33,2427.786 234.001,2427.786 234.001,2422.295 240.504,2422.295 
				240.504,2420.713 			"/>
			<polygon fill="#FFFFFF" points="240.504,2307.358 234.001,2307.358 234.001,2312.849 241.33,2312.849 241.33,2314.524 
				231.833,2314.524 231.833,2299.354 240.917,2299.354 240.917,2301.03 234.001,2301.03 234.001,2305.869 240.504,2305.869 
				240.504,2307.358 			"/>
			<polygon fill="#FFFFFF" points="240.504,2333.748 234.001,2333.748 234.001,2329.002 240.917,2329.002 240.917,2327.326 
				231.833,2327.326 231.833,2342.496 241.33,2342.496 241.33,2340.821 234.001,2340.821 234.001,2335.33 240.504,2335.33 
				240.504,2333.748 			"/>
			<polygon fill="#FFFFFF" points="370.677,2363.054 364.173,2363.054 364.173,2358.214 371.09,2358.214 371.09,2356.539 
				362.005,2356.539 362.005,2371.709 371.503,2371.709 371.503,2370.034 364.173,2370.034 364.173,2364.543 370.677,2364.543 
				370.677,2363.054 			"/>
			<polygon fill="#FFFFFF" points="370.677,2391.93 364.173,2391.93 364.173,2387.183 371.09,2387.183 371.09,2385.508 
				362.005,2385.508 362.005,2400.678 371.503,2400.678 371.503,2399.003 364.173,2399.003 364.173,2393.512 370.677,2393.512 
				370.677,2391.93 			"/>
			<polygon fill="#FFFFFF" points="370.677,2420.713 364.173,2420.713 364.173,2415.966 371.09,2415.966 371.09,2414.291 
				362.005,2414.291 362.005,2429.461 371.503,2429.461 371.503,2427.786 364.173,2427.786 364.173,2422.295 370.677,2422.295 
				370.677,2420.713 			"/>
			<polygon fill="#FFFFFF" points="370.677,2305.869 364.173,2305.869 364.173,2301.03 371.09,2301.03 371.09,2299.354 
				362.005,2299.354 362.005,2314.524 371.503,2314.524 371.503,2312.849 364.173,2312.849 364.173,2307.358 370.677,2307.358 
				370.677,2305.869 			"/>
			<polygon fill="#FFFFFF" points="370.677,2333.748 364.173,2333.748 364.173,2329.002 371.09,2329.002 371.09,2327.326 
				362.005,2327.326 362.005,2342.496 371.503,2342.496 371.503,2340.821 364.173,2340.821 364.173,2335.33 370.677,2335.33 
				370.677,2333.748 			"/>
			<polygon fill="#FFFFFF" points="278.64,2491.489 272.137,2491.489 272.137,2486.742 279.053,2486.742 279.053,2485.067 
				269.969,2485.067 269.969,2500.237 279.466,2500.237 279.466,2498.562 272.137,2498.562 272.137,2493.071 278.64,2493.071 
				278.64,2491.489 			"/>
			<polygon fill="#FFFFFF" points="305.693,2491.489 299.19,2491.489 299.19,2486.742 306.106,2486.742 306.106,2485.067 
				297.022,2485.067 297.022,2500.237 306.519,2500.237 306.519,2498.562 299.19,2498.562 299.19,2493.071 305.693,2493.071 
				305.693,2491.489 			"/>
			<polygon fill="#FFFFFF" points="333.409,2491.489 326.905,2491.489 326.905,2486.742 333.822,2486.742 333.822,2485.067 
				324.737,2485.067 324.737,2500.237 334.235,2500.237 334.235,2498.562 326.905,2498.562 326.905,2493.071 333.409,2493.071 
				333.409,2491.489 			"/>
		</g>
		<g id="elevator_00000110469092927344763160000000151427120732829614_">
			<g id="elevator-box_00000101797785368624263290000013411289972074947719_">
				<rect x="221.135" y="1266.245" fill="#9FAEBF" width="29.834" height="22.429"/>
				<rect x="221.135" y="1290.32" fill="#9FAEBF" width="29.834" height="22.429"/>
				<rect x="221.135" y="1314.394" fill="#9FAEBF" width="29.834" height="22.429"/>
				<rect x="221.135" y="1218.096" fill="#9FAEBF" width="29.834" height="22.429"/>
				<rect x="221.135" y="1242.17" fill="#9FAEBF" width="29.834" height="22.429"/>
				<rect x="351.102" y="1266.245" fill="#9FAEBF" width="29.834" height="22.429"/>
				<rect x="351.102" y="1290.32" fill="#9FAEBF" width="29.834" height="22.429"/>
				<rect x="351.102" y="1314.394" fill="#9FAEBF" width="29.834" height="22.429"/>
				<rect x="351.102" y="1218.096" fill="#9FAEBF" width="29.834" height="22.429"/>
				<rect x="351.102" y="1242.17" fill="#9FAEBF" width="29.834" height="22.429"/>
				<rect x="263.314" y="1377.539" fill="#9FAEBF" width="25.078" height="24.015"/>
				<rect x="318.106" y="1377.539" fill="#9FAEBF" width="25.078" height="24.015"/>
			</g>
			<g id="elevator-icon_00000077287320944099215760000011006536415816925844_">
				<polygon fill="#FFFFFF" points="239.821,1277.878 233.317,1277.878 233.317,1283.37 240.647,1283.37 240.647,1285.045 
					231.149,1285.045 231.149,1269.875 240.234,1269.875 240.234,1271.55 233.317,1271.55 233.317,1276.389 239.821,1276.389 
					239.821,1277.878 				"/>
				<polygon fill="#FFFFFF" points="239.821,1300.371 233.317,1300.371 233.317,1295.625 240.234,1295.625 240.234,1293.949 
					231.149,1293.949 231.149,1309.119 240.647,1309.119 240.647,1307.444 233.317,1307.444 233.317,1301.953 239.821,1301.953 
					239.821,1300.371 				"/>
				<polygon fill="#FFFFFF" points="239.821,1324.446 233.317,1324.446 233.317,1319.699 240.234,1319.699 240.234,1318.024 
					231.149,1318.024 231.149,1333.194 240.647,1333.194 240.647,1331.519 233.317,1331.519 233.317,1326.028 239.821,1326.028 
					239.821,1324.446 				"/>
				<polygon fill="#FFFFFF" points="239.821,1229.729 233.317,1229.729 233.317,1235.22 240.647,1235.22 240.647,1236.895 
					231.149,1236.895 231.149,1221.725 240.234,1221.725 240.234,1223.401 233.317,1223.401 233.317,1228.24 239.821,1228.24 
					239.821,1229.729 				"/>
				<polygon fill="#FFFFFF" points="239.821,1252.222 233.317,1252.222 233.317,1247.475 240.234,1247.475 240.234,1245.8 
					231.149,1245.8 231.149,1260.97 240.647,1260.97 240.647,1259.295 233.317,1259.295 233.317,1253.804 239.821,1253.804 
					239.821,1252.222 				"/>
				<polygon fill="#FFFFFF" points="369.993,1276.389 363.49,1276.389 363.49,1271.55 370.406,1271.55 370.406,1269.875 
					361.322,1269.875 361.322,1285.045 370.819,1285.045 370.819,1283.37 363.49,1283.37 363.49,1277.878 369.993,1277.878 
					369.993,1276.389 				"/>
				<polygon fill="#FFFFFF" points="369.993,1300.371 363.49,1300.371 363.49,1295.625 370.406,1295.625 370.406,1293.949 
					361.322,1293.949 361.322,1309.119 370.819,1309.119 370.819,1307.444 363.49,1307.444 363.49,1301.953 369.993,1301.953 
					369.993,1300.371 				"/>
				<polygon fill="#FFFFFF" points="369.993,1324.446 363.49,1324.446 363.49,1319.699 370.406,1319.699 370.406,1318.024 
					361.322,1318.024 361.322,1333.194 370.819,1333.194 370.819,1331.519 363.49,1331.519 363.49,1326.028 369.993,1326.028 
					369.993,1324.446 				"/>
				<polygon fill="#FFFFFF" points="369.993,1228.24 363.49,1228.24 363.49,1223.401 370.406,1223.401 370.406,1221.725 
					361.322,1221.725 361.322,1236.895 370.819,1236.895 370.819,1235.22 363.49,1235.22 363.49,1229.729 369.993,1229.729 
					369.993,1228.24 				"/>
				<polygon fill="#FFFFFF" points="369.993,1252.222 363.49,1252.222 363.49,1247.475 370.406,1247.475 370.406,1245.8 
					361.322,1245.8 361.322,1260.97 370.819,1260.97 370.819,1259.295 363.49,1259.295 363.49,1253.804 369.993,1253.804 
					369.993,1252.222 				"/>
				<polygon fill="#FFFFFF" points="280.24,1388.672 273.736,1388.672 273.736,1383.926 280.653,1383.926 280.653,1382.25 
					271.568,1382.25 271.568,1397.421 281.066,1397.421 281.066,1395.745 273.736,1395.745 273.736,1390.254 280.24,1390.254 
					280.24,1388.672 				"/>
				<polygon fill="#FFFFFF" points="335.008,1388.672 328.505,1388.672 328.505,1383.926 335.421,1383.926 335.421,1382.25 
					326.337,1382.25 326.337,1397.421 335.834,1397.421 335.834,1395.745 328.505,1395.745 328.505,1390.254 335.008,1390.254 
					335.008,1388.672 				"/>
			</g>
		</g>
	</g>
	<g id="escalator">
		<g id="escalator_down_00000103974236073144786690000015079855542258166708_">
			
				<line fill="none" stroke="#DFDFDF" stroke-width="1.0575" stroke-linecap="round" stroke-miterlimit="10" x1="273.947" y1="2233.63" x2="259.089" y2="2151.322"/>
			
				<line fill="none" stroke="#DFDFDF" stroke-width="1.0575" stroke-linecap="round" stroke-miterlimit="10" x1="260.438" y1="2238.725" x2="245.166" y2="2154.131"/>
			
				<line fill="none" stroke="#DFDFDF" stroke-width="1.0575" stroke-linecap="round" stroke-miterlimit="10" x1="273.781" y1="2232.596" x2="259.806" y2="2235.118"/>
			
				<line fill="none" stroke="#DFDFDF" stroke-width="1.0575" stroke-linecap="round" stroke-miterlimit="10" x1="272.937" y1="2227.92" x2="258.962" y2="2230.443"/>
			
				<line fill="none" stroke="#DFDFDF" stroke-width="1.0575" stroke-linecap="round" stroke-miterlimit="10" x1="272.093" y1="2223.244" x2="258.118" y2="2225.767"/>
			
				<line fill="none" stroke="#DFDFDF" stroke-width="1.0575" stroke-linecap="round" stroke-miterlimit="10" x1="271.249" y1="2218.569" x2="257.274" y2="2221.091"/>
			
				<line fill="none" stroke="#DFDFDF" stroke-width="1.0575" stroke-linecap="round" stroke-miterlimit="10" x1="270.405" y1="2213.893" x2="256.43" y2="2216.416"/>
			
				<line fill="none" stroke="#DFDFDF" stroke-width="1.0575" stroke-linecap="round" stroke-miterlimit="10" x1="269.561" y1="2209.218" x2="255.586" y2="2211.74"/>
			
				<line fill="none" stroke="#DFDFDF" stroke-width="1.0575" stroke-linecap="round" stroke-miterlimit="10" x1="268.717" y1="2204.542" x2="254.742" y2="2207.064"/>
			
				<line fill="none" stroke="#DFDFDF" stroke-width="1.0575" stroke-linecap="round" stroke-miterlimit="10" x1="267.873" y1="2199.866" x2="253.898" y2="2202.389"/>
			
				<line fill="none" stroke="#DFDFDF" stroke-width="1.0575" stroke-linecap="round" stroke-miterlimit="10" x1="267.029" y1="2195.19" x2="253.054" y2="2197.713"/>
			
				<line fill="none" stroke="#DFDFDF" stroke-width="1.0575" stroke-linecap="round" stroke-miterlimit="10" x1="266.185" y1="2190.515" x2="252.21" y2="2193.037"/>
			
				<line fill="none" stroke="#DFDFDF" stroke-width="1.0575" stroke-linecap="round" stroke-miterlimit="10" x1="265.341" y1="2185.839" x2="251.367" y2="2188.362"/>
			
				<line fill="none" stroke="#DFDFDF" stroke-width="1.0575" stroke-linecap="round" stroke-miterlimit="10" x1="264.497" y1="2181.164" x2="250.523" y2="2183.686"/>
			
				<line fill="none" stroke="#DFDFDF" stroke-width="1.0575" stroke-linecap="round" stroke-miterlimit="10" x1="263.653" y1="2176.488" x2="249.679" y2="2179.01"/>
			
				<line fill="none" stroke="#DFDFDF" stroke-width="1.0575" stroke-linecap="round" stroke-miterlimit="10" x1="262.809" y1="2171.812" x2="248.835" y2="2174.334"/>
			
				<line fill="none" stroke="#DFDFDF" stroke-width="1.0575" stroke-linecap="round" stroke-miterlimit="10" x1="261.965" y1="2167.136" x2="247.991" y2="2169.659"/>
			
				<line fill="none" stroke="#DFDFDF" stroke-width="1.0575" stroke-linecap="round" stroke-miterlimit="10" x1="261.121" y1="2162.461" x2="247.147" y2="2164.983"/>
			
				<line fill="none" stroke="#DFDFDF" stroke-width="1.0575" stroke-linecap="round" stroke-miterlimit="10" x1="228.653" y1="2237.49" x2="230.231" y2="2153.866"/>
			
				<line fill="none" stroke="#DFDFDF" stroke-width="1.0575" stroke-linecap="round" stroke-miterlimit="10" x1="242.801" y1="2240.371" x2="244.424" y2="2154.425"/>
			
				<line fill="none" stroke="#DFDFDF" stroke-width="1.0575" stroke-linecap="round" stroke-miterlimit="10" x1="228.653" y1="2236.442" x2="242.851" y2="2236.71"/>
			
				<line fill="none" stroke="#DFDFDF" stroke-width="1.0575" stroke-linecap="round" stroke-miterlimit="10" x1="228.743" y1="2231.692" x2="242.94" y2="2231.96"/>
			
				<line fill="none" stroke="#DFDFDF" stroke-width="1.0575" stroke-linecap="round" stroke-miterlimit="10" x1="228.832" y1="2226.942" x2="243.03" y2="2227.209"/>
			
				<line fill="none" stroke="#DFDFDF" stroke-width="1.0575" stroke-linecap="round" stroke-miterlimit="10" x1="228.922" y1="2222.191" x2="243.12" y2="2222.459"/>
			
				<line fill="none" stroke="#DFDFDF" stroke-width="1.0575" stroke-linecap="round" stroke-miterlimit="10" x1="229.011" y1="2217.441" x2="243.209" y2="2217.708"/>
			
				<line fill="none" stroke="#DFDFDF" stroke-width="1.0575" stroke-linecap="round" stroke-miterlimit="10" x1="229.101" y1="2212.691" x2="243.299" y2="2212.958"/>
			
				<line fill="none" stroke="#DFDFDF" stroke-width="1.0575" stroke-linecap="round" stroke-miterlimit="10" x1="229.191" y1="2207.94" x2="243.388" y2="2208.208"/>
			
				<line fill="none" stroke="#DFDFDF" stroke-width="1.0575" stroke-linecap="round" stroke-miterlimit="10" x1="229.28" y1="2203.19" x2="243.478" y2="2203.458"/>
			
				<line fill="none" stroke="#DFDFDF" stroke-width="1.0575" stroke-linecap="round" stroke-miterlimit="10" x1="229.37" y1="2198.439" x2="243.567" y2="2198.707"/>
			
				<line fill="none" stroke="#DFDFDF" stroke-width="1.0575" stroke-linecap="round" stroke-miterlimit="10" x1="229.459" y1="2193.689" x2="243.657" y2="2193.957"/>
			
				<line fill="none" stroke="#DFDFDF" stroke-width="1.0575" stroke-linecap="round" stroke-miterlimit="10" x1="229.549" y1="2188.939" x2="243.746" y2="2189.206"/>
			
				<line fill="none" stroke="#DFDFDF" stroke-width="1.0575" stroke-linecap="round" stroke-miterlimit="10" x1="229.638" y1="2184.188" x2="243.836" y2="2184.456"/>
			
				<line fill="none" stroke="#DFDFDF" stroke-width="1.0575" stroke-linecap="round" stroke-miterlimit="10" x1="229.728" y1="2179.438" x2="243.926" y2="2179.706"/>
			
				<line fill="none" stroke="#DFDFDF" stroke-width="1.0575" stroke-linecap="round" stroke-miterlimit="10" x1="229.817" y1="2174.688" x2="244.015" y2="2174.955"/>
			
				<line fill="none" stroke="#DFDFDF" stroke-width="1.0575" stroke-linecap="round" stroke-miterlimit="10" x1="229.907" y1="2169.937" x2="244.105" y2="2170.205"/>
			
				<line fill="none" stroke="#DFDFDF" stroke-width="1.0575" stroke-linecap="round" stroke-miterlimit="10" x1="229.997" y1="2165.187" x2="244.194" y2="2165.454"/>
			
				<path fill="none" stroke="#DFDFDF" stroke-width="1.0575" stroke-linecap="round" stroke-linejoin="round" stroke-miterlimit="10" d="
				M260.438,2238.725l4.15,0.204c6.463,0.317,11.54-5.463,10.391-11.832l-12.868-71.286l-2.132,0.43"/>
			
				<path fill="none" stroke="#DFDFDF" stroke-width="1.0575" stroke-linecap="round" stroke-linejoin="round" stroke-miterlimit="10" d="
				M259.071,2238.561"/>
			
				<path fill="none" stroke="#DFDFDF" stroke-width="1.0575" stroke-linecap="round" stroke-linejoin="round" stroke-miterlimit="10" d="
				M230.149,2158.9l-2.329-0.092l-1.365,72.426c-0.122,6.47,5.81,11.37,12.14,10.029l4.206-0.891"/>
		</g>
		<g id="escalator_down_00000135692595893234073470000013503300717818184882_">
			
				<line fill="none" stroke="#DFDFDF" stroke-width="1.0575" stroke-linecap="round" stroke-miterlimit="10" x1="331.166" y1="2233.63" x2="346.025" y2="2151.322"/>
			
				<line fill="none" stroke="#DFDFDF" stroke-width="1.0575" stroke-linecap="round" stroke-miterlimit="10" x1="344.676" y1="2238.725" x2="359.948" y2="2154.131"/>
			
				<line fill="none" stroke="#DFDFDF" stroke-width="1.0575" stroke-linecap="round" stroke-miterlimit="10" x1="331.333" y1="2232.596" x2="345.307" y2="2235.118"/>
			
				<line fill="none" stroke="#DFDFDF" stroke-width="1.0575" stroke-linecap="round" stroke-miterlimit="10" x1="332.177" y1="2227.92" x2="346.151" y2="2230.443"/>
			
				<line fill="none" stroke="#DFDFDF" stroke-width="1.0575" stroke-linecap="round" stroke-miterlimit="10" x1="333.021" y1="2223.244" x2="346.995" y2="2225.767"/>
			
				<line fill="none" stroke="#DFDFDF" stroke-width="1.0575" stroke-linecap="round" stroke-miterlimit="10" x1="333.865" y1="2218.569" x2="347.839" y2="2221.091"/>
			
				<line fill="none" stroke="#DFDFDF" stroke-width="1.0575" stroke-linecap="round" stroke-miterlimit="10" x1="334.709" y1="2213.893" x2="348.683" y2="2216.416"/>
			
				<line fill="none" stroke="#DFDFDF" stroke-width="1.0575" stroke-linecap="round" stroke-miterlimit="10" x1="335.553" y1="2209.218" x2="349.527" y2="2211.74"/>
			
				<line fill="none" stroke="#DFDFDF" stroke-width="1.0575" stroke-linecap="round" stroke-miterlimit="10" x1="336.397" y1="2204.542" x2="350.371" y2="2207.064"/>
			
				<line fill="none" stroke="#DFDFDF" stroke-width="1.0575" stroke-linecap="round" stroke-miterlimit="10" x1="337.241" y1="2199.866" x2="351.215" y2="2202.389"/>
			
				<line fill="none" stroke="#DFDFDF" stroke-width="1.0575" stroke-linecap="round" stroke-miterlimit="10" x1="338.085" y1="2195.19" x2="352.059" y2="2197.713"/>
			
				<line fill="none" stroke="#DFDFDF" stroke-width="1.0575" stroke-linecap="round" stroke-miterlimit="10" x1="338.929" y1="2190.515" x2="352.903" y2="2193.037"/>
			
				<line fill="none" stroke="#DFDFDF" stroke-width="1.0575" stroke-linecap="round" stroke-miterlimit="10" x1="339.773" y1="2185.839" x2="353.747" y2="2188.362"/>
			
				<line fill="none" stroke="#DFDFDF" stroke-width="1.0575" stroke-linecap="round" stroke-miterlimit="10" x1="340.617" y1="2181.164" x2="354.591" y2="2183.686"/>
			
				<line fill="none" stroke="#DFDFDF" stroke-width="1.0575" stroke-linecap="round" stroke-miterlimit="10" x1="341.461" y1="2176.488" x2="355.435" y2="2179.01"/>
			
				<line fill="none" stroke="#DFDFDF" stroke-width="1.0575" stroke-linecap="round" stroke-miterlimit="10" x1="342.305" y1="2171.812" x2="356.279" y2="2174.334"/>
			
				<line fill="none" stroke="#DFDFDF" stroke-width="1.0575" stroke-linecap="round" stroke-miterlimit="10" x1="343.149" y1="2167.136" x2="357.123" y2="2169.659"/>
			
				<line fill="none" stroke="#DFDFDF" stroke-width="1.0575" stroke-linecap="round" stroke-miterlimit="10" x1="343.993" y1="2162.461" x2="357.967" y2="2164.983"/>
			
				<line fill="none" stroke="#DFDFDF" stroke-width="1.0575" stroke-linecap="round" stroke-miterlimit="10" x1="376.461" y1="2237.49" x2="374.882" y2="2153.866"/>
			
				<line fill="none" stroke="#DFDFDF" stroke-width="1.0575" stroke-linecap="round" stroke-miterlimit="10" x1="362.312" y1="2240.371" x2="360.69" y2="2154.425"/>
			
				<line fill="none" stroke="#DFDFDF" stroke-width="1.0575" stroke-linecap="round" stroke-miterlimit="10" x1="376.46" y1="2236.442" x2="362.263" y2="2236.71"/>
			
				<line fill="none" stroke="#DFDFDF" stroke-width="1.0575" stroke-linecap="round" stroke-miterlimit="10" x1="376.371" y1="2231.692" x2="362.173" y2="2231.96"/>
			
				<line fill="none" stroke="#DFDFDF" stroke-width="1.0575" stroke-linecap="round" stroke-miterlimit="10" x1="376.281" y1="2226.942" x2="362.083" y2="2227.209"/>
			
				<line fill="none" stroke="#DFDFDF" stroke-width="1.0575" stroke-linecap="round" stroke-miterlimit="10" x1="376.192" y1="2222.191" x2="361.994" y2="2222.459"/>
			
				<line fill="none" stroke="#DFDFDF" stroke-width="1.0575" stroke-linecap="round" stroke-miterlimit="10" x1="376.102" y1="2217.441" x2="361.904" y2="2217.708"/>
			
				<line fill="none" stroke="#DFDFDF" stroke-width="1.0575" stroke-linecap="round" stroke-miterlimit="10" x1="376.012" y1="2212.691" x2="361.815" y2="2212.958"/>
			
				<line fill="none" stroke="#DFDFDF" stroke-width="1.0575" stroke-linecap="round" stroke-miterlimit="10" x1="375.923" y1="2207.94" x2="361.725" y2="2208.208"/>
			
				<line fill="none" stroke="#DFDFDF" stroke-width="1.0575" stroke-linecap="round" stroke-miterlimit="10" x1="375.833" y1="2203.19" x2="361.636" y2="2203.458"/>
			
				<line fill="none" stroke="#DFDFDF" stroke-width="1.0575" stroke-linecap="round" stroke-miterlimit="10" x1="375.744" y1="2198.439" x2="361.546" y2="2198.707"/>
			
				<line fill="none" stroke="#DFDFDF" stroke-width="1.0575" stroke-linecap="round" stroke-miterlimit="10" x1="375.654" y1="2193.689" x2="361.457" y2="2193.957"/>
			
				<line fill="none" stroke="#DFDFDF" stroke-width="1.0575" stroke-linecap="round" stroke-miterlimit="10" x1="375.565" y1="2188.939" x2="361.367" y2="2189.206"/>
			
				<line fill="none" stroke="#DFDFDF" stroke-width="1.0575" stroke-linecap="round" stroke-miterlimit="10" x1="375.475" y1="2184.188" x2="361.277" y2="2184.456"/>
			
				<line fill="none" stroke="#DFDFDF" stroke-width="1.0575" stroke-linecap="round" stroke-miterlimit="10" x1="375.386" y1="2179.438" x2="361.188" y2="2179.706"/>
			
				<line fill="none" stroke="#DFDFDF" stroke-width="1.0575" stroke-linecap="round" stroke-miterlimit="10" x1="375.296" y1="2174.688" x2="361.098" y2="2174.955"/>
			
				<line fill="none" stroke="#DFDFDF" stroke-width="1.0575" stroke-linecap="round" stroke-miterlimit="10" x1="375.206" y1="2169.937" x2="361.009" y2="2170.205"/>
			
				<line fill="none" stroke="#DFDFDF" stroke-width="1.0575" stroke-linecap="round" stroke-miterlimit="10" x1="375.117" y1="2165.187" x2="360.919" y2="2165.454"/>
			
				<path fill="none" stroke="#DFDFDF" stroke-width="1.0575" stroke-linecap="round" stroke-linejoin="round" stroke-miterlimit="10" d="
				M344.676,2238.725l-4.15,0.204c-6.463,0.317-11.54-5.463-10.391-11.832l12.868-71.286l2.132,0.43"/>
			
				<path fill="none" stroke="#DFDFDF" stroke-width="1.0575" stroke-linecap="round" stroke-linejoin="round" stroke-miterlimit="10" d="
				M346.042,2238.561"/>
			
				<path fill="none" stroke="#DFDFDF" stroke-width="1.0575" stroke-linecap="round" stroke-linejoin="round" stroke-miterlimit="10" d="
				M374.964,2158.9l2.329-0.092l1.365,72.426c0.122,6.47-5.81,11.37-12.14,10.029l-4.206-0.891"/>
		</g>
	</g>
	<g id="stairs">
		
			<path id="stairs_00000033355663391305997910000016119868406721025152_" fill="none" stroke="#DEDEDE" stroke-width="1.057" stroke-linecap="round" stroke-linejoin="round" stroke-miterlimit="10" d="
			M184.382,1315.708h-14.685 M199.923,1315.708h-14.685 M199.923,1312.866h-14.685 M199.923,1295.922h-14.685 M184.504,1323.811
			v-29.362 M184.382,1304.342h-14.685 M184.382,1301.5h-14.685 M184.382,1298.764h-14.685 M184.382,1295.922h-14.685
			 M202.737,1298.764h14.069 M202.737,1301.5h14.069 M202.768,1307.183h13.916 M202.737,1304.342h14.069 M166.882,1298.764h-14.685
			 M166.882,1301.5h-14.685 M166.963,1307.183H152.32 M166.882,1304.342h-14.685 M184.382,1312.866h-14.685 M185.238,1295.922
			h-0.857 M184.382,1307.183h-14.685 M199.923,1307.183h-14.685 M199.923,1310.025h-14.685 M199.923,1318.549h-14.685
			 M184.382,1318.549h-14.685 M184.382,1310.025h-14.685 M199.923,1298.764h-14.685 M199.923,1304.342h-14.685 M199.923,1301.5
			h-14.685 M202.493,1309.288v-13.997c0-0.526-0.489-1.158-1.224-1.158c-0.734,0-1.224,0.526-1.224,1.158v28.52 M167.127,1309.288
			v-13.997c0-0.631,0.489-1.158,1.101-1.158c0.734,0,1.224,0.631,1.224,1.158v28.52 M217.3,1309.288v-27.468
			c0-0.316-0.245-0.526-0.612-0.526l0,0h-63.879c-0.367,0-0.612,0.21-0.612,0.526v27.468"/>
		
			<path id="stairs_00000126288032649710053870000011614377022027410602_" fill="none" stroke="#DEDEDE" stroke-width="1.057" stroke-linecap="round" stroke-linejoin="round" stroke-miterlimit="10" d="
			M418.717,1315.708h-14.685 M434.258,1315.708h-14.685 M434.258,1312.866h-14.685 M434.258,1295.922h-14.685 M418.839,1323.811
			v-29.362 M418.717,1304.342h-14.685 M418.717,1301.5h-14.685 M418.717,1298.764h-14.685 M418.717,1295.922h-14.685
			 M437.073,1298.764h14.069 M437.073,1301.5h14.069 M437.104,1307.183h13.916 M437.073,1304.342h14.069 M401.217,1298.764h-14.685
			 M401.217,1301.5h-14.685 M401.299,1307.183h-14.644 M401.217,1304.342h-14.685 M418.717,1312.866h-14.685 M419.573,1295.922
			h-0.857 M418.717,1307.183h-14.685 M434.258,1307.183h-14.685 M434.258,1310.025h-14.685 M434.258,1318.549h-14.685
			 M418.717,1318.549h-14.685 M418.717,1310.025h-14.685 M434.258,1298.764h-14.685 M434.258,1304.342h-14.685 M434.258,1301.5
			h-14.685 M436.828,1309.288v-13.997c0-0.526-0.49-1.158-1.224-1.158c-0.734,0-1.224,0.526-1.224,1.158v28.52 M401.462,1309.288
			v-13.997c0-0.631,0.49-1.158,1.101-1.158c0.734,0,1.224,0.631,1.224,1.158v28.52 M451.635,1309.288v-27.468
			c0-0.316-0.245-0.526-0.612-0.526l0,0h-63.879c-0.367,0-0.612,0.21-0.612,0.526v27.468"/>
		
			<path id="stairs_00000078751065282445697500000000434001890750581928_" fill="none" stroke="#DEDEDE" stroke-width="1.057" stroke-linecap="round" stroke-linejoin="round" stroke-miterlimit="10" d="
			M356.654,1429.125l-7.526-7.887 M335.153,1433.82l14.865-14.184 M341.457,1427.679l-7.526-7.887 M343.898,1425.35l-7.526-7.887
			 M346.248,1423.107l-7.525-7.887 M348.689,1420.778l-7.526-7.887 M349.128,1421.238l-0.439-0.46 M339.017,1430.007l-7.526-7.887
			 M346.981,1438.354l-7.526-7.887 M344.54,1440.683l-7.525-7.887 M336.576,1432.336l-7.526-7.887 M354.213,1431.454l-7.526-7.887
			 M349.422,1436.025l-7.525-7.887 M351.862,1433.696l-7.525-7.887 M357.507,1428.436l-14.39,13.731 M341.829,1412.005
			l-14.39,13.731"/>
		
			<path id="stairs_00000054979496653552579020000012065898039020768652_" fill="none" stroke="#DEDEDE" stroke-width="1.057" stroke-linecap="round" stroke-linejoin="round" stroke-miterlimit="10" d="
			M185.932,2441.316h-14.685 M201.474,2441.316h-14.685 M201.474,2438.474h-14.685 M201.474,2421.531h-14.685 M186.055,2449.419
			v-29.362 M185.932,2429.95h-14.685 M185.932,2427.108h-14.685 M185.932,2424.372h-14.685 M185.932,2421.531h-14.685
			 M204.288,2424.372h14.069 M204.288,2427.108h14.069 M204.319,2432.791h13.916 M204.288,2429.95h14.069 M168.433,2424.372h-14.685
			 M168.433,2427.108h-14.685 M168.514,2432.791h-14.644 M168.433,2429.95h-14.685 M185.932,2438.474h-14.685 M186.789,2421.531
			h-0.857 M185.932,2432.791h-14.685 M201.474,2432.791h-14.685 M201.474,2435.633h-14.685 M201.474,2444.157h-14.685
			 M185.932,2444.157h-14.685 M185.932,2435.633h-14.685 M201.474,2424.372h-14.685 M201.474,2429.95h-14.685 M201.474,2427.108
			h-14.685 M204.043,2434.896v-13.997c0-0.526-0.489-1.158-1.224-1.158c-0.734,0-1.224,0.526-1.224,1.158v28.52 M168.678,2434.896
			v-13.997c0-0.632,0.489-1.158,1.101-1.158c0.734,0,1.224,0.631,1.224,1.158v28.52 M218.851,2434.896v-27.468
			c0-0.316-0.245-0.526-0.612-0.526l0,0H154.36c-0.367,0-0.612,0.21-0.612,0.526v27.468"/>
		
			<path id="stairs_00000036240907996932184720000015029641046525987457_" fill="none" stroke="#DEDEDE" stroke-width="1.057" stroke-linecap="round" stroke-linejoin="round" stroke-miterlimit="10" d="
			M417.19,2441.316h-14.685 M432.731,2441.316h-14.685 M432.731,2438.474h-14.685 M432.731,2421.531h-14.685 M417.312,2449.419
			v-29.362 M417.19,2429.95h-14.685 M417.19,2427.108h-14.685 M417.19,2424.372h-14.685 M417.19,2421.531h-14.685 M435.546,2424.372
			h14.069 M435.546,2427.108h14.069 M435.577,2432.791h13.916 M435.546,2429.95h14.069 M399.691,2424.372h-14.685 M399.691,2427.108
			h-14.685 M399.772,2432.791h-14.644 M399.691,2429.95h-14.685 M417.19,2438.474h-14.685 M418.047,2421.531h-0.857
			 M417.19,2432.791h-14.685 M432.731,2432.791h-14.685 M432.731,2435.633h-14.685 M432.731,2444.157h-14.685 M417.19,2444.157
			h-14.685 M417.19,2435.633h-14.685 M432.731,2424.372h-14.685 M432.731,2429.95h-14.685 M432.731,2427.108h-14.685
			 M435.301,2434.896v-13.997c0-0.526-0.489-1.158-1.224-1.158c-0.734,0-1.224,0.526-1.224,1.158v28.52 M399.935,2434.896v-13.997
			c0-0.632,0.489-1.158,1.101-1.158c0.734,0,1.224,0.631,1.224,1.158v28.52 M450.108,2434.896v-27.468
			c0-0.316-0.245-0.526-0.612-0.526l0,0h-63.879c-0.367,0-0.612,0.21-0.612,0.526v27.468"/>
		<g id="stairs_00000054255187666171112070000013152553269693031298_">
			
				<polyline fill="none" stroke="#DEDEDE" stroke-width="1.057" stroke-linecap="round" stroke-linejoin="round" stroke-miterlimit="10" points="
				231.751,3279.347 231.751,3316.829 221.038,3316.829 221.038,3279.347 			"/>
			
				<line fill="none" stroke="#DEDEDE" stroke-width="1.057" stroke-linecap="round" stroke-linejoin="round" stroke-miterlimit="10" x1="221.038" y1="3290.606" x2="231.751" y2="3290.606"/>
			
				<line fill="none" stroke="#DEDEDE" stroke-width="1.057" stroke-linecap="round" stroke-linejoin="round" stroke-miterlimit="10" x1="221.038" y1="3293.448" x2="231.751" y2="3293.448"/>
			
				<line fill="none" stroke="#DEDEDE" stroke-width="1.057" stroke-linecap="round" stroke-linejoin="round" stroke-miterlimit="10" x1="221.038" y1="3296.184" x2="231.751" y2="3296.184"/>
			
				<line fill="none" stroke="#DEDEDE" stroke-width="1.057" stroke-linecap="round" stroke-linejoin="round" stroke-miterlimit="10" x1="221.038" y1="3299.026" x2="231.751" y2="3299.026"/>
			
				<line fill="none" stroke="#DEDEDE" stroke-width="1.057" stroke-linecap="round" stroke-linejoin="round" stroke-miterlimit="10" x1="221.038" y1="3282.082" x2="231.751" y2="3282.082"/>
			
				<line fill="none" stroke="#DEDEDE" stroke-width="1.057" stroke-linecap="round" stroke-linejoin="round" stroke-miterlimit="10" x1="221.038" y1="3287.765" x2="231.751" y2="3287.765"/>
			
				<line fill="none" stroke="#DEDEDE" stroke-width="1.057" stroke-linecap="round" stroke-linejoin="round" stroke-miterlimit="10" x1="221.038" y1="3284.923" x2="231.751" y2="3284.923"/>
			
				<line fill="none" stroke="#DEDEDE" stroke-width="1.057" stroke-linecap="round" stroke-linejoin="round" stroke-miterlimit="10" x1="221.038" y1="3307.55" x2="231.751" y2="3307.55"/>
			
				<line fill="none" stroke="#DEDEDE" stroke-width="1.057" stroke-linecap="round" stroke-linejoin="round" stroke-miterlimit="10" x1="221.038" y1="3310.391" x2="231.751" y2="3310.391"/>
			
				<line fill="none" stroke="#DEDEDE" stroke-width="1.057" stroke-linecap="round" stroke-linejoin="round" stroke-miterlimit="10" x1="221.038" y1="3313.128" x2="231.751" y2="3313.128"/>
			
				<line fill="none" stroke="#DEDEDE" stroke-width="1.057" stroke-linecap="round" stroke-linejoin="round" stroke-miterlimit="10" x1="221.038" y1="3304.708" x2="231.751" y2="3304.708"/>
			
				<line fill="none" stroke="#DEDEDE" stroke-width="1.057" stroke-linecap="round" stroke-linejoin="round" stroke-miterlimit="10" x1="221.038" y1="3301.867" x2="231.751" y2="3301.867"/>
		</g>
		<g id="stairs_00000093873068535827224720000006987590551347288214_">
			
				<polyline fill="none" stroke="#DEDEDE" stroke-width="1.057" stroke-linecap="round" stroke-linejoin="round" stroke-miterlimit="10" points="
				382.777,3279.044 382.777,3316.526 372.064,3316.526 372.064,3279.044 			"/>
			
				<line fill="none" stroke="#DEDEDE" stroke-width="1.057" stroke-linecap="round" stroke-linejoin="round" stroke-miterlimit="10" x1="372.064" y1="3290.303" x2="382.777" y2="3290.303"/>
			
				<line fill="none" stroke="#DEDEDE" stroke-width="1.057" stroke-linecap="round" stroke-linejoin="round" stroke-miterlimit="10" x1="372.064" y1="3293.145" x2="382.777" y2="3293.145"/>
			
				<line fill="none" stroke="#DEDEDE" stroke-width="1.057" stroke-linecap="round" stroke-linejoin="round" stroke-miterlimit="10" x1="372.064" y1="3295.881" x2="382.777" y2="3295.881"/>
			
				<line fill="none" stroke="#DEDEDE" stroke-width="1.057" stroke-linecap="round" stroke-linejoin="round" stroke-miterlimit="10" x1="372.064" y1="3298.722" x2="382.777" y2="3298.722"/>
			
				<line fill="none" stroke="#DEDEDE" stroke-width="1.057" stroke-linecap="round" stroke-linejoin="round" stroke-miterlimit="10" x1="372.064" y1="3281.779" x2="382.777" y2="3281.779"/>
			
				<line fill="none" stroke="#DEDEDE" stroke-width="1.057" stroke-linecap="round" stroke-linejoin="round" stroke-miterlimit="10" x1="372.064" y1="3287.462" x2="382.777" y2="3287.462"/>
			
				<line fill="none" stroke="#DEDEDE" stroke-width="1.057" stroke-linecap="round" stroke-linejoin="round" stroke-miterlimit="10" x1="372.064" y1="3284.62" x2="382.777" y2="3284.62"/>
			
				<line fill="none" stroke="#DEDEDE" stroke-width="1.057" stroke-linecap="round" stroke-linejoin="round" stroke-miterlimit="10" x1="372.064" y1="3307.247" x2="382.777" y2="3307.247"/>
			
				<line fill="none" stroke="#DEDEDE" stroke-width="1.057" stroke-linecap="round" stroke-linejoin="round" stroke-miterlimit="10" x1="372.064" y1="3310.088" x2="382.777" y2="3310.088"/>
			
				<line fill="none" stroke="#DEDEDE" stroke-width="1.057" stroke-linecap="round" stroke-linejoin="round" stroke-miterlimit="10" x1="372.064" y1="3312.824" x2="382.777" y2="3312.824"/>
			
				<line fill="none" stroke="#DEDEDE" stroke-width="1.057" stroke-linecap="round" stroke-linejoin="round" stroke-miterlimit="10" x1="372.064" y1="3304.405" x2="382.777" y2="3304.405"/>
			
				<line fill="none" stroke="#DEDEDE" stroke-width="1.057" stroke-linecap="round" stroke-linejoin="round" stroke-miterlimit="10" x1="372.064" y1="3301.564" x2="382.777" y2="3301.564"/>
		</g>
		
			<path id="stairs_00000059310103744876754500000005045886087240927873_" fill="none" stroke="#DEDEDE" stroke-width="1.057" stroke-linecap="round" stroke-linejoin="round" stroke-miterlimit="10" d="
			M254.836,1419.185l-7.591,7.823 M253.96,1417.576l14.745,14.308 M270.044,1417.867l-7.591,7.823 M267.623,1415.517l-7.591,7.823
			 M265.291,1413.255l-7.591,7.823 M262.87,1410.906l-7.591,7.823 M255.279,1418.729l-0.443,0.456 M272.465,1420.216l-7.591,7.823
			 M264.431,1428.495l-7.591,7.823 M266.852,1430.845l-7.591,7.823 M274.886,1422.565l-7.591,7.823 M257.257,1421.534l-7.591,7.823
			 M262.01,1426.146l-7.591,7.823 M259.589,1423.797l-7.591,7.823 M260.671,1440.164l-14.274-13.851 M276.487,1423.865
			l-14.274-13.851"/>
	</g>
	
		<rect x="209.772" y="1025.392" fill="#E9E9E9" stroke="#E9E9E9" stroke-width="1.057" stroke-linecap="round" stroke-linejoin="round" stroke-miterlimit="10" width="23.906" height="189.682"/>
	
		<rect x="233.62" y="1199.178" fill="#E9E9E9" stroke="#E9E9E9" stroke-width="1.057" stroke-linecap="round" stroke-linejoin="round" stroke-miterlimit="10" width="47.859" height="15.896"/>
	
		<rect x="321.843" y="1199.178" fill="#E9E9E9" stroke="#E9E9E9" stroke-width="1.057" stroke-linecap="round" stroke-linejoin="round" stroke-miterlimit="10" width="47.859" height="15.896"/>
	
		<rect x="218.243" y="3067.832" fill="#E9E9E9" stroke="#E9E9E9" stroke-width="1.057" stroke-linecap="round" stroke-linejoin="round" stroke-miterlimit="10" width="66.163" height="57.482"/>
</g>
<g id="venueBG">
	
		<polygon fill="none" stroke="#DFDFDF" stroke-width="1.0575" stroke-linecap="round" stroke-linejoin="round" stroke-miterlimit="10" points="
		381.936,2250.236 381.936,2293.772 335.71,2293.772 335.71,2250.572 	"/>
	
		<polygon fill="none" stroke="#DFDFDF" stroke-width="1.0575" stroke-linecap="round" stroke-linejoin="round" stroke-miterlimit="10" points="
		256.045,2272.2 280.712,2272.2 280.712,2249.462 221.635,2249.462 221.635,2293.026 256.045,2293.026 	"/>
	
		<polygon fill="none" stroke="#DEDEDE" stroke-width="1.057" stroke-linecap="round" stroke-linejoin="round" stroke-miterlimit="10" points="
		295.738,999.948 295.738,1036.756 281.066,1036.756 281.066,1159.693 321.843,1159.693 321.843,1199.178 369.703,1199.178 
		369.703,999.588 	"/>
	
		<path fill="none" stroke="#DEDEDE" stroke-width="1.057" stroke-linecap="round" stroke-linejoin="round" stroke-miterlimit="10" d="
		M387.219,3125.313H218.243v-26.925h-66.011v74.009H74.197v70.69c0,0,12.663,62.525,83.103,82.708c0,0,28.771,13.672,144.581,14.355
		c0,0,135.992-0.504,171.212-24.248c35.22-23.744,44.717-34.824,58.172-71.627v-71.877h-79.548v-72.564h-64.893L387.219,3125.313z"
		/>
	
		<rect x="284.352" y="2558.944" fill="none" stroke="#DEDEDE" stroke-width="1.057" stroke-linecap="round" stroke-linejoin="round" stroke-miterlimit="10" width="101.118" height="67.018"/>
	
		<polygon fill="none" stroke="#DFDFDF" stroke-width="1.0575" stroke-linecap="round" stroke-linejoin="round" stroke-miterlimit="10" points="
		269.561,1894.774 269.561,1971.483 385.221,1971.483 385.221,1914.792 358.552,1914.792 358.552,1848.342 324.812,1848.342 
		324.812,1894.774 	"/>
	
		<polygon fill="none" stroke="#DFDFDF" stroke-width="1.0575" stroke-linecap="round" stroke-linejoin="round" stroke-miterlimit="10" points="
		324.812,2101.407 347.526,2101.407 347.526,2081.168 385.221,2081.168 385.221,1971.483 324.812,1971.483 	"/>
	
		<path fill="none" stroke="#DFDFDF" stroke-width="1.0575" stroke-linecap="round" stroke-linejoin="round" stroke-miterlimit="10" d="
		M324.81,1989.11v112.3h-1.15c-2.68-7.47-9.82-12.81-18.21-12.81s-15.53,5.34-18.21,12.81h-31.01v-20.85h-37.59v-91.45H324.81z"/>
	
		<polygon fill="none" stroke="#DFDFDF" stroke-width="1.0575" stroke-linecap="round" stroke-linejoin="round" stroke-miterlimit="10" points="
		231.388,1754.999 371.173,1754.999 371.173,1847.72 324.812,1847.72 324.812,1835.076 250.705,1835.076 250.705,1859.662 
		231.388,1859.662 	"/>
	
		<path fill="none" stroke="#DFDFDF" stroke-width="1.0575" stroke-linecap="round" stroke-linejoin="round" stroke-miterlimit="10" d="
		M248.246,1632.424h-29.853v93.486h31.412v28.895h23.872v-57.883h55.535v57.883h25.224v-30.363h30.434v-93.424h-27.904
		c0,0,19.084-9.262,27.904-32.585v-195.706h-66.764v15.144h-29.639v-14.702l-70.642-0.442v109.118h31.98v15.564h-31.412v69.541
		C218.393,1596.951,228.856,1622.18,248.246,1632.424z"/>
	
		<polygon fill="none" stroke="#DFDFDF" stroke-width="1.0575" stroke-linecap="round" stroke-linejoin="round" stroke-miterlimit="10" points="
		281.48,1199.178 281.48,1036.756 295.738,1036.756 295.738,945.724 217.953,945.724 217.953,1025.392 233.678,1025.392 
		233.678,1199.178 	"/>
</g>
<g id="venueLabels">
	<text transform="matrix(1 0 0 1 241.7404 1084.5001)"><tspan x="0" y="0" fill="#A1AFC0" font-family="'Avenir-Book'" font-size="14px">“it’s a</tspan><tspan x="1.302" y="16" fill="#A1AFC0" font-family="'Avenir-Book'" font-size="14px">small</tspan><tspan x="-3.878" y="32" fill="#A1AFC0" font-family="'Avenir-Book'" font-size="14px">world”</tspan><tspan x="-5.439" y="48" fill="#A1AFC0" font-family="'Avenir-Book'" font-size="14px">nursery</tspan></text>
	<text transform="matrix(1 0 0 1 297.7642 1087.6973)"><tspan x="0" y="0" fill="#A1AFC0" font-family="'Avenir-Book'" font-size="14px">Mickey &amp;</tspan><tspan x="7.532" y="16" fill="#A1AFC0" font-family="'Avenir-Book'" font-size="14px">Minnie</tspan><tspan x="0.406" y="32" fill="#A1AFC0" font-family="'Avenir-Book'" font-size="14px">Captain’s</tspan><tspan x="12.971" y="48" fill="#A1AFC0" font-family="'Avenir-Book'" font-size="14px">Deck</tspan></text>
	<g id="g2628_1_">
		<g id="g2632_1_">
			<g id="g2634_1_">
				<path id="path2636_1_" fill="#A1AFC0" d="M258.981,1051.363c2.081,0,3.77-1.688,3.77-3.768c0-2.079-1.688-3.765-3.77-3.765
					c-2.081,0-3.766,1.686-3.766,3.765C255.214,1049.676,256.9,1051.363,258.981,1051.363z"/>
				<path id="path2638_1_" fill="#A1AFC0" d="M258.981,1048.461"/>
			</g>
			<path id="path2640_1_" fill="#A1AFC0" d="M258.975,1058.306h-3.612v-2.432l-2.761,2.594c-1.245,1.164-2.937-0.328-1.688-1.495
				l4.573-4.273c0.37-0.343,0.776-0.563,1.422-0.563h2.065h0.002h2.03c0.644,0,1.08,0.211,1.461,0.563l4.618,4.313
				c1.19,1.111-0.547,2.618-1.686,1.497l-2.837-2.648v2.442h-3.586H258.975z"/>
			<path id="path2642_1_" fill="#A1AFC0" d="M262.55,1059.568l-2.716,2.532l1.994,1.854l-2.041,1.901
				c-1.205,1.125,0.457,2.733,1.703,1.571l3.229-3.128c0.692-0.66,0.884-1.882,0.142-2.573
				C264.858,1061.724,262.55,1059.568,262.55,1059.568z"/>
			<path id="path2644_1_" fill="#A1AFC0" d="M255.367,1059.568l2.711,2.532l-1.99,1.854l2.041,1.901
				c1.204,1.125-0.457,2.733-1.705,1.571l-3.229-3.128c-0.692-0.66-0.882-1.882-0.14-2.573
				C253.057,1061.724,255.367,1059.568,255.367,1059.568z"/>
		</g>
	</g>
	<text transform="matrix(1 0 0 1 280.7002 1536.2017)"><tspan x="0" y="0" fill="#A1AFC0" font-family="'Avenir-Book'" font-size="14px">Disney’s</tspan><tspan x="-5.705" y="16" fill="#A1AFC0" font-family="'Avenir-Book'" font-size="14px">Oceaneer</tspan><tspan x="10.255" y="32" fill="#A1AFC0" font-family="'Avenir-Book'" font-size="14px">Club</tspan></text>
	<text transform="matrix(1 0 0 1 235.364 3215.4768)"><tspan x="0" y="0" fill="#A1AFC0" font-family="'Avenir-Book'" font-size="14px">Hollywood Spotlight</tspan><tspan x="14.244" y="16" fill="#A1AFC0" font-family="'Avenir-Book'" font-size="14px">Club Restaurant</tspan></text>
	<g>
		<path fill="#A1AFC0" d="M304.662,3182.879c-0.157-0.061-0.333-0.103-0.563-0.103c-2.346,0-2.825,1.075-2.825,2.398v4.957
			c0,0.932,0.391,1.73,1.333,2.128v6.758c0,0.972,0.787,1.759,1.758,1.759c0.971,0,1.759-0.787,1.759-1.759v-14.411
			C306.125,3183.737,305.49,3183.02,304.662,3182.879z"/>
		<path fill="#A1AFC0" d="M299.315,3183.863c0-0.414-0.333-0.748-0.746-0.748c-0.355,0-0.654,0.251-0.729,0.584v3.838
			c0,0.309-0.251,0.561-0.558,0.561c-0.31,0-0.56-0.252-0.56-0.561v-3.69c-0.009-0.406-0.338-0.732-0.746-0.732
			c-0.381,0-0.696,0.284-0.74,0.651v3.771c0,0.309-0.251,0.561-0.559,0.561c-0.309,0-0.559-0.252-0.559-0.561v-3.757
			c-0.041-0.373-0.356-0.665-0.741-0.665c-0.413,0-0.746,0.335-0.746,0.748v3.677v1.224v0.639c0,0.778,0.673,1.286,1.59,1.548v8.066
			c0,0.972,0.787,1.759,1.759,1.759c0.971,0,1.759-0.787,1.759-1.759v-8.118c0.917-0.283,1.59-0.786,1.59-1.497v-1.863
			c0-0.061-0.006-0.121-0.014-0.179V3183.863z"/>
	</g>
	<text transform="matrix(1 0 0 1 305.2952 2610.8726)"><tspan x="0" y="0" fill="#A1AFC0" font-family="'Avenir-Book'" font-size="14px">Restroom</tspan></text>
	<text transform="matrix(1 0 0 1 210.2086 2286.6621)"><tspan x="0" y="0" fill="#A1AFC0" font-family="'Avenir-Book'" font-size="14px">Restroom</tspan></text>
	<g>
		<path id="restroom-icon3_00000102540864779527128710000011794037185997904274_" fill="#A1AFC0" d="M236.017,2256.187
			c0-1.181,0.945-2.362,2.362-2.362c1.181,0,2.362,0.945,2.362,2.362c0,1.181-0.945,2.362-2.362,2.362
			C237.079,2258.312,236.017,2257.368,236.017,2256.187z M238.614,2268.585c0,0,0,3.188,0,4.133c0,0.59,0.472,1.063,1.063,1.063
			s1.063-0.472,1.063-1.063c0-0.472,0-0.591,0-4.133c0,0,0.827,0,1.653,0c0.827,0,0.472-0.827,0.472-0.827l-2.362-6.14h0.59
			l1.417,3.779c0.118,0.472,0.708,0.827,1.063,0.591c0.472-0.118,0.708-0.708,0.59-1.063s-1.417-3.779-1.417-3.779
			s-0.472-2.125-2.48-2.125c-0.59,0-3.07,0-3.66,0c-1.771,0-2.48,2.125-2.48,2.125s-1.417,3.424-1.535,3.779
			c-0.118,0.472,0.118,0.945,0.59,1.063c0.472,0.118,0.945-0.118,1.063-0.591l1.417-3.779h0.59l-2.362,6.14
			c0,0-0.472,0.827,0.59,0.827c1.063,0,1.535,0,1.535,0c0,3.66,0,3.66,0,4.133c0,0.59,0.472,1.063,1.063,1.063
			s1.063-0.472,1.063-1.063c0-0.827,0-4.133,0-4.133H238.614z"/>
	</g>
	<g>
		<path fill="#A1AFC0" d="M370.35,2273.814c-3.457-0.213-6.12-3.083-6.12-6.499l0,0c0-0.133,0.005-0.269,0.014-0.404l0,0l0,0
			c0.16-2.592,1.809-4.711,4.02-5.632l0,0c0.027-0.01,0.055-0.007,0.077,0.007l0,0c0.023,0.014,0.037,0.038,0.039,0.067l0,0
			l0.098,1.549c0.002,0.035-0.016,0.064-0.044,0.079l0,0c-1.466,0.776-2.479,2.253-2.589,4.029l0,0
			c-0.006,0.103-0.009,0.204-0.009,0.304l0,0c0,2.577,2.006,4.738,4.611,4.898l0,0c0.109,0.005,0.218,0.008,0.326,0.008l0,0
			c2.197-0.001,3.975-1.378,4.767-3.568l0,0c0.011-0.033,0.042-0.055,0.078-0.055l0,0c0.035,0,0.065,0.021,0.078,0.053l0,0
			c0.08,0.216,0.26,0.668,0.421,1.064l0,0c0.161,0.397,0.3,0.741,0.3,0.741v0.002c0.011,0.021,0.01,0.049-0.003,0.072l0,0
			c-1.128,1.981-3.258,3.297-5.661,3.297l0,0C370.62,2273.825,370.485,2273.821,370.35,2273.814L370.35,2273.814z"/>
		<path fill="#A1AFC0" d="M375.363,2265.906l-4.207-0.001c-1.391,0.034-1.865-0.252-1.897-1.953
			c-0.166-2.402-0.435-6.355-0.525-7.912c-0.012-0.172-0.012-0.389,0.003-0.558c0.066-0.924,0.837-1.656,1.78-1.656
			c0.983,0,1.781,0.797,1.781,1.782c0,0.94-0.728,1.707-1.65,1.776l0.251,3.434l3.547-0.002c0.518,0,0.918,0.436,0.918,0.942
			c0,0.507-0.414,0.926-0.933,0.926l-3.423,0.009l0.091,1.334l4.108-0.002c0.989-0.013,1.082,0.061,1.33,0.271
			c0.124,0.107,0.207,0.247,0.293,0.436c0.085,0.187,0.173,0.423,0.308,0.713c0.194,0.492,1.814,4.477,1.814,4.477l0.947-0.393
			c0.138-0.077,0.299-0.124,0.469-0.124c0.518,0,0.939,0.411,0.939,0.918c0,0.389-0.213,0.74-0.565,0.874l-1.831,0.758
			c-0.902,0.31-1.274-0.304-1.47-0.8c-0.205-0.523-2.004-5.073-2.074-5.247L375.363,2265.906z"/>
	</g>
	<text transform="matrix(1 0 0 1 327.7771 2286.6758)"><tspan x="0" y="0" fill="#A1AFC0" font-family="'Avenir-Book'" font-size="14px">Restroom</tspan></text>
	<g>
		<path id="restroom-icon6_00000080923361439342895730000011460824913778795652_" fill="#A1AFC0" d="M341.784,2256.083
			c0-1.299,1.063-2.243,2.243-2.243c1.299,0,2.243,1.063,2.243,2.243c0,1.299-1.063,2.243-2.243,2.243
			C342.728,2258.444,341.784,2257.381,341.784,2256.083z M341.547,2258.917c-1.653,0-2.952,0.826-2.952,2.479
			c0,0.827,0,4.251,0,4.841s0.472,0.945,0.945,0.945c0.59,0,0.945-0.472,0.945-0.945c0-0.59,0-4.133,0-4.133h0.472
			c0,0,0,9.328,0,10.391c0,0.708,0.59,1.299,1.299,1.299c0.708,0,1.299-0.59,1.299-1.299c0-1.063,0-5.313,0-5.313h0.59
			c0,0,0,4.133,0,5.313c0,0.708,0.59,1.299,1.299,1.299c0.708,0,1.299-0.59,1.299-1.299c0-1.063,0-10.391,0-10.391h0.472
			c0,0,0,3.424,0,4.133c0,0.59,0.472,0.945,0.945,0.945c0.59,0,0.945-0.472,0.945-0.945c0-0.59,0-4.015,0-4.841
			c0-1.653-1.299-2.479-2.952-2.479C345.68,2258.917,342.256,2258.917,341.547,2258.917z"/>
		<path id="restroom-icon3_00000055673450643462845300000003636062080950778293_" fill="#A1AFC0" d="M354.418,2256.201
			c0-1.181,0.945-2.362,2.362-2.362c1.181,0,2.362,0.945,2.362,2.362c0,1.181-0.945,2.362-2.362,2.362
			C355.481,2258.326,354.418,2257.381,354.418,2256.201z M357.016,2268.599c0,0,0,3.188,0,4.133c0,0.59,0.472,1.063,1.063,1.063
			s1.063-0.472,1.063-1.063c0-0.472,0-0.59,0-4.133c0,0,0.827,0,1.653,0c0.827,0,0.472-0.827,0.472-0.827l-2.362-6.14h0.59
			l1.417,3.778c0.118,0.472,0.708,0.827,1.063,0.591c0.472-0.118,0.708-0.708,0.59-1.063s-1.417-3.779-1.417-3.779
			s-0.472-2.125-2.48-2.125c-0.59,0-3.07,0-3.66,0c-1.771,0-2.48,2.125-2.48,2.125s-1.417,3.424-1.535,3.779
			c-0.118,0.472,0.118,0.945,0.59,1.063c0.472,0.118,0.945-0.118,1.063-0.591l1.417-3.778h0.59l-2.362,6.14
			c0,0-0.472,0.827,0.59,0.827c1.063,0,1.535,0,1.535,0c0,3.66,0,3.66,0,4.133c0,0.59,0.472,1.063,1.063,1.063
			s1.063-0.472,1.063-1.063c0-0.827,0-4.133,0-4.133H357.016z"/>
	</g>
	<g>
		<path fill="#A1AFC0" d="M347.711,2594.095c-3.457-0.213-6.12-3.083-6.12-6.499l0,0c0-0.133,0.005-0.269,0.014-0.404l0,0l0,0
			c0.16-2.592,1.809-4.711,4.02-5.632l0,0c0.027-0.01,0.055-0.007,0.077,0.007l0,0c0.023,0.014,0.037,0.039,0.039,0.067l0,0
			l0.098,1.549c0.002,0.034-0.016,0.064-0.044,0.079l0,0c-1.466,0.776-2.479,2.254-2.589,4.029l0,0
			c-0.006,0.103-0.009,0.204-0.009,0.304l0,0c0,2.577,2.006,4.738,4.611,4.898l0,0c0.109,0.005,0.218,0.008,0.326,0.008l0,0
			c2.197-0.001,3.975-1.378,4.767-3.568l0,0c0.011-0.033,0.042-0.055,0.078-0.055l0,0c0.035,0,0.065,0.021,0.078,0.053l0,0
			c0.08,0.216,0.26,0.668,0.421,1.064l0,0c0.161,0.397,0.3,0.741,0.3,0.741v0.002c0.011,0.021,0.01,0.049-0.003,0.072l0,0
			c-1.128,1.981-3.258,3.297-5.661,3.297l0,0C347.981,2594.106,347.846,2594.102,347.711,2594.095L347.711,2594.095z"/>
		<path fill="#A1AFC0" d="M352.724,2586.187l-4.207-0.001c-1.391,0.034-1.865-0.252-1.897-1.953
			c-0.166-2.402-0.435-6.355-0.525-7.912c-0.012-0.171-0.012-0.388,0.003-0.558c0.066-0.924,0.837-1.656,1.78-1.656
			c0.983,0,1.781,0.797,1.781,1.782c0,0.94-0.728,1.707-1.65,1.776l0.251,3.434l3.547-0.002c0.518,0,0.918,0.436,0.918,0.942
			c0,0.507-0.414,0.926-0.933,0.926l-3.423,0.009l0.091,1.333l4.108-0.001c0.989-0.013,1.082,0.061,1.33,0.271
			c0.124,0.107,0.207,0.247,0.293,0.436c0.085,0.188,0.173,0.424,0.308,0.713c0.194,0.492,1.814,4.477,1.814,4.477l0.947-0.393
			c0.138-0.077,0.299-0.124,0.469-0.124c0.518,0,0.939,0.411,0.939,0.918c0,0.389-0.213,0.74-0.565,0.874l-1.831,0.759
			c-0.902,0.31-1.274-0.304-1.47-0.8c-0.205-0.523-2.004-5.073-2.074-5.247L352.724,2586.187z"/>
	</g>
	<g>
		<path id="restroom-icon6_00000015325606987992100160000014755869773596852891_" fill="#A1AFC0" d="M319.145,2576.364
			c0-1.299,1.063-2.244,2.243-2.244c1.299,0,2.243,1.063,2.243,2.244c0,1.299-1.063,2.243-2.243,2.243
			C320.089,2578.725,319.145,2577.663,319.145,2576.364z M318.908,2579.198c-1.653,0-2.952,0.827-2.952,2.48
			c0,0.827,0,4.251,0,4.841c0,0.59,0.472,0.945,0.945,0.945c0.59,0,0.945-0.472,0.945-0.945c0-0.591,0-4.133,0-4.133h0.472
			c0,0,0,9.328,0,10.391c0,0.708,0.59,1.299,1.299,1.299c0.708,0,1.299-0.59,1.299-1.299c0-1.063,0-5.313,0-5.313h0.59
			c0,0,0,4.133,0,5.313c0,0.708,0.59,1.299,1.299,1.299s1.299-0.59,1.299-1.299c0-1.063,0-10.391,0-10.391h0.472
			c0,0,0,3.424,0,4.133c0,0.59,0.472,0.945,0.945,0.945c0.59,0,0.945-0.472,0.945-0.945c0-0.591,0-4.015,0-4.841
			c0-1.653-1.299-2.48-2.952-2.48C323.041,2579.198,319.617,2579.198,318.908,2579.198z"/>
		<path id="restroom-icon3_00000105396325735600690290000016889538816375056015_" fill="#A1AFC0" d="M331.779,2576.482
			c0-1.181,0.945-2.362,2.362-2.362c1.181,0,2.362,0.945,2.362,2.362c0,1.181-0.945,2.362-2.362,2.362
			C332.842,2578.607,331.779,2577.663,331.779,2576.482z M334.377,2588.88c0,0,0,3.188,0,4.133c0,0.59,0.472,1.063,1.063,1.063
			s1.063-0.472,1.063-1.063c0-0.472,0-0.591,0-4.133c0,0,0.827,0,1.653,0c0.827,0,0.472-0.827,0.472-0.827l-2.362-6.14h0.59
			l1.417,3.779c0.118,0.472,0.708,0.827,1.063,0.59c0.472-0.118,0.708-0.708,0.59-1.062c-0.118-0.354-1.417-3.779-1.417-3.779
			s-0.472-2.125-2.48-2.125c-0.59,0-3.07,0-3.66,0c-1.771,0-2.48,2.125-2.48,2.125s-1.417,3.424-1.535,3.779
			c-0.118,0.472,0.118,0.945,0.59,1.062c0.472,0.118,0.945-0.118,1.063-0.59l1.417-3.779h0.59l-2.362,6.14
			c0,0-0.472,0.827,0.59,0.827c1.063,0,1.535,0,1.535,0c0,3.66,0,3.66,0,4.133c0,0.59,0.472,1.063,1.063,1.063
			s1.063-0.472,1.063-1.063c0-0.827,0-4.133,0-4.133H334.377z"/>
	</g>
	<text transform="matrix(1 0 0 1 264.5049 1802.5071)"><tspan x="0" y="0" fill="#A1AFC0" font-family="'Avenir-Book'" font-size="14px">Walt Disney</tspan><tspan x="-17.668" y="16" fill="#A1AFC0" font-family="'Avenir-Book'" font-size="14px">Imagineering Lab</tspan></text>
	<text transform="matrix(1 0 0 1 278.4573 1947.4758)"><tspan x="0" y="0" fill="#A1AFC0" font-family="'Avenir-Book'" font-size="14px">Andy’s Toybox</tspan></text>
	<text transform="matrix(1 0 0 1 233.6298 2041.7113)"><tspan x="0" y="0" fill="#A1AFC0" font-family="'Avenir-Book'" font-size="14px">Marvel WEB</tspan><tspan x="6.615" y="16" fill="#A1AFC0" font-family="'Avenir-Book'" font-size="14px">Workshop</tspan></text>
	<text transform="matrix(1 0 0 1 328.4675 2029.3126)"><tspan x="0" y="0" fill="#A1AFC0" font-family="'Avenir-Book'" font-size="14px">Fairytale</tspan><tspan x="14.385" y="16" fill="#A1AFC0" font-family="'Avenir-Book'" font-size="14px">Hall</tspan></text>
	<g>
		<g>
			<path fill="#A1AFC0" d="M329.911,1051.036c-0.12,0.426-0.148,0.883-0.037,1.344c0.345,1.44,1.791,2.328,3.229,1.983
				c1.44-0.345,2.325-1.791,1.98-3.231c-0.116-0.483-0.363-0.897-0.685-1.23c0.485-0.048,0.909-0.293,1.116-0.709
				c0.35-0.702-0.05-1.611-0.893-2.031c-0.843-0.42-1.809-0.191-2.159,0.511c-0.224,0.45-0.138,0.984,0.172,1.421
				c-0.256-0.015-0.516-0.006-0.779,0.057c-0.328,0.079-0.623,0.221-0.886,0.401c0.06-0.483-0.085-0.949-0.443-1.243
				c-0.607-0.497-1.582-0.309-2.179,0.419c-0.597,0.729-0.588,1.722,0.019,2.219
				C328.786,1051.295,329.384,1051.303,329.911,1051.036z"/>
			<path fill="#A1AFC0" d="M338.358,1060.28c-0.11-0.37-0.94-2.013-1.345-2.755c-0.405-0.744-0.881-2.124-2.553-2.124h-3.967
				c-1.672,0-2.148,1.38-2.553,2.124c-0.404,0.742-1.234,2.384-1.343,2.755c-0.141,0.472,0.08,0.963,0.554,1.101
				c0.473,0.138,0.921-0.227,1.112-0.6c0.19-0.373,1.396-2.741,1.396-2.741h0.715l-2.477,6.54c0,0-0.469,0.893,0.468,0.893h1.546
				c0,0,0.006,3.926,0.006,4.394c0,0.597,0.481,1.075,1.074,1.075c0.594,0,1.077-0.479,1.077-1.075v-4.394h0.804v4.394
				c0,0.597,0.483,1.075,1.077,1.075c0.594,0,1.074-0.479,1.074-1.075c0-0.468,0.006-4.394,0.006-4.394h1.558
				c0.937,0,0.468-0.893,0.468-0.893l-2.379-6.54h0.618c0,0,1.206,2.368,1.395,2.741c0.189,0.373,0.639,0.738,1.111,0.6
				C338.276,1061.243,338.498,1060.752,338.358,1060.28z"/>
		</g>
		<g>
			<path fill="#A1AFC0" d="M320.868,1054.952c-1.479,0-2.678-1.2-2.678-2.681c0-1.479,1.199-2.678,2.678-2.678
				c1.48,0,2.678,1.199,2.678,2.678C323.547,1053.752,322.349,1054.952,320.868,1054.952z"/>
			<path fill="#A1AFC0" d="M313.853,1052.806c0.418-0.418,1.095-0.418,1.513,0l3.118,3.119h4.735l3.151-3.151
				c0.418-0.418,1.095-0.418,1.513,0c0.418,0.418,0.418,1.095,0,1.513l-4.17,4.17v11.152c0,0.742-0.521,1.345-1.264,1.345
				c-0.743,0-1.31-0.603-1.31-1.345v-5.315h-0.861v5.315c0,0.742-0.514,1.345-1.256,1.345c-0.745,0-1.26-0.603-1.26-1.345v-11.38
				l-3.91-3.909C313.436,1053.901,313.436,1053.224,313.853,1052.806z"/>
		</g>
	</g>
	<g>
		<g>
			<path fill="#A1AFC0" d="M308.918,1499.304c-0.12,0.426-0.148,0.883-0.037,1.344c0.345,1.44,1.791,2.327,3.229,1.983
				c1.44-0.345,2.325-1.791,1.98-3.231c-0.116-0.483-0.363-0.897-0.685-1.23c0.485-0.048,0.909-0.293,1.116-0.709
				c0.35-0.702-0.05-1.611-0.893-2.031c-0.843-0.42-1.809-0.191-2.159,0.511c-0.224,0.45-0.138,0.984,0.172,1.421
				c-0.256-0.015-0.516-0.006-0.779,0.057c-0.328,0.079-0.623,0.221-0.886,0.401c0.06-0.483-0.085-0.949-0.443-1.243
				c-0.607-0.497-1.582-0.309-2.179,0.419c-0.597,0.729-0.588,1.722,0.019,2.219
				C307.794,1499.563,308.392,1499.571,308.918,1499.304z"/>
			<path fill="#A1AFC0" d="M317.366,1508.548c-0.11-0.37-0.94-2.013-1.345-2.755c-0.405-0.744-0.881-2.124-2.553-2.124h-3.967
				c-1.672,0-2.148,1.38-2.553,2.124c-0.404,0.742-1.234,2.384-1.343,2.755c-0.141,0.472,0.08,0.963,0.554,1.1
				c0.473,0.138,0.921-0.227,1.112-0.6c0.19-0.373,1.396-2.741,1.396-2.741h0.715l-2.477,6.54c0,0-0.469,0.893,0.468,0.893h1.546
				c0,0,0.006,3.926,0.006,4.394c0,0.597,0.481,1.075,1.074,1.075c0.594,0,1.077-0.479,1.077-1.075v-4.394h0.804v4.394
				c0,0.597,0.483,1.075,1.077,1.075c0.594,0,1.074-0.479,1.074-1.075c0-0.468,0.006-4.394,0.006-4.394h1.558
				c0.937,0,0.468-0.893,0.468-0.893l-2.379-6.54h0.618c0,0,1.206,2.368,1.395,2.741c0.189,0.373,0.639,0.738,1.111,0.6
				C317.283,1509.511,317.506,1509.02,317.366,1508.548z"/>
		</g>
		<g>
			<path fill="#A1AFC0" d="M299.876,1503.22c-1.479,0-2.678-1.2-2.678-2.681c0-1.479,1.199-2.678,2.678-2.678
				c1.48,0,2.678,1.199,2.678,2.678C302.555,1502.02,301.357,1503.22,299.876,1503.22z"/>
			<path fill="#A1AFC0" d="M292.861,1501.074c0.418-0.418,1.095-0.418,1.513,0l3.118,3.119h4.735l3.151-3.151
				c0.418-0.418,1.095-0.418,1.513,0c0.418,0.418,0.418,1.095,0,1.513l-4.17,4.17v11.152c0,0.742-0.521,1.345-1.264,1.345
				c-0.743,0-1.31-0.603-1.31-1.345v-5.315h-0.861v5.315c0,0.742-0.514,1.345-1.256,1.345c-0.745,0-1.26-0.603-1.26-1.345v-11.38
				l-3.91-3.91C292.444,1502.169,292.444,1501.492,292.861,1501.074z"/>
		</g>
	</g>
	<g>
		<g>
			<path fill="#A1AFC0" d="M305.221,1765.686c-0.12,0.426-0.148,0.883-0.037,1.344c0.345,1.44,1.791,2.328,3.229,1.983
				c1.44-0.345,2.325-1.791,1.98-3.231c-0.116-0.483-0.363-0.897-0.685-1.23c0.485-0.048,0.909-0.293,1.116-0.709
				c0.35-0.702-0.05-1.611-0.893-2.031c-0.843-0.42-1.809-0.191-2.159,0.511c-0.224,0.45-0.138,0.984,0.172,1.421
				c-0.256-0.015-0.516-0.006-0.779,0.057c-0.328,0.079-0.623,0.221-0.886,0.401c0.06-0.483-0.085-0.949-0.443-1.243
				c-0.607-0.497-1.582-0.309-2.179,0.419c-0.597,0.729-0.588,1.722,0.019,2.219
				C304.096,1765.944,304.694,1765.953,305.221,1765.686z"/>
			<path fill="#A1AFC0" d="M313.669,1774.93c-0.11-0.37-0.94-2.013-1.345-2.755c-0.405-0.744-0.881-2.124-2.553-2.124h-3.967
				c-1.672,0-2.148,1.38-2.553,2.124c-0.404,0.742-1.234,2.384-1.343,2.755c-0.141,0.472,0.08,0.963,0.554,1.101
				c0.473,0.138,0.921-0.227,1.112-0.6c0.19-0.373,1.396-2.742,1.396-2.742h0.715l-2.477,6.54c0,0-0.469,0.893,0.468,0.893h1.546
				c0,0,0.006,3.926,0.006,4.394c0,0.597,0.481,1.075,1.074,1.075c0.594,0,1.077-0.479,1.077-1.075v-4.394h0.804v4.394
				c0,0.597,0.483,1.075,1.077,1.075c0.594,0,1.074-0.479,1.074-1.075c0-0.468,0.006-4.394,0.006-4.394h1.558
				c0.937,0,0.468-0.893,0.468-0.893l-2.379-6.54h0.618c0,0,1.206,2.368,1.395,2.742c0.189,0.373,0.639,0.738,1.111,0.6
				C313.586,1775.893,313.809,1775.402,313.669,1774.93z"/>
		</g>
		<g>
			<path fill="#A1AFC0" d="M296.179,1769.602c-1.479,0-2.678-1.2-2.678-2.681c0-1.479,1.199-2.678,2.678-2.678
				c1.48,0,2.678,1.199,2.678,2.678C298.857,1768.402,297.659,1769.602,296.179,1769.602z"/>
			<path fill="#A1AFC0" d="M289.164,1767.456c0.418-0.418,1.095-0.418,1.513,0l3.118,3.119h4.735l3.151-3.151
				c0.418-0.418,1.095-0.418,1.513,0c0.418,0.418,0.418,1.095,0,1.513l-4.17,4.17v11.152c0,0.742-0.521,1.345-1.264,1.345
				c-0.743,0-1.31-0.603-1.31-1.345v-5.315h-0.861v5.315c0,0.742-0.514,1.345-1.256,1.345c-0.745,0-1.26-0.603-1.26-1.345v-11.38
				l-3.91-3.91C288.746,1768.551,288.746,1767.874,289.164,1767.456z"/>
		</g>
	</g>
	<g>
		<g>
			<path fill="#A1AFC0" d="M328.651,1910.917c-0.12,0.426-0.148,0.883-0.037,1.344c0.345,1.44,1.791,2.327,3.229,1.983
				c1.44-0.345,2.325-1.791,1.98-3.231c-0.116-0.483-0.363-0.897-0.685-1.23c0.485-0.048,0.909-0.293,1.116-0.709
				c0.35-0.702-0.05-1.611-0.893-2.031c-0.843-0.42-1.809-0.191-2.159,0.511c-0.224,0.45-0.138,0.984,0.172,1.421
				c-0.256-0.015-0.516-0.006-0.779,0.057c-0.328,0.079-0.623,0.221-0.886,0.401c0.06-0.483-0.085-0.949-0.443-1.243
				c-0.607-0.497-1.582-0.309-2.179,0.419c-0.597,0.729-0.588,1.722,0.019,2.219
				C327.526,1911.176,328.124,1911.185,328.651,1910.917z"/>
			<path fill="#A1AFC0" d="M337.098,1920.161c-0.11-0.37-0.94-2.013-1.345-2.755c-0.405-0.744-0.881-2.124-2.553-2.124h-3.967
				c-1.672,0-2.148,1.38-2.553,2.124c-0.404,0.742-1.234,2.384-1.343,2.755c-0.141,0.472,0.08,0.963,0.554,1.1
				c0.473,0.138,0.921-0.227,1.112-0.6c0.19-0.373,1.396-2.741,1.396-2.741h0.715l-2.477,6.54c0,0-0.469,0.893,0.468,0.893h1.546
				c0,0,0.006,3.926,0.006,4.394c0,0.597,0.481,1.075,1.074,1.075c0.594,0,1.077-0.479,1.077-1.075v-4.394h0.804v4.394
				c0,0.597,0.483,1.075,1.077,1.075c0.594,0,1.074-0.479,1.074-1.075c0-0.468,0.006-4.394,0.006-4.394h1.558
				c0.937,0,0.468-0.893,0.468-0.893l-2.379-6.54h0.618c0,0,1.206,2.368,1.395,2.741c0.189,0.373,0.639,0.738,1.111,0.6
				C337.016,1921.124,337.238,1920.633,337.098,1920.161z"/>
		</g>
		<g>
			<path fill="#A1AFC0" d="M319.608,1914.833c-1.479,0-2.678-1.2-2.678-2.681c0-1.479,1.199-2.678,2.678-2.678
				c1.48,0,2.678,1.199,2.678,2.678C322.287,1913.633,321.089,1914.833,319.608,1914.833z"/>
			<path fill="#A1AFC0" d="M312.593,1912.687c0.418-0.418,1.095-0.418,1.513,0l3.118,3.119h4.735l3.151-3.151
				c0.418-0.418,1.095-0.418,1.513,0c0.418,0.418,0.418,1.095,0,1.513l-4.17,4.17v11.152c0,0.742-0.521,1.345-1.264,1.345
				c-0.743,0-1.31-0.603-1.31-1.345v-5.315h-0.861v5.315c0,0.742-0.514,1.345-1.256,1.345c-0.745,0-1.26-0.603-1.26-1.345v-11.38
				l-3.91-3.91C312.176,1913.782,312.176,1913.105,312.593,1912.687z"/>
		</g>
	</g>
	<g>
		<g>
			<path fill="#A1AFC0" d="M275.435,2005.051c-0.12,0.426-0.148,0.883-0.037,1.344c0.345,1.44,1.791,2.328,3.229,1.983
				c1.44-0.345,2.325-1.791,1.98-3.231c-0.116-0.483-0.363-0.897-0.685-1.23c0.485-0.048,0.909-0.293,1.116-0.709
				c0.35-0.702-0.05-1.611-0.893-2.031c-0.843-0.42-1.809-0.191-2.159,0.511c-0.224,0.45-0.138,0.984,0.172,1.421
				c-0.256-0.015-0.516-0.006-0.779,0.057c-0.328,0.079-0.623,0.221-0.886,0.401c0.06-0.483-0.085-0.949-0.443-1.243
				c-0.607-0.497-1.582-0.309-2.179,0.419c-0.597,0.729-0.588,1.722,0.019,2.219C274.31,2005.309,274.908,2005.318,275.435,2005.051
				z"/>
			<path fill="#A1AFC0" d="M283.883,2014.294c-0.11-0.37-0.94-2.013-1.345-2.755c-0.405-0.744-0.881-2.124-2.553-2.124h-3.967
				c-1.672,0-2.148,1.38-2.553,2.124c-0.404,0.742-1.234,2.384-1.343,2.755c-0.141,0.472,0.08,0.963,0.554,1.101
				c0.473,0.138,0.921-0.227,1.112-0.6c0.19-0.373,1.396-2.741,1.396-2.741h0.715l-2.477,6.54c0,0-0.469,0.893,0.468,0.893h1.546
				c0,0,0.006,3.926,0.006,4.394c0,0.597,0.481,1.075,1.074,1.075c0.594,0,1.077-0.479,1.077-1.075v-4.394h0.804v4.394
				c0,0.597,0.483,1.075,1.077,1.075c0.594,0,1.074-0.479,1.074-1.075c0-0.468,0.006-4.394,0.006-4.394h1.558
				c0.937,0,0.468-0.893,0.468-0.893l-2.379-6.54h0.618c0,0,1.206,2.368,1.395,2.741c0.189,0.373,0.639,0.738,1.111,0.6
				C283.8,2015.257,284.022,2014.766,283.883,2014.294z"/>
		</g>
		<g>
			<path fill="#A1AFC0" d="M266.392,2008.966c-1.479,0-2.678-1.2-2.678-2.681c0-1.479,1.199-2.678,2.678-2.678
				c1.48,0,2.678,1.199,2.678,2.678C269.071,2007.766,267.873,2008.966,266.392,2008.966z"/>
			<path fill="#A1AFC0" d="M259.378,2006.82c0.418-0.418,1.095-0.418,1.513,0l3.118,3.119h4.735l3.151-3.151
				c0.418-0.418,1.095-0.418,1.513,0c0.418,0.418,0.418,1.095,0,1.513l-4.17,4.17v11.152c0,0.742-0.521,1.345-1.264,1.345
				c-0.743,0-1.31-0.603-1.31-1.345v-5.315h-0.861v5.315c0,0.742-0.514,1.345-1.256,1.345c-0.745,0-1.26-0.603-1.26-1.345v-11.38
				l-3.91-3.909C258.96,2007.915,258.96,2007.238,259.378,2006.82z"/>
		</g>
	</g>
	<g>
		<g>
			<path fill="#A1AFC0" d="M358.84,1993.051c-0.12,0.426-0.148,0.883-0.037,1.344c0.345,1.44,1.791,2.328,3.229,1.983
				c1.44-0.345,2.325-1.791,1.98-3.231c-0.116-0.483-0.363-0.897-0.685-1.23c0.485-0.048,0.909-0.293,1.116-0.709
				c0.35-0.702-0.05-1.611-0.893-2.031c-0.843-0.42-1.809-0.191-2.159,0.511c-0.224,0.45-0.138,0.984,0.172,1.421
				c-0.256-0.015-0.516-0.006-0.779,0.057c-0.328,0.079-0.623,0.221-0.886,0.401c0.06-0.483-0.085-0.949-0.443-1.243
				c-0.607-0.497-1.582-0.309-2.179,0.419c-0.597,0.729-0.588,1.722,0.019,2.219C357.715,1993.309,358.313,1993.318,358.84,1993.051
				z"/>
			<path fill="#A1AFC0" d="M367.288,2002.294c-0.11-0.37-0.94-2.013-1.345-2.755c-0.405-0.744-0.881-2.124-2.553-2.124h-3.967
				c-1.672,0-2.148,1.38-2.553,2.124c-0.404,0.742-1.234,2.384-1.343,2.755c-0.141,0.472,0.08,0.963,0.554,1.101
				c0.473,0.138,0.921-0.227,1.112-0.6c0.19-0.373,1.396-2.741,1.396-2.741h0.715l-2.477,6.54c0,0-0.469,0.893,0.468,0.893h1.546
				c0,0,0.006,3.926,0.006,4.394c0,0.597,0.481,1.075,1.074,1.075c0.594,0,1.077-0.479,1.077-1.075v-4.394h0.804v4.394
				c0,0.597,0.483,1.075,1.077,1.075c0.594,0,1.074-0.479,1.074-1.075c0-0.468,0.006-4.394,0.006-4.394h1.558
				c0.937,0,0.468-0.893,0.468-0.893l-2.379-6.54h0.618c0,0,1.206,2.368,1.395,2.741c0.189,0.373,0.639,0.738,1.111,0.6
				C367.205,2003.257,367.427,2002.766,367.288,2002.294z"/>
		</g>
		<g>
			<path fill="#A1AFC0" d="M349.798,1996.966c-1.479,0-2.678-1.2-2.678-2.681c0-1.479,1.199-2.678,2.678-2.678
				c1.48,0,2.678,1.199,2.678,2.678C352.476,1995.766,351.278,1996.966,349.798,1996.966z"/>
			<path fill="#A1AFC0" d="M342.783,1994.82c0.418-0.418,1.095-0.418,1.513,0l3.118,3.119h4.735l3.151-3.151
				c0.418-0.418,1.095-0.418,1.513,0c0.418,0.418,0.418,1.095,0,1.513l-4.17,4.17v11.152c0,0.742-0.521,1.345-1.264,1.345
				c-0.743,0-1.31-0.603-1.31-1.345v-5.315h-0.861v5.315c0,0.742-0.514,1.345-1.256,1.345c-0.745,0-1.26-0.603-1.26-1.345v-11.38
				l-3.91-3.909C342.365,1995.915,342.365,1995.238,342.783,1994.82z"/>
		</g>
	</g>
</g>
<g id="sections">
	<g id="sections_00000096770288552440172180000002742550033604767891_">
		<rect id="aft" x="0" y="2174.558" opacity="0.32" fill="none" width="588" height="1195.442"/>
		<rect id="mid" x="0" y="1106.822" opacity="0.32" fill="none" width="588" height="1067.736"/>
		<rect id="forward" x="0" opacity="0.32" fill="none" width="588" height="1106.822"/>
	</g>
</g>
</svg>
