<?xml version="1.0" encoding="utf-8"?>
<!-- Generator: Adobe Illustrator 27.0.0, SVG Export Plug-In . SVG Version: 6.00 Build 0)  -->
<svg version="1.1" id="Layer_1" xmlns="http://www.w3.org/2000/svg" xmlns:xlink="http://www.w3.org/1999/xlink" x="0px" y="0px"
	 viewBox="0 0 588 3370" enable-background="new 0 0 588 3370" xml:space="preserve">
<metadata><?xpacket begin="﻿" id="W5M0MpCehiHzreSzNTczkc9d"?>
<x:xmpmeta xmlns:x="adobe:ns:meta/" x:xmptk="Adobe XMP Core 8.0-c001 1.000000, 0000/00/00-00:00:00        ">
   <rdf:RDF xmlns:rdf="http://www.w3.org/1999/02/22-rdf-syntax-ns#">
      <rdf:Description rdf:about=""
            xmlns:dc="http://purl.org/dc/elements/1.1/"
            xmlns:dp="http://disney-parks.com/aem">
         <dc:format>image/svg+xml</dc:format>
         <dc:modified>2026-02-25T19:25:18.487Z</dc:modified>
         <dp:keywords>
            <rdf:Bag>
               <rdf:li>disney-parks:keywords/deck</rdf:li>
            </rdf:Bag>
         </dp:keywords>
         <dp:project-id>
            <rdf:Bag>
               <rdf:li>https://myjira.disney.com/browse/DCL-110745</rdf:li>
            </rdf:Bag>
         </dp:project-id>
         <dp:asset-category>
            <rdf:Bag>
               <rdf:li>disney-parks:categories/graphics</rdf:li>
            </rdf:Bag>
         </dp:asset-category>
      </rdf:Description>
   </rdf:RDF>
</x:xmpmeta>
                                                                                                    
                                                                                                    
                                                                                                    
                                                                                                    
                                                                                                    
                                                                                                    
                                                                                                    
                                                                                                    
                                                                                                    
                                                                                                    
                                                                                                    
                                                                                                    
                                                                                                    
                                                                                                    
                                                                                                    
                                                                                                    
                                                                                                    
                                                                                                    
                                                                                                    
                                                                                                    
                           
<?xpacket end="w"?></metadata>
<g id="shipbase">
	
		<path id="shipbase_00000111153643281419595260000010892724432916926602_" fill="none" stroke="#DEDEDE" stroke-width="4.2279" stroke-miterlimit="10" d="
		M524.029,3113.032v-638.241v-587.506V1193.16V724.773c0-182.035-26.655-281.319-26.655-281.319
		C460.668,274.607,381.61,152.631,381.61,152.631c-51.877-96.785-82.071-98.555-86.234-98.696
		c-0.355-0.079-39.695,2.131-89.389,98.696c0,0-81.317,134.964-116.894,292.517c0,0-24.571,99.126-24.571,279.625v468.387v694.125
		v587.506v638.241c0,0-1.468,99.266,2.203,108.825c3.577,9.314,21.781,63.63,95.351,80.319c3.449,0.782,9.134,1.895,12.665,2.097
		c84.88,4.869,174.103,4.116,241.265-0.238c3.707-0.24,7.325-1.171,10.953-1.97c73.792-16.245,91.299-70.916,94.868-80.209
		C525.498,3212.298,524.029,3113.032,524.029,3113.032z"/>
</g>
<g id="ship">
	
		<polygon id="inaccessible_00000082325943270018525470000005143014218461047168_" fill="#E9E9E9" stroke="#E9E9E9" stroke-width="1.057" stroke-linecap="round" stroke-linejoin="round" stroke-miterlimit="10" points="
		263.652,995.772 135.281,995.736 133.208,1249.952 209.563,1250.446 209.563,1022.266 263.652,1022.266 	"/>
	
		<path id="inaccessible_00000134217526585532150190000012982622225975167651_" fill="#E9E9E9" stroke="#E9E9E9" stroke-width="1.0943" stroke-linecap="round" stroke-linejoin="round" stroke-miterlimit="10" d="
		M134.256,1399.287v-60.778h90.051v60.778C224.307,1399.287,134.256,1397.853,134.256,1399.287z"/>
	
		<rect id="inaccessible_00000070813323923967469010000008716598428278246048_" x="282.632" y="1337.794" fill="#E9E9E9" stroke="#E9E9E9" stroke-width="1.057" stroke-linecap="round" stroke-linejoin="round" stroke-miterlimit="10" width="28.385" height="45.819"/>
	
		<polygon id="inaccessible_00000111897379305196668370000006094651990767484853_" fill="#E9E9E9" stroke="#E9E9E9" stroke-width="1.057" stroke-linecap="round" stroke-linejoin="round" stroke-miterlimit="10" points="
		336.861,1389.76 309.45,1383.613 257.516,1383.613 257.516,1371.196 336.861,1371.196 	"/>
	
		<polygon fill="#E9E9E9" stroke="#E9E9E9" stroke-width="1.057" stroke-linecap="round" stroke-linejoin="round" stroke-miterlimit="10" points="
		447.73,1337.79 447.73,1415.67 364.67,1396.46 364.67,1337.79 	"/>
	
		<path id="inaccessible_00000040571376038672170660000006053562923023968649_" fill="#E9E9E9" stroke="#E9E9E9" stroke-width="1.0432" stroke-linecap="round" stroke-linejoin="round" stroke-miterlimit="10" d="
		M137.35,1230.593V749.064l-70.495-0.494l-0.368,2445.245c0,0,0.757,14.432,2.451,25.726c0.46,3.065,69.438-0.458,69.438-0.458
		l0.897-434.405v-139.69l2.51-1414.396H137.35z"/>
	
		<path id="inaccessible_00000137816564184735307390000017664306149996576914_" fill="#E9E9E9" stroke="#E9E9E9" stroke-width="1.0549" stroke-linecap="round" stroke-linejoin="round" stroke-miterlimit="10" d="
		M522.637,751.55h-74.25v2466.102l0.621,0.896c0,0,68.89,4.354,70,2.124c1.512-1.26,2.159-10.898,2.43-17.766l0.112-0.022
		L522.637,751.55z"/>
	<path fill="#E9E9E9" d="M298.987,2086.514l74.392-60.086l-23.219-41.633c-6.772-12.143-17.3-21.889-30.167-27.159
		c-6.309-2.584-13.702-4.366-22.095-4.366c-30.52,0-50.654,25.857-54.045,45.144c-1.287,7.321-0.925,15.099,0.019,21.934
		c1.604,11.607,7.3,22.258,15.93,30.183L298.987,2086.514z"/>
	
		<rect id="inaccessible_00000164473519582460277790000017229176298244809115_" x="419.479" y="2476.61" fill="#E9E9E9" stroke="#E9E9E9" stroke-width="1.057" stroke-linecap="round" stroke-linejoin="round" stroke-miterlimit="10" width="28.891" height="275.414"/>
	
		<polygon id="inaccessible_00000159456148042480545380000006998315354026633888_" fill="#E9E9E9" stroke="#E9E9E9" stroke-width="1.057" stroke-linecap="round" stroke-linejoin="round" stroke-miterlimit="10" points="
		449.241,2042.695 423.197,2042.954 423.197,2052.425 378.875,2096.578 377.342,2096.578 377.342,2371.241 450.49,2371.241 	"/>
	<polygon id="inaccessible_00000047770810485250127670000013333293730657227172_" fill="#E9E9E9" points="164.01,2096.578 
		164.01,2069.427 139.292,2069.427 139.431,2371.241 211.129,2371.241 211.129,2096.578 	"/>
	
		<path id="inaccessible_00000176765011220858236550000010118549334598298535_" fill="#E9E9E9" stroke="#E9E9E9" stroke-width="1.057" stroke-linecap="round" stroke-linejoin="round" stroke-miterlimit="10" d="
		M294.09,3218.369c-5.764,0.326-97.529,1.173-163.599,0.608c-35.506-0.303-61.848,1.861-61.848,1.861s9.096,28.445,29.048,46.515
		c19.953,18.071,40.355,26.118,61.365,32.753c21.459,6.776,247.341,7.153,271.435-0.753c20.934-6.869,37.279-12.838,57.6-30.494
		c22.965-19.953,31.623-49.317,31.623-49.317S300.091,3217.331,294.09,3218.369z"/>
	
		<polygon id="inaccessible_00000040547367985139731920000013817602426533947311_" fill="#E9E9E9" stroke="#E9E9E9" stroke-width="1.0929" stroke-linecap="round" stroke-linejoin="round" stroke-miterlimit="10" points="
		222.514,1664.861 139.772,1665.003 139.163,1871.027 170.786,1871.027 223.116,1855.592 	"/>
	
		<polygon id="inaccessible_00000132063312561356596440000017819934654202021515_" fill="#E9E9E9" stroke="#E9E9E9" stroke-width="1.0027" stroke-linecap="round" stroke-linejoin="round" stroke-miterlimit="10" points="
		279.714,2821.055 279.714,2796.082 256.279,2796.047 256.279,2821.055 	"/>
	<g id="inaccessible_00000039106565621694001550000003181623804372212894_">
		
			<polygon fill="#E9E9E9" stroke="#E9E9E9" stroke-width="1.057" stroke-linecap="round" stroke-linejoin="round" stroke-miterlimit="10" points="
			448.012,1603.318 385.929,1620.249 364.806,1649.315 363.571,1649.307 363.551,1665.902 314.221,1665.851 287.68,1692.392 
			257.05,1692.273 257.079,1721.893 378.392,1721.761 378.396,1722.35 378.396,1775.369 311.628,1775.383 311.628,1847.064 
			355.492,1873.538 448.068,1873.538 		"/>
		
			<path fill="#E9E9E9" stroke="#E9E9E9" stroke-width="1.057" stroke-linecap="round" stroke-linejoin="round" stroke-miterlimit="10" d="
			M448.859,1650.448h-0.002C448.858,1650.476,448.859,1650.482,448.859,1650.448z"/>
	</g>
	
		<rect id="inaccessible_00000036959743405288978210000011202483837429044637_" x="176.903" y="2476.201" fill="#E9E9E9" stroke="#E9E9E9" stroke-width="1.0705" stroke-linecap="round" stroke-linejoin="round" stroke-miterlimit="10" width="133.386" height="14.119"/>
	
		<polygon id="inaccessible" fill="#E9E9E9" stroke="#E9E9E9" stroke-width="1.43" stroke-linecap="round" stroke-linejoin="round" stroke-miterlimit="10" points="
		176.523,2629.234 176.523,2476.201 139.975,2476.201 139.975,2647.977 169.682,2647.977 176.523,2647.977 208.359,2647.977 
		208.359,2629.234 	"/>
	
		<path id="inaccessible_00000076578236268276523870000012553014968138148794_" fill="#E9E9E9" stroke="#E9E9E9" stroke-width="1.057" stroke-linecap="round" stroke-linejoin="round" stroke-miterlimit="10" d="
		M522.114,719.397c0-179.945-27.834-277.855-27.834-277.855c-36.285-166.909-114.497-287.077-114.497-287.077
		c-51.282-95.675-79.584-98.068-83.699-98.207c-0.351-0.078-38.922,2.333-88.046,97.789c0,0-80.582,132.587-115.75,288.331
		c0,0-25.244,104.024-25.244,282.451v28.932l70.792,0.348l-0.418-13.79c0,0,10.344-23.291,46.383-23.291h218.392
		c36.039,0,46.611,22.104,46.611,22.104l-0.072,16.648h73.545L522.114,719.397z"/>
	
		<polygon fill="#E9E9E9" stroke="#E9E9E9" stroke-width="1.0896" stroke-linecap="round" stroke-linejoin="round" stroke-miterlimit="10" points="
		378.4,3040.91 378.68,2905.82 335.86,2905.75 336.04,2796.2 362.65,2796.42 362.65,2769.43 379.78,2769.43 379.78,2752.93 
		447.66,2752.93 448.44,3040.91 	"/>
	
		<polygon id="inaccessible_00000137810372718331116530000007406821060769855412_" fill="#E9E9E9" stroke="#E9E9E9" stroke-width="1.0792" stroke-linecap="round" stroke-linejoin="round" stroke-miterlimit="10" points="
		211.338,2767.402 211.244,2777.661 127.684,2777.819 127.771,2906.567 136.896,2906.567 136.896,3040.156 211.15,3039.966 
		211.056,2840.249 224.326,2840.155 224.502,2793.911 236.361,2794.005 236.467,2767.496 	"/>
	
		<rect id="inaccessible_00000016073821936492477880000000278873069837805443_" x="277.33" y="3064.449" fill="#E9E9E9" stroke="#E9E9E9" stroke-width="1.057" stroke-linecap="round" stroke-linejoin="round" stroke-miterlimit="10" width="34.623" height="153.419"/>
	
		<polygon id="inaccessible_00000106105137496206906330000006801713935964371104_" fill="#E9E9E9" stroke="#E9E9E9" stroke-width="1.677" stroke-linecap="round" stroke-linejoin="round" stroke-miterlimit="10" points="
		448.118,995.772 325.734,995.772 325.734,1022.266 341.702,1022.266 341.702,1085.989 381.197,1085.989 381.197,1157.982 
		343.779,1158.142 343.779,1186.584 381.197,1186.584 381.197,1250.873 448.273,1250.873 	"/>
	<g id="stairs">
		
			<path id="stairs_00000139997938960530357260000004228050999437289885_" fill="none" stroke="#DEDEDE" stroke-width="1.057" stroke-linecap="round" stroke-linejoin="round" stroke-miterlimit="10" d="
			M177.172,1287.615h-14.685 M192.713,1287.615h-14.685 M192.713,1284.773h-14.685 M192.713,1267.829h-14.685 M177.294,1295.718
			v-29.362 M177.172,1276.249h-14.685 M177.172,1273.407h-14.685 M177.172,1270.671h-14.685 M177.172,1267.829h-14.685
			 M195.528,1270.671h14.069 M195.528,1273.407h14.069 M195.559,1279.09h13.916 M195.528,1276.249h14.069 M159.672,1270.671h-14.685
			 M159.672,1273.407h-14.685 M159.754,1279.09H145.11 M159.672,1276.249h-14.685 M177.172,1284.773h-14.685 M178.028,1267.829
			h-0.857 M177.172,1279.09h-14.685 M192.713,1279.09h-14.685 M192.713,1281.932h-14.685 M192.713,1290.456h-14.685
			 M177.172,1290.456h-14.685 M177.172,1281.932h-14.685 M192.713,1270.671h-14.685 M192.713,1276.249h-14.685 M192.713,1273.407
			h-14.685 M195.283,1281.195v-13.997c0-0.526-0.489-1.158-1.224-1.158c-0.734,0-1.224,0.526-1.224,1.158v28.52 M159.917,1281.195
			v-13.997c0-0.631,0.489-1.158,1.101-1.158c0.734,0,1.224,0.631,1.224,1.158v28.52 M210.09,1281.195v-27.468
			c0-0.316-0.245-0.526-0.612-0.526l0,0H145.6c-0.367,0-0.612,0.211-0.612,0.526v27.468"/>
		
			<path id="stairs_00000158011883281584800180000008760123599088742281_" fill="none" stroke="#DEDEDE" stroke-width="1.057" stroke-linecap="round" stroke-linejoin="round" stroke-miterlimit="10" d="
			M413.242,1287.455h-14.685 M428.783,1287.455h-14.685 M428.783,1284.614h-14.685 M428.783,1267.67h-14.685 M413.364,1295.559
			v-29.362 M413.242,1276.089h-14.685 M413.242,1273.248h-14.685 M413.242,1270.511h-14.685 M413.242,1267.67h-14.685
			 M431.598,1270.511h14.069 M431.598,1273.248h14.069 M431.629,1278.931h13.916 M431.598,1276.089h14.069 M395.743,1270.511
			h-14.685 M395.743,1273.248h-14.685 M395.824,1278.931H381.18 M395.743,1276.089h-14.685 M413.242,1284.614h-14.685
			 M414.099,1267.67h-0.857 M413.242,1278.931h-14.685 M428.783,1278.931h-14.685 M428.783,1281.772h-14.685 M428.783,1290.297
			h-14.685 M413.242,1290.297h-14.685 M413.242,1281.772h-14.685 M428.783,1270.511h-14.685 M428.783,1276.089h-14.685
			 M428.783,1273.248h-14.685 M431.353,1281.035v-13.997c0-0.526-0.489-1.158-1.224-1.158s-1.224,0.526-1.224,1.158v28.52
			 M395.988,1281.035v-13.997c0-0.631,0.489-1.158,1.101-1.158c0.734,0,1.224,0.631,1.224,1.158v28.52 M446.16,1281.035v-27.468
			c0-0.316-0.245-0.526-0.612-0.526l0,0H381.67c-0.367,0-0.612,0.21-0.612,0.526v27.468"/>
		
			<path id="stairs_00000104678083891681230510000007490595068155056523_" fill="none" stroke="#DEDEDE" stroke-width="1.057" stroke-linecap="round" stroke-linejoin="round" stroke-miterlimit="10" d="
			M174.887,2406.705h-14.685 M190.428,2406.705h-14.685 M190.428,2403.864h-14.685 M190.428,2386.92h-14.685 M175.009,2414.809
			v-29.362 M174.887,2395.339h-14.685 M174.887,2392.498h-14.685 M174.887,2389.761h-14.685 M174.887,2386.92h-14.685
			 M193.243,2389.761h14.069 M193.243,2392.498h14.069 M193.274,2398.18h13.916 M193.243,2395.339h14.069 M157.388,2389.761h-14.685
			 M157.388,2392.498h-14.685 M157.469,2398.18h-14.644 M157.388,2395.339h-14.685 M174.887,2403.864h-14.685 M175.744,2386.92
			h-0.857 M174.887,2398.18h-14.685 M190.428,2398.18h-14.685 M190.428,2401.022h-14.685 M190.428,2409.546h-14.685
			 M174.887,2409.546h-14.685 M174.887,2401.022h-14.685 M190.428,2389.761h-14.685 M190.428,2395.339h-14.685 M190.428,2392.498
			h-14.685 M192.998,2400.285v-13.997c0-0.526-0.489-1.158-1.224-1.158c-0.734,0-1.224,0.526-1.224,1.158v28.52 M157.632,2400.285
			v-13.997c0-0.631,0.489-1.158,1.101-1.158c0.734,0,1.224,0.632,1.224,1.158v28.52 M207.805,2400.285v-27.468
			c0-0.316-0.245-0.526-0.612-0.526l0,0h-63.879c-0.367,0-0.612,0.21-0.612,0.526v27.468"/>
		
			<path id="stairs_00000069379144355879533060000017176235978254726335_" fill="none" stroke="#DEDEDE" stroke-width="1.057" stroke-linecap="round" stroke-linejoin="round" stroke-miterlimit="10" d="
			M412.295,2406.705H397.61 M427.836,2406.705h-14.685 M427.836,2403.864h-14.685 M427.836,2386.92h-14.685 M412.417,2414.809
			v-29.362 M412.295,2395.339H397.61 M412.295,2392.498H397.61 M412.295,2389.761H397.61 M412.295,2386.92H397.61 M430.651,2389.761
			h14.069 M430.651,2392.498h14.069 M430.681,2398.18h13.916 M430.651,2395.339h14.069 M394.795,2389.761h-14.685 M394.795,2392.498
			h-14.685 M394.876,2398.18h-14.644 M394.795,2395.339h-14.685 M412.295,2403.864H397.61 M413.151,2386.92h-0.857 M412.295,2398.18
			H397.61 M427.836,2398.18h-14.685 M427.836,2401.022h-14.685 M427.836,2409.546h-14.685 M412.295,2409.546H397.61
			 M412.295,2401.022H397.61 M427.836,2389.761h-14.685 M427.836,2395.339h-14.685 M427.836,2392.498h-14.685 M430.406,2400.285
			v-13.997c0-0.526-0.489-1.158-1.224-1.158s-1.224,0.526-1.224,1.158v28.52 M395.04,2400.285v-13.997
			c0-0.631,0.489-1.158,1.101-1.158c0.734,0,1.224,0.632,1.224,1.158v28.52 M445.213,2400.285v-27.468
			c0-0.316-0.245-0.526-0.612-0.526l0,0h-63.879c-0.367,0-0.612,0.21-0.612,0.526v27.468"/>
	</g>
	<g id="elevator_00000155842485886858170050000002991967846039165090_">
		<g id="elevator-box_00000080895734764096116150000004729514944143239831_">
			<rect x="214.812" y="1235.887" fill="#9FAEBF" width="29.834" height="22.429"/>
			<rect x="214.812" y="1259.962" fill="#9FAEBF" width="29.834" height="22.429"/>
			<rect x="214.812" y="1284.036" fill="#9FAEBF" width="29.834" height="22.429"/>
			<rect x="214.812" y="1187.738" fill="#9FAEBF" width="29.834" height="22.429"/>
			<rect x="214.812" y="1211.812" fill="#9FAEBF" width="29.834" height="22.429"/>
			<rect x="346.779" y="1235.887" fill="#9FAEBF" width="29.834" height="22.429"/>
			<rect x="346.779" y="1259.962" fill="#9FAEBF" width="29.834" height="22.429"/>
			<rect x="346.779" y="1284.036" fill="#9FAEBF" width="29.834" height="22.429"/>
			<rect x="346.779" y="1187.738" fill="#9FAEBF" width="29.834" height="22.429"/>
			<rect x="346.779" y="1211.812" fill="#9FAEBF" width="29.834" height="22.429"/>
			<rect x="256.991" y="1347.181" fill="#9FAEBF" width="25.078" height="24.015"/>
			<rect x="311.783" y="1347.181" fill="#9FAEBF" width="25.078" height="24.015"/>
		</g>
		<g id="elevator-icon_00000053505875850563940630000018417779687595024010_">
			<polygon fill="#FFFFFF" points="233.498,1247.52 226.994,1247.52 226.994,1253.011 234.324,1253.011 234.324,1254.687 
				224.826,1254.687 224.826,1239.517 233.911,1239.517 233.911,1241.192 226.994,1241.192 226.994,1246.031 233.498,1246.031 
				233.498,1247.52 			"/>
			<polygon fill="#FFFFFF" points="233.498,1270.013 226.994,1270.013 226.994,1265.267 233.911,1265.267 233.911,1263.591 
				224.826,1263.591 224.826,1278.761 234.324,1278.761 234.324,1277.086 226.994,1277.086 226.994,1271.595 233.498,1271.595 
				233.498,1270.013 			"/>
			<polygon fill="#FFFFFF" points="233.498,1294.088 226.994,1294.088 226.994,1289.341 233.911,1289.341 233.911,1287.666 
				224.826,1287.666 224.826,1302.836 234.324,1302.836 234.324,1301.161 226.994,1301.161 226.994,1295.67 233.498,1295.67 
				233.498,1294.088 			"/>
			<polygon fill="#FFFFFF" points="233.498,1199.371 226.994,1199.371 226.994,1204.862 234.324,1204.862 234.324,1206.537 
				224.826,1206.537 224.826,1191.367 233.911,1191.367 233.911,1193.042 226.994,1193.042 226.994,1197.882 233.498,1197.882 
				233.498,1199.371 			"/>
			<polygon fill="#FFFFFF" points="233.498,1221.864 226.994,1221.864 226.994,1217.117 233.911,1217.117 233.911,1215.442 
				224.826,1215.442 224.826,1230.612 234.324,1230.612 234.324,1228.937 226.994,1228.937 226.994,1223.446 233.498,1223.446 
				233.498,1221.864 			"/>
			<polygon fill="#FFFFFF" points="365.67,1246.031 359.167,1246.031 359.167,1241.192 366.083,1241.192 366.083,1239.517 
				356.999,1239.517 356.999,1254.687 366.496,1254.687 366.496,1253.011 359.167,1253.011 359.167,1247.52 365.67,1247.52 
				365.67,1246.031 			"/>
			<polygon fill="#FFFFFF" points="365.67,1270.013 359.167,1270.013 359.167,1265.267 366.083,1265.267 366.083,1263.591 
				356.999,1263.591 356.999,1278.761 366.496,1278.761 366.496,1277.086 359.167,1277.086 359.167,1271.595 365.67,1271.595 
				365.67,1270.013 			"/>
			<polygon fill="#FFFFFF" points="365.67,1294.088 359.167,1294.088 359.167,1289.341 366.083,1289.341 366.083,1287.666 
				356.999,1287.666 356.999,1302.836 366.496,1302.836 366.496,1301.161 359.167,1301.161 359.167,1295.67 365.67,1295.67 
				365.67,1294.088 			"/>
			<polygon fill="#FFFFFF" points="365.67,1197.882 359.167,1197.882 359.167,1193.042 366.083,1193.042 366.083,1191.367 
				356.999,1191.367 356.999,1206.537 366.496,1206.537 366.496,1204.862 359.167,1204.862 359.167,1199.371 365.67,1199.371 
				365.67,1197.882 			"/>
			<polygon fill="#FFFFFF" points="365.67,1221.864 359.167,1221.864 359.167,1217.117 366.083,1217.117 366.083,1215.442 
				356.999,1215.442 356.999,1230.612 366.496,1230.612 366.496,1228.937 359.167,1228.937 359.167,1223.446 365.67,1223.446 
				365.67,1221.864 			"/>
			<polygon fill="#FFFFFF" points="273.917,1358.314 267.413,1358.314 267.413,1353.568 274.33,1353.568 274.33,1351.892 
				265.245,1351.892 265.245,1367.062 274.743,1367.062 274.743,1365.387 267.413,1365.387 267.413,1359.896 273.917,1359.896 
				273.917,1358.314 			"/>
			<polygon fill="#FFFFFF" points="328.685,1358.314 322.182,1358.314 322.182,1353.568 329.098,1353.568 329.098,1351.892 
				320.014,1351.892 320.014,1367.062 329.511,1367.062 329.511,1365.387 322.182,1365.387 322.182,1359.896 328.685,1359.896 
				328.685,1358.314 			"/>
		</g>
	</g>
	<g id="elevator_00000124855145811217517720000001238585728425960610_">
		<g id="elevator-box_00000155840273306637797390000016638824089930713788_">
			<g>
				<rect x="213.843" y="2323.242" fill="#9FAEBF" width="29.834" height="22.429"/>
				<rect x="343.809" y="2323.242" fill="#9FAEBF" width="29.834" height="22.429"/>
			</g>
			<g>
				<rect x="213.843" y="2351.979" fill="#9FAEBF" width="29.834" height="22.429"/>
				<rect x="343.809" y="2351.979" fill="#9FAEBF" width="29.834" height="22.429"/>
			</g>
			<g>
				<rect x="213.843" y="2380.714" fill="#9FAEBF" width="29.834" height="22.429"/>
				<rect x="343.809" y="2380.714" fill="#9FAEBF" width="29.834" height="22.429"/>
			</g>
			<g>
				<rect x="213.843" y="2265.771" fill="#9FAEBF" width="29.834" height="22.429"/>
				<rect x="343.809" y="2265.771" fill="#9FAEBF" width="29.834" height="22.429"/>
			</g>
			<g>
				<rect x="213.843" y="2294.507" fill="#9FAEBF" width="29.834" height="22.429"/>
				<rect x="343.809" y="2294.507" fill="#9FAEBF" width="29.834" height="22.429"/>
			</g>
			<rect x="254.178" y="2450.737" fill="#9FAEBF" width="25.078" height="24.015"/>
			<rect x="281.574" y="2450.737" fill="#9FAEBF" width="25.078" height="24.015"/>
			<rect x="308.97" y="2450.737" fill="#9FAEBF" width="25.078" height="24.015"/>
		</g>
		<g id="elevator-icon_00000065786860912589605540000015245783580790729870_">
			<polygon fill="#FFFFFF" points="232.528,2334.589 226.024,2334.589 226.024,2340.08 233.354,2340.08 233.354,2341.755 
				223.856,2341.755 223.856,2326.585 232.941,2326.585 232.941,2328.26 226.024,2328.26 226.024,2333.1 232.528,2333.1 
				232.528,2334.589 			"/>
			<polygon fill="#FFFFFF" points="232.528,2361.975 226.024,2361.975 226.024,2357.229 232.941,2357.229 232.941,2355.554 
				223.856,2355.554 223.856,2370.724 233.354,2370.724 233.354,2369.049 226.024,2369.049 226.024,2363.558 232.528,2363.558 
				232.528,2361.975 			"/>
			<polygon fill="#FFFFFF" points="232.528,2390.759 226.024,2390.759 226.024,2386.012 232.941,2386.012 232.941,2384.337 
				223.856,2384.337 223.856,2399.507 233.354,2399.507 233.354,2397.832 226.024,2397.832 226.024,2392.341 232.528,2392.341 
				232.528,2390.759 			"/>
			<polygon fill="#FFFFFF" points="232.528,2277.404 226.024,2277.404 226.024,2282.895 233.354,2282.895 233.354,2284.57 
				223.856,2284.57 223.856,2269.4 232.941,2269.4 232.941,2271.075 226.024,2271.075 226.024,2275.915 232.528,2275.915 
				232.528,2277.404 			"/>
			<polygon fill="#FFFFFF" points="232.528,2303.794 226.024,2303.794 226.024,2299.047 232.941,2299.047 232.941,2297.372 
				223.856,2297.372 223.856,2312.542 233.354,2312.542 233.354,2310.867 226.024,2310.867 226.024,2305.376 232.528,2305.376 
				232.528,2303.794 			"/>
			<polygon fill="#FFFFFF" points="362.701,2333.1 356.197,2333.1 356.197,2328.26 363.113,2328.26 363.113,2326.585 
				354.029,2326.585 354.029,2341.755 363.526,2341.755 363.526,2340.08 356.197,2340.08 356.197,2334.589 362.7,2334.589 
				362.7,2333.1 			"/>
			<polygon fill="#FFFFFF" points="362.701,2361.975 356.197,2361.975 356.197,2357.229 363.113,2357.229 363.113,2355.554 
				354.029,2355.554 354.029,2370.724 363.526,2370.724 363.526,2369.049 356.197,2369.049 356.197,2363.558 362.7,2363.558 
				362.7,2361.975 			"/>
			<polygon fill="#FFFFFF" points="362.701,2390.759 356.197,2390.759 356.197,2386.012 363.113,2386.012 363.113,2384.337 
				354.029,2384.337 354.029,2399.507 363.526,2399.507 363.526,2397.832 356.197,2397.832 356.197,2392.341 362.7,2392.341 
				362.7,2390.759 			"/>
			<polygon fill="#FFFFFF" points="362.701,2275.915 356.197,2275.915 356.197,2271.075 363.113,2271.075 363.113,2269.4 
				354.029,2269.4 354.029,2284.57 363.526,2284.57 363.526,2282.895 356.197,2282.895 356.197,2277.404 362.7,2277.404 
				362.7,2275.915 			"/>
			<polygon fill="#FFFFFF" points="362.701,2303.794 356.197,2303.794 356.197,2299.047 363.113,2299.047 363.113,2297.372 
				354.029,2297.372 354.029,2312.542 363.526,2312.542 363.526,2310.867 356.197,2310.867 356.197,2305.376 362.7,2305.376 
				362.7,2303.794 			"/>
			<polygon fill="#FFFFFF" points="270.664,2461.535 264.16,2461.535 264.16,2456.788 271.077,2456.788 271.077,2455.113 
				261.992,2455.113 261.992,2470.283 271.49,2470.283 271.49,2468.608 264.16,2468.608 264.16,2463.117 270.664,2463.117 
				270.664,2461.535 			"/>
			<polygon fill="#FFFFFF" points="297.717,2461.535 291.213,2461.535 291.213,2456.788 298.13,2456.788 298.13,2455.113 
				289.045,2455.113 289.045,2470.283 298.543,2470.283 298.543,2468.608 291.213,2468.608 291.213,2463.117 297.717,2463.117 
				297.717,2461.535 			"/>
			<polygon fill="#FFFFFF" points="325.432,2461.535 318.929,2461.535 318.929,2456.788 325.845,2456.788 325.845,2455.113 
				316.761,2455.113 316.761,2470.283 326.258,2470.283 326.258,2468.608 318.929,2468.608 318.929,2463.117 325.432,2463.117 
				325.432,2461.535 			"/>
		</g>
	</g>
	<g id="escalator_down_00000001626907018402219500000006274195031588543662_">
		
			<line fill="none" stroke="#DFDFDF" stroke-width="1.0575" stroke-linecap="round" stroke-miterlimit="10" x1="265.558" y1="2213.688" x2="250.699" y2="2131.38"/>
		
			<line fill="none" stroke="#DFDFDF" stroke-width="1.0575" stroke-linecap="round" stroke-miterlimit="10" x1="252.048" y1="2218.783" x2="236.777" y2="2134.189"/>
		
			<line fill="none" stroke="#DFDFDF" stroke-width="1.0575" stroke-linecap="round" stroke-miterlimit="10" x1="265.391" y1="2212.654" x2="251.417" y2="2215.176"/>
		
			<line fill="none" stroke="#DFDFDF" stroke-width="1.0575" stroke-linecap="round" stroke-miterlimit="10" x1="264.547" y1="2207.978" x2="250.573" y2="2210.5"/>
		
			<line fill="none" stroke="#DFDFDF" stroke-width="1.0575" stroke-linecap="round" stroke-miterlimit="10" x1="263.703" y1="2203.302" x2="249.729" y2="2205.825"/>
		
			<line fill="none" stroke="#DFDFDF" stroke-width="1.0575" stroke-linecap="round" stroke-miterlimit="10" x1="262.859" y1="2198.627" x2="248.885" y2="2201.149"/>
		
			<line fill="none" stroke="#DFDFDF" stroke-width="1.0575" stroke-linecap="round" stroke-miterlimit="10" x1="262.015" y1="2193.951" x2="248.041" y2="2196.474"/>
		
			<line fill="none" stroke="#DFDFDF" stroke-width="1.0575" stroke-linecap="round" stroke-miterlimit="10" x1="261.171" y1="2189.275" x2="247.197" y2="2191.798"/>
		
			<line fill="none" stroke="#DFDFDF" stroke-width="1.0575" stroke-linecap="round" stroke-miterlimit="10" x1="260.327" y1="2184.6" x2="246.353" y2="2187.122"/>
		
			<line fill="none" stroke="#DFDFDF" stroke-width="1.0575" stroke-linecap="round" stroke-miterlimit="10" x1="259.483" y1="2179.924" x2="245.509" y2="2182.447"/>
		
			<line fill="none" stroke="#DFDFDF" stroke-width="1.0575" stroke-linecap="round" stroke-miterlimit="10" x1="258.639" y1="2175.249" x2="244.665" y2="2177.771"/>
		
			<line fill="none" stroke="#DFDFDF" stroke-width="1.0575" stroke-linecap="round" stroke-miterlimit="10" x1="257.796" y1="2170.573" x2="243.821" y2="2173.095"/>
		
			<line fill="none" stroke="#DFDFDF" stroke-width="1.0575" stroke-linecap="round" stroke-miterlimit="10" x1="256.952" y1="2165.897" x2="242.977" y2="2168.419"/>
		
			<line fill="none" stroke="#DFDFDF" stroke-width="1.0575" stroke-linecap="round" stroke-miterlimit="10" x1="256.108" y1="2161.221" x2="242.133" y2="2163.744"/>
		
			<line fill="none" stroke="#DFDFDF" stroke-width="1.0575" stroke-linecap="round" stroke-miterlimit="10" x1="255.264" y1="2156.546" x2="241.289" y2="2159.068"/>
		
			<line fill="none" stroke="#DFDFDF" stroke-width="1.0575" stroke-linecap="round" stroke-miterlimit="10" x1="254.42" y1="2151.87" x2="240.445" y2="2154.393"/>
		
			<line fill="none" stroke="#DFDFDF" stroke-width="1.0575" stroke-linecap="round" stroke-miterlimit="10" x1="253.576" y1="2147.194" x2="239.601" y2="2149.717"/>
		
			<line fill="none" stroke="#DFDFDF" stroke-width="1.0575" stroke-linecap="round" stroke-miterlimit="10" x1="252.732" y1="2142.519" x2="238.757" y2="2145.041"/>
		
			<line fill="none" stroke="#DFDFDF" stroke-width="1.0575" stroke-linecap="round" stroke-miterlimit="10" x1="220.264" y1="2217.548" x2="221.842" y2="2133.924"/>
		
			<line fill="none" stroke="#DFDFDF" stroke-width="1.0575" stroke-linecap="round" stroke-miterlimit="10" x1="234.412" y1="2220.429" x2="236.034" y2="2134.483"/>
		
			<line fill="none" stroke="#DFDFDF" stroke-width="1.0575" stroke-linecap="round" stroke-miterlimit="10" x1="220.264" y1="2216.5" x2="234.462" y2="2216.768"/>
		
			<line fill="none" stroke="#DFDFDF" stroke-width="1.0575" stroke-linecap="round" stroke-miterlimit="10" x1="220.354" y1="2211.75" x2="234.551" y2="2212.018"/>
		
			<line fill="none" stroke="#DFDFDF" stroke-width="1.0575" stroke-linecap="round" stroke-miterlimit="10" x1="220.443" y1="2207" x2="234.641" y2="2207.267"/>
		
			<line fill="none" stroke="#DFDFDF" stroke-width="1.0575" stroke-linecap="round" stroke-miterlimit="10" x1="220.533" y1="2202.249" x2="234.73" y2="2202.517"/>
		
			<line fill="none" stroke="#DFDFDF" stroke-width="1.0575" stroke-linecap="round" stroke-miterlimit="10" x1="220.622" y1="2197.499" x2="234.82" y2="2197.767"/>
		
			<line fill="none" stroke="#DFDFDF" stroke-width="1.0575" stroke-linecap="round" stroke-miterlimit="10" x1="220.712" y1="2192.749" x2="234.909" y2="2193.016"/>
		
			<line fill="none" stroke="#DFDFDF" stroke-width="1.0575" stroke-linecap="round" stroke-miterlimit="10" x1="220.801" y1="2187.998" x2="234.999" y2="2188.266"/>
		
			<line fill="none" stroke="#DFDFDF" stroke-width="1.0575" stroke-linecap="round" stroke-miterlimit="10" x1="220.891" y1="2183.248" x2="235.089" y2="2183.515"/>
		
			<line fill="none" stroke="#DFDFDF" stroke-width="1.0575" stroke-linecap="round" stroke-miterlimit="10" x1="220.98" y1="2178.497" x2="235.178" y2="2178.765"/>
		
			<line fill="none" stroke="#DFDFDF" stroke-width="1.0575" stroke-linecap="round" stroke-miterlimit="10" x1="221.07" y1="2173.747" x2="235.268" y2="2174.015"/>
		
			<line fill="none" stroke="#DFDFDF" stroke-width="1.0575" stroke-linecap="round" stroke-miterlimit="10" x1="221.16" y1="2168.997" x2="235.357" y2="2169.264"/>
		
			<line fill="none" stroke="#DFDFDF" stroke-width="1.0575" stroke-linecap="round" stroke-miterlimit="10" x1="221.249" y1="2164.246" x2="235.447" y2="2164.514"/>
		
			<line fill="none" stroke="#DFDFDF" stroke-width="1.0575" stroke-linecap="round" stroke-miterlimit="10" x1="221.339" y1="2159.496" x2="235.536" y2="2159.763"/>
		
			<line fill="none" stroke="#DFDFDF" stroke-width="1.0575" stroke-linecap="round" stroke-miterlimit="10" x1="221.428" y1="2154.745" x2="235.626" y2="2155.013"/>
		
			<line fill="none" stroke="#DFDFDF" stroke-width="1.0575" stroke-linecap="round" stroke-miterlimit="10" x1="221.518" y1="2149.995" x2="235.715" y2="2150.263"/>
		
			<line fill="none" stroke="#DFDFDF" stroke-width="1.0575" stroke-linecap="round" stroke-miterlimit="10" x1="221.607" y1="2145.245" x2="235.805" y2="2145.512"/>
		
			<path fill="none" stroke="#DFDFDF" stroke-width="1.0575" stroke-linecap="round" stroke-linejoin="round" stroke-miterlimit="10" d="
			M252.048,2218.783l4.15,0.204c6.463,0.317,11.54-5.464,10.391-11.832l-12.868-71.287l-2.132,0.43"/>
		
			<path fill="none" stroke="#DFDFDF" stroke-width="1.0575" stroke-linecap="round" stroke-linejoin="round" stroke-miterlimit="10" d="
			M250.682,2218.619"/>
		
			<path fill="none" stroke="#DFDFDF" stroke-width="1.0575" stroke-linecap="round" stroke-linejoin="round" stroke-miterlimit="10" d="
			M221.76,2138.958l-2.329-0.092l-1.365,72.426c-0.122,6.47,5.81,11.37,12.14,10.028l4.206-0.891"/>
	</g>
	<g id="escalator_down_00000144296601978879900770000003837043372234635417_">
		
			<line fill="none" stroke="#DFDFDF" stroke-width="1.0575" stroke-linecap="round" stroke-miterlimit="10" x1="322.777" y1="2213.688" x2="337.636" y2="2131.38"/>
		
			<line fill="none" stroke="#DFDFDF" stroke-width="1.0575" stroke-linecap="round" stroke-miterlimit="10" x1="336.287" y1="2218.783" x2="351.558" y2="2134.189"/>
		
			<line fill="none" stroke="#DFDFDF" stroke-width="1.0575" stroke-linecap="round" stroke-miterlimit="10" x1="322.944" y1="2212.654" x2="336.918" y2="2215.176"/>
		
			<line fill="none" stroke="#DFDFDF" stroke-width="1.0575" stroke-linecap="round" stroke-miterlimit="10" x1="323.788" y1="2207.978" x2="337.762" y2="2210.5"/>
		
			<line fill="none" stroke="#DFDFDF" stroke-width="1.0575" stroke-linecap="round" stroke-miterlimit="10" x1="324.632" y1="2203.302" x2="338.606" y2="2205.825"/>
		
			<line fill="none" stroke="#DFDFDF" stroke-width="1.0575" stroke-linecap="round" stroke-miterlimit="10" x1="325.476" y1="2198.627" x2="339.45" y2="2201.149"/>
		
			<line fill="none" stroke="#DFDFDF" stroke-width="1.0575" stroke-linecap="round" stroke-miterlimit="10" x1="326.32" y1="2193.951" x2="340.294" y2="2196.474"/>
		
			<line fill="none" stroke="#DFDFDF" stroke-width="1.0575" stroke-linecap="round" stroke-miterlimit="10" x1="327.163" y1="2189.275" x2="341.138" y2="2191.798"/>
		
			<line fill="none" stroke="#DFDFDF" stroke-width="1.0575" stroke-linecap="round" stroke-miterlimit="10" x1="328.007" y1="2184.6" x2="341.982" y2="2187.122"/>
		
			<line fill="none" stroke="#DFDFDF" stroke-width="1.0575" stroke-linecap="round" stroke-miterlimit="10" x1="328.851" y1="2179.924" x2="342.826" y2="2182.447"/>
		
			<line fill="none" stroke="#DFDFDF" stroke-width="1.0575" stroke-linecap="round" stroke-miterlimit="10" x1="329.695" y1="2175.249" x2="343.67" y2="2177.771"/>
		
			<line fill="none" stroke="#DFDFDF" stroke-width="1.0575" stroke-linecap="round" stroke-miterlimit="10" x1="330.539" y1="2170.573" x2="344.514" y2="2173.095"/>
		
			<line fill="none" stroke="#DFDFDF" stroke-width="1.0575" stroke-linecap="round" stroke-miterlimit="10" x1="331.383" y1="2165.897" x2="345.358" y2="2168.419"/>
		
			<line fill="none" stroke="#DFDFDF" stroke-width="1.0575" stroke-linecap="round" stroke-miterlimit="10" x1="332.227" y1="2161.221" x2="346.202" y2="2163.744"/>
		
			<line fill="none" stroke="#DFDFDF" stroke-width="1.0575" stroke-linecap="round" stroke-miterlimit="10" x1="333.071" y1="2156.546" x2="347.046" y2="2159.068"/>
		
			<line fill="none" stroke="#DFDFDF" stroke-width="1.0575" stroke-linecap="round" stroke-miterlimit="10" x1="333.915" y1="2151.87" x2="347.89" y2="2154.393"/>
		
			<line fill="none" stroke="#DFDFDF" stroke-width="1.0575" stroke-linecap="round" stroke-miterlimit="10" x1="334.759" y1="2147.194" x2="348.734" y2="2149.717"/>
		
			<line fill="none" stroke="#DFDFDF" stroke-width="1.0575" stroke-linecap="round" stroke-miterlimit="10" x1="335.603" y1="2142.519" x2="349.578" y2="2145.041"/>
		
			<line fill="none" stroke="#DFDFDF" stroke-width="1.0575" stroke-linecap="round" stroke-miterlimit="10" x1="368.071" y1="2217.548" x2="366.493" y2="2133.924"/>
		
			<line fill="none" stroke="#DFDFDF" stroke-width="1.0575" stroke-linecap="round" stroke-miterlimit="10" x1="353.923" y1="2220.429" x2="352.301" y2="2134.483"/>
		
			<line fill="none" stroke="#DFDFDF" stroke-width="1.0575" stroke-linecap="round" stroke-miterlimit="10" x1="368.071" y1="2216.5" x2="353.873" y2="2216.768"/>
		
			<line fill="none" stroke="#DFDFDF" stroke-width="1.0575" stroke-linecap="round" stroke-miterlimit="10" x1="367.981" y1="2211.75" x2="353.784" y2="2212.018"/>
		
			<line fill="none" stroke="#DFDFDF" stroke-width="1.0575" stroke-linecap="round" stroke-miterlimit="10" x1="367.892" y1="2207" x2="353.694" y2="2207.267"/>
		
			<line fill="none" stroke="#DFDFDF" stroke-width="1.0575" stroke-linecap="round" stroke-miterlimit="10" x1="367.802" y1="2202.249" x2="353.605" y2="2202.517"/>
		
			<line fill="none" stroke="#DFDFDF" stroke-width="1.0575" stroke-linecap="round" stroke-miterlimit="10" x1="367.713" y1="2197.499" x2="353.515" y2="2197.767"/>
		
			<line fill="none" stroke="#DFDFDF" stroke-width="1.0575" stroke-linecap="round" stroke-miterlimit="10" x1="367.623" y1="2192.749" x2="353.426" y2="2193.016"/>
		
			<line fill="none" stroke="#DFDFDF" stroke-width="1.0575" stroke-linecap="round" stroke-miterlimit="10" x1="367.534" y1="2187.998" x2="353.336" y2="2188.266"/>
		
			<line fill="none" stroke="#DFDFDF" stroke-width="1.0575" stroke-linecap="round" stroke-miterlimit="10" x1="367.444" y1="2183.248" x2="353.246" y2="2183.515"/>
		
			<line fill="none" stroke="#DFDFDF" stroke-width="1.0575" stroke-linecap="round" stroke-miterlimit="10" x1="367.354" y1="2178.497" x2="353.157" y2="2178.765"/>
		
			<line fill="none" stroke="#DFDFDF" stroke-width="1.0575" stroke-linecap="round" stroke-miterlimit="10" x1="367.265" y1="2173.747" x2="353.067" y2="2174.015"/>
		
			<line fill="none" stroke="#DFDFDF" stroke-width="1.0575" stroke-linecap="round" stroke-miterlimit="10" x1="367.175" y1="2168.997" x2="352.978" y2="2169.264"/>
		
			<line fill="none" stroke="#DFDFDF" stroke-width="1.0575" stroke-linecap="round" stroke-miterlimit="10" x1="367.086" y1="2164.246" x2="352.888" y2="2164.514"/>
		
			<line fill="none" stroke="#DFDFDF" stroke-width="1.0575" stroke-linecap="round" stroke-miterlimit="10" x1="366.996" y1="2159.496" x2="352.799" y2="2159.763"/>
		
			<line fill="none" stroke="#DFDFDF" stroke-width="1.0575" stroke-linecap="round" stroke-miterlimit="10" x1="366.907" y1="2154.745" x2="352.709" y2="2155.013"/>
		
			<line fill="none" stroke="#DFDFDF" stroke-width="1.0575" stroke-linecap="round" stroke-miterlimit="10" x1="366.817" y1="2149.995" x2="352.62" y2="2150.263"/>
		
			<line fill="none" stroke="#DFDFDF" stroke-width="1.0575" stroke-linecap="round" stroke-miterlimit="10" x1="366.728" y1="2145.245" x2="352.53" y2="2145.512"/>
		
			<path fill="none" stroke="#DFDFDF" stroke-width="1.0575" stroke-linecap="round" stroke-linejoin="round" stroke-miterlimit="10" d="
			M336.287,2218.783l-4.15,0.204c-6.463,0.317-11.54-5.464-10.391-11.832l12.868-71.287l2.132,0.43"/>
		
			<path fill="none" stroke="#DFDFDF" stroke-width="1.0575" stroke-linecap="round" stroke-linejoin="round" stroke-miterlimit="10" d="
			M337.653,2218.619"/>
		
			<path fill="none" stroke="#DFDFDF" stroke-width="1.0575" stroke-linecap="round" stroke-linejoin="round" stroke-miterlimit="10" d="
			M366.575,2138.958l2.329-0.092l1.365,72.426c0.122,6.47-5.81,11.37-12.14,10.028l-4.206-0.891"/>
	</g>
	<path fill="#A1AFC0" d="M370.082,1099.543c-0.025-0.542-0.469-0.907-1.011-0.907h-3.357c0.014-0.403,0.006-1.334-0.002-1.847
		c0-1.737-1.565-3.641-4.092-3.641c-2.372,0-4.093,1.563-4.093,3.68c-0.007,0.49-0.016,1.405-0.002,1.808h-3.357
		c-0.543,0-0.987,0.365-1.012,0.907l-0.657,14.529c-0.012,0.252,0.069,0.538,0.234,0.71c0.187,0.196,0.462,0.365,0.776,0.365h16.225
		c0.279,0,0.537-0.19,0.729-0.392c0.191-0.202,0.29-0.474,0.277-0.752L370.082,1099.543z M358.929,1096.834l0.001-0.075
		c0-1.3,1.106-2.222,2.689-2.222c1.755,0,2.689,1.275,2.689,2.2l0.001,0.1c0.012,0.845,0.013,1.396,0.001,1.798h-5.382
		C358.916,1098.233,358.917,1097.679,358.929,1096.834z M367.341,1105.705c-0.492,0.664-1.337,0.927-2.186,0.786
		c0.222,0.492,0.354,1.028,0.354,1.604c0,2.147-1.743,3.89-3.889,3.89c-2.15,0-3.891-1.743-3.891-3.89
		c0-0.576,0.131-1.112,0.353-1.604c-0.851,0.141-1.694-0.122-2.183-0.786c-0.746-1.001-0.41-2.52,0.757-3.383
		c1.16-0.863,2.71-0.754,3.456,0.249c0.391,0.529,0.474,1.2,0.302,1.843c0.383-0.124,0.782-0.21,1.206-0.21
		c0.422,0,0.819,0.085,1.202,0.21c-0.171-0.643-0.087-1.314,0.304-1.843c0.746-1.003,2.292-1.112,3.458-0.249
		C367.747,1103.186,368.086,1104.704,367.341,1105.705z"/>
</g>
<g id="venueBG">
	
		<polyline fill="none" stroke="#DEDEDE" stroke-width="1.057" stroke-linecap="round" stroke-linejoin="round" stroke-miterlimit="10" points="
		280.703,2795.03 280.703,2822.109 255.291,2822.109 255.291,2794.992 225.238,2794.948 225.298,2841.222 212.074,2841.222 
		212.074,2906.567 283.062,2906.472 	"/>
	
		<polyline fill="none" stroke="#DEDEDE" stroke-width="1.057" stroke-linecap="round" stroke-linejoin="round" stroke-miterlimit="10" points="
		306.415,2906.472 335.025,2906.421 335.156,2795.111 	"/>
	
		<rect x="257.019" y="1721.913" fill="none" stroke="#DEDEDE" stroke-width="1.057" stroke-linecap="round" stroke-linejoin="round" stroke-miterlimit="10" width="106.552" height="29.596"/>
	
		<polygon fill="none" stroke="#DEDEDE" stroke-width="1.057" stroke-linecap="round" stroke-linejoin="round" stroke-miterlimit="10" points="
		224.242,1399.287 142.162,1399.287 142.538,1664.861 222.514,1664.861 211.568,1613.014 211.568,1451.711 	"/>
	
		<polygon fill="none" stroke="#DEDEDE" stroke-width="1.057" stroke-linecap="round" stroke-linejoin="round" stroke-miterlimit="10" points="
		306.415,2794.944 361.56,2795.35 361.56,2769.037 379.293,2768.998 379.293,2736.769 306.415,2736.769 	"/>
	
		<rect x="306.415" y="2906.567" transform="matrix(-1 3.773458e-11 -3.773458e-11 -1 683.8845 5946.7231)" fill="none" stroke="#DEDEDE" stroke-width="1.057" stroke-linecap="round" stroke-linejoin="round" stroke-miterlimit="10" width="71.054" height="133.589"/>
	
		<rect x="212.008" y="2906.567" transform="matrix(-1 3.773458e-11 -3.773458e-11 -1 495.0696 5946.7231)" fill="none" stroke="#DEDEDE" stroke-width="1.057" stroke-linecap="round" stroke-linejoin="round" stroke-miterlimit="10" width="71.054" height="133.589"/>
	
		<rect x="341.741" y="1087.2" fill="none" stroke="#DEDEDE" stroke-width="1.0038" stroke-linecap="round" stroke-linejoin="round" stroke-miterlimit="10" width="39.37" height="48.754"/>
	
		<rect x="210.998" y="1023.271" fill="none" stroke="#DEDEDE" stroke-width="1.0298" stroke-linecap="round" stroke-linejoin="round" stroke-miterlimit="10" width="38.36" height="113.45"/>
	
		<rect id="restroom" x="215.293" y="1152.225" fill="none" stroke="#DEDEDE" stroke-width="1.057" stroke-linecap="round" stroke-linejoin="round" stroke-miterlimit="10" width="33.89" height="32.42"/>
	
		<polygon fill="none" stroke="#DEDEDE" stroke-width="1.057" stroke-linecap="round" stroke-linejoin="round" stroke-miterlimit="10" points="
		262.537,2634.087 262.537,2658.035 280.831,2658.035 280.831,2795.073 237.258,2795.073 237.258,2766.586 210.451,2766.586 
		210.451,2777.119 140.467,2777.119 140.467,2647.853 208.609,2648.25 208.609,2634.132 	"/>
	
		<polygon fill="none" stroke="#DEDEDE" stroke-width="1.056" stroke-linecap="round" stroke-linejoin="round" stroke-miterlimit="10" points="
		176.348,2628.089 208.631,2628.085 208.631,2634.132 281.94,2634.132 281.94,2583.334 243.055,2583.334 243.055,2526.229 
		277.918,2526.229 277.918,2490.391 176.938,2490.25 	"/>
	
		<path fill="none" stroke="#DEDEDE" stroke-width="1.057" stroke-linecap="round" stroke-linejoin="round" stroke-miterlimit="10" d="
		M446.846,2013.643h-47.652c0,0-13.848-49.688-32.99-66.794c-19.142-17.106-48.874-27.288-63.536-27.288
		s-28.917-8.146-30.139-22.808c-1.222-14.662,0-121.37,0-121.37h39.099v71.682l43.987,26.473h92.453v140.105H446.846z"/>
	
		<polygon fill="none" stroke="#DEDEDE" stroke-width="1.057" stroke-linecap="round" stroke-linejoin="round" stroke-miterlimit="10" points="
		447.729,1602.228 447.729,1415.994 309.502,1384.309 257.655,1384.309 244.981,1454.591 244.981,1608.981 257.079,1663.133 
		257.079,1691.451 287.291,1691.828 313.644,1665.287 363.654,1664.887 363.654,1649.307 385.173,1619.734 	"/>
	
		<path id="stage" fill="none" stroke="#DEDEDE" stroke-width="1.0038" stroke-linecap="round" stroke-linejoin="round" stroke-miterlimit="10" d="
		M400.554,717.32H185.697c-36.458,0-47.152,22.361-47.152,22.361v255.205h154.553h0.056h154.553V739.681
		C447.707,739.681,437.012,717.32,400.554,717.32z"/>
	
		<polyline fill="none" stroke="#DEDEDE" stroke-width="1.057" stroke-linecap="round" stroke-linejoin="round" stroke-miterlimit="10" points="
		244.981,1454.591 311.016,1454.591 311.016,1384.656 	"/>
	
		<polygon fill="none" stroke="#DEDEDE" stroke-width="1.057" stroke-linecap="round" stroke-linejoin="round" stroke-miterlimit="10" points="
		257.079,1663.133 274.873,1663.133 311.016,1627.726 311.016,1609.923 244.981,1609.923 	"/>
	<polyline fill="none" stroke="#DEDEDE" stroke-width="1.057" stroke-linejoin="round" stroke-miterlimit="10" points="
		140.501,1953.27 223.116,1953.27 223.116,1855.592 	"/>
	
		<line fill="none" stroke="#DEDEDE" stroke-width="1.057" stroke-linejoin="round" stroke-miterlimit="10" x1="140.501" y1="2049.28" x2="163.785" y2="2049.28"/>
	
		<polyline fill="none" stroke="#DEDEDE" stroke-width="1.057" stroke-linecap="round" stroke-linejoin="round" stroke-miterlimit="10" points="
		225.298,2841.222 283.062,2841.222 283.062,2906.567 	"/>
	
		<line fill="none" stroke="#DEDEDE" stroke-width="1.1566" stroke-linejoin="round" stroke-miterlimit="10" x1="306.146" y1="1505.579" x2="244.981" y2="1505.579"/>
	
		<line fill="none" stroke="#DEDEDE" stroke-width="1.1566" stroke-linejoin="round" stroke-miterlimit="10" x1="306.146" y1="1454.591" x2="306.146" y2="1609.923"/>
	
		<line fill="none" stroke="#DEDEDE" stroke-width="1.1566" stroke-linejoin="round" stroke-miterlimit="10" x1="306.146" y1="1559.111" x2="244.981" y2="1559.111"/>
	
		<line fill="none" stroke="#DEDEDE" stroke-width="1.057" stroke-linecap="round" stroke-linejoin="round" stroke-miterlimit="10" x1="335.845" y1="1751.509" x2="335.845" y2="1721.913"/>
	
		<line fill="none" stroke="#DEDEDE" stroke-width="1.057" stroke-linecap="round" stroke-linejoin="round" stroke-miterlimit="10" x1="307.805" y1="1751.509" x2="307.805" y2="1721.913"/>
	
		<line fill="none" stroke="#DEDEDE" stroke-width="1.057" stroke-linejoin="round" stroke-miterlimit="10" x1="223.116" y1="1953.27" x2="211.129" y2="2096.578"/>
	
		<line fill="none" stroke="#DEDEDE" stroke-width="1.056" stroke-linecap="round" stroke-linejoin="round" stroke-miterlimit="10" x1="379.293" y1="2526.151" x2="419.479" y2="2526.151"/>
	
		<line fill="none" stroke="#DEDEDE" stroke-width="1.056" stroke-linecap="round" stroke-linejoin="round" stroke-miterlimit="10" x1="310.288" y1="2556.505" x2="310.288" y2="2690.757"/>
</g>
<g id="venueLabels">
	<text transform="matrix(1 0 0 1 154.7185 1527.114)"><tspan x="0" y="0" fill="#A1AFC0" font-family="'Avenir-Book'" font-size="14px">Bibbidi</tspan><tspan x="-2.471" y="16" fill="#A1AFC0" font-family="'Avenir-Book'" font-size="14px">Bobbidi</tspan><tspan x="-6.237" y="32" fill="#A1AFC0" font-family="'Avenir-Book'" font-size="14px">Boutique</tspan></text>
	<text transform="matrix(1 0 0 1 307.5773 2776.4851)"><tspan x="0" y="0" fill="#A1AFC0" font-family="'Avenir-Book'" font-size="13px">Alley Cat</tspan><tspan x="12.753" y="15" fill="#A1AFC0" font-family="'Avenir-Book'" font-size="13px">Café</tspan></text>
	<text transform="matrix(0 -1 1 0 300.5443 2691.457)"><tspan x="0" y="0" fill="#A1AFC0" font-family="'Avenir-Book'" font-size="14px">San Fransokyo Street</tspan></text>
	<text transform="matrix(1 0 0 1 156.7899 3151.9961)" fill="#A1AFC0" font-family="'Avenir-Book'" font-size="14px">Baymax Cinemas</text>
	<path fill="#A1AFC0" d="M223.095,3133.713h-6.618c0.15-0.139,0.298-0.278,0.443-0.422c3.815-3.815,3.815-10.103,0-13.918
		c-3.815-3.815-10.001-3.866-13.816-0.051c-3.814,3.815-3.875,9.973-0.06,13.788c1.753,1.752,4.003,2.674,6.235,2.815l0.038-0.008
		c0.079,0.018,0.158,0.029,0.242,0.029h13.537c0.617,0,1.117-0.5,1.117-1.118C224.213,3134.213,223.712,3133.713,223.095,3133.713z
		 M213.986,3124.663c0.836-0.836,2.193-0.836,3.027,0c0.836,0.836,0.836,2.193,0,3.029c-0.834,0.836-2.191,0.836-3.027,0
		C213.15,3126.856,213.15,3125.499,213.986,3124.663z M208.499,3119.176c0.835-0.837,2.191-0.837,3.026,0
		c0.836,0.835,0.837,2.192,0,3.028c-0.835,0.837-2.191,0.837-3.026,0C207.661,3121.368,207.661,3120.011,208.499,3119.176z
		 M211.335,3126.178c0,0.73-0.592,1.324-1.324,1.324c-0.731,0-1.323-0.594-1.323-1.324c0-0.729,0.592-1.323,1.323-1.323
		C210.743,3124.855,211.335,3125.448,211.335,3126.178z M206.038,3127.692c-0.837,0.836-2.193,0.836-3.029,0
		c-0.835-0.836-0.835-2.193,0-3.029c0.836-0.836,2.192-0.836,3.029,0C206.873,3125.499,206.873,3126.856,206.038,3127.692z
		 M208.499,3130.153c0.835-0.836,2.191-0.836,3.027,0c0.835,0.833,0.835,2.192-0.001,3.027c-0.265,0.264-0.584,0.438-0.922,0.533
		h-1.045c-0.035,0-0.067,0.008-0.102,0.01c-0.351-0.094-0.683-0.269-0.957-0.544
		C207.661,3132.344,207.661,3130.986,208.499,3130.153z"/>
	<text transform="matrix(1 0 0 1 324.7477 3151.9961)" fill="#A1AFC0" font-family="'Avenir-Book'" font-size="14px">Baymax Cinemas</text>
	<path fill="#A1AFC0" d="M391.053,3133.713h-6.618c0.15-0.139,0.298-0.278,0.443-0.422c3.815-3.815,3.815-10.103,0-13.918
		c-3.815-3.815-10.001-3.866-13.816-0.051c-3.814,3.815-3.875,9.973-0.06,13.788c1.753,1.752,4.003,2.674,6.235,2.815l0.038-0.008
		c0.079,0.018,0.158,0.029,0.242,0.029h13.538c0.617,0,1.117-0.5,1.117-1.118C392.171,3134.213,391.67,3133.713,391.053,3133.713z
		 M381.944,3124.663c0.836-0.836,2.193-0.836,3.027,0c0.836,0.836,0.836,2.193,0,3.029c-0.834,0.836-2.191,0.836-3.027,0
		C381.108,3126.856,381.108,3125.499,381.944,3124.663z M376.456,3119.176c0.835-0.837,2.191-0.837,3.026,0
		c0.836,0.835,0.837,2.192,0,3.028c-0.835,0.837-2.191,0.837-3.026,0C375.619,3121.368,375.619,3120.011,376.456,3119.176z
		 M379.293,3126.178c0,0.73-0.592,1.324-1.324,1.324s-1.323-0.594-1.323-1.324c0-0.729,0.591-1.323,1.323-1.323
		S379.293,3125.448,379.293,3126.178z M373.996,3127.692c-0.837,0.836-2.193,0.836-3.029,0c-0.835-0.836-0.835-2.193,0-3.029
		c0.836-0.836,2.192-0.836,3.029,0C374.831,3125.499,374.831,3126.856,373.996,3127.692z M376.456,3130.153
		c0.835-0.836,2.191-0.836,3.027,0c0.835,0.833,0.835,2.192-0.001,3.027c-0.265,0.264-0.584,0.438-0.922,0.533h-1.045
		c-0.035,0-0.067,0.008-0.102,0.01c-0.351-0.094-0.683-0.269-0.957-0.544C375.619,3132.344,375.619,3130.986,376.456,3130.153z"/>
	<text transform="matrix(1 0 0 1 195.0923 2567.0894)" fill="#A1AFC0" font-family="'Avenir-Book'" font-size="14px">Edge</text>
	<text transform="matrix(1 0 0 1 352.6857 2660.9578)"><tspan x="0" y="0" fill="#A1AFC0" font-family="'Avenir-Book'" font-size="14px">Big Hero</tspan><tspan x="5.432" y="16" fill="#A1AFC0" font-family="'Avenir-Book'" font-size="14px">Arcade</tspan></text>
	<path fill="#A1AFC0" d="M379.68,2627.511c0.337-0.686,0.889-0.686,1.227,0l1.762,3.58c0.338,0.687,1.23,1.337,1.986,1.445
		l3.939,0.575c0.754,0.111,0.927,0.636,0.38,1.17l-2.852,2.789c-0.545,0.533-0.886,1.587-0.757,2.341l0.673,3.936
		c0.129,0.753-0.319,1.078-0.993,0.722l-3.525-1.858c-0.674-0.355-1.778-0.355-2.451,0l-3.525,1.858
		c-0.674,0.356-1.122,0.031-0.992-0.722l0.673-3.936c0.129-0.754-0.212-1.807-0.757-2.341l-2.853-2.789
		c-0.546-0.534-0.376-1.059,0.38-1.17l3.939-0.575c0.755-0.109,1.648-0.759,1.985-1.445L379.68,2627.511z"/>
	<text transform="matrix(1 0 0 1 194.1139 2729.7666)"><tspan x="0" y="0" fill="#A1AFC0" font-family="'Avenir-Book'" font-size="14px">Vibe</tspan></text>
	<g>
		<path fill="#A1AFC0" d="M216.372,2693.07c-0.069-0.257-0.331-0.408-0.588-0.34l-16.699,4.475
			c-0.123,0.033-0.228,0.114-0.291,0.224c-0.064,0.11-0.081,0.24-0.048,0.364l1.052,3.927c0.069,0.256,0.332,0.408,0.587,0.339
			l5.457-1.462l3.152,11.761c0.057,0.214,0.251,0.356,0.463,0.356c0.041,0,0.083-0.005,0.124-0.017l4.86-1.302
			c0.123-0.032,0.228-0.113,0.291-0.223c0.064-0.11,0.081-0.241,0.048-0.365l-3.151-11.761l5.456-1.462
			c0.123-0.032,0.228-0.113,0.291-0.223c0.064-0.11,0.081-0.241,0.048-0.364L216.372,2693.07z"/>
		<path fill="#A1AFC0" d="M200.542,2705.276c-0.049-0.227,0.082-0.329,0.293-0.228l1.1,0.53c0.208,0.103,0.547,0.091,0.749-0.021
			l1.055-0.599c0.202-0.114,0.343-0.019,0.313,0.211l-0.16,1.201c-0.03,0.229,0.088,0.544,0.26,0.702l0.905,0.818
			c0.173,0.156,0.127,0.317-0.102,0.359l-1.197,0.211c-0.23,0.041-0.495,0.244-0.59,0.456l-0.495,1.102
			c-0.095,0.212-0.265,0.218-0.375,0.013l-0.581-1.07c-0.11-0.206-0.392-0.391-0.624-0.419l-1.211-0.138
			c-0.232-0.025-0.289-0.185-0.13-0.352l0.839-0.871c0.161-0.167,0.252-0.489,0.203-0.718L200.542,2705.276z"/>
		<path fill="#A1AFC0" d="M217.903,2702.36c0.122,0.073,0.114,0.175-0.019,0.226l-0.685,0.271c-0.132,0.051-0.263,0.206-0.296,0.343
			l-0.161,0.715c-0.031,0.136-0.131,0.159-0.22,0.052l-0.475-0.565c-0.091-0.108-0.28-0.186-0.422-0.174l-0.735,0.066
			c-0.142,0.012-0.196-0.074-0.12-0.193l0.393-0.62c0.076-0.118,0.092-0.321,0.035-0.45l-0.293-0.674
			c-0.056-0.129,0.01-0.207,0.148-0.171l0.717,0.181c0.138,0.035,0.337-0.013,0.444-0.104l0.556-0.482
			c0.104-0.092,0.2-0.052,0.209,0.086l0.051,0.731c0.009,0.139,0.117,0.315,0.24,0.386L217.903,2702.36z"/>
	</g>
	<text transform="matrix(1 0 0 1 356.2666 1533.3059)" fill="#A1AFC0" font-family="'Avenir-Book'" font-size="14px">D Lounge</text>
	<text transform="matrix(1 0 0 1 258.0162 1495.1083)"><tspan x="0" y="0" fill="#A1AFC0" font-family="'Avenir-Book'" font-size="10px">Lumiere</tspan></text>
	
		<text transform="matrix(6.123234e-17 1 -1 6.123234e-17 312.1182 1480.678)" fill="#A1AFC0" font-family="'Avenir-Book'" font-size="10px">Private Karaoke Rooms</text>
	<text transform="matrix(1 0 0 1 259.3589 1429.9377)"><tspan x="0" y="0" fill="#A1AFC0" font-family="'Avenir-Book'" font-size="14px">Disney</tspan><tspan x="0.791" y="16" fill="#A1AFC0" font-family="'Avenir-Book'" font-size="14px">Studio</tspan></text>
	<text transform="matrix(1 0 0 1 310.9255 1130.509)" fill="#A1AFC0" font-family="'Avenir-Book'" font-size="14px">Pics Photo Shop</text>
	<text transform="matrix(1 0 0 1 230.4444 879.1318)"><tspan x="0" y="0" fill="#A1AFC0" font-family="'Avenir-Book'" font-size="14px">Walt Disney Theatre</tspan></text>
	<g>
		<path fill="#A1AFC0" d="M303.793,848.277c-0.036-0.379-0.329-0.674-0.769-0.7c-0.074,0.003-0.333,0.026-0.515,0.193
			c-0.1,0.085-0.905,0.605-2.052,0.838c-0.977,0.199-2.186,0.322-3.411,0.341c-0.287,0.005-0.548-0.008-0.79-0.032
			c0.466,2.278,0.525,4.503,0.173,6.442c0.046-0.001,0.088-0.01,0.136-0.009c0.312,0,0.604,0.02,0.876,0.054
			c1.152,0.141,1.966,0.57,2.863,1.463c0.246,0.247,0.219,0.608-0.065,0.806c-0.28,0.196-0.71,0.159-0.956-0.089
			c-0.845-0.848-1.423-1.081-2.678-1.096c-0.158-0.001-0.308,0.016-0.452,0.042c-0.412,1.405-1.051,2.544-1.902,3.339
			c0.938,1.25,2.068,1.966,3.295,2.036c0.107,0.006,0.214,0.005,0.32,0c0.184-0.008,0.369-0.031,0.551-0.068
			c2.36-0.481,4.315-3.377,5.107-7.581l0.246-1.718c0.059-0.59,0.095-1.141,0.111-1.684
			C303.902,850.013,303.873,849.146,303.793,848.277z M300.207,853.669c-0.202,0.1-0.448,0.142-0.72,0.119
			c-0.872-0.065-1.544-0.712-1.712-1.652c-0.014-0.069,0.009-0.134,0.053-0.186c0.017-0.023,0.04-0.035,0.065-0.047
			c0.036-0.018,0.071-0.028,0.115-0.023l2.536,0.184c0.101,0.009,0.182,0.083,0.201,0.182
			C300.906,853.167,300.476,853.534,300.207,853.669z"/>
		<path fill="#A1AFC0" d="M294.811,847.419c-0.229-0.811-0.514-1.626-0.843-2.419c-0.116-0.293-0.42-0.477-0.755-0.462
			c-0.072,0.003-0.138,0.016-0.178,0.028c-0.194,0.049-0.36,0.182-0.454,0.358c-0.365,0.643-1.343,1.809-3.825,2.377
			c-1.211,0.277-2.439,0.456-3.461,0.501c-1.321,0.059-1.662-0.124-1.683-0.135c-0.229-0.123-0.418-0.1-0.616-0.045
			c-0.361,0.115-0.579,0.477-0.518,0.855c0.133,0.855,0.316,1.704,0.548,2.523c0.148,0.521,0.32,1.047,0.531,1.623l0.668,1.608
			c1.811,3.867,4.457,6.2,6.908,6.091c0.292-0.013,0.586-0.062,0.883-0.147c1.66-0.512,2.842-2.18,3.329-4.694
			C295.803,853.128,295.613,850.265,294.811,847.419z M291.111,849.694c0.218-0.271,0.571-0.402,1.003-0.367
			c0.81,0.068,1.432,0.661,1.607,1.522c0.016,0.026,0.023,0.059,0.025,0.09c0.005,0.112-0.085,0.212-0.2,0.217l-0.009,0.001
			c-0.008,0-0.018,0.001-0.027-0.002l-2.415-0.193c-0.094-0.01-0.172-0.08-0.187-0.174
			C290.811,850.212,290.963,849.877,291.111,849.694z M287.515,852.769c-0.027,0.002-0.054,0.001-0.08-0.009
			c-0.063-0.023-0.114-0.069-0.137-0.138c-0.307-0.904-0.036-1.795,0.696-2.275c0.228-0.152,0.462-0.234,0.689-0.245
			c0.299-0.013,0.853,0.099,1.159,0.981c0.033,0.097-0.003,0.2-0.086,0.257l-2.129,1.393
			C287.592,852.759,287.556,852.767,287.515,852.769z M291.552,856.57c-0.265,0.051-0.517,0.079-0.756,0.09
			c-1.002,0.045-1.76-0.261-2.657-1.025c-0.249-0.21-0.28-0.582-0.068-0.831c0.207-0.246,0.581-0.278,0.829-0.065
			c0.848,0.726,1.376,0.87,2.446,0.68c0.925-0.169,1.472-0.994,1.568-1.525c0.056-0.322,0.366-0.533,0.681-0.475
			c0.318,0.052,0.532,0.36,0.475,0.681C293.924,854.939,293.131,856.292,291.552,856.57z"/>
		<path fill="#A1AFC0" d="M300.051,843.599c0.201,0.015,0.258,0.152,0.122,0.3l-0.703,0.779c-0.135,0.151-0.208,0.43-0.157,0.627
			l0.247,1.016c0.048,0.196-0.063,0.288-0.249,0.207l-0.966-0.424c-0.184-0.083-0.476-0.061-0.648,0.042l-0.903,0.549
			c-0.173,0.108-0.294,0.029-0.275-0.168l0.108-1.041c0.022-0.199-0.088-0.468-0.243-0.599l-0.805-0.676
			c-0.152-0.133-0.117-0.272,0.081-0.314l1.033-0.221c0.197-0.042,0.421-0.227,0.498-0.414l0.401-0.966
			c0.078-0.186,0.223-0.197,0.326-0.021l0.531,0.905c0.101,0.168,0.35,0.326,0.551,0.338L300.051,843.599z"/>
		<path fill="#A1AFC0" d="M286.934,860.129c0.138,0.036,0.161,0.14,0.046,0.228l-0.598,0.461c-0.116,0.091-0.202,0.278-0.192,0.425
			l0.044,0.751c0.008,0.145-0.082,0.197-0.203,0.116l-0.631-0.426c-0.12-0.082-0.33-0.104-0.465-0.053l-0.709,0.273
			c-0.136,0.056-0.212-0.017-0.173-0.155l0.209-0.724c0.04-0.138-0.002-0.344-0.096-0.456l-0.483-0.583
			c-0.091-0.113-0.049-0.208,0.098-0.212l0.761-0.023c0.143-0.005,0.326-0.108,0.407-0.231l0.407-0.633
			c0.079-0.12,0.183-0.11,0.233,0.027l0.26,0.71c0.05,0.134,0.208,0.277,0.349,0.311L286.934,860.129z"/>
	</g>
	<text transform="matrix(1 0 0 1 230.4541 2972.3203)"><tspan x="0" y="0" fill="#A1AFC0" font-family="'Avenir-Book'" font-size="14px">Duffy</tspan><tspan x="4.669" y="16" fill="#A1AFC0" font-family="'Avenir-Book'" font-size="14px">and</tspan><tspan x="-6.468" y="32" fill="#A1AFC0" font-family="'Avenir-Book'" font-size="14px">Friends</tspan><tspan x="0.259" y="48" fill="#A1AFC0" font-family="'Avenir-Book'" font-size="14px">Shop</tspan></text>
	<text transform="matrix(1 0 0 1 314.9068 2972.3203)"><tspan x="0" y="0" fill="#A1AFC0" font-family="'Avenir-Book'" font-size="14px">National</tspan><tspan x="-10.507" y="16" fill="#A1AFC0" font-family="'Avenir-Book'" font-size="14px">Geographic</tspan></text>
	<text transform="matrix(1 0 0 1 356.1153 1923.5565)"><tspan x="0" y="0" fill="#A1AFC0" font-family="'Avenir-Book'" font-size="14px">Diamonds &amp;</tspan><tspan x="16.436" y="16" fill="#A1AFC0" font-family="'Avenir-Book'" font-size="14px">Wishes</tspan></text>
	<text transform="matrix(1 0 0 1 201.0207 1105.5104)"><tspan x="0" y="0" fill="#A1AFC0" font-family="'Avenir-Book'" font-size="14px">Restroom</tspan></text>
	<g>
		<path id="restroom-icon6_00000104684714128471471750000010825720071556785545_" fill="#A1AFC0" d="M222.021,1070.914
			c0-1.299,1.063-2.244,2.243-2.244c1.299,0,2.243,1.063,2.243,2.244c0,1.299-1.063,2.244-2.243,2.244
			C222.966,1073.275,222.021,1072.213,222.021,1070.914z M221.785,1073.748c-1.653,0-2.952,0.827-2.952,2.48
			c0,0.827,0,4.251,0,4.841c0,0.59,0.472,0.945,0.945,0.945c0.59,0,0.945-0.472,0.945-0.945c0-0.59,0-4.133,0-4.133h0.472
			c0,0,0,9.328,0,10.391c0,0.708,0.59,1.299,1.299,1.299s1.299-0.59,1.299-1.299c0-1.063,0-5.313,0-5.313h0.59c0,0,0,4.133,0,5.313
			c0,0.708,0.59,1.299,1.299,1.299c0.708,0,1.299-0.59,1.299-1.299c0-1.063,0-10.391,0-10.391h0.472c0,0,0,3.424,0,4.133
			c0,0.59,0.472,0.945,0.945,0.945c0.59,0,0.945-0.472,0.945-0.945c0-0.59,0-4.015,0-4.841c0-1.653-1.299-2.48-2.952-2.48
			C225.918,1073.748,222.494,1073.748,221.785,1073.748z"/>
		<path id="restroom-icon3_00000003074551753068642250000016470946330676617136_" fill="#A1AFC0" d="M234.656,1071.032
			c0-1.181,0.945-2.362,2.362-2.362c1.181,0,2.362,0.945,2.362,2.362c0,1.181-0.945,2.362-2.362,2.362
			C235.718,1073.157,234.656,1072.213,234.656,1071.032z M237.253,1083.43c0,0,0,3.188,0,4.133c0,0.59,0.472,1.063,1.063,1.063
			s1.063-0.472,1.063-1.063c0-0.472,0-0.59,0-4.133c0,0,0.827,0,1.653,0c0.827,0,0.472-0.827,0.472-0.827l-2.362-6.14h0.59
			l1.417,3.779c0.118,0.472,0.708,0.827,1.063,0.59c0.472-0.118,0.708-0.708,0.59-1.063s-1.417-3.779-1.417-3.779
			s-0.472-2.125-2.48-2.125c-0.59,0-3.07,0-3.66,0c-1.771,0-2.48,2.125-2.48,2.125s-1.417,3.424-1.535,3.779
			c-0.118,0.472,0.118,0.945,0.59,1.063c0.472,0.118,0.945-0.118,1.063-0.59l1.417-3.779h0.59l-2.362,6.14
			c0,0-0.472,0.827,0.59,0.827c1.063,0,1.535,0,1.535,0c0,3.66,0,3.66,0,4.133c0,0.59,0.472,1.063,1.063,1.063
			s1.063-0.472,1.063-1.063c0-0.827,0-4.133,0-4.133H237.253z"/>
	</g>
	<text transform="matrix(1 0 0 1 217.8928 2892.9434)"><tspan x="0" y="0" fill="#A1AFC0" font-family="'Avenir-Book'" font-size="14px">Restroom</tspan></text>
	<text transform="matrix(1 0 0 1 236.8152 1654.439)" fill="#A1AFC0" font-family="'Avenir-Book'" font-size="14px">Royal Studio</text>
	<g>
		<path fill="#A1AFC0" d="M293.195,1747.173c-3.457-0.213-6.12-3.083-6.12-6.499l0,0c0-0.133,0.005-0.269,0.014-0.404l0,0l0,0
			c0.159-2.592,1.809-4.711,4.02-5.632l0,0c0.027-0.01,0.055-0.007,0.077,0.007l0,0c0.023,0.014,0.037,0.038,0.039,0.067l0,0
			l0.098,1.549c0.002,0.035-0.016,0.064-0.044,0.079l0,0c-1.466,0.776-2.479,2.254-2.589,4.029l0,0
			c-0.006,0.103-0.009,0.204-0.009,0.304l0,0c0,2.577,2.006,4.738,4.611,4.898l0,0c0.109,0.005,0.218,0.008,0.326,0.008l0,0
			c2.197-0.001,3.975-1.378,4.767-3.568l0,0c0.011-0.033,0.042-0.055,0.078-0.055l0,0c0.035,0,0.065,0.021,0.078,0.053l0,0
			c0.08,0.216,0.26,0.668,0.421,1.064l0,0c0.161,0.397,0.3,0.741,0.3,0.741v0.002c0.011,0.021,0.01,0.049-0.003,0.072l0,0
			c-1.128,1.981-3.258,3.297-5.661,3.297l0,0C293.465,1747.185,293.33,1747.18,293.195,1747.173L293.195,1747.173z"/>
		<path fill="#A1AFC0" d="M298.208,1739.265l-4.207-0.001c-1.391,0.034-1.865-0.252-1.897-1.953
			c-0.166-2.402-0.435-6.355-0.525-7.912c-0.012-0.172-0.012-0.389,0.003-0.558c0.066-0.924,0.837-1.656,1.78-1.656
			c0.983,0,1.781,0.797,1.781,1.782c0,0.94-0.728,1.707-1.65,1.776l0.251,3.434l3.547-0.002c0.518,0,0.918,0.436,0.918,0.942
			c0,0.507-0.414,0.926-0.933,0.926l-3.423,0.009l0.091,1.334l4.108-0.002c0.989-0.013,1.082,0.061,1.33,0.271
			c0.124,0.107,0.207,0.247,0.293,0.436c0.085,0.187,0.173,0.423,0.308,0.713c0.194,0.492,1.814,4.477,1.814,4.477l0.947-0.393
			c0.138-0.077,0.299-0.124,0.469-0.124c0.518,0,0.939,0.411,0.939,0.918c0,0.389-0.213,0.74-0.565,0.874l-1.831,0.758
			c-0.902,0.31-1.274-0.304-1.47-0.8c-0.205-0.523-2.004-5.073-2.074-5.247L298.208,1739.265z"/>
	</g>
	<text transform="matrix(1 0 0 1 280.463 1764.0388)"><tspan x="0" y="0" fill="#A1AFC0" font-family="'Avenir-Book'" font-size="14px">Restroom</tspan></text>
	<g>
		<path id="restroom-icon6_00000080923361439342895730000011460824913778795652_" fill="#A1AFC0" d="M264.628,1729.442
			c0-1.299,1.063-2.244,2.243-2.244c1.299,0,2.243,1.063,2.243,2.244c0,1.299-1.063,2.244-2.243,2.244
			C265.573,1731.804,264.628,1730.741,264.628,1729.442z M264.392,1732.276c-1.653,0-2.952,0.827-2.952,2.48
			c0,0.827,0,4.251,0,4.841c0,0.59,0.472,0.945,0.945,0.945c0.59,0,0.945-0.472,0.945-0.945c0-0.59,0-4.133,0-4.133h0.472
			c0,0,0,9.328,0,10.391c0,0.708,0.59,1.299,1.299,1.299c0.708,0,1.299-0.59,1.299-1.299c0-1.063,0-5.314,0-5.314h0.59
			c0,0,0,4.133,0,5.314c0,0.708,0.59,1.299,1.299,1.299c0.708,0,1.299-0.59,1.299-1.299c0-1.063,0-10.391,0-10.391h0.472
			c0,0,0,3.424,0,4.133c0,0.59,0.472,0.945,0.945,0.945c0.59,0,0.945-0.472,0.945-0.945c0-0.59,0-4.015,0-4.841
			c0-1.653-1.299-2.48-2.952-2.48C268.525,1732.276,265.101,1732.276,264.392,1732.276z"/>
		<path id="restroom-icon3_00000055673450643462845300000003636062080950778293_" fill="#A1AFC0" d="M277.263,1729.56
			c0-1.181,0.945-2.362,2.362-2.362c1.181,0,2.362,0.945,2.362,2.362c0,1.181-0.945,2.362-2.362,2.362
			C278.325,1731.686,277.263,1730.741,277.263,1729.56z M279.86,1741.958c0,0,0,3.188,0,4.133c0,0.59,0.472,1.063,1.063,1.063
			s1.063-0.472,1.063-1.063c0-0.472,0-0.59,0-4.133c0,0,0.827,0,1.653,0c0.827,0,0.472-0.827,0.472-0.827l-2.362-6.14h0.59
			l1.417,3.778c0.118,0.472,0.708,0.827,1.063,0.59c0.472-0.118,0.708-0.708,0.59-1.063c-0.118-0.354-1.417-3.779-1.417-3.779
			s-0.472-2.125-2.48-2.125c-0.59,0-3.07,0-3.66,0c-1.771,0-2.48,2.125-2.48,2.125s-1.417,3.424-1.535,3.779
			c-0.118,0.472,0.118,0.945,0.59,1.063c0.472,0.118,0.945-0.118,1.063-0.59l1.417-3.778h0.59l-2.362,6.14
			c0,0-0.472,0.827,0.59,0.827c1.063,0,1.535,0,1.535,0c0,3.66,0,3.66,0,4.133c0,0.59,0.472,1.063,1.063,1.063
			s1.063-0.472,1.063-1.063c0-0.827,0-4.133,0-4.133H279.86z"/>
	</g>
	<g>
		<path fill="#A1AFC0" d="M261.115,2876.092c-3.457-0.213-6.12-3.083-6.12-6.499l0,0c0-0.133,0.005-0.269,0.014-0.404l0,0l0,0
			c0.16-2.592,1.809-4.711,4.02-5.632l0,0c0.027-0.01,0.055-0.007,0.077,0.007l0,0c0.023,0.014,0.037,0.039,0.039,0.067l0,0
			l0.098,1.549c0.002,0.034-0.016,0.064-0.044,0.079l0,0c-1.467,0.776-2.479,2.254-2.589,4.029l0,0
			c-0.006,0.103-0.009,0.204-0.009,0.304l0,0c0,2.577,2.006,4.738,4.611,4.898l0,0c0.109,0.005,0.218,0.008,0.326,0.008l0,0
			c2.197-0.001,3.975-1.378,4.767-3.568l0,0c0.011-0.033,0.042-0.055,0.078-0.055l0,0c0.035,0,0.065,0.021,0.078,0.053l0,0
			c0.08,0.216,0.26,0.668,0.421,1.064l0,0c0.161,0.397,0.3,0.74,0.3,0.74v0.002c0.011,0.021,0.01,0.049-0.003,0.072l0,0
			c-1.128,1.981-3.258,3.297-5.661,3.297l0,0C261.385,2876.103,261.25,2876.099,261.115,2876.092L261.115,2876.092z"/>
		<path fill="#A1AFC0" d="M266.128,2868.184l-4.206-0.001c-1.391,0.034-1.865-0.252-1.897-1.953
			c-0.166-2.402-0.435-6.355-0.525-7.912c-0.012-0.171-0.012-0.388,0.003-0.558c0.066-0.924,0.837-1.656,1.78-1.656
			c0.983,0,1.781,0.797,1.781,1.782c0,0.94-0.728,1.707-1.65,1.776l0.251,3.434l3.547-0.002c0.518,0,0.918,0.436,0.918,0.942
			c0,0.507-0.414,0.926-0.933,0.926l-3.423,0.009l0.091,1.333l4.108-0.001c0.989-0.013,1.082,0.061,1.33,0.271
			c0.125,0.107,0.207,0.248,0.293,0.436c0.085,0.188,0.173,0.424,0.308,0.713c0.194,0.492,1.814,4.478,1.814,4.478l0.947-0.393
			c0.138-0.077,0.299-0.124,0.469-0.124c0.518,0,0.939,0.411,0.939,0.918c0,0.389-0.213,0.74-0.565,0.874l-1.831,0.759
			c-0.902,0.31-1.274-0.304-1.47-0.8c-0.205-0.523-2.004-5.073-2.074-5.247L266.128,2868.184z"/>
	</g>
	<g>
		<path id="restroom-icon6_00000028292749510278353110000003768857996533920165_" fill="#A1AFC0" d="M232.548,2858.361
			c0-1.299,1.063-2.244,2.243-2.244c1.299,0,2.243,1.063,2.243,2.244c0,1.299-1.063,2.243-2.243,2.243
			C233.493,2860.722,232.548,2859.659,232.548,2858.361z M232.312,2861.194c-1.653,0-2.952,0.827-2.952,2.48
			c0,0.826,0,4.251,0,4.841c0,0.591,0.472,0.945,0.945,0.945c0.59,0,0.945-0.472,0.945-0.945c0-0.59,0-4.133,0-4.133h0.472
			c0,0,0,9.328,0,10.391c0,0.708,0.59,1.299,1.299,1.299s1.299-0.59,1.299-1.299c0-1.063,0-5.313,0-5.313h0.59c0,0,0,4.133,0,5.313
			c0,0.708,0.59,1.299,1.299,1.299s1.299-0.59,1.299-1.299c0-1.063,0-10.391,0-10.391h0.472c0,0,0,3.424,0,4.133
			c0,0.591,0.472,0.945,0.945,0.945c0.59,0,0.945-0.472,0.945-0.945c0-0.59,0-4.015,0-4.841c0-1.653-1.299-2.48-2.952-2.48
			C236.445,2861.194,233.021,2861.194,232.312,2861.194z"/>
		<path id="restroom-icon3_00000016767696504298143620000011114051587130270344_" fill="#A1AFC0" d="M245.183,2858.479
			c0-1.181,0.945-2.362,2.362-2.362c1.181,0,2.362,0.945,2.362,2.362c0,1.181-0.945,2.362-2.362,2.362
			C246.245,2860.604,245.183,2859.659,245.183,2858.479z M247.781,2870.877c0,0,0,3.188,0,4.133c0,0.591,0.472,1.063,1.063,1.063
			s1.063-0.472,1.063-1.063c0-0.472,0-0.59,0-4.133c0,0,0.827,0,1.653,0c0.827,0,0.472-0.827,0.472-0.827l-2.362-6.14h0.59
			l1.417,3.779c0.118,0.472,0.708,0.827,1.063,0.59c0.472-0.118,0.708-0.708,0.59-1.063c-0.118-0.354-1.417-3.778-1.417-3.778
			s-0.472-2.125-2.48-2.125c-0.59,0-3.07,0-3.66,0c-1.771,0-2.48,2.125-2.48,2.125s-1.417,3.424-1.535,3.778
			c-0.118,0.472,0.118,0.945,0.59,1.063c0.472,0.118,0.945-0.118,1.063-0.59l1.417-3.779h0.59l-2.362,6.14
			c0,0-0.472,0.827,0.59,0.827s1.535,0,1.535,0c0,3.66,0,3.66,0,4.133c0,0.591,0.472,1.063,1.063,1.063s1.063-0.472,1.063-1.063
			c0-0.826,0-4.133,0-4.133H247.781z"/>
	</g>
	<path id="restroom-icon6_00000176739692214855651930000006686645654358336945_" fill="#A1AFC0" d="M319.258,1729.442
		c0-1.299,1.063-2.244,2.243-2.244c1.299,0,2.243,1.063,2.243,2.244c0,1.299-1.063,2.244-2.243,2.244
		C320.203,1731.804,319.258,1730.741,319.258,1729.442z M319.022,1732.276c-1.653,0-2.952,0.827-2.952,2.48c0,0.827,0,4.251,0,4.841
		c0,0.59,0.472,0.945,0.945,0.945c0.59,0,0.945-0.472,0.945-0.945c0-0.59,0-4.133,0-4.133h0.472c0,0,0,9.328,0,10.391
		c0,0.708,0.59,1.299,1.299,1.299c0.708,0,1.299-0.59,1.299-1.299c0-1.063,0-5.314,0-5.314h0.59c0,0,0,4.133,0,5.314
		c0,0.708,0.59,1.299,1.299,1.299s1.299-0.59,1.299-1.299c0-1.063,0-10.391,0-10.391h0.472c0,0,0,3.424,0,4.133
		c0,0.59,0.472,0.945,0.945,0.945c0.59,0,0.945-0.472,0.945-0.945c0-0.59,0-4.015,0-4.841c0-1.653-1.299-2.48-2.952-2.48
		C323.155,1732.276,319.73,1732.276,319.022,1732.276z"/>
	<path id="restroom-icon3_00000120525049343981354630000015372165776113776026_" fill="#A1AFC0" d="M346.982,1729.56
		c0-1.181,0.945-2.362,2.362-2.362c1.181,0,2.362,0.945,2.362,2.362c0,1.181-0.945,2.362-2.362,2.362
		C348.045,1731.686,346.982,1730.741,346.982,1729.56z M349.58,1741.958c0,0,0,3.188,0,4.133c0,0.59,0.472,1.063,1.063,1.063
		s1.063-0.472,1.063-1.063c0-0.472,0-0.59,0-4.133c0,0,0.827,0,1.653,0s0.472-0.827,0.472-0.827l-2.362-6.14h0.59l1.417,3.778
		c0.118,0.472,0.708,0.827,1.063,0.59c0.472-0.118,0.708-0.708,0.59-1.063c-0.118-0.354-1.417-3.779-1.417-3.779
		s-0.472-2.125-2.48-2.125c-0.59,0-3.07,0-3.66,0c-1.771,0-2.48,2.125-2.48,2.125s-1.417,3.424-1.535,3.779
		c-0.118,0.472,0.118,0.945,0.59,1.063c0.472,0.118,0.945-0.118,1.063-0.59l1.417-3.778h0.59l-2.362,6.14
		c0,0-0.472,0.827,0.59,0.827c1.063,0,1.535,0,1.535,0c0,3.66,0,3.66,0,4.133c0,0.59,0.472,1.063,1.063,1.063
		s1.063-0.472,1.063-1.063c0-0.827,0-4.133,0-4.133H349.58z"/>
	<g>
		<path fill="#A1AFC0" d="M243.998,1178.423c-3.457-0.213-6.12-3.083-6.12-6.499l0,0c0-0.133,0.005-0.269,0.014-0.404l0,0l0,0
			c0.16-2.592,1.809-4.711,4.02-5.632l0,0c0.027-0.01,0.055-0.007,0.077,0.007l0,0c0.023,0.014,0.037,0.038,0.039,0.067l0,0
			l0.098,1.549c0.002,0.035-0.016,0.064-0.044,0.079l0,0c-1.467,0.776-2.479,2.254-2.589,4.029l0,0
			c-0.006,0.103-0.009,0.204-0.009,0.304l0,0c0,2.577,2.006,4.738,4.611,4.898l0,0c0.109,0.005,0.218,0.008,0.326,0.008l0,0
			c2.197-0.001,3.975-1.378,4.767-3.568l0,0c0.011-0.033,0.042-0.055,0.078-0.055l0,0c0.035,0,0.065,0.021,0.078,0.053l0,0
			c0.08,0.216,0.26,0.668,0.421,1.064l0,0c0.161,0.397,0.3,0.74,0.3,0.74v0.002c0.011,0.021,0.01,0.049-0.003,0.072l0,0
			c-1.128,1.981-3.258,3.297-5.661,3.297l0,0C244.268,1178.435,244.133,1178.43,243.998,1178.423L243.998,1178.423z"/>
		<path fill="#A1AFC0" d="M249.011,1170.515l-4.206-0.001c-1.391,0.034-1.865-0.252-1.897-1.953
			c-0.166-2.402-0.435-6.355-0.525-7.912c-0.012-0.172-0.012-0.389,0.003-0.558c0.066-0.924,0.837-1.656,1.78-1.656
			c0.983,0,1.781,0.797,1.781,1.782c0,0.94-0.728,1.707-1.65,1.776l0.251,3.434l3.547-0.002c0.518,0,0.918,0.436,0.918,0.942
			c0,0.507-0.414,0.926-0.933,0.926l-3.423,0.009l0.091,1.334l4.108-0.002c0.989-0.013,1.082,0.061,1.33,0.271
			c0.124,0.107,0.207,0.247,0.293,0.436c0.085,0.187,0.173,0.423,0.308,0.713c0.194,0.492,1.814,4.477,1.814,4.477l0.947-0.393
			c0.138-0.077,0.299-0.124,0.469-0.124c0.518,0,0.939,0.411,0.939,0.918c0,0.389-0.213,0.74-0.565,0.874l-1.831,0.758
			c-0.902,0.31-1.274-0.304-1.47-0.8c-0.205-0.523-2.004-5.073-2.074-5.247L249.011,1170.515z"/>
	</g>
	<g>
		<path id="restroom-icon6_00000139998371464201408990000005447690871326248086_" fill="#A1AFC0" d="M215.431,1160.692
			c0-1.299,1.063-2.244,2.243-2.244c1.299,0,2.243,1.063,2.243,2.244c0,1.299-1.063,2.244-2.243,2.244
			C216.376,1163.053,215.431,1161.991,215.431,1160.692z M215.195,1163.526c-1.653,0-2.952,0.827-2.952,2.48
			c0,0.827,0,4.251,0,4.841c0,0.59,0.472,0.945,0.945,0.945c0.59,0,0.945-0.472,0.945-0.945c0-0.59,0-4.133,0-4.133h0.472
			c0,0,0,9.328,0,10.391c0,0.708,0.59,1.299,1.299,1.299s1.299-0.59,1.299-1.299c0-1.063,0-5.313,0-5.313h0.59c0,0,0,4.133,0,5.313
			c0,0.708,0.59,1.299,1.299,1.299c0.708,0,1.299-0.59,1.299-1.299c0-1.063,0-10.391,0-10.391h0.472c0,0,0,3.424,0,4.133
			c0,0.59,0.472,0.945,0.945,0.945c0.59,0,0.945-0.472,0.945-0.945c0-0.59,0-4.015,0-4.841c0-1.653-1.299-2.48-2.952-2.48
			C219.328,1163.526,215.904,1163.526,215.195,1163.526z"/>
		<path id="restroom-icon3_00000000181139414527191040000013289346100197459640_" fill="#A1AFC0" d="M228.066,1160.81
			c0-1.181,0.945-2.361,2.362-2.361c1.181,0,2.362,0.945,2.362,2.361c0,1.181-0.945,2.362-2.362,2.362
			C229.128,1162.935,228.066,1161.991,228.066,1160.81z M230.663,1173.208c0,0,0,3.188,0,4.133c0,0.59,0.472,1.063,1.063,1.063
			s1.063-0.472,1.063-1.063c0-0.472,0-0.59,0-4.133c0,0,0.827,0,1.653,0c0.827,0,0.472-0.827,0.472-0.827l-2.362-6.14h0.59
			l1.417,3.779c0.118,0.472,0.708,0.827,1.063,0.59c0.472-0.118,0.708-0.708,0.59-1.063c-0.118-0.354-1.417-3.778-1.417-3.778
			s-0.472-2.125-2.48-2.125c-0.59,0-3.07,0-3.66,0c-1.771,0-2.48,2.125-2.48,2.125s-1.417,3.424-1.535,3.778
			c-0.118,0.472,0.118,0.945,0.59,1.063s0.945-0.118,1.063-0.59l1.417-3.779h0.59l-2.362,6.14c0,0-0.472,0.827,0.59,0.827
			c1.063,0,1.535,0,1.535,0c0,3.66,0,3.66,0,4.133c0,0.59,0.472,1.063,1.063,1.063s1.063-0.472,1.063-1.063c0-0.827,0-4.133,0-4.133
			H230.663z"/>
	</g>
	<text transform="matrix(1 0 0 1 255.5209 1174.3075)"><tspan x="0" y="0" fill="#A1AFC0" font-family="'Avenir-Book'" font-size="14px">Restroom</tspan></text>
	<path fill="#A1AFC0" d="M255.388,2941.354c-0.025-0.542-0.469-0.907-1.011-0.907h-3.357c0.014-0.403,0.006-1.334-0.002-1.847
		c0-1.737-1.565-3.641-4.093-3.641c-2.372,0-4.093,1.563-4.093,3.68c-0.007,0.49-0.016,1.405-0.002,1.808h-3.357
		c-0.543,0-0.987,0.365-1.012,0.907l-0.657,14.529c-0.012,0.252,0.069,0.539,0.234,0.71c0.187,0.196,0.462,0.365,0.776,0.365h16.225
		c0.279,0,0.537-0.19,0.729-0.392c0.191-0.202,0.29-0.475,0.277-0.752L255.388,2941.354z M244.235,2938.645l0.001-0.075
		c0-1.3,1.106-2.222,2.689-2.222c1.755,0,2.689,1.275,2.689,2.2l0.001,0.101c0.012,0.845,0.013,1.396,0.001,1.798h-5.382
		C244.222,2940.044,244.223,2939.49,244.235,2938.645z M252.647,2947.517c-0.492,0.664-1.337,0.927-2.186,0.786
		c0.222,0.492,0.354,1.028,0.354,1.604c0,2.147-1.743,3.89-3.889,3.89c-2.149,0-3.891-1.743-3.891-3.89
		c0-0.576,0.131-1.112,0.353-1.604c-0.851,0.141-1.694-0.122-2.183-0.786c-0.746-1.001-0.41-2.52,0.757-3.383
		c1.16-0.863,2.71-0.754,3.456,0.249c0.391,0.529,0.474,1.2,0.302,1.843c0.383-0.124,0.782-0.209,1.206-0.209
		c0.422,0,0.82,0.085,1.202,0.209c-0.171-0.643-0.087-1.314,0.304-1.843c0.746-1.003,2.292-1.112,3.458-0.249
		C253.053,2944.997,253.392,2946.516,252.647,2947.517z"/>
	<path fill="#A1AFC0" d="M349.808,2941.354c-0.025-0.542-0.469-0.907-1.011-0.907h-3.357c0.014-0.403,0.006-1.334-0.002-1.847
		c0-1.737-1.565-3.641-4.093-3.641c-2.372,0-4.093,1.563-4.093,3.68c-0.007,0.49-0.016,1.405-0.002,1.808h-3.357
		c-0.543,0-0.987,0.365-1.012,0.907l-0.657,14.529c-0.012,0.252,0.069,0.539,0.234,0.71c0.187,0.196,0.462,0.365,0.776,0.365h16.225
		c0.279,0,0.537-0.19,0.729-0.392c0.191-0.202,0.29-0.475,0.277-0.752L349.808,2941.354z M338.655,2938.645l0.001-0.075
		c0-1.3,1.106-2.222,2.689-2.222c1.755,0,2.689,1.275,2.689,2.2l0.001,0.101c0.012,0.845,0.013,1.396,0.001,1.798h-5.382
		C338.643,2940.044,338.643,2939.49,338.655,2938.645z M347.067,2947.517c-0.492,0.664-1.337,0.927-2.186,0.786
		c0.222,0.492,0.354,1.028,0.354,1.604c0,2.147-1.743,3.89-3.889,3.89c-2.15,0-3.891-1.743-3.891-3.89
		c0-0.576,0.131-1.112,0.353-1.604c-0.851,0.141-1.694-0.122-2.183-0.786c-0.746-1.001-0.41-2.52,0.757-3.383
		c1.16-0.863,2.71-0.754,3.456,0.249c0.391,0.529,0.474,1.2,0.302,1.843c0.383-0.124,0.783-0.209,1.206-0.209
		c0.422,0,0.82,0.085,1.202,0.209c-0.171-0.643-0.087-1.314,0.304-1.843c0.746-1.003,2.292-1.112,3.458-0.249
		C347.473,2944.997,347.813,2946.516,347.067,2947.517z"/>
	<path fill="#A1AFC0" d="M403.218,1892.59c-0.025-0.542-0.469-0.907-1.011-0.907h-3.357c0.014-0.403,0.006-1.334-0.002-1.847
		c0-1.737-1.565-3.641-4.092-3.641c-2.372,0-4.093,1.563-4.093,3.68c-0.007,0.49-0.016,1.405-0.002,1.808h-3.357
		c-0.543,0-0.987,0.365-1.012,0.907l-0.657,14.529c-0.012,0.252,0.069,0.538,0.234,0.71c0.187,0.196,0.462,0.365,0.776,0.365h16.225
		c0.279,0,0.537-0.19,0.729-0.392c0.191-0.202,0.29-0.474,0.277-0.752L403.218,1892.59z M392.065,1889.881l0.001-0.075
		c0-1.3,1.106-2.222,2.689-2.222c1.755,0,2.689,1.275,2.689,2.2l0.001,0.1c0.012,0.845,0.013,1.396,0.001,1.798h-5.382
		C392.052,1891.28,392.053,1890.726,392.065,1889.881z M400.477,1898.753c-0.492,0.664-1.337,0.927-2.186,0.786
		c0.222,0.492,0.354,1.028,0.354,1.604c0,2.147-1.743,3.89-3.889,3.89c-2.15,0-3.891-1.743-3.891-3.89
		c0-0.576,0.131-1.112,0.353-1.604c-0.851,0.141-1.694-0.122-2.183-0.786c-0.746-1.001-0.41-2.52,0.757-3.383
		c1.16-0.863,2.71-0.754,3.456,0.249c0.391,0.529,0.474,1.2,0.302,1.843c0.383-0.124,0.782-0.209,1.206-0.209
		c0.422,0,0.819,0.085,1.202,0.209c-0.171-0.643-0.087-1.314,0.304-1.843c0.746-1.003,2.292-1.112,3.458-0.249
		C400.883,1896.233,401.222,1897.752,400.477,1898.753z"/>
	<text transform="matrix(1 0 0 1 162.0511 1921.9247)"><tspan x="0" y="0" fill="#A1AFC0" font-family="'Avenir-Book'" font-size="14px">Bacha</tspan><tspan x="-1.939" y="16" fill="#A1AFC0" font-family="'Avenir-Book'" font-size="14px">Coffee</tspan></text>
	<g>
		<path fill="#A1AFC0" d="M337.12,2747.844c-0.207,0-0.404-0.121-0.492-0.323c-0.154-0.349-0.562-0.583-1.018-0.583
			c-0.45,0-0.858,0.231-1.014,0.575c-0.123,0.271-0.442,0.39-0.711,0.268c-0.27-0.122-0.39-0.44-0.268-0.711
			c0.331-0.733,1.113-1.206,1.992-1.206c0.889,0,1.675,0.481,2.001,1.227c0.12,0.272-0.005,0.588-0.277,0.708
			C337.264,2747.829,337.192,2747.844,337.12,2747.844z"/>
		<path fill="#A1AFC0" d="M342.729,2745.718c-0.258-0.588-0.749-1.039-1.383-1.271c-0.22-0.08-0.448-0.13-0.68-0.149
			c-0.012-0.207-0.057-0.415-0.139-0.614c-0.212-0.515-0.649-0.927-1.199-1.135c-0.795-0.301-1.654-0.135-2.234,0.366
			c-0.681-0.708-1.682-1.131-2.775-1.131c-0.958,0-1.847,0.327-2.512,0.887c-0.342-0.547-0.943-0.887-1.598-0.887
			c-0.264,0-0.52,0.054-0.763,0.161c-0.434,0.194-0.772,0.535-0.961,0.967c-0.111,0.025-0.22,0.061-0.325,0.108
			c-0.88,0.393-1.279,1.415-0.911,2.295c-0.139,0.088-0.271,0.188-0.384,0.308c-0.437,0.458-0.615,1.072-0.488,1.684
			c0.075,0.363,0.431,0.596,0.795,0.521c0.362-0.075,0.596-0.431,0.521-0.794c-0.036-0.177,0.015-0.347,0.145-0.484
			c0.138-0.146,0.341-0.224,0.561-0.231c0.023,0.006,0.043,0.019,0.065,0.023c0.393,0.416,0.945,0.663,1.537,0.663
			c0.295,0,0.582-0.06,0.853-0.18c0.916-0.408,1.392-1.387,1.211-2.33c0.027-0.038,0.059-0.069,0.078-0.111
			c0.341-0.751,1.216-1.258,2.176-1.258c0.971,0,1.849,0.514,2.184,1.278c0.119,0.271,0.401,0.43,0.693,0.398
			c0.293-0.034,0.529-0.255,0.583-0.544c0.007-0.044,0.02-0.081,0.035-0.116c0.154-0.337,0.631-0.491,1.041-0.336
			c0.202,0.077,0.359,0.218,0.43,0.389c0.039,0.092,0.068,0.236-0.006,0.4c-0.014,0.03-0.034,0.055-0.052,0.081
			c-0.138,0.198-0.159,0.458-0.056,0.677c0.02,0.041,0.048,0.089,0.077,0.127c0.177,0.236,0.488,0.33,0.764,0.228
			c0.286-0.102,0.595-0.102,0.876,0.001c0.285,0.104,0.504,0.299,0.612,0.548c0.066,0.148,0.119,0.383,0.005,0.656
			c-0.144,0.342,0.018,0.735,0.36,0.879c0.084,0.034,0.173,0.052,0.259,0.052c0.263,0,0.512-0.156,0.62-0.413
			C342.975,2746.876,342.971,2746.268,342.729,2745.718z M330.421,2745.842c-0.137,0.06-0.279,0.089-0.42,0.089
			c-0.398,0-0.778-0.23-0.949-0.616c-0.004-0.008-0.004-0.015-0.007-0.022c-0.059,0.015-0.12,0.022-0.179,0.022
			c-0.262,0-0.51-0.144-0.623-0.398c-0.155-0.348,0.003-0.757,0.352-0.912c0.09-0.039,0.182-0.058,0.274-0.058
			c0.166,0,0.326,0.061,0.452,0.168c0.049-0.042,0.102-0.078,0.158-0.112c-0.002-0.005-0.004-0.006-0.006-0.009
			c-0.181-0.407,0.003-0.885,0.41-1.064c0.106-0.047,0.217-0.069,0.326-0.069c0.31,0,0.605,0.179,0.739,0.479
			c0.137,0.31,0.061,0.659-0.161,0.888c0.063,0.073,0.12,0.154,0.161,0.247C331.18,2744.997,330.944,2745.61,330.421,2745.842z"/>
		<path fill="#A1AFC0" d="M344.062,2758.771c-0.242-0.406-0.63-0.702-1.074-0.836c-0.038-0.108-0.087-0.212-0.145-0.312
			c-0.313-0.522-0.88-0.848-1.487-0.859l1.022-6.475h0.088c0.445,0,0.805-0.361,0.805-0.806s-0.361-0.806-0.805-0.806h-15.678
			c-0.445,0-0.806,0.361-0.806,0.806s0.361,0.806,0.806,0.806h0.086l1.794,11.359c0.013,0.079,0.081,0.137,0.161,0.137h1.627
			c0.003,0,0.006,0,0.008,0c0.09,0,0.163-0.073,0.163-0.162c0-0.027-0.006-0.05-0.017-0.072l-1.589-11.263h2.152l0.562,11.342
			c0.005,0.086,0.077,0.155,0.163,0.155h1.895c0.003,0,0.005,0,0.008,0c0.09,0,0.162-0.073,0.162-0.162
			c0-0.02-0.003-0.038-0.009-0.055l-0.306-11.279h2.059l-0.307,11.33c-0.001,0.044,0.016,0.086,0.046,0.117
			c0.031,0.032,0.072,0.05,0.116,0.05h1.895c0.087,0,0.158-0.069,0.162-0.155l0.562-11.342h2.071l-1.413,11.314
			c-0.005,0.046,0.009,0.092,0.039,0.128c0.032,0.034,0.076,0.054,0.122,0.054h0.656h0.767h0.844c0.005,0,0.009-0.003,0.012-0.003
			c0.013,0,0.025,0.003,0.038,0.003c0.311,0,0.506-0.069,0.785-0.201c0.116,0.022,0.233,0.033,0.35,0.033
			c0.337,0,0.668-0.091,0.957-0.262c0.434-0.258,0.74-0.668,0.863-1.156C344.395,2759.709,344.321,2759.202,344.062,2758.771z
			 M342.861,2760.425c-0.127,0.076-0.269,0.113-0.409,0.113c-0.176,0-0.35-0.058-0.491-0.166c-0.066,0.072-0.138,0.137-0.226,0.188
			c-0.166,0.099-0.349,0.146-0.531,0.146c-0.353,0-0.697-0.18-0.891-0.506c-0.294-0.494-0.13-1.129,0.36-1.422
			c0.007-0.004,0.015-0.006,0.02-0.01c-0.118-0.309-0.016-0.666,0.278-0.841c0.111-0.066,0.232-0.097,0.352-0.097
			c0.237,0,0.466,0.12,0.596,0.338c0.14,0.236,0.12,0.52-0.023,0.734c0.048,0.044,0.091,0.092,0.13,0.143
			c0.003-0.001,0.006-0.005,0.009-0.007c0.13-0.077,0.272-0.114,0.412-0.114c0.275,0,0.543,0.141,0.693,0.394
			C343.368,2759.7,343.245,2760.198,342.861,2760.425z"/>
	</g>
	<g>
		<path fill="#A1AFC0" d="M394.362,1498.885c-2.031-1.289-2.719-2.8-2.923-3.397v-0.025c0-0.498-0.404-0.902-0.902-0.902
			s-0.902,0.404-0.902,0.902v14.398c-1.018-0.461-2.348-0.536-3.674-0.112c-2.38,0.767-3.838,2.84-3.264,4.648
			c0.579,1.801,2.978,2.646,5.353,1.885c2.061-0.664,3.427-2.307,3.386-3.91c0-0.011,0.004-0.018,0.004-0.031v-9.514
			c2.247-0.488,3.895,2.026,4.811,3.428c0.425,0.651,0.649,0.995,0.974,0.995c0.049,0,0.101-0.008,0.155-0.024
			c0.384-0.111,0.384-0.544,0.384-0.686C397.763,1504.885,397.432,1500.827,394.362,1498.885z"/>
		<path fill="#A1AFC0" d="M383.972,1495.644c0.277-0.254,0.529-0.155,0.56,0.222l0.162,1.973c0.029,0.376,0.323,0.839,0.645,1.028
			l1.702,0.984c0.325,0.187,0.307,0.461-0.036,0.608l-1.809,0.763c-0.348,0.147-0.689,0.569-0.769,0.94l-0.401,1.935
			c-0.076,0.371-0.339,0.439-0.584,0.153l-1.278-1.499c-0.245-0.288-0.746-0.491-1.12-0.45l-1.948,0.213
			c-0.373,0.042-0.521-0.19-0.325-0.514l1.015-1.69c0.198-0.324,0.227-0.87,0.075-1.217l-0.801-1.803
			c-0.155-0.346,0.02-0.557,0.384-0.471l1.907,0.456c0.365,0.087,0.889-0.05,1.168-0.305L383.972,1495.644z"/>
		<path fill="#A1AFC0" d="M376.621,1506.615c-0.077-0.203,0.03-0.317,0.238-0.253l1.082,0.332c0.207,0.065,0.514,0.004,0.683-0.128
			l0.878-0.703c0.167-0.135,0.309-0.066,0.315,0.149l0.028,1.132c0.006,0.217,0.159,0.492,0.34,0.612l0.945,0.625
			c0.183,0.121,0.164,0.276-0.04,0.346l-1.065,0.367c-0.204,0.07-0.417,0.299-0.474,0.508l-0.292,1.089
			c-0.058,0.209-0.211,0.239-0.343,0.066l-0.685-0.905c-0.133-0.173-0.417-0.308-0.633-0.298l-1.128,0.047
			c-0.215,0.008-0.291-0.129-0.17-0.306l0.64-0.925c0.123-0.177,0.162-0.489,0.083-0.692L376.621,1506.615z"/>
	</g>
	<g>
		<g>
			<path fill="#A1AFC0" d="M215.63,2530.429c-0.12,0.426-0.148,0.883-0.037,1.344c0.345,1.44,1.791,2.327,3.229,1.983
				c1.44-0.345,2.325-1.791,1.98-3.23c-0.116-0.483-0.363-0.897-0.685-1.23c0.485-0.048,0.909-0.293,1.116-0.709
				c0.35-0.702-0.05-1.611-0.893-2.031c-0.843-0.42-1.809-0.191-2.159,0.511c-0.224,0.45-0.138,0.984,0.172,1.421
				c-0.256-0.015-0.516-0.006-0.779,0.057c-0.328,0.079-0.623,0.22-0.886,0.401c0.06-0.482-0.085-0.949-0.443-1.243
				c-0.607-0.497-1.582-0.309-2.179,0.419c-0.597,0.729-0.588,1.722,0.019,2.219C214.505,2530.687,215.103,2530.696,215.63,2530.429
				z"/>
			<path fill="#A1AFC0" d="M224.077,2539.672c-0.11-0.371-0.94-2.013-1.345-2.755c-0.405-0.744-0.881-2.124-2.553-2.124h-3.967
				c-1.672,0-2.148,1.38-2.553,2.124c-0.404,0.742-1.234,2.384-1.343,2.755c-0.141,0.472,0.08,0.963,0.554,1.101
				c0.473,0.138,0.921-0.228,1.112-0.601c0.19-0.373,1.396-2.741,1.396-2.741h0.715l-2.477,6.541c0,0-0.469,0.893,0.468,0.893h1.546
				c0,0,0.006,3.926,0.006,4.394c0,0.597,0.481,1.075,1.074,1.075c0.594,0,1.077-0.479,1.077-1.075v-4.394h0.804v4.394
				c0,0.597,0.483,1.075,1.077,1.075c0.594,0,1.074-0.479,1.074-1.075c0-0.468,0.006-4.394,0.006-4.394h1.558
				c0.937,0,0.468-0.893,0.468-0.893l-2.379-6.541h0.618c0,0,1.206,2.368,1.395,2.741c0.189,0.373,0.639,0.738,1.111,0.601
				C223.995,2540.635,224.217,2540.144,224.077,2539.672z"/>
		</g>
		<g>
			<path fill="#A1AFC0" d="M206.587,2534.344c-1.479,0-2.678-1.2-2.678-2.68c0-1.479,1.199-2.678,2.678-2.678
				c1.48,0,2.678,1.198,2.678,2.678C209.266,2533.144,208.068,2534.344,206.587,2534.344z"/>
			<path fill="#A1AFC0" d="M199.572,2532.198c0.418-0.418,1.095-0.418,1.513,0l3.118,3.119h4.735l3.151-3.151
				c0.418-0.418,1.095-0.418,1.513,0c0.418,0.418,0.418,1.095,0,1.513l-4.17,4.17V2549c0,0.742-0.521,1.345-1.264,1.345
				c-0.743,0-1.31-0.604-1.31-1.345v-5.315h-0.861V2549c0,0.742-0.514,1.345-1.256,1.345c-0.745,0-1.26-0.604-1.26-1.345v-11.38
				l-3.91-3.909C199.155,2533.293,199.155,2532.616,199.572,2532.198z"/>
		</g>
	</g>
	<g>
		<path fill="#A1AFC0" d="M281.671,1637.818l-3.865-10.584h3.008c0.422,0,0.765-0.342,0.765-0.766v-5.737
			c0-0.423-0.342-0.767-0.765-0.767h-2.515h-1.14l0.003-0.219l0.001-0.124c0,0,0.242-0.911,0.822-0.911
			c0.379,0,0.684-0.308,0.684-0.684v-2.26c0-0.379-0.306-0.686-0.684-0.686h-4.316c-0.379,0-0.684,0.307-0.684,0.686v2.26
			c0,0.377,0.306,0.684,0.684,0.684c0.718,0,0.818,0.919,0.818,0.919l0.001,0.114l-0.003,0.222h-1.167h-2.477
			c-0.422,0-0.764,0.344-0.764,0.767v5.737c0,0.424,0.342,0.766,0.764,0.766h3.012l-3.882,10.529
			c-0.201,0.486,0.03,1.043,0.518,1.244c0.118,0.049,0.241,0.071,0.362,0.071c0.375,0,0.73-0.223,0.883-0.591l4.032-10.89
			c0.048-0.12,0.07-0.242,0.07-0.364h0.022c0,0.102,0.005,0.204,0.039,0.307l3.971,10.89c0.134,0.397,0.506,0.647,0.902,0.647
			c0.101,0,0.204-0.017,0.306-0.052C281.574,1638.857,281.84,1638.317,281.671,1637.818z M274.131,1616.996
			c0-0.535,0.434-0.969,0.967-0.969h1.458c0.534,0,0.969,0.434,0.969,0.969c0,0.534-0.434,0.967-0.969,0.967h-1.458
			C274.565,1617.964,274.131,1617.531,274.131,1616.996z M275.828,1621.056c1.404,0,2.542,1.14,2.542,2.543
			c0,1.405-1.139,2.543-2.542,2.543c-1.405,0-2.543-1.138-2.543-2.543C273.285,1622.196,274.423,1621.056,275.828,1621.056z"/>
		<path fill="#A1AFC0" d="M275.828,1622.078c-0.839,0-1.521,0.682-1.521,1.521c0,0.839,0.682,1.52,1.521,1.52
			c0.837,0,1.518-0.681,1.518-1.52C277.346,1622.76,276.665,1622.078,275.828,1622.078z"/>
	</g>
	<g>
		<path fill="#A1AFC0" d="M286.227,1413.306l-3.865-10.584h3.008c0.422,0,0.765-0.342,0.765-0.766v-5.738
			c0-0.423-0.342-0.767-0.765-0.767h-2.515h-1.14l0.003-0.219l0.001-0.124c0,0,0.242-0.911,0.822-0.911
			c0.379,0,0.684-0.307,0.684-0.684v-2.26c0-0.379-0.306-0.686-0.684-0.686h-4.316c-0.379,0-0.684,0.307-0.684,0.686v2.26
			c0,0.377,0.306,0.684,0.684,0.684c0.718,0,0.818,0.919,0.818,0.919l0.001,0.114l-0.003,0.222h-1.167h-2.477
			c-0.422,0-0.764,0.344-0.764,0.767v5.738c0,0.424,0.342,0.766,0.764,0.766h3.012l-3.882,10.529
			c-0.201,0.486,0.03,1.043,0.518,1.244c0.118,0.049,0.241,0.071,0.362,0.071c0.375,0,0.73-0.223,0.883-0.591l4.032-10.89
			c0.048-0.12,0.07-0.242,0.07-0.364h0.022c0,0.102,0.005,0.204,0.039,0.308l3.971,10.89c0.135,0.398,0.506,0.647,0.902,0.647
			c0.101,0,0.204-0.017,0.306-0.052C286.13,1414.345,286.396,1413.805,286.227,1413.306z M278.687,1392.484
			c0-0.534,0.435-0.969,0.967-0.969h1.458c0.534,0,0.969,0.434,0.969,0.969c0,0.534-0.435,0.967-0.969,0.967h-1.458
			C279.121,1393.452,278.687,1393.019,278.687,1392.484z M280.384,1396.544c1.404,0,2.542,1.14,2.542,2.543
			c0,1.405-1.139,2.543-2.542,2.543c-1.405,0-2.543-1.138-2.543-2.543C277.841,1397.684,278.979,1396.544,280.384,1396.544z"/>
		<path fill="#A1AFC0" d="M280.384,1397.567c-0.839,0-1.522,0.682-1.522,1.521c0,0.839,0.682,1.52,1.522,1.52
			c0.837,0,1.518-0.681,1.518-1.52C281.903,1398.248,281.221,1397.567,280.384,1397.567z"/>
	</g>
	<g>
		<path fill="#A1AFC0" d="M282.6,1472.058c0,2.333,0.001,4.667-0.001,6.999c0,0.511-0.07,1.013-0.297,1.478
			c-0.354,0.724-0.933,1.179-1.7,1.397c-0.428,0.122-0.865,0.192-1.31,0.212c-1.166,0.055-2.174-0.735-2.383-1.882
			c-0.173-0.946,0.28-1.989,1.274-2.476c0.396-0.196,0.82-0.306,1.248-0.397c0.463-0.1,0.928-0.188,1.389-0.294
			c0.336-0.077,0.56-0.283,0.626-0.632c0.016-0.077,0.022-0.157,0.022-0.237c0.001-2.224,0.001-4.447-0.001-6.67
			c0-0.076-0.013-0.153-0.031-0.226c-0.048-0.185-0.183-0.297-0.372-0.287c-0.196,0.011-0.389,0.043-0.582,0.081
			c-0.932,0.184-1.862,0.372-2.793,0.56c-0.95,0.191-1.901,0.384-2.852,0.576c-0.561,0.114-1.122,0.226-1.684,0.34
			c-0.02,0.004-0.04,0.01-0.058,0.016c-0.339,0.094-0.462,0.249-0.478,0.6c-0.002,0.053-0.001,0.106-0.001,0.161
			c-0.001,3.188,0,6.377-0.002,9.563c0,0.515-0.057,1.024-0.264,1.503c-0.341,0.786-0.944,1.276-1.758,1.512
			c-0.43,0.124-0.871,0.195-1.318,0.211c-1.175,0.044-2.15-0.736-2.351-1.892c-0.174-0.996,0.282-2.065,1.412-2.544
			c0.437-0.184,0.896-0.285,1.357-0.381c0.352-0.074,0.704-0.141,1.055-0.216c0.468-0.102,0.714-0.396,0.733-0.875
			c0.002-0.063,0.001-0.122,0.001-0.185c0-3.627,0-7.255,0.002-10.882c0-0.151,0.016-0.307,0.051-0.454
			c0.086-0.349,0.335-0.549,0.669-0.635c0.313-0.081,0.631-0.138,0.948-0.202c0.898-0.182,1.796-0.362,2.694-0.542
			c0.928-0.188,1.856-0.374,2.784-0.562c0.82-0.166,1.64-0.334,2.462-0.495c0.269-0.053,0.542-0.107,0.814-0.129
			c0.38-0.03,0.64,0.209,0.679,0.59c0.009,0.091,0.015,0.182,0.015,0.274C282.601,1467.377,282.601,1469.717,282.6,1472.058
			L282.6,1472.058z"/>
	</g>
	<text transform="matrix(1 0 0 1 254.3116 1546.6245)" fill="#A1AFC0" font-family="'Avenir-Book'" font-size="10px">Sebastian</text>
	<g>
		<path fill="#A1AFC0" d="M282.6,1523.574c0,2.333,0.001,4.667-0.001,6.999c0,0.511-0.07,1.013-0.297,1.478
			c-0.354,0.724-0.933,1.179-1.7,1.397c-0.428,0.122-0.865,0.192-1.31,0.212c-1.166,0.055-2.174-0.735-2.383-1.882
			c-0.173-0.946,0.28-1.989,1.274-2.476c0.396-0.196,0.82-0.306,1.248-0.397c0.463-0.1,0.928-0.188,1.389-0.294
			c0.336-0.077,0.56-0.283,0.626-0.632c0.016-0.077,0.022-0.158,0.022-0.237c0.001-2.224,0.001-4.447-0.001-6.67
			c0-0.076-0.013-0.153-0.031-0.226c-0.048-0.185-0.183-0.297-0.372-0.287c-0.196,0.011-0.389,0.043-0.582,0.081
			c-0.932,0.184-1.862,0.372-2.793,0.56c-0.95,0.191-1.901,0.384-2.852,0.576c-0.561,0.114-1.122,0.226-1.684,0.34
			c-0.02,0.004-0.04,0.01-0.058,0.016c-0.339,0.094-0.462,0.249-0.478,0.6c-0.002,0.053-0.001,0.106-0.001,0.161
			c-0.001,3.188,0,6.377-0.002,9.563c0,0.515-0.057,1.024-0.264,1.503c-0.341,0.786-0.944,1.276-1.758,1.513
			c-0.43,0.124-0.871,0.195-1.318,0.211c-1.175,0.044-2.15-0.736-2.351-1.892c-0.174-0.996,0.282-2.065,1.412-2.544
			c0.437-0.184,0.896-0.285,1.357-0.381c0.352-0.074,0.704-0.141,1.055-0.216c0.468-0.102,0.714-0.396,0.733-0.875
			c0.002-0.063,0.001-0.122,0.001-0.185c0-3.627,0-7.255,0.002-10.882c0-0.151,0.016-0.307,0.051-0.454
			c0.086-0.349,0.335-0.549,0.669-0.635c0.313-0.081,0.631-0.138,0.948-0.202c0.898-0.182,1.796-0.362,2.694-0.542
			c0.928-0.188,1.856-0.375,2.784-0.562c0.82-0.166,1.64-0.334,2.462-0.495c0.269-0.053,0.542-0.107,0.814-0.129
			c0.38-0.03,0.64,0.209,0.679,0.59c0.009,0.091,0.015,0.182,0.015,0.274C282.601,1518.893,282.601,1521.234,282.6,1523.574
			L282.6,1523.574z"/>
	</g>
	<text transform="matrix(1 0 0 1 251.7964 1599.8669)" fill="#A1AFC0" font-family="'Avenir-Book'" font-size="10px">The Muses</text>
	<g>
		<path fill="#A1AFC0" d="M282.6,1576.817c0,2.333,0.001,4.667-0.001,6.999c0,0.511-0.07,1.013-0.297,1.478
			c-0.354,0.724-0.933,1.179-1.7,1.397c-0.428,0.122-0.865,0.192-1.31,0.212c-1.166,0.055-2.174-0.735-2.383-1.882
			c-0.173-0.946,0.28-1.989,1.274-2.476c0.396-0.196,0.82-0.306,1.248-0.397c0.463-0.1,0.928-0.188,1.389-0.294
			c0.336-0.077,0.56-0.283,0.626-0.632c0.016-0.077,0.022-0.158,0.022-0.237c0.001-2.224,0.001-4.447-0.001-6.67
			c0-0.076-0.013-0.153-0.031-0.226c-0.048-0.185-0.183-0.297-0.372-0.287c-0.196,0.011-0.389,0.043-0.582,0.081
			c-0.932,0.184-1.862,0.372-2.793,0.56c-0.95,0.191-1.901,0.384-2.852,0.576c-0.561,0.114-1.122,0.226-1.684,0.34
			c-0.02,0.004-0.04,0.01-0.058,0.016c-0.339,0.094-0.462,0.249-0.478,0.6c-0.002,0.053-0.001,0.106-0.001,0.161
			c-0.001,3.188,0,6.377-0.002,9.563c0,0.515-0.057,1.024-0.264,1.503c-0.341,0.786-0.944,1.276-1.758,1.513
			c-0.43,0.124-0.871,0.195-1.318,0.211c-1.175,0.044-2.15-0.736-2.351-1.892c-0.174-0.996,0.282-2.065,1.412-2.544
			c0.437-0.184,0.896-0.285,1.357-0.381c0.352-0.074,0.704-0.141,1.055-0.216c0.468-0.102,0.714-0.396,0.733-0.875
			c0.002-0.062,0.001-0.122,0.001-0.185c0-3.627,0-7.255,0.002-10.882c0-0.151,0.016-0.307,0.051-0.454
			c0.086-0.349,0.335-0.549,0.669-0.635c0.313-0.081,0.631-0.138,0.948-0.202c0.898-0.182,1.796-0.362,2.694-0.542
			c0.928-0.188,1.856-0.375,2.784-0.562c0.82-0.166,1.64-0.334,2.462-0.495c0.269-0.053,0.542-0.107,0.814-0.129
			c0.38-0.03,0.64,0.209,0.679,0.59c0.009,0.091,0.015,0.182,0.015,0.274C282.601,1572.135,282.601,1574.476,282.6,1576.817
			L282.6,1576.817z"/>
	</g>
	<path fill="#A1AFC0" d="M185.462,1496.136c-0.025-0.542-0.469-0.907-1.011-0.907h-3.357c0.014-0.403,0.006-1.334-0.002-1.847
		c0-1.737-1.565-3.641-4.093-3.641c-2.372,0-4.093,1.563-4.093,3.68c-0.007,0.49-0.016,1.405-0.002,1.808h-3.357
		c-0.543,0-0.987,0.365-1.012,0.907l-0.657,14.529c-0.012,0.252,0.069,0.538,0.234,0.71c0.187,0.196,0.462,0.365,0.776,0.365h16.225
		c0.279,0,0.537-0.19,0.729-0.392c0.191-0.202,0.29-0.474,0.277-0.752L185.462,1496.136z M174.309,1493.428l0.001-0.075
		c0-1.3,1.106-2.222,2.689-2.222c1.755,0,2.689,1.275,2.689,2.2l0.001,0.1c0.012,0.845,0.013,1.396,0.001,1.798h-5.382
		C174.297,1494.827,174.297,1494.273,174.309,1493.428z M182.721,1502.299c-0.492,0.664-1.337,0.927-2.186,0.786
		c0.222,0.492,0.354,1.028,0.354,1.604c0,2.147-1.743,3.89-3.889,3.89c-2.15,0-3.891-1.743-3.891-3.89
		c0-0.576,0.131-1.112,0.353-1.604c-0.851,0.141-1.694-0.122-2.183-0.786c-0.746-1.001-0.41-2.52,0.757-3.383
		c1.16-0.863,2.71-0.754,3.456,0.248c0.391,0.529,0.474,1.2,0.302,1.843c0.383-0.124,0.782-0.209,1.206-0.209
		c0.422,0,0.82,0.085,1.202,0.209c-0.171-0.643-0.087-1.314,0.304-1.843c0.746-1.003,2.292-1.112,3.458-0.248
		C183.127,1499.779,183.467,1501.298,182.721,1502.299z"/>
	<path fill="#A1AFC0" d="M185.589,1890.635h-12.78v13.453c0,1.31,1.064,2.371,2.377,2.371h7.426c1.313,0,2.377-1.062,2.377-2.371
		v-3.007l0.601-0.021c2.878,0,5.22-2.338,5.22-5.213C190.808,1892.973,188.466,1890.635,185.589,1890.635z M182.28,1897.286
		c-0.263,0.415-0.787,0.583-1.319,0.477c0.172,0.325,0.27,0.694,0.27,1.088c0,1.29-1.045,2.333-2.333,2.333
		c-1.288,0-2.333-1.044-2.333-2.333c0-0.394,0.098-0.763,0.27-1.088c-0.532,0.105-1.055-0.063-1.318-0.477
		c-0.362-0.57-0.094-1.391,0.6-1.833c0.694-0.443,1.551-0.337,1.916,0.235c0.18,0.285,0.204,0.631,0.096,0.961
		c0.241-0.083,0.5-0.128,0.77-0.128c0.269,0,0.529,0.045,0.77,0.128c-0.107-0.33-0.083-0.675,0.097-0.961
		c0.362-0.572,1.22-0.678,1.914-0.235C182.375,1895.895,182.641,1896.716,182.28,1897.286z M185.589,1898.687h-0.601v-5.678h0.601
		c1.567,0,2.843,1.274,2.843,2.839C188.432,1897.413,187.156,1898.687,185.589,1898.687z"/>
	<text transform="matrix(1 0 0 1 152.2093 2006.9561)"><tspan x="0" y="0" fill="#A1AFC0" font-family="'Avenir-Book'" font-size="14px">TWG Tea</tspan></text>
	<path fill="#A1AFC0" d="M185.589,1975.666h-12.78v13.453c0,1.31,1.064,2.371,2.377,2.371h7.426c1.313,0,2.377-1.062,2.377-2.371
		v-3.007l0.601-0.021c2.878,0,5.22-2.338,5.22-5.213C190.808,1978.004,188.466,1975.666,185.589,1975.666z M182.28,1982.317
		c-0.263,0.415-0.787,0.583-1.319,0.478c0.172,0.325,0.27,0.694,0.27,1.088c0,1.29-1.045,2.333-2.333,2.333
		c-1.288,0-2.333-1.043-2.333-2.333c0-0.394,0.098-0.763,0.27-1.088c-0.532,0.105-1.055-0.063-1.318-0.478
		c-0.362-0.57-0.094-1.391,0.6-1.833c0.694-0.443,1.551-0.337,1.916,0.235c0.18,0.285,0.204,0.631,0.096,0.961
		c0.241-0.083,0.5-0.128,0.77-0.128c0.269,0,0.529,0.045,0.77,0.128c-0.107-0.33-0.083-0.675,0.097-0.961
		c0.362-0.572,1.22-0.678,1.914-0.235C182.375,1980.926,182.641,1981.747,182.28,1982.317z M185.589,1983.718h-0.601v-5.678h0.601
		c1.567,0,2.843,1.274,2.843,2.839C188.432,1982.444,187.156,1983.718,185.589,1983.718z"/>
</g>
<g id="sections_00000130643646914068006950000007363236027300373397_">
	<rect id="aft" x="0.275" y="2174.558" opacity="0.32" fill="none" width="588" height="1195.442"/>
	<rect id="mid" x="0.275" y="1106.822" opacity="0.32" fill="none" width="588" height="1067.736"/>
	<rect id="forward" x="0.275" opacity="0.32" fill="none" width="588" height="1106.822"/>
</g>
</svg>
