<?xml version="1.0" encoding="utf-8"?>
<!-- Generator: Adobe Illustrator 27.0.0, SVG Export Plug-In . SVG Version: 6.00 Build 0)  -->
<svg version="1.1" xmlns="http://www.w3.org/2000/svg" xmlns:xlink="http://www.w3.org/1999/xlink" x="0px" y="0px"
	 viewBox="0 0 588 3370" enable-background="new 0 0 588 3370" xml:space="preserve">
<g id="ref_image_copy" display="none">
	
		<polygon display="inline" fill="#FFFFFF" stroke="#DEDEDE" stroke-width="1.0575" stroke-linecap="round" stroke-miterlimit="10" points="
		747.149,2827.073 747.149,2879.59 689.549,2879.59 689.549,2796.817 740.372,2796.817 740.372,2827.073 	"/>
	
		<polygon display="inline" fill="#FFFFFF" stroke="#DEDEDE" stroke-width="1.0575" stroke-linecap="round" stroke-miterlimit="10" points="
		764.466,2908.955 764.466,3065.943 835.619,3065.943 835.619,3119.778 981.313,3119.778 981.313,3157.425 1058.489,3157.425 
		1058.489,3120.531 1072.419,3120.531 1072.419,2907.825 1028.372,2907.825 1028.372,2884.962 1008.544,2884.962 1008.544,2839.216 
		970.778,2839.216 970.778,2798.258 878.754,2798.258 878.754,2838.152 864.924,2838.152 864.924,2852.514 835.136,2852.514 
		835.136,2908.862 	"/>
	<g id="_x32_Icpsk_00000010302841521912272150000013517805957962695584_" display="inline">
		
			<image overflow="visible" width="2109" height="311" id="_x32_Icpsk" xlink:href="F6B413211A73506F.jpg"  transform="matrix(0 -1.6992 1.6992 0 -574.2398 3504.6902)">
		</image>
	</g>
	
		<image display="inline" overflow="visible" width="4285" height="29270" xlink:href="F6B413211A73506D.jpg"  transform="matrix(0.1406 0 0 0.1406 626.8564 -527.7464)">
	</image>
</g>
<g id="guides" display="none">
	<rect x="-5450.207" y="3369.765" display="inline" fill="#5864F3" width="13329.266" height="218.896"/>
	<rect x="-5450.207" y="-218.477" display="inline" fill="#5864F3" width="13329.266" height="218.896"/>
	<rect x="0" display="inline" opacity="0.32" fill="#5864F3" width="588" height="3370"/>
	<rect x="0.783" y="1816.034" display="inline" fill="#5864F3" width="35.238" height="95.272"/>
	<rect x="552.805" y="1816.034" display="inline" fill="#5864F3" width="35.238" height="95.272"/>
</g>
<g id="Layer_1">
	<g id="ship">
		<g id="shipbase">
			<path id="shipbase_00000056424358799596651990000015746949445377094534_" opacity="0.32" fill="none" d="M518.763,3236.845
				v-77.088v-637.263v-586.605v-693.06V775.161c0.734-105.721-38.911-278.986-38.911-278.986
				c-46.253-166.657-121.873-291.467-121.873-291.467c-46.711-91.626-63.707-99.216-67.87-99.356c-0.355-0.079-1.845-0.079-2.2,0
				c-4.163,0.14-21.159,7.73-67.87,99.356c0,0-75.62,124.81-121.873,291.467c0,0-39.645,173.265-38.911,278.986v467.669v693.06
				v586.605v637.263v77.088c0,0-1.468,22.025,2.203,31.57c3.671,9.544,30.835,55.063,100.582,70.481c0,0,68.278,8.076,126.278,8.076
				h1.383c58,0,126.278-8.076,126.278-8.076c69.746-15.418,96.911-60.937,100.582-70.481
				C520.232,3258.87,518.763,3236.845,518.763,3236.845z"/>
		</g>
		<g id="inaccessible_00000088134731147984213960000008884786327913579656_">
			
				<path id="inaccessible_00000138534846424053419570000012987268249832038065_" fill="#E9E9E9" stroke="#E9E9E9" stroke-width="1.057" stroke-linecap="round" stroke-linejoin="round" stroke-miterlimit="10" d="
				M133.82,641.751v203.627H59.566c0,0-2.278-79.72,0.911-114.796s11.389-90.197,11.389-90.197L133.82,641.751z"/>
			
				<path id="inaccessible_00000114043097023508745200000003921151091616059272_" fill="#E9E9E9" stroke="#E9E9E9" stroke-width="1.057" stroke-linecap="round" stroke-linejoin="round" stroke-miterlimit="10" d="
				M442.773,640.536v311.717h75.106l1.129-172.235c0,0-1.129-95.435-14.682-145.129L442.773,640.536z"/>
			
				<path id="inaccessible_00000165217697141620513890000004841316043775668388_" fill="#E9E9E9" stroke="#E9E9E9" stroke-width="1.057" stroke-linecap="round" stroke-linejoin="round" stroke-miterlimit="10" d="
				M505.038,645.909l-13.513-83.226c-24.568-153.86-119.157-327.989-119.157-327.989c-54.665-116.086-83.533-130.213-83.533-130.213
				l-0.015,6.565l-0.015-6.565c0,0-28.868,14.127-83.533,130.213c0,0-94.589,174.129-119.157,327.989l-13.513,83.226l59.828,57.418
				h309.033L505.038,645.909z"/>
			
				<rect id="inaccessible_00000033327999777607550370000002995907415112526269_" x="130.048" y="2459.086" fill="#EAEAEA" stroke="#EAEAEA" stroke-width="1.057" stroke-linecap="round" stroke-linejoin="round" stroke-miterlimit="10" width="73.975" height="15.658"/>
			
				<rect id="inaccessible" x="372.995" y="2458.804" fill="#EAEAEA" stroke="#EAEAEA" stroke-width="1.057" stroke-linecap="round" stroke-linejoin="round" stroke-miterlimit="10" width="74.713" height="15.495"/>
			
				<polygon id="inaccessible_00000054256873068037120190000002347556470621647001_" fill="#E9E9E9" stroke="#E9E9E9" stroke-width="1.057" stroke-linecap="round" stroke-linejoin="round" stroke-miterlimit="10" points="
				152.726,809.229 118.971,809.229 118.971,919.897 127.199,919.897 127.199,968.791 456.861,968.791 456.861,924.775 
				457.195,924.775 457.195,809.73 422.908,809.73 343.221,852.335 232.414,852.335 			"/>
			
				<rect id="inaccessible_00000000939035798079043800000011851276692985884301_" x="131.693" y="1739.018" fill="#EAEAEA" stroke="#EAEAEA" stroke-width="1.0636" stroke-linecap="round" stroke-linejoin="round" stroke-miterlimit="10" width="72.533" height="629.143"/>
			
				<rect id="inaccessible_00000078024566437803081640000014618888620764920242_" x="58.662" y="836.997" fill="#EAEAEA" stroke="#EAEAEA" stroke-width="1.057" stroke-linecap="round" stroke-linejoin="round" stroke-miterlimit="10" width="74.158" height="1637.982"/>
			
				<polygon id="inaccessible_00000147921741974418163680000009338458998191669145_" fill="#EAEAEA" stroke="#EAEAEA" stroke-width="1.057" stroke-linecap="round" stroke-linejoin="round" stroke-miterlimit="10" points="
				421.796,940.246 518.215,939.5 518.215,2474.132 442.893,2474.132 442.893,968.854 421.796,969.067 			"/>
			
				<rect id="inaccessible_00000104670971056646727170000005114606526740956079_" x="372.185" y="1734.79" fill="#EAEAEA" stroke="#EAEAEA" stroke-width="1.057" stroke-linecap="round" stroke-linejoin="round" stroke-miterlimit="10" width="71.261" height="633.371"/>
			
				<rect id="inaccessible_00000134971833599641850420000005658684066665557935_" x="370.878" y="1347.962" fill="#EAEAEA" stroke="#EAEAEA" stroke-width="0.8178" stroke-linecap="round" stroke-linejoin="round" stroke-miterlimit="10" width="73.427" height="400.478"/>
			
				<rect id="inaccessible_00000078013984658560713060000013873676792553271441_" x="58.694" y="1347.962" fill="#EAEAEA" stroke="#EAEAEA" stroke-width="0.7044" stroke-linecap="round" stroke-linejoin="round" stroke-miterlimit="10" width="145.837" height="212.556"/>
			
				<rect id="inaccessible_00000093897982462040804940000008381302642597835677_" x="465.505" y="2466.018" fill="#EAEAEA" stroke="#EAEAEA" stroke-width="1.057" stroke-linecap="round" stroke-linejoin="round" stroke-miterlimit="10" width="52.71" height="64.134"/>
			
				<path id="inaccessible_00000105400513002797307720000001511983441050583194_" fill="#EAEAEA" stroke="#EAEAEA" stroke-width="1.057" stroke-linecap="round" stroke-linejoin="round" stroke-miterlimit="10" d="
				M269.303,1723.778v42.834l-137.092,0.012v-71.957h73.235v29.11C205.445,1723.778,269.303,1723.211,269.303,1723.778z"/>
			
				<path id="inaccessible_00000071555951424616925220000004500531637569725072_" fill="#E9E9E9" stroke="#E9E9E9" stroke-width="1.057" stroke-linecap="round" stroke-linejoin="round" stroke-miterlimit="10" d="
				M516.763,3233.379v-433.412l-77.103-0.254v-20.987h-68.258v20.762l-168.073-0.554v-20.932h-67.353v20.71l-77.999-0.257
				l-0.059,193.855l1.211,240.841c-1.453,52.708,38.855,75.931,38.855,75.931c40.338,45.084,190.421,36.186,190.421,36.186
				s153.345,8.305,194.728-38.193h0C504.493,3288.544,516.831,3281.831,516.763,3233.379z"/>
			
				<rect id="inaccessible_00000098914470958117597550000016290542661132740239_" x="276.405" y="1346.35" fill="#E9E9E9" stroke="#E9E9E9" stroke-width="1.02" stroke-linecap="round" stroke-linejoin="round" stroke-miterlimit="10" width="23.659" height="42.345"/>
			
				<rect id="inaccessible_00000010312117406520510610000015163894866622103193_" x="372.749" y="2475.27" fill="#EAEAEA" stroke="#EAEAEA" stroke-width="1.057" stroke-linecap="round" stroke-linejoin="round" stroke-miterlimit="10" width="30.118" height="35.568"/>
			
				<rect id="inaccessible_00000127001823639359762450000010069400182490806158_" x="174.35" y="2475.27" fill="#EAEAEA" stroke="#EAEAEA" stroke-width="1.057" stroke-linecap="round" stroke-linejoin="round" stroke-miterlimit="10" width="30.118" height="35.568"/>
			
				<rect id="inaccessible_00000040564410760298032230000003598614021497468337_" x="305.471" y="1727.802" fill="#EAEAEA" stroke="#EAEAEA" stroke-width="1.057" stroke-linecap="round" stroke-linejoin="round" stroke-miterlimit="10" width="66.757" height="37.79"/>
			
				<rect x="133.82" y="968.791" fill="#E9E9E9" stroke="#E9E9E9" stroke-width="1.3769" stroke-linecap="round" stroke-linejoin="round" stroke-miterlimit="10" width="67.873" height="276.815"/>
			
				<rect x="372.489" y="968.791" fill="#E9E9E9" stroke="#E9E9E9" stroke-width="1.4011" stroke-linecap="round" stroke-linejoin="round" stroke-miterlimit="10" width="70.284" height="276.815"/>
		</g>
		<g id="elevator">
			<g id="escalator_down_00000180333395705402540930000002071794788962088376_">
				
					<line fill="none" stroke="#DFDFDF" stroke-width="1.0575" stroke-linecap="round" stroke-miterlimit="10" x1="218.195" y1="2139.589" x2="237.503" y2="2222.193"/>
				
					<line fill="none" stroke="#DFDFDF" stroke-width="1.0575" stroke-linecap="round" stroke-miterlimit="10" x1="232.186" y1="2136.615" x2="251.271" y2="2218.705"/>
				
					<line fill="none" stroke="#DFDFDF" stroke-width="1.0575" stroke-linecap="round" stroke-miterlimit="10" x1="219.914" y1="2146.366" x2="233.748" y2="2143.161"/>
				
					<line fill="none" stroke="#DFDFDF" stroke-width="1.0575" stroke-linecap="round" stroke-miterlimit="10" x1="220.986" y1="2150.995" x2="234.82" y2="2147.79"/>
				
					<line fill="none" stroke="#DFDFDF" stroke-width="1.0575" stroke-linecap="round" stroke-miterlimit="10" x1="222.059" y1="2155.624" x2="235.892" y2="2152.419"/>
				
					<line fill="none" stroke="#DFDFDF" stroke-width="1.0575" stroke-linecap="round" stroke-miterlimit="10" x1="223.131" y1="2160.252" x2="236.965" y2="2157.047"/>
				
					<line fill="none" stroke="#DFDFDF" stroke-width="1.0575" stroke-linecap="round" stroke-miterlimit="10" x1="224.203" y1="2164.881" x2="238.037" y2="2161.676"/>
				
					<line fill="none" stroke="#DFDFDF" stroke-width="1.0575" stroke-linecap="round" stroke-miterlimit="10" x1="225.276" y1="2169.51" x2="239.109" y2="2166.305"/>
				
					<line fill="none" stroke="#DFDFDF" stroke-width="1.0575" stroke-linecap="round" stroke-miterlimit="10" x1="226.348" y1="2174.138" x2="240.182" y2="2170.933"/>
				
					<line fill="none" stroke="#DFDFDF" stroke-width="1.0575" stroke-linecap="round" stroke-miterlimit="10" x1="227.42" y1="2178.767" x2="241.254" y2="2175.562"/>
				
					<line fill="none" stroke="#DFDFDF" stroke-width="1.0575" stroke-linecap="round" stroke-miterlimit="10" x1="228.493" y1="2183.396" x2="242.326" y2="2180.191"/>
				
					<line fill="none" stroke="#DFDFDF" stroke-width="1.0575" stroke-linecap="round" stroke-miterlimit="10" x1="229.565" y1="2188.024" x2="243.399" y2="2184.819"/>
				
					<line fill="none" stroke="#DFDFDF" stroke-width="1.0575" stroke-linecap="round" stroke-miterlimit="10" x1="230.637" y1="2192.653" x2="244.471" y2="2189.448"/>
				
					<line fill="none" stroke="#DFDFDF" stroke-width="1.0575" stroke-linecap="round" stroke-miterlimit="10" x1="231.709" y1="2197.281" x2="245.543" y2="2194.076"/>
				
					<line fill="none" stroke="#DFDFDF" stroke-width="1.0575" stroke-linecap="round" stroke-miterlimit="10" x1="232.782" y1="2201.91" x2="246.616" y2="2198.705"/>
				
					<line fill="none" stroke="#DFDFDF" stroke-width="1.0575" stroke-linecap="round" stroke-miterlimit="10" x1="233.854" y1="2206.539" x2="247.688" y2="2203.334"/>
				
					<line fill="none" stroke="#DFDFDF" stroke-width="1.0575" stroke-linecap="round" stroke-miterlimit="10" x1="234.926" y1="2211.167" x2="248.76" y2="2207.962"/>
				
					<line fill="none" stroke="#DFDFDF" stroke-width="1.0575" stroke-linecap="round" stroke-miterlimit="10" x1="358.81" y1="2139.589" x2="339.527" y2="2222.193"/>
				
					<line fill="none" stroke="#DFDFDF" stroke-width="1.0575" stroke-linecap="round" stroke-miterlimit="10" x1="344.643" y1="2136.615" x2="325.759" y2="2218.705"/>
				
					<line fill="none" stroke="#DFDFDF" stroke-width="1.0575" stroke-linecap="round" stroke-miterlimit="10" x1="357.116" y1="2146.366" x2="343.282" y2="2143.161"/>
				
					<line fill="none" stroke="#DFDFDF" stroke-width="1.0575" stroke-linecap="round" stroke-miterlimit="10" x1="356.043" y1="2150.995" x2="342.21" y2="2147.79"/>
				
					<line fill="none" stroke="#DFDFDF" stroke-width="1.0575" stroke-linecap="round" stroke-miterlimit="10" x1="354.971" y1="2155.624" x2="341.137" y2="2152.419"/>
				
					<line fill="none" stroke="#DFDFDF" stroke-width="1.0575" stroke-linecap="round" stroke-miterlimit="10" x1="353.899" y1="2160.252" x2="340.065" y2="2157.047"/>
				
					<line fill="none" stroke="#DFDFDF" stroke-width="1.0575" stroke-linecap="round" stroke-miterlimit="10" x1="352.826" y1="2164.881" x2="338.993" y2="2161.676"/>
				
					<line fill="none" stroke="#DFDFDF" stroke-width="1.0575" stroke-linecap="round" stroke-miterlimit="10" x1="351.754" y1="2169.51" x2="337.92" y2="2166.305"/>
				
					<line fill="none" stroke="#DFDFDF" stroke-width="1.0575" stroke-linecap="round" stroke-miterlimit="10" x1="350.682" y1="2174.138" x2="336.848" y2="2170.933"/>
				
					<line fill="none" stroke="#DFDFDF" stroke-width="1.0575" stroke-linecap="round" stroke-miterlimit="10" x1="349.609" y1="2178.767" x2="335.776" y2="2175.562"/>
				
					<line fill="none" stroke="#DFDFDF" stroke-width="1.0575" stroke-linecap="round" stroke-miterlimit="10" x1="348.537" y1="2183.396" x2="334.703" y2="2180.191"/>
				
					<line fill="none" stroke="#DFDFDF" stroke-width="1.0575" stroke-linecap="round" stroke-miterlimit="10" x1="347.465" y1="2188.024" x2="333.631" y2="2184.819"/>
				
					<line fill="none" stroke="#DFDFDF" stroke-width="1.0575" stroke-linecap="round" stroke-miterlimit="10" x1="346.393" y1="2192.653" x2="332.559" y2="2189.448"/>
				
					<line fill="none" stroke="#DFDFDF" stroke-width="1.0575" stroke-linecap="round" stroke-miterlimit="10" x1="345.32" y1="2197.281" x2="331.486" y2="2194.076"/>
				
					<line fill="none" stroke="#DFDFDF" stroke-width="1.0575" stroke-linecap="round" stroke-miterlimit="10" x1="344.248" y1="2201.91" x2="330.414" y2="2198.705"/>
				
					<line fill="none" stroke="#DFDFDF" stroke-width="1.0575" stroke-linecap="round" stroke-miterlimit="10" x1="343.176" y1="2206.539" x2="329.342" y2="2203.334"/>
				
					<line fill="none" stroke="#DFDFDF" stroke-width="1.0575" stroke-linecap="round" stroke-miterlimit="10" x1="342.103" y1="2211.167" x2="328.27" y2="2207.962"/>
				
					<polyline fill="none" stroke="#DFDFDF" stroke-width="1.0575" stroke-linecap="round" stroke-linejoin="round" stroke-miterlimit="10" points="
					236.373,2217.324 234.264,2217.858 217.915,2147.289 220.181,2146.65 				"/>
				
					<polyline fill="none" stroke="#DFDFDF" stroke-width="1.0575" stroke-linecap="round" stroke-linejoin="round" stroke-miterlimit="10" points="
					340.651,2217.286 342.91,2217.858 359.259,2147.289 356.778,2146.65 				"/>
			</g>
			<g id="elevator_00000094610938252177207520000012940203881494813318_">
				<g id="elevator-box_00000076576002788491226500000005737562654389288636_">
					<rect x="208.076" y="1234.391" fill="#9FAEBF" width="29.834" height="22.429"/>
					<rect x="208.076" y="1258.466" fill="#9FAEBF" width="29.834" height="22.429"/>
					<rect x="208.076" y="1282.54" fill="#9FAEBF" width="29.834" height="22.429"/>
					<rect x="208.076" y="1186.242" fill="#9FAEBF" width="29.834" height="22.429"/>
					<rect x="208.076" y="1210.316" fill="#9FAEBF" width="29.834" height="22.429"/>
					<rect x="338.042" y="1234.391" fill="#9FAEBF" width="29.834" height="22.429"/>
					<rect x="338.042" y="1258.466" fill="#9FAEBF" width="29.834" height="22.429"/>
					<rect x="338.042" y="1282.54" fill="#9FAEBF" width="29.834" height="22.429"/>
					<rect x="338.042" y="1186.242" fill="#9FAEBF" width="29.834" height="22.429"/>
					<rect x="338.042" y="1210.316" fill="#9FAEBF" width="29.834" height="22.429"/>
					<rect x="251.435" y="1346.185" fill="#9FAEBF" width="25.078" height="24.015"/>
					<rect x="300.204" y="1346.185" fill="#9FAEBF" width="25.078" height="24.015"/>
				</g>
				<g id="elevator-icon_00000098934973144753467630000016834025826490108329_">
					<polygon fill="#FFFFFF" points="226.761,1246.024 220.258,1246.024 220.258,1251.515 227.587,1251.515 227.587,1253.191 
						218.09,1253.191 218.09,1238.021 227.174,1238.021 227.174,1239.696 220.258,1239.696 220.258,1244.535 226.761,1244.535 
						226.761,1246.024 					"/>
					<polygon fill="#FFFFFF" points="226.761,1268.517 220.258,1268.517 220.258,1263.771 227.174,1263.771 227.174,1262.095 
						218.09,1262.095 218.09,1277.265 227.587,1277.265 227.587,1275.59 220.258,1275.59 220.258,1270.099 226.761,1270.099 
						226.761,1268.517 					"/>
					<polygon fill="#FFFFFF" points="226.761,1292.592 220.258,1292.592 220.258,1287.845 227.174,1287.845 227.174,1286.17 
						218.09,1286.17 218.09,1301.34 227.587,1301.34 227.587,1299.665 220.258,1299.665 220.258,1294.174 226.761,1294.174 
						226.761,1292.592 					"/>
					<polygon fill="#FFFFFF" points="226.761,1197.875 220.258,1197.875 220.258,1203.366 227.587,1203.366 227.587,1205.041 
						218.09,1205.041 218.09,1189.871 227.174,1189.871 227.174,1191.546 220.258,1191.546 220.258,1196.386 226.761,1196.386 
						226.761,1197.875 					"/>
					<polygon fill="#FFFFFF" points="226.761,1220.368 220.258,1220.368 220.258,1215.621 227.174,1215.621 227.174,1213.946 
						218.09,1213.946 218.09,1229.116 227.587,1229.116 227.587,1227.441 220.258,1227.441 220.258,1221.95 226.761,1221.95 
						226.761,1220.368 					"/>
					<polygon fill="#FFFFFF" points="356.934,1244.535 350.43,1244.535 350.43,1239.696 357.347,1239.696 357.347,1238.021 
						348.262,1238.021 348.262,1253.191 357.76,1253.191 357.76,1251.515 350.43,1251.515 350.43,1246.024 356.934,1246.024 
						356.934,1244.535 					"/>
					<polygon fill="#FFFFFF" points="356.934,1268.517 350.43,1268.517 350.43,1263.771 357.347,1263.771 357.347,1262.095 
						348.262,1262.095 348.262,1277.265 357.76,1277.265 357.76,1275.59 350.43,1275.59 350.43,1270.099 356.934,1270.099 
						356.934,1268.517 					"/>
					<polygon fill="#FFFFFF" points="356.934,1292.592 350.43,1292.592 350.43,1287.845 357.347,1287.845 357.347,1286.17 
						348.262,1286.17 348.262,1301.34 357.76,1301.34 357.76,1299.665 350.43,1299.665 350.43,1294.174 356.934,1294.174 
						356.934,1292.592 					"/>
					<polygon fill="#FFFFFF" points="356.934,1196.386 350.43,1196.386 350.43,1191.546 357.347,1191.546 357.347,1189.871 
						348.262,1189.871 348.262,1205.041 357.76,1205.041 357.76,1203.366 350.43,1203.366 350.43,1197.875 356.934,1197.875 
						356.934,1196.386 					"/>
					<polygon fill="#FFFFFF" points="356.934,1220.368 350.43,1220.368 350.43,1215.621 357.347,1215.621 357.347,1213.946 
						348.262,1213.946 348.262,1229.116 357.76,1229.116 357.76,1227.441 350.43,1227.441 350.43,1221.95 356.934,1221.95 
						356.934,1220.368 					"/>
					<polygon fill="#FFFFFF" points="267.897,1357.029 261.394,1357.029 261.394,1352.282 268.31,1352.282 268.31,1350.607 
						259.226,1350.607 259.226,1365.777 268.723,1365.777 268.723,1364.102 261.393,1364.102 261.393,1358.611 267.897,1358.611 
						267.897,1357.029 					"/>
					<polygon fill="#FFFFFF" points="316.666,1357.029 310.162,1357.029 310.162,1352.282 317.079,1352.282 317.079,1350.607 
						307.994,1350.607 307.994,1365.777 317.491,1365.777 317.491,1364.102 310.162,1364.102 310.162,1358.611 316.666,1358.611 
						316.666,1357.029 					"/>
				</g>
			</g>
		</g>
		<g id="escalator_up_00000139992891647120081250000017798220855843289279_">
			
				<path fill="none" stroke="#DEDEDE" stroke-width="1.0575" stroke-linecap="round" stroke-linejoin="round" stroke-miterlimit="10" d="
				M301.54,1245.503h1.247c1.038,0,1.88,0.842,1.88,1.88v37.232c0,1.038-0.842,1.88-1.88,1.88h-29.975
				c-1.038,0-1.88-0.842-1.88-1.88v-37.232c0-1.038,0.842-1.88,1.88-1.88h1.479"/>
			
				<line fill="none" stroke="#DEDEDE" stroke-width="1.0575" stroke-linecap="round" stroke-linejoin="round" stroke-miterlimit="10" x1="286.996" y1="1245.503" x2="288.835" y2="1245.503"/>
			
				<line fill="none" stroke="#DEDEDE" stroke-width="1.0575" stroke-linecap="round" stroke-miterlimit="10" x1="274.29" y1="1238.903" x2="274.29" y2="1286.495"/>
			
				<line fill="none" stroke="#DEDEDE" stroke-width="1.0575" stroke-linecap="round" stroke-miterlimit="10" x1="286.996" y1="1238.903" x2="286.996" y2="1286.495"/>
			
				<line fill="none" stroke="#DEDEDE" stroke-width="1.0575" stroke-linecap="round" stroke-miterlimit="10" x1="274.29" y1="1260.036" x2="286.996" y2="1260.036"/>
			
				<line fill="none" stroke="#DEDEDE" stroke-width="1.0575" stroke-linecap="round" stroke-miterlimit="10" x1="274.29" y1="1264.665" x2="286.996" y2="1264.665"/>
			
				<line fill="none" stroke="#DEDEDE" stroke-width="1.0575" stroke-linecap="round" stroke-miterlimit="10" x1="274.29" y1="1269.293" x2="286.996" y2="1269.293"/>
			
				<line fill="none" stroke="#DEDEDE" stroke-width="1.0575" stroke-linecap="round" stroke-miterlimit="10" x1="274.29" y1="1273.922" x2="286.996" y2="1273.922"/>
			
				<line fill="none" stroke="#DEDEDE" stroke-width="1.0575" stroke-linecap="round" stroke-miterlimit="10" x1="274.29" y1="1278.55" x2="286.996" y2="1278.55"/>
			
				<line fill="none" stroke="#DEDEDE" stroke-width="1.0575" stroke-linecap="round" stroke-miterlimit="10" x1="274.29" y1="1283.179" x2="286.996" y2="1283.179"/>
			
				<line fill="none" stroke="#DEDEDE" stroke-width="1.0575" stroke-linecap="round" stroke-miterlimit="10" x1="288.835" y1="1238.903" x2="288.835" y2="1286.495"/>
			
				<line fill="none" stroke="#DEDEDE" stroke-width="1.0575" stroke-linecap="round" stroke-miterlimit="10" x1="301.54" y1="1238.903" x2="301.54" y2="1286.495"/>
			
				<line fill="none" stroke="#DEDEDE" stroke-width="1.0575" stroke-linecap="round" stroke-miterlimit="10" x1="288.835" y1="1260.036" x2="301.54" y2="1260.036"/>
			
				<line fill="none" stroke="#DEDEDE" stroke-width="1.0575" stroke-linecap="round" stroke-miterlimit="10" x1="288.835" y1="1264.665" x2="301.54" y2="1264.665"/>
			
				<line fill="none" stroke="#DEDEDE" stroke-width="1.0575" stroke-linecap="round" stroke-miterlimit="10" x1="274.29" y1="1255.407" x2="286.996" y2="1255.407"/>
			
				<line fill="none" stroke="#DEDEDE" stroke-width="1.0575" stroke-linecap="round" stroke-miterlimit="10" x1="288.835" y1="1255.407" x2="301.54" y2="1255.407"/>
			
				<line fill="none" stroke="#DEDEDE" stroke-width="1.0575" stroke-linecap="round" stroke-miterlimit="10" x1="274.29" y1="1250.777" x2="286.996" y2="1250.777"/>
			
				<line fill="none" stroke="#DEDEDE" stroke-width="1.0575" stroke-linecap="round" stroke-miterlimit="10" x1="288.835" y1="1250.777" x2="301.54" y2="1250.777"/>
			
				<line fill="none" stroke="#DEDEDE" stroke-width="1.0575" stroke-linecap="round" stroke-miterlimit="10" x1="288.835" y1="1269.293" x2="301.54" y2="1269.293"/>
			
				<line fill="none" stroke="#DEDEDE" stroke-width="1.0575" stroke-linecap="round" stroke-miterlimit="10" x1="288.835" y1="1273.922" x2="301.54" y2="1273.922"/>
			
				<line fill="none" stroke="#DEDEDE" stroke-width="1.0575" stroke-linecap="round" stroke-miterlimit="10" x1="288.835" y1="1278.55" x2="301.54" y2="1278.55"/>
			
				<line fill="none" stroke="#DEDEDE" stroke-width="1.0575" stroke-linecap="round" stroke-miterlimit="10" x1="288.835" y1="1283.179" x2="301.54" y2="1283.179"/>
		</g>
		<g id="escalator_up_00000076590393568832776280000006180463274863614389_">
			
				<path fill="none" stroke="#DEDEDE" stroke-width="1.0575" stroke-linecap="round" stroke-linejoin="round" stroke-miterlimit="10" d="
				M301.54,1114.113h1.247c1.038,0,1.88,0.842,1.88,1.88v37.232c0,1.038-0.842,1.88-1.88,1.88h-29.975
				c-1.038,0-1.88-0.842-1.88-1.88v-37.232c0-1.038,0.842-1.88,1.88-1.88h1.479"/>
			
				<line fill="none" stroke="#DEDEDE" stroke-width="1.0575" stroke-linecap="round" stroke-linejoin="round" stroke-miterlimit="10" x1="286.996" y1="1114.113" x2="288.835" y2="1114.113"/>
			
				<line fill="none" stroke="#DEDEDE" stroke-width="1.0575" stroke-linecap="round" stroke-miterlimit="10" x1="274.29" y1="1107.513" x2="274.29" y2="1155.105"/>
			
				<line fill="none" stroke="#DEDEDE" stroke-width="1.0575" stroke-linecap="round" stroke-miterlimit="10" x1="286.996" y1="1107.513" x2="286.996" y2="1155.105"/>
			
				<line fill="none" stroke="#DEDEDE" stroke-width="1.0575" stroke-linecap="round" stroke-miterlimit="10" x1="274.29" y1="1128.646" x2="286.996" y2="1128.646"/>
			
				<line fill="none" stroke="#DEDEDE" stroke-width="1.0575" stroke-linecap="round" stroke-miterlimit="10" x1="274.29" y1="1133.274" x2="286.996" y2="1133.274"/>
			
				<line fill="none" stroke="#DEDEDE" stroke-width="1.0575" stroke-linecap="round" stroke-miterlimit="10" x1="274.29" y1="1137.903" x2="286.996" y2="1137.903"/>
			
				<line fill="none" stroke="#DEDEDE" stroke-width="1.0575" stroke-linecap="round" stroke-miterlimit="10" x1="274.29" y1="1142.531" x2="286.996" y2="1142.531"/>
			
				<line fill="none" stroke="#DEDEDE" stroke-width="1.0575" stroke-linecap="round" stroke-miterlimit="10" x1="274.29" y1="1147.16" x2="286.996" y2="1147.16"/>
			
				<line fill="none" stroke="#DEDEDE" stroke-width="1.0575" stroke-linecap="round" stroke-miterlimit="10" x1="274.29" y1="1151.789" x2="286.996" y2="1151.789"/>
			
				<line fill="none" stroke="#DEDEDE" stroke-width="1.0575" stroke-linecap="round" stroke-miterlimit="10" x1="288.835" y1="1107.513" x2="288.835" y2="1155.105"/>
			
				<line fill="none" stroke="#DEDEDE" stroke-width="1.0575" stroke-linecap="round" stroke-miterlimit="10" x1="301.54" y1="1107.513" x2="301.54" y2="1155.105"/>
			
				<line fill="none" stroke="#DEDEDE" stroke-width="1.0575" stroke-linecap="round" stroke-miterlimit="10" x1="288.835" y1="1128.646" x2="301.54" y2="1128.646"/>
			
				<line fill="none" stroke="#DEDEDE" stroke-width="1.0575" stroke-linecap="round" stroke-miterlimit="10" x1="288.835" y1="1133.274" x2="301.54" y2="1133.274"/>
			
				<line fill="none" stroke="#DEDEDE" stroke-width="1.0575" stroke-linecap="round" stroke-miterlimit="10" x1="274.29" y1="1124.017" x2="286.996" y2="1124.017"/>
			
				<line fill="none" stroke="#DEDEDE" stroke-width="1.0575" stroke-linecap="round" stroke-miterlimit="10" x1="288.835" y1="1124.017" x2="301.54" y2="1124.017"/>
			
				<line fill="none" stroke="#DEDEDE" stroke-width="1.0575" stroke-linecap="round" stroke-miterlimit="10" x1="274.29" y1="1119.387" x2="286.996" y2="1119.387"/>
			
				<line fill="none" stroke="#DEDEDE" stroke-width="1.0575" stroke-linecap="round" stroke-miterlimit="10" x1="288.835" y1="1119.387" x2="301.54" y2="1119.387"/>
			
				<line fill="none" stroke="#DEDEDE" stroke-width="1.0575" stroke-linecap="round" stroke-miterlimit="10" x1="288.835" y1="1137.903" x2="301.54" y2="1137.903"/>
			
				<line fill="none" stroke="#DEDEDE" stroke-width="1.0575" stroke-linecap="round" stroke-miterlimit="10" x1="288.835" y1="1142.531" x2="301.54" y2="1142.531"/>
			
				<line fill="none" stroke="#DEDEDE" stroke-width="1.0575" stroke-linecap="round" stroke-miterlimit="10" x1="288.835" y1="1147.16" x2="301.54" y2="1147.16"/>
			
				<line fill="none" stroke="#DEDEDE" stroke-width="1.0575" stroke-linecap="round" stroke-miterlimit="10" x1="288.835" y1="1151.789" x2="301.54" y2="1151.789"/>
		</g>
		<g id="escalator_up_00000085247378593078177950000008082908447425963398_">
			
				<path fill="none" stroke="#DEDEDE" stroke-width="1.0575" stroke-linecap="round" stroke-linejoin="round" stroke-miterlimit="10" d="
				M301.54,2324.496h1.247c1.038,0,1.88,0.842,1.88,1.88v37.232c0,1.038-0.842,1.88-1.88,1.88h-29.975
				c-1.038,0-1.88-0.842-1.88-1.88v-37.232c0-1.038,0.842-1.88,1.88-1.88h1.479"/>
			
				<line fill="none" stroke="#DEDEDE" stroke-width="1.0575" stroke-linecap="round" stroke-linejoin="round" stroke-miterlimit="10" x1="286.996" y1="2324.496" x2="288.835" y2="2324.496"/>
			
				<line fill="none" stroke="#DEDEDE" stroke-width="1.0575" stroke-linecap="round" stroke-miterlimit="10" x1="274.29" y1="2317.896" x2="274.29" y2="2365.489"/>
			
				<line fill="none" stroke="#DEDEDE" stroke-width="1.0575" stroke-linecap="round" stroke-miterlimit="10" x1="286.996" y1="2317.896" x2="286.996" y2="2365.489"/>
			
				<line fill="none" stroke="#DEDEDE" stroke-width="1.0575" stroke-linecap="round" stroke-miterlimit="10" x1="274.29" y1="2339.029" x2="286.996" y2="2339.029"/>
			
				<line fill="none" stroke="#DEDEDE" stroke-width="1.0575" stroke-linecap="round" stroke-miterlimit="10" x1="274.29" y1="2343.657" x2="286.996" y2="2343.657"/>
			
				<line fill="none" stroke="#DEDEDE" stroke-width="1.0575" stroke-linecap="round" stroke-miterlimit="10" x1="274.29" y1="2348.286" x2="286.996" y2="2348.286"/>
			
				<line fill="none" stroke="#DEDEDE" stroke-width="1.0575" stroke-linecap="round" stroke-miterlimit="10" x1="274.29" y1="2352.915" x2="286.996" y2="2352.915"/>
			
				<line fill="none" stroke="#DEDEDE" stroke-width="1.0575" stroke-linecap="round" stroke-miterlimit="10" x1="274.29" y1="2357.543" x2="286.996" y2="2357.543"/>
			
				<line fill="none" stroke="#DEDEDE" stroke-width="1.0575" stroke-linecap="round" stroke-miterlimit="10" x1="274.29" y1="2362.172" x2="286.996" y2="2362.172"/>
			
				<line fill="none" stroke="#DEDEDE" stroke-width="1.0575" stroke-linecap="round" stroke-miterlimit="10" x1="288.835" y1="2317.896" x2="288.835" y2="2365.489"/>
			
				<line fill="none" stroke="#DEDEDE" stroke-width="1.0575" stroke-linecap="round" stroke-miterlimit="10" x1="301.54" y1="2317.896" x2="301.54" y2="2365.489"/>
			
				<line fill="none" stroke="#DEDEDE" stroke-width="1.0575" stroke-linecap="round" stroke-miterlimit="10" x1="288.835" y1="2339.029" x2="301.54" y2="2339.029"/>
			
				<line fill="none" stroke="#DEDEDE" stroke-width="1.0575" stroke-linecap="round" stroke-miterlimit="10" x1="288.835" y1="2343.657" x2="301.54" y2="2343.657"/>
			
				<line fill="none" stroke="#DEDEDE" stroke-width="1.0575" stroke-linecap="round" stroke-miterlimit="10" x1="274.29" y1="2334.4" x2="286.996" y2="2334.4"/>
			
				<line fill="none" stroke="#DEDEDE" stroke-width="1.0575" stroke-linecap="round" stroke-miterlimit="10" x1="288.835" y1="2334.4" x2="301.54" y2="2334.4"/>
			
				<line fill="none" stroke="#DEDEDE" stroke-width="1.0575" stroke-linecap="round" stroke-miterlimit="10" x1="274.29" y1="2329.77" x2="286.996" y2="2329.77"/>
			
				<line fill="none" stroke="#DEDEDE" stroke-width="1.0575" stroke-linecap="round" stroke-miterlimit="10" x1="288.835" y1="2329.77" x2="301.54" y2="2329.77"/>
			
				<line fill="none" stroke="#DEDEDE" stroke-width="1.0575" stroke-linecap="round" stroke-miterlimit="10" x1="288.835" y1="2348.286" x2="301.54" y2="2348.286"/>
			
				<line fill="none" stroke="#DEDEDE" stroke-width="1.0575" stroke-linecap="round" stroke-miterlimit="10" x1="288.835" y1="2352.915" x2="301.54" y2="2352.915"/>
			
				<line fill="none" stroke="#DEDEDE" stroke-width="1.0575" stroke-linecap="round" stroke-miterlimit="10" x1="288.835" y1="2357.543" x2="301.54" y2="2357.543"/>
			
				<line fill="none" stroke="#DEDEDE" stroke-width="1.0575" stroke-linecap="round" stroke-miterlimit="10" x1="288.835" y1="2362.172" x2="301.54" y2="2362.172"/>
		</g>
		<g id="elevator_00000146496298371577975730000001525962535252100756_">
			<g id="elevator-box_00000134222997572216117970000018331796695121397917_">
				<rect x="208.076" y="2320.913" fill="#9FAEBF" width="29.834" height="22.429"/>
				<rect x="208.076" y="2344.988" fill="#9FAEBF" width="29.834" height="22.429"/>
				<rect x="208.076" y="2369.063" fill="#9FAEBF" width="29.834" height="22.429"/>
				<rect x="208.076" y="2272.764" fill="#9FAEBF" width="29.834" height="22.429"/>
				<rect x="208.076" y="2296.839" fill="#9FAEBF" width="29.834" height="22.429"/>
				<rect x="338.042" y="2320.913" fill="#9FAEBF" width="29.834" height="22.429"/>
				<rect x="338.042" y="2344.988" fill="#9FAEBF" width="29.834" height="22.429"/>
				<rect x="338.042" y="2369.063" fill="#9FAEBF" width="29.834" height="22.429"/>
				<rect x="338.042" y="2272.764" fill="#9FAEBF" width="29.834" height="22.429"/>
				<rect x="338.042" y="2296.839" fill="#9FAEBF" width="29.834" height="22.429"/>
				<rect x="248.412" y="2448.982" fill="#9FAEBF" width="25.078" height="24.015"/>
				<rect x="275.808" y="2448.982" fill="#9FAEBF" width="25.078" height="24.015"/>
				<rect x="303.204" y="2448.982" fill="#9FAEBF" width="25.078" height="24.015"/>
			</g>
			<g id="elevator-icon_00000101083940400132522700000017410209342118602667_">
				<polygon fill="#FFFFFF" points="226.761,2332.547 220.258,2332.547 220.258,2338.038 227.587,2338.038 227.587,2339.713 
					218.09,2339.713 218.09,2324.543 227.174,2324.543 227.174,2326.218 220.258,2326.218 220.258,2331.058 226.761,2331.058 
					226.761,2332.547 				"/>
				<polygon fill="#FFFFFF" points="226.761,2355.039 220.258,2355.039 220.258,2350.293 227.174,2350.293 227.174,2348.618 
					218.09,2348.618 218.09,2363.788 227.587,2363.788 227.587,2362.113 220.258,2362.113 220.258,2356.621 226.761,2356.621 
					226.761,2355.039 				"/>
				<polygon fill="#FFFFFF" points="226.761,2379.114 220.258,2379.114 220.258,2374.368 227.174,2374.368 227.174,2372.692 
					218.09,2372.692 218.09,2387.862 227.587,2387.862 227.587,2386.187 220.258,2386.187 220.258,2380.696 226.761,2380.696 
					226.761,2379.114 				"/>
				<polygon fill="#FFFFFF" points="226.761,2284.397 220.258,2284.397 220.258,2289.888 227.587,2289.888 227.587,2291.564 
					218.09,2291.564 218.09,2276.394 227.174,2276.394 227.174,2278.069 220.258,2278.069 220.258,2282.908 226.761,2282.908 
					226.761,2284.397 				"/>
				<polygon fill="#FFFFFF" points="226.761,2306.89 220.258,2306.89 220.258,2302.144 227.174,2302.144 227.174,2300.468 
					218.09,2300.468 218.09,2315.638 227.587,2315.638 227.587,2313.963 220.258,2313.963 220.258,2308.472 226.761,2308.472 
					226.761,2306.89 				"/>
				<polygon fill="#FFFFFF" points="356.934,2331.058 350.43,2331.058 350.43,2326.218 357.347,2326.218 357.347,2324.543 
					348.262,2324.543 348.262,2339.713 357.76,2339.713 357.76,2338.038 350.43,2338.038 350.43,2332.547 356.934,2332.547 
					356.934,2331.058 				"/>
				<polygon fill="#FFFFFF" points="356.934,2355.039 350.43,2355.039 350.43,2350.293 357.347,2350.293 357.347,2348.618 
					348.262,2348.618 348.262,2363.788 357.76,2363.788 357.76,2362.113 350.43,2362.113 350.43,2356.621 356.934,2356.621 
					356.934,2355.039 				"/>
				<polygon fill="#FFFFFF" points="356.934,2379.114 350.43,2379.114 350.43,2374.368 357.347,2374.368 357.347,2372.692 
					348.262,2372.692 348.262,2387.862 357.76,2387.862 357.76,2386.187 350.43,2386.187 350.43,2380.696 356.934,2380.696 
					356.934,2379.114 				"/>
				<polygon fill="#FFFFFF" points="356.934,2282.908 350.43,2282.908 350.43,2278.069 357.347,2278.069 357.347,2276.394 
					348.262,2276.394 348.262,2291.564 357.76,2291.564 357.76,2289.888 350.43,2289.888 350.43,2284.397 356.934,2284.397 
					356.934,2282.908 				"/>
				<polygon fill="#FFFFFF" points="356.934,2306.89 350.43,2306.89 350.43,2302.144 357.347,2302.144 357.347,2300.468 
					348.262,2300.468 348.262,2315.638 357.76,2315.638 357.76,2313.963 350.43,2313.963 350.43,2308.472 356.934,2308.472 
					356.934,2306.89 				"/>
				<polygon fill="#FFFFFF" points="264.897,2459.45 258.394,2459.45 258.394,2454.703 265.31,2454.703 265.31,2453.028 
					256.226,2453.028 256.226,2468.198 265.723,2468.198 265.723,2466.523 258.393,2466.523 258.393,2461.032 264.897,2461.032 
					264.897,2459.45 				"/>
				<polygon fill="#FFFFFF" points="291.95,2459.45 285.446,2459.45 285.446,2454.703 292.363,2454.703 292.363,2453.028 
					283.279,2453.028 283.279,2468.198 292.776,2468.198 292.776,2466.523 285.446,2466.523 285.446,2461.032 291.95,2461.032 
					291.95,2459.45 				"/>
				<polygon fill="#FFFFFF" points="319.666,2459.45 313.162,2459.45 313.162,2454.703 320.079,2454.703 320.079,2453.028 
					310.994,2453.028 310.994,2468.198 320.491,2468.198 320.491,2466.523 313.162,2466.523 313.162,2461.032 319.666,2461.032 
					319.666,2459.45 				"/>
			</g>
		</g>
		<g id="stairs">
			
				<path id="stairs_00000078759046723715592540000015707813548214475199_" fill="none" stroke="#DEDEDE" stroke-width="1.057" stroke-linecap="round" stroke-linejoin="round" stroke-miterlimit="10" d="
				M170.282,2408.093h-14.685 M185.824,2408.093h-14.685 M185.824,2405.251h-14.685 M185.824,2388.308h-14.685 M170.405,2416.196
				v-29.362 M170.282,2396.727h-14.685 M170.282,2393.885h-14.685 M170.282,2391.149h-14.685 M170.282,2388.308h-14.685
				 M188.638,2391.149h14.069 M188.638,2393.885h14.069 M188.669,2399.568h13.916 M188.638,2396.727h14.069 M152.783,2391.149
				h-14.685 M152.783,2393.885h-14.685 M152.864,2399.568h-14.644 M152.783,2396.727h-14.685 M170.282,2405.251h-14.685
				 M171.139,2388.308h-0.857 M170.282,2399.568h-14.685 M185.824,2399.568h-14.685 M185.824,2402.41h-14.685 M185.824,2410.934
				h-14.685 M170.282,2410.934h-14.685 M170.282,2402.41h-14.685 M185.824,2391.149h-14.685 M185.824,2396.727h-14.685
				 M185.824,2393.885h-14.685 M188.394,2401.673v-13.997c0-0.526-0.489-1.158-1.224-1.158c-0.734,0-1.224,0.526-1.224,1.158v28.52
				 M153.028,2401.673v-13.997c0-0.632,0.489-1.158,1.101-1.158c0.734,0,1.224,0.631,1.224,1.158v28.52 M203.201,2401.673v-27.468
				c0-0.316-0.245-0.526-0.612-0.526l0,0H138.71c-0.367,0-0.612,0.21-0.612,0.526v27.468"/>
			
				<path id="stairs_00000168084541104968130630000004231647228249493682_" fill="none" stroke="#DEDEDE" stroke-width="1.057" stroke-linecap="round" stroke-linejoin="round" stroke-miterlimit="10" d="
				M406.117,2408.093h-14.685 M421.658,2408.093h-14.685 M421.658,2405.251h-14.685 M421.658,2388.308h-14.685 M406.239,2416.196
				v-29.362 M406.117,2396.727h-14.685 M406.117,2393.885h-14.685 M406.117,2391.149h-14.685 M406.117,2388.308h-14.685
				 M424.473,2391.149h14.069 M424.473,2393.885h14.069 M424.504,2399.568h13.916 M424.473,2396.727h14.069 M388.617,2391.149
				h-14.685 M388.617,2393.885h-14.685 M388.698,2399.568h-14.644 M388.617,2396.727h-14.685 M406.117,2405.251h-14.685
				 M406.973,2388.308h-0.857 M406.117,2399.568h-14.685 M421.658,2399.568h-14.685 M421.658,2402.41h-14.685 M421.658,2410.934
				h-14.685 M406.117,2410.934h-14.685 M406.117,2402.41h-14.685 M421.658,2391.149h-14.685 M421.658,2396.727h-14.685
				 M421.658,2393.885h-14.685 M424.228,2401.673v-13.997c0-0.526-0.49-1.158-1.224-1.158c-0.734,0-1.224,0.526-1.224,1.158v28.52
				 M388.862,2401.673v-13.997c0-0.632,0.49-1.158,1.101-1.158c0.734,0,1.224,0.631,1.224,1.158v28.52 M439.035,2401.673v-27.468
				c0-0.316-0.245-0.526-0.612-0.526l0,0h-63.879c-0.367,0-0.612,0.21-0.612,0.526v27.468"/>
			
				<path id="stairs_00000099633778660938084640000015517587287093535405_" fill="none" stroke="#DEDEDE" stroke-width="1.057" stroke-linecap="round" stroke-linejoin="round" stroke-miterlimit="10" d="
				M170.282,1284.139h-14.685 M185.824,1284.139h-14.685 M185.824,1281.297h-14.685 M185.824,1264.353h-14.685 M170.405,1292.242
				v-29.362 M170.282,1272.772h-14.685 M170.282,1269.931h-14.685 M170.282,1267.195h-14.685 M170.282,1264.353h-14.685
				 M188.638,1267.195h14.069 M188.638,1269.931h14.069 M188.669,1275.614h13.916 M188.638,1272.772h14.069 M152.783,1267.195
				h-14.685 M152.783,1269.931h-14.685 M152.864,1275.614h-14.644 M152.783,1272.772h-14.685 M170.282,1281.297h-14.685
				 M171.139,1264.353h-0.857 M170.282,1275.614h-14.685 M185.824,1275.614h-14.685 M185.824,1278.456h-14.685 M185.824,1286.98
				h-14.685 M170.282,1286.98h-14.685 M170.282,1278.456h-14.685 M185.824,1267.195h-14.685 M185.824,1272.772h-14.685
				 M185.824,1269.931h-14.685 M188.394,1277.719v-13.997c0-0.526-0.489-1.158-1.224-1.158c-0.734,0-1.224,0.526-1.224,1.158v28.52
				 M153.028,1277.719v-13.997c0-0.631,0.489-1.158,1.101-1.158c0.734,0,1.224,0.631,1.224,1.158v28.52 M203.201,1277.719v-27.468
				c0-0.316-0.245-0.526-0.612-0.526l0,0H138.71c-0.367,0-0.612,0.211-0.612,0.526v27.468"/>
			
				<path id="stairs_00000180326997781441565090000000336446809027089854_" fill="none" stroke="#DEDEDE" stroke-width="1.057" stroke-linecap="round" stroke-linejoin="round" stroke-miterlimit="10" d="
				M406.117,1284.139h-14.685 M421.658,1284.139h-14.685 M421.658,1281.297h-14.685 M421.658,1264.353h-14.685 M406.239,1292.242
				v-29.362 M406.117,1272.772h-14.685 M406.117,1269.931h-14.685 M406.117,1267.195h-14.685 M406.117,1264.353h-14.685
				 M424.473,1267.195h14.069 M424.473,1269.931h14.069 M424.504,1275.614h13.916 M424.473,1272.772h14.069 M388.617,1267.195
				h-14.685 M388.617,1269.931h-14.685 M388.698,1275.614h-14.644 M388.617,1272.772h-14.685 M406.117,1281.297h-14.685
				 M406.973,1264.353h-0.857 M406.117,1275.614h-14.685 M421.658,1275.614h-14.685 M421.658,1278.456h-14.685 M421.658,1286.98
				h-14.685 M406.117,1286.98h-14.685 M406.117,1278.456h-14.685 M421.658,1267.195h-14.685 M421.658,1272.772h-14.685
				 M421.658,1269.931h-14.685 M424.228,1277.719v-13.997c0-0.526-0.49-1.158-1.224-1.158c-0.734,0-1.224,0.526-1.224,1.158v28.52
				 M388.862,1277.719v-13.997c0-0.631,0.49-1.158,1.101-1.158c0.734,0,1.224,0.631,1.224,1.158v28.52 M439.035,1277.719v-27.468
				c0-0.316-0.245-0.526-0.612-0.526l0,0h-63.879c-0.367,0-0.612,0.211-0.612,0.526v27.468"/>
			
				<path id="stairs_00000163073541675382176860000008282435413984986044_" fill="none" stroke="#DFDFDF" stroke-width="1.057" stroke-linecap="round" stroke-linejoin="round" stroke-miterlimit="10" d="
				M319.378,1712.299c12.282,11.435,31.482,11.718,31.482,11.718c8.894-0.047,16.983-7.071,16.982-16.664l-0.002-20.714l0.055,2.105
				l-14.984,0.001l-0.123-2.105l0.001,19.168c0,0,0.329,3.668-6.024,2.397c-6.353-1.271-17.929-6.212-18.918-6.918l1.835,0.941
				l-7.2,12.659l3.2,2.071l6.729-13.519l2.353,0.954l-5.741,14.353l3.435,1.412l5.082-14.682l3.012,0.988l-4.565,14.965l4.094,1.082
				l3.482-15.012l3.012,0.706l-1.882,15.2c0,0,10.023,2.447,16.612-2.918c7.906-6.635,6.541-14.823,6.541-14.823l-14.936,0.024
				l0-2.841l14.92-0.001l0-2.841l-14.92,0.001l0-2.842l14.967-0.001l0-2.736l-14.967,0.001l0-2.841l14.937-0.001"/>
		</g>
		<path id="ship-outline" fill="none" stroke="#DEDEDE" stroke-width="4.2279" stroke-miterlimit="10" d="M518.763,3236.845v-77.088
			v-637.263v-586.605v-693.06V775.161c0.734-105.721-38.911-278.986-38.911-278.986
			c-46.253-166.657-121.873-291.467-121.873-291.467c-46.711-91.626-63.707-99.216-67.87-99.356c-0.355-0.079-1.845-0.079-2.2,0
			c-4.163,0.14-21.159,7.73-67.87,99.356c0,0-75.62,124.81-121.873,291.467c0,0-39.645,173.265-38.911,278.986v467.669v693.06
			v586.605v637.263v77.088c0,0,0.607,21.894,4.278,31.438c3.671,9.544,28.76,55.194,98.507,70.612c0,0,68.278,8.076,126.278,8.076
			h1.383c58,0,126.278-8.076,126.278-8.076c69.746-15.418,95.35-59.969,99.021-69.513
			C518.671,3259.838,518.763,3236.845,518.763,3236.845z"/>
	</g>
	<g id="VenueBG">
		
			<polygon fill="none" stroke="#DEDEDE" stroke-width="1.057" stroke-linecap="round" stroke-linejoin="round" stroke-miterlimit="10" points="
			305.394,1882.743 305.394,1766.841 371.011,1766.841 371.011,2122.52 334.83,2122.52 304.781,2097.991 304.781,1937.322 
			316.432,1920.151 316.432,1898.074 		"/>
		
			<polygon fill="none" stroke="#DEDEDE" stroke-width="1.057" stroke-linecap="round" stroke-linejoin="round" stroke-miterlimit="10" points="
			270.439,1882.743 270.439,1766.841 204.823,1766.841 204.823,2122.52 241.004,2122.52 271.053,2097.991 271.053,1937.322 
			259.401,1920.151 259.401,1898.074 		"/>
		
			<polygon fill="none" stroke="#DEDEDE" stroke-width="1.057" stroke-linecap="round" stroke-linejoin="round" stroke-miterlimit="10" points="
			465.39,2530.896 465.39,2475.256 403.108,2475.256 403.063,2510.956 372.625,2510.83 372.577,2475.261 329.567,2475.261 
			329.567,2531.618 247.95,2531.386 247.95,2475.261 204.939,2475.261 204.75,2510.556 173.691,2510.556 173.646,2475.607 
			57.682,2475.607 58.136,2798.343 135.788,2798.343 135.57,2777.287 204.087,2777.287 204.087,2798.645 370.355,2798.645 
			370.355,2777.633 440.527,2777.633 440.667,2799.108 516.508,2799.108 516.601,2530.896 		"/>
		
			<polygon fill="none" stroke="#DEDEDE" stroke-width="1.057" stroke-linecap="round" stroke-linejoin="round" stroke-miterlimit="10" points="
			133.553,703.652 133.664,808.951 152.726,809.229 232.414,852.335 287.985,852.335 287.649,852.335 343.221,852.335 
			422.908,809.229 441.782,809.229 441.788,703.652 		"/>
		
			<path id="luxury_retail" fill="none" stroke="#DEDEDE" stroke-width="1.057" stroke-linecap="round" stroke-linejoin="round" stroke-miterlimit="10" d="
			M271.195,1567.208v-140.014l-24.124-26.489h-41.613v159.88h-71.439v134.192l71.426,0.619v28.381h63.858v-11.825
			c0,0-38.315-8.987-51.559-44.937h-12.298v-50.613h10.879C216.324,1616.402,228.623,1576.669,271.195,1567.208z"/>
		
			<path fill="none" stroke="#DEDEDE" stroke-width="1.057" stroke-linecap="round" stroke-linejoin="round" stroke-miterlimit="10" d="
			M370.88,1370.293v301.61h-19.84l-36.03,38.57v17.029l-45.71,0.3v-15.759c0,0-38.31-8.99-51.56-44.93h-12.29v-50.62h10.87
			c0,0,12.3-39.73,54.87-49.19v-140.02l-24.12-26.48h-42.54v-30.51h71.88v18.49h23.79v-18.49H370.88z"/>
		
			<rect id="restroom-box" x="247.95" y="2475.415" fill="none" stroke="#DEDEDE" stroke-width="1.057" stroke-linecap="round" stroke-linejoin="round" stroke-miterlimit="10" width="81.6" height="56.317"/>
		<g>
			<path fill="#A1AFC0" d="M301.77,2504.106c-3.457-0.213-6.12-3.083-6.12-6.499l0,0c0-0.133,0.005-0.269,0.014-0.404l0,0l0,0
				c0.16-2.592,1.809-4.711,4.02-5.632l0,0c0.027-0.01,0.055-0.007,0.077,0.007l0,0c0.023,0.014,0.037,0.039,0.039,0.067l0,0
				l0.098,1.549c0.002,0.034-0.016,0.064-0.044,0.079l0,0c-1.466,0.776-2.479,2.254-2.589,4.029l0,0
				c-0.006,0.103-0.009,0.204-0.009,0.304l0,0c0,2.577,2.006,4.738,4.611,4.898l0,0c0.109,0.005,0.218,0.008,0.326,0.008l0,0
				c2.197,0,3.975-1.378,4.767-3.568l0,0c0.011-0.033,0.042-0.055,0.078-0.055l0,0c0.035,0,0.065,0.021,0.078,0.053l0,0
				c0.08,0.216,0.26,0.668,0.421,1.064l0,0c0.161,0.397,0.3,0.74,0.3,0.74v0.002c0.011,0.021,0.01,0.049-0.003,0.072l0,0
				c-1.128,1.981-3.258,3.297-5.661,3.297l0,0C302.04,2504.118,301.905,2504.113,301.77,2504.106L301.77,2504.106z"/>
			<path fill="#A1AFC0" d="M306.783,2496.198l-4.207-0.001c-1.391,0.034-1.865-0.252-1.897-1.953
				c-0.166-2.402-0.435-6.355-0.525-7.912c-0.012-0.171-0.012-0.389,0.003-0.558c0.066-0.924,0.837-1.656,1.78-1.656
				c0.983,0,1.781,0.797,1.781,1.782c0,0.94-0.728,1.707-1.65,1.776l0.251,3.434l3.547-0.002c0.518,0,0.918,0.436,0.918,0.942
				c0,0.507-0.414,0.926-0.933,0.926l-3.423,0.009l0.091,1.333l4.108-0.001c0.989-0.013,1.082,0.061,1.33,0.271
				c0.124,0.107,0.207,0.248,0.293,0.436c0.085,0.188,0.173,0.423,0.308,0.713c0.194,0.492,1.814,4.477,1.814,4.477l0.947-0.393
				c0.138-0.077,0.299-0.124,0.469-0.124c0.518,0,0.939,0.411,0.939,0.918c0,0.389-0.213,0.74-0.565,0.874l-1.831,0.759
				c-0.902,0.31-1.274-0.304-1.47-0.8c-0.205-0.523-2.004-5.073-2.074-5.247L306.783,2496.198z"/>
		</g>
		<g>
			<path fill="#A1AFC0" d="M360.873,1167.998c-2.48-0.153-4.389-2.211-4.389-4.661l0,0c0-0.096,0.004-0.193,0.01-0.289l0,0l0,0
				c0.114-1.859,1.298-3.379,2.883-4.039l0,0c0.019-0.007,0.039-0.005,0.055,0.005l0,0c0.016,0.01,0.027,0.028,0.028,0.048l0,0
				l0.07,1.111c0.001,0.025-0.011,0.046-0.031,0.057l0,0c-1.052,0.556-1.778,1.616-1.857,2.89l0,0
				c-0.004,0.074-0.006,0.147-0.006,0.218l0,0c0,1.848,1.439,3.398,3.307,3.513l0,0c0.078,0.004,0.156,0.006,0.233,0.006l0,0
				c1.576,0,2.851-0.989,3.419-2.559l0,0c0.008-0.024,0.03-0.039,0.056-0.039l0,0c0.025,0,0.047,0.015,0.056,0.038l0,0
				c0.057,0.155,0.187,0.479,0.302,0.763l0,0c0.116,0.285,0.215,0.531,0.215,0.531v0.001c0.008,0.015,0.007,0.035-0.002,0.051l0,0
				c-0.809,1.421-2.337,2.365-4.06,2.365l0,0C361.067,1168.006,360.97,1168.003,360.873,1167.998L360.873,1167.998z"/>
			<path fill="#A1AFC0" d="M364.469,1162.326l-3.017-0.001c-0.998,0.025-1.337-0.181-1.361-1.401
				c-0.119-1.723-0.312-4.558-0.376-5.675c-0.009-0.123-0.009-0.279,0.002-0.4c0.047-0.662,0.601-1.188,1.277-1.188
				c0.705,0,1.277,0.572,1.277,1.278c0,0.674-0.522,1.225-1.183,1.274l0.18,2.463l2.544-0.001c0.371,0,0.658,0.313,0.658,0.676
				c0,0.364-0.297,0.664-0.669,0.664l-2.455,0.006l0.065,0.957l2.947-0.001c0.709-0.009,0.776,0.044,0.954,0.194
				c0.089,0.077,0.149,0.177,0.21,0.313c0.061,0.134,0.124,0.304,0.221,0.511c0.139,0.353,1.301,3.211,1.301,3.211l0.679-0.282
				c0.099-0.056,0.215-0.089,0.336-0.089c0.372,0,0.674,0.295,0.674,0.658c0,0.279-0.153,0.531-0.405,0.627l-1.313,0.544
				c-0.647,0.223-0.914-0.218-1.054-0.574c-0.147-0.375-1.437-3.639-1.487-3.763L364.469,1162.326z"/>
		</g>
		
			<polygon fill="none" stroke="#DEDEDE" stroke-width="1.057" stroke-linecap="round" stroke-linejoin="round" stroke-miterlimit="10" points="
			371.66,2260.163 341.141,2253.487 346.863,2225.51 371.66,2225.51 		"/>
		
			<polygon fill="none" stroke="#DEDEDE" stroke-width="1.057" stroke-linecap="round" stroke-linejoin="round" stroke-miterlimit="10" points="
			204.703,2260.163 235.222,2253.487 229.5,2225.51 204.703,2225.51 		"/>
		
			<rect x="335.651" y="1147.741" fill="none" stroke="#DEDEDE" stroke-width="1.057" stroke-linecap="round" stroke-linejoin="round" stroke-miterlimit="10" width="34.494" height="34.494"/>
		
			<line fill="none" stroke="#DEDEDE" stroke-width="1.057" stroke-linecap="round" stroke-linejoin="round" stroke-miterlimit="10" x1="205.45" y1="1667.113" x2="205.45" y2="1695.397"/>
		<g>
			<path fill="#A1AFC0" d="M370.409,2251.053c-3.457-0.213-6.12-3.083-6.12-6.499l0,0c0-0.133,0.005-0.269,0.014-0.404l0,0l0,0
				c0.159-2.592,1.809-4.711,4.02-5.632l0,0c0.027-0.01,0.055-0.007,0.077,0.007l0,0c0.023,0.014,0.037,0.038,0.039,0.067l0,0
				l0.098,1.549c0.002,0.034-0.015,0.064-0.044,0.079l0,0c-1.466,0.776-2.479,2.254-2.589,4.029l0,0
				c-0.006,0.103-0.009,0.204-0.009,0.304l0,0c0,2.577,2.006,4.738,4.611,4.898l0,0c0.109,0.005,0.218,0.008,0.326,0.008l0,0
				c2.197,0,3.975-1.378,4.767-3.568l0,0c0.011-0.033,0.042-0.055,0.078-0.055l0,0c0.035,0,0.065,0.021,0.078,0.053l0,0
				c0.08,0.216,0.26,0.668,0.421,1.064l0,0c0.161,0.397,0.3,0.74,0.3,0.74v0.002c0.011,0.021,0.01,0.049-0.003,0.072l0,0
				c-1.128,1.981-3.258,3.297-5.661,3.297l0,0C370.679,2251.065,370.544,2251.06,370.409,2251.053L370.409,2251.053z"/>
			<path fill="#A1AFC0" d="M375.422,2243.145l-4.207-0.001c-1.391,0.034-1.865-0.252-1.897-1.953
				c-0.166-2.402-0.435-6.355-0.525-7.912c-0.012-0.171-0.012-0.389,0.003-0.558c0.066-0.924,0.837-1.656,1.78-1.656
				c0.983,0,1.781,0.797,1.781,1.782c0,0.94-0.728,1.707-1.65,1.776l0.251,3.434l3.547-0.002c0.518,0,0.918,0.436,0.918,0.942
				c0,0.507-0.414,0.926-0.933,0.926l-3.423,0.009l0.091,1.333l4.108-0.001c0.989-0.013,1.082,0.061,1.33,0.271
				c0.124,0.107,0.207,0.248,0.293,0.436c0.085,0.188,0.173,0.423,0.308,0.713c0.194,0.492,1.814,4.477,1.814,4.477l0.947-0.393
				c0.138-0.077,0.299-0.124,0.469-0.124c0.518,0,0.939,0.411,0.939,0.918c0,0.389-0.213,0.74-0.565,0.874l-1.831,0.759
				c-0.902,0.31-1.274-0.304-1.47-0.8c-0.205-0.523-2.004-5.073-2.074-5.247L375.422,2243.145z"/>
		</g>
		<g>
			<path fill="#A1AFC0" d="M230.361,2251.053c-3.457-0.213-6.12-3.083-6.12-6.499l0,0c0-0.133,0.005-0.269,0.014-0.404l0,0l0,0
				c0.16-2.592,1.809-4.711,4.02-5.632l0,0c0.027-0.01,0.055-0.007,0.077,0.007l0,0c0.023,0.014,0.037,0.038,0.039,0.067l0,0
				l0.098,1.549c0.002,0.034-0.016,0.064-0.044,0.079l0,0c-1.467,0.776-2.479,2.254-2.589,4.029l0,0
				c-0.006,0.103-0.009,0.204-0.009,0.304l0,0c0,2.577,2.006,4.738,4.611,4.898l0,0c0.109,0.005,0.218,0.008,0.326,0.008l0,0
				c2.197,0,3.975-1.378,4.767-3.568l0,0c0.011-0.033,0.042-0.055,0.078-0.055l0,0c0.035,0,0.065,0.021,0.078,0.053l0,0
				c0.08,0.216,0.26,0.668,0.421,1.064l0,0c0.161,0.397,0.3,0.74,0.3,0.74v0.002c0.011,0.021,0.01,0.049-0.003,0.072l0,0
				c-1.128,1.981-3.258,3.297-5.661,3.297l0,0C230.631,2251.065,230.496,2251.06,230.361,2251.053L230.361,2251.053z"/>
			<path fill="#A1AFC0" d="M235.374,2243.145l-4.207-0.001c-1.391,0.034-1.864-0.252-1.897-1.953
				c-0.166-2.402-0.435-6.355-0.525-7.912c-0.012-0.171-0.012-0.389,0.003-0.558c0.066-0.924,0.837-1.656,1.78-1.656
				c0.983,0,1.781,0.797,1.781,1.782c0,0.94-0.728,1.707-1.65,1.776l0.251,3.434l3.547-0.002c0.518,0,0.918,0.436,0.918,0.942
				c0,0.507-0.414,0.926-0.933,0.926l-3.423,0.009l0.091,1.333l4.108-0.001c0.989-0.013,1.082,0.061,1.33,0.271
				c0.125,0.107,0.208,0.248,0.293,0.436c0.085,0.188,0.173,0.423,0.308,0.713c0.194,0.492,1.814,4.477,1.814,4.477l0.947-0.393
				c0.138-0.077,0.299-0.124,0.469-0.124c0.518,0,0.939,0.411,0.939,0.918c0,0.389-0.213,0.74-0.565,0.874l-1.831,0.759
				c-0.902,0.31-1.274-0.304-1.47-0.8c-0.205-0.523-2.004-5.073-2.074-5.247L235.374,2243.145z"/>
		</g>
	</g>
	<g id="venueLabels">
		<text transform="matrix(1 0 0 1 259.1972 2520.9717)"><tspan x="0" y="0" fill="#A1AFC0" font-family="'Avenir-Book'" font-size="14px">Restroom</tspan></text>
		<text transform="matrix(1 0 0 1 215.4246 2486.4929)"><tspan x="0" y="0" fill="#A1AFC0" font-family="'Avenir-Book'" font-size="10px">Paint</tspan><tspan x="-8.525" y="12" fill="#A1AFC0" font-family="'Avenir-Book'" font-size="10px">Entrance</tspan></text>
		<text transform="matrix(1 0 0 1 339.3803 2486.4929)"><tspan x="0" y="0" fill="#A1AFC0" font-family="'Avenir-Book'" font-size="10px">Draw</tspan><tspan x="-8.06" y="12" fill="#A1AFC0" font-family="'Avenir-Book'" font-size="10px">Entrance</tspan></text>
		<text transform="matrix(1 0 0 1 330.1484 2267.9189)"><tspan x="0" y="0" fill="#A1AFC0" font-family="'Avenir-Book'" font-size="14px">Restroom</tspan></text>
		<text transform="matrix(1 0 0 1 189.4185 2267.9189)"><tspan x="0" y="0" fill="#A1AFC0" font-family="'Avenir-Book'" font-size="14px">Restroom</tspan></text>
		<g>
			<path id="restroom-icon6_00000080923361439342895730000011460824913778795652_" fill="#A1AFC0" d="M273.204,2486.375
				c0-1.299,1.063-2.244,2.243-2.244c1.299,0,2.243,1.063,2.243,2.244c0,1.299-1.063,2.243-2.243,2.243
				C274.148,2488.737,273.204,2487.674,273.204,2486.375z M272.968,2489.209c-1.653,0-2.952,0.827-2.952,2.48
				c0,0.826,0,4.251,0,4.841c0,0.591,0.472,0.945,0.945,0.945c0.59,0,0.945-0.472,0.945-0.945c0-0.59,0-4.133,0-4.133h0.472
				c0,0,0,9.328,0,10.391c0,0.708,0.59,1.299,1.299,1.299c0.708,0,1.299-0.591,1.299-1.299c0-1.063,0-5.314,0-5.314h0.59
				c0,0,0,4.133,0,5.314c0,0.708,0.59,1.299,1.299,1.299c0.708,0,1.299-0.591,1.299-1.299c0-1.063,0-10.391,0-10.391h0.472
				c0,0,0,3.424,0,4.133c0,0.591,0.472,0.945,0.945,0.945c0.59,0,0.945-0.472,0.945-0.945c0-0.59,0-4.015,0-4.841
				c0-1.653-1.299-2.48-2.952-2.48C277.1,2489.209,273.676,2489.209,272.968,2489.209z"/>
			<path id="restroom-icon3_00000055673450643462845300000003636062080950778293_" fill="#A1AFC0" d="M285.838,2486.493
				c0-1.181,0.945-2.362,2.362-2.362c1.181,0,2.362,0.945,2.362,2.362c0,1.181-0.945,2.362-2.362,2.362
				C286.901,2488.618,285.838,2487.674,285.838,2486.493z M288.436,2498.891c0,0,0,3.188,0,4.133c0,0.591,0.472,1.063,1.063,1.063
				c0.59,0,1.063-0.472,1.063-1.063c0-0.472,0-0.59,0-4.133c0,0,0.827,0,1.653,0c0.827,0,0.472-0.827,0.472-0.827l-2.362-6.14h0.59
				l1.417,3.779c0.118,0.472,0.708,0.827,1.063,0.59c0.472-0.118,0.708-0.708,0.59-1.063c-0.118-0.354-1.417-3.779-1.417-3.779
				s-0.472-2.125-2.48-2.125c-0.59,0-3.07,0-3.66,0c-1.771,0-2.48,2.125-2.48,2.125s-1.417,3.424-1.535,3.779
				c-0.118,0.472,0.118,0.945,0.59,1.063c0.472,0.118,0.945-0.118,1.063-0.59l1.417-3.779h0.59l-2.362,6.14
				c0,0-0.472,0.827,0.59,0.827c1.063,0,1.535,0,1.535,0c0,3.66,0,3.66,0,4.133c0,0.591,0.472,1.063,1.063,1.063
				s1.063-0.472,1.063-1.063c0-0.826,0-4.133,0-4.133H288.436z"/>
		</g>
		<text transform="matrix(1 0 0 1 323.1984 1178.5491)"><tspan x="0" y="0" fill="#A1AFC0" font-family="'Avenir-Book'" font-size="14px">Rest</tspan><tspan x="26.698" y="0" fill="#A1AFC0" font-family="'Avenir-Book'" font-size="14px">r</tspan><tspan x="31.093" y="0" fill="#A1AFC0" font-family="'Avenir-Book'" font-size="14px">oom</tspan></text>
		<g>
			<path id="restroom-icon6_00000115477021897345646940000008230442991344653742_" fill="#A1AFC0" d="M340.384,1155.28
				c0-0.932,0.762-1.609,1.609-1.609c0.932,0,1.609,0.762,1.609,1.609c0,0.932-0.762,1.609-1.609,1.609
				C341.061,1156.974,340.384,1156.212,340.384,1155.28z M340.214,1157.313c-1.186,0-2.117,0.593-2.117,1.778
				c0,0.593,0,3.049,0,3.472s0.339,0.677,0.678,0.677c0.423,0,0.678-0.339,0.678-0.677c0-0.423,0-2.964,0-2.964h0.339
				c0,0,0,6.691,0,7.453c0,0.508,0.423,0.932,0.932,0.932c0.508,0,0.932-0.423,0.932-0.932c0-0.762,0-3.811,0-3.811h0.423
				c0,0,0,2.964,0,3.811c0,0.508,0.423,0.932,0.932,0.932c0.508,0,0.932-0.423,0.932-0.932c0-0.762,0-7.453,0-7.453h0.339
				c0,0,0,2.456,0,2.964c0,0.423,0.339,0.677,0.678,0.677c0.423,0,0.678-0.339,0.678-0.677c0-0.423,0-2.88,0-3.472
				c0-1.186-0.932-1.778-2.117-1.778C343.179,1157.313,340.723,1157.313,340.214,1157.313z"/>
			<path id="restroom-icon3_00000146492885998628180810000000465370998920327349_" fill="#A1AFC0" d="M349.446,1155.365
				c0-0.847,0.678-1.694,1.694-1.694c0.847,0,1.694,0.677,1.694,1.694c0,0.847-0.678,1.694-1.694,1.694
				C350.208,1156.89,349.446,1156.212,349.446,1155.365z M351.309,1164.258c0,0,0,2.287,0,2.964c0,0.423,0.339,0.762,0.762,0.762
				s0.762-0.339,0.762-0.762c0-0.339,0-0.423,0-2.964c0,0,0.593,0,1.186,0c0.593,0,0.339-0.593,0.339-0.593l-1.694-4.404h0.423
				l1.016,2.71c0.085,0.339,0.508,0.593,0.762,0.423c0.339-0.085,0.508-0.508,0.423-0.762c-0.085-0.254-1.016-2.71-1.016-2.71
				s-0.339-1.525-1.779-1.525c-0.423,0-2.202,0-2.625,0c-1.27,0-1.779,1.525-1.779,1.525s-1.016,2.456-1.101,2.71
				c-0.085,0.339,0.085,0.678,0.423,0.762c0.339,0.085,0.678-0.085,0.762-0.423l1.016-2.71h0.423l-1.694,4.404
				c0,0-0.339,0.593,0.423,0.593s1.101,0,1.101,0c0,2.625,0,2.625,0,2.964c0,0.423,0.339,0.762,0.762,0.762s0.762-0.339,0.762-0.762
				c0-0.593,0-2.964,0-2.964H351.309z"/>
		</g>
		<text transform="matrix(1 0 0 1 234.4264 2665.3252)"><tspan x="0" y="0" fill="#A1AFC0" font-family="'Avenir-Book'" font-size="14px">Animator’s Palate</tspan><tspan x="20.874" y="16" fill="#A1AFC0" font-family="'Avenir-Book'" font-size="14px">Restaurant</tspan></text>
		<g>
			<path fill="#A1AFC0" d="M293.631,2632.728c-0.157-0.061-0.333-0.103-0.563-0.103c-2.346,0-2.825,1.075-2.825,2.398v4.957
				c0,0.933,0.391,1.73,1.333,2.128v6.758c0,0.972,0.787,1.759,1.758,1.759c0.971,0,1.759-0.787,1.759-1.759v-14.411
				C295.094,2633.585,294.459,2632.868,293.631,2632.728z"/>
			<path fill="#A1AFC0" d="M288.284,2633.711c0-0.413-0.333-0.748-0.746-0.748c-0.355,0-0.654,0.251-0.729,0.584v3.838
				c0,0.309-0.251,0.561-0.558,0.561c-0.31,0-0.559-0.252-0.559-0.561v-3.69c-0.009-0.406-0.338-0.732-0.746-0.732
				c-0.381,0-0.696,0.284-0.74,0.651v3.771c0,0.309-0.251,0.561-0.559,0.561c-0.309,0-0.559-0.252-0.559-0.561v-3.757
				c-0.041-0.373-0.356-0.665-0.741-0.665c-0.413,0-0.746,0.335-0.746,0.748v3.677v1.224v0.639c0,0.778,0.673,1.285,1.59,1.548
				v8.066c0,0.972,0.787,1.759,1.759,1.759c0.971,0,1.759-0.787,1.759-1.759v-8.118c0.917-0.283,1.59-0.786,1.59-1.496v-1.863
				c0-0.061-0.006-0.121-0.014-0.179V2633.711z"/>
		</g>
		<text transform="matrix(1 0 0 1 252.9659 1643.583)"><tspan x="0" y="0" fill="#A1AFC0" font-family="'Avenir-Book'" font-size="14px">Tiana’s Bayou</tspan><tspan x="18.634" y="16" fill="#A1AFC0" font-family="'Avenir-Book'" font-size="14px">Lounge</tspan></text>
		<text transform="matrix(1 0 0 1 223.906 783.9752)"><tspan x="0" y="0" fill="#A1AFC0" font-family="'Avenir-Book'" font-size="14px">Walt Disney Theatre</tspan></text>
		<g>
			<path fill="#A1AFC0" d="M297.255,753.12c-0.036-0.379-0.329-0.674-0.769-0.7c-0.074,0.003-0.333,0.026-0.515,0.193
				c-0.1,0.085-0.905,0.605-2.052,0.838c-0.977,0.199-2.186,0.322-3.411,0.341c-0.287,0.005-0.548-0.008-0.79-0.032
				c0.466,2.278,0.525,4.503,0.173,6.442c0.046-0.001,0.088-0.01,0.136-0.009c0.312,0,0.604,0.02,0.876,0.054
				c1.152,0.141,1.966,0.57,2.863,1.463c0.246,0.247,0.219,0.608-0.065,0.806c-0.28,0.196-0.71,0.159-0.956-0.089
				c-0.845-0.848-1.423-1.081-2.678-1.096c-0.158-0.001-0.308,0.016-0.452,0.042c-0.412,1.405-1.051,2.544-1.902,3.339
				c0.938,1.25,2.068,1.966,3.295,2.036c0.107,0.006,0.214,0.005,0.32,0c0.184-0.008,0.369-0.031,0.551-0.068
				c2.36-0.481,4.315-3.377,5.107-7.581l0.246-1.718c0.059-0.59,0.095-1.141,0.111-1.684
				C297.364,754.856,297.335,753.989,297.255,753.12z M293.669,758.512c-0.202,0.1-0.448,0.142-0.72,0.119
				c-0.872-0.065-1.544-0.712-1.712-1.652c-0.014-0.069,0.009-0.134,0.053-0.186c0.017-0.023,0.04-0.035,0.065-0.047
				c0.036-0.018,0.071-0.028,0.115-0.023l2.536,0.184c0.101,0.009,0.182,0.083,0.201,0.182
				C294.368,758.01,293.938,758.377,293.669,758.512z"/>
			<path fill="#A1AFC0" d="M288.272,752.263c-0.229-0.811-0.514-1.626-0.843-2.419c-0.116-0.292-0.42-0.477-0.755-0.462
				c-0.072,0.003-0.138,0.016-0.178,0.028c-0.194,0.049-0.36,0.182-0.454,0.358c-0.365,0.643-1.343,1.809-3.825,2.377
				c-1.211,0.277-2.439,0.456-3.461,0.501c-1.321,0.059-1.662-0.124-1.683-0.135c-0.229-0.123-0.418-0.1-0.616-0.045
				c-0.361,0.115-0.579,0.477-0.518,0.855c0.133,0.855,0.316,1.704,0.548,2.523c0.148,0.521,0.32,1.047,0.531,1.623l0.668,1.608
				c1.811,3.867,4.457,6.2,6.908,6.091c0.292-0.013,0.586-0.062,0.883-0.147c1.66-0.512,2.842-2.18,3.329-4.695
				C289.265,757.971,289.075,755.108,288.272,752.263z M284.572,754.537c0.218-0.272,0.571-0.402,1.003-0.367
				c0.81,0.068,1.432,0.661,1.607,1.521c0.016,0.026,0.023,0.059,0.025,0.09c0.005,0.112-0.085,0.212-0.2,0.217l-0.009,0.001
				c-0.008,0-0.018,0.001-0.027-0.002l-2.415-0.193c-0.094-0.01-0.172-0.08-0.187-0.174
				C284.273,755.055,284.425,754.72,284.572,754.537z M280.977,757.612c-0.027,0.002-0.054,0.001-0.08-0.009
				c-0.063-0.023-0.114-0.069-0.137-0.138c-0.307-0.904-0.036-1.795,0.696-2.275c0.228-0.152,0.462-0.234,0.689-0.245
				c0.299-0.013,0.853,0.099,1.159,0.982c0.033,0.097-0.003,0.2-0.086,0.257l-2.129,1.393
				C281.054,757.602,281.018,757.611,280.977,757.612z M285.014,761.414c-0.265,0.051-0.517,0.079-0.756,0.09
				c-1.002,0.045-1.76-0.261-2.657-1.025c-0.249-0.21-0.28-0.582-0.068-0.831c0.207-0.246,0.581-0.278,0.829-0.065
				c0.848,0.726,1.376,0.87,2.446,0.68c0.925-0.169,1.472-0.994,1.568-1.525c0.056-0.322,0.366-0.533,0.681-0.475
				c0.318,0.052,0.532,0.36,0.475,0.682C287.385,759.783,286.593,761.136,285.014,761.414z"/>
			<path fill="#A1AFC0" d="M293.513,748.443c0.201,0.015,0.258,0.152,0.122,0.3l-0.703,0.779c-0.135,0.151-0.208,0.43-0.157,0.627
				l0.247,1.016c0.048,0.196-0.063,0.288-0.249,0.207l-0.966-0.424c-0.184-0.083-0.476-0.061-0.648,0.042l-0.903,0.549
				c-0.173,0.108-0.294,0.029-0.275-0.168l0.108-1.041c0.022-0.199-0.088-0.468-0.243-0.599l-0.805-0.676
				c-0.152-0.133-0.117-0.272,0.081-0.314l1.033-0.221c0.197-0.042,0.421-0.227,0.498-0.414l0.401-0.966
				c0.078-0.186,0.223-0.197,0.326-0.021l0.531,0.905c0.101,0.168,0.35,0.326,0.551,0.338L293.513,748.443z"/>
			<path fill="#A1AFC0" d="M280.395,764.972c0.138,0.036,0.161,0.14,0.046,0.228l-0.598,0.461c-0.116,0.091-0.202,0.278-0.192,0.425
				l0.044,0.751c0.008,0.145-0.082,0.197-0.203,0.116l-0.631-0.426c-0.12-0.082-0.33-0.104-0.465-0.053l-0.709,0.273
				c-0.136,0.056-0.212-0.017-0.173-0.155l0.209-0.724c0.04-0.138-0.002-0.344-0.096-0.456l-0.483-0.583
				c-0.091-0.113-0.048-0.208,0.098-0.212l0.761-0.023c0.143-0.005,0.326-0.108,0.407-0.231l0.407-0.633
				c0.079-0.12,0.183-0.11,0.233,0.027l0.26,0.71c0.05,0.134,0.208,0.277,0.349,0.311L280.395,764.972z"/>
		</g>
		<text transform="matrix(1 0 0 1 142.8765 1628.5635)"><tspan x="0" y="0" fill="#A1AFC0" font-family="'Avenir-Book'" font-size="14px">World of</tspan><tspan x="6.076" y="16" fill="#A1AFC0" font-family="'Avenir-Book'" font-size="14px">Disney</tspan><tspan x="15.54" y="32" fill="#A1AFC0" font-family="'Avenir-Book'" font-size="14px" letter-spacing="-1">Too</tspan></text>
		<text transform="matrix(1 0 0 1 210.0267 1992.7925)"><tspan x="0" y="0" fill="#A1AFC0" font-family="'Avenir-Book'" font-size="14px">World of</tspan><tspan x="6.076" y="16" fill="#A1AFC0" font-family="'Avenir-Book'" font-size="14px">Disney</tspan></text>
		<text transform="matrix(1 0 0 1 311.2484 1992.7925)"><tspan x="0" y="0" fill="#A1AFC0" font-family="'Avenir-Book'" font-size="14px">World of</tspan><tspan x="6.076" y="16" fill="#A1AFC0" font-family="'Avenir-Book'" font-size="14px">Disney</tspan></text>
		<g>
			<g>
				<path fill="#A1AFC0" d="M295.474,1621.347c0.248-0.326,0.4-0.729,0.4-1.17c0-1.075-0.871-1.946-1.946-1.946
					c-1.03,0-1.864,0.803-1.933,1.815c-0.356-0.402-0.871-0.661-1.451-0.661c-1.075,0-1.946,0.871-1.946,1.946
					c0,0.005,0.001,0.01,0.002,0.016H295.474z"/>
				<path fill="#A1AFC0" d="M286.667,1621.347l-2.42-2.42c-0.148-0.149-0.148-0.388,0-0.537c0.148-0.148,0.389-0.148,0.537,0
					l2.941,2.941c0.206-0.292,0.471-0.767,0.472-1.381c0.001-0.622-0.268-1.207-0.799-1.739c-1.585-1.585-4.456-1.631-4.577-1.632
					c-0.14-0.006-0.2,0.039-0.272,0.111c-0.072,0.072-0.112,0.17-0.111,0.272c0.001,0.116,0.048,2.77,1.458,4.384H286.667z"/>
				<path fill="#A1AFC0" d="M296.749,1622.134h-15.071c-0.233,0-0.411,0.227-0.351,0.452c0.571,2.129,1.839,3.541,3.494,4.386
					c-0.265,0.144-0.452,0.415-0.452,0.737c0,0.469,0.38,0.849,0.849,0.849h7.991c0.469,0,0.849-0.38,0.849-0.849
					c0-0.322-0.187-0.593-0.452-0.737c1.655-0.845,2.922-2.258,3.494-4.386C297.16,1622.36,296.982,1622.134,296.749,1622.134z"/>
				<path fill="#A1AFC0" d="M297.17,1615.78c-1.271-0.359-2.211-1.516-2.211-2.901c0-1.668,1.357-3.026,3.026-3.026
					c1.168,0,2.172,0.672,2.676,1.643h1.383c-0.58-1.694-2.171-2.924-4.06-2.924c-2.375,0-4.307,1.932-4.307,4.307
					c0,2.148,1.584,3.918,3.642,4.241L297.17,1615.78z"/>
				<path fill="#A1AFC0" d="M308.921,1612.241c-0.106-0.121-0.26-0.191-0.423-0.191h-1.706l0.806-2.401
					c0.145-0.431-0.087-0.898-0.518-1.042c-0.436-0.147-0.897,0.087-1.045,0.518l-0.982,2.925h-7.116
					c-0.158,0-0.312,0.068-0.416,0.188c-0.108,0.119-0.158,0.277-0.141,0.436l1.721,15.391c0.033,0.284,0.271,0.499,0.557,0.499
					h6.832c0.28,0,0.52-0.209,0.555-0.488l2.009-15.391C309.077,1612.524,309.027,1612.362,308.921,1612.241z M300.162,1627.441
					l-1.595-14.267h6.11l-1.562,4.637h-2.68l0.997,9.63H300.162z M307.247,1617.81h-2.391l1.559-4.637h1.436L307.247,1617.81z"/>
			</g>
		</g>
		<path fill="#A1AFC0" d="M178.422,1598.16c-0.025-0.542-0.469-0.907-1.011-0.907h-3.357c0.014-0.403,0.006-1.334-0.002-1.847
			c0-1.737-1.565-3.641-4.093-3.641c-2.372,0-4.093,1.563-4.093,3.68c-0.007,0.49-0.016,1.405-0.002,1.808h-3.357
			c-0.543,0-0.987,0.365-1.012,0.907l-0.657,14.529c-0.012,0.252,0.069,0.538,0.234,0.71c0.187,0.196,0.462,0.365,0.776,0.365
			h16.225c0.279,0,0.537-0.19,0.729-0.392c0.191-0.202,0.29-0.474,0.277-0.752L178.422,1598.16z M167.269,1595.451l0.001-0.075
			c0-1.3,1.106-2.222,2.689-2.222c1.755,0,2.689,1.275,2.689,2.2l0.001,0.1c0.012,0.845,0.013,1.396,0.001,1.798h-5.382
			C167.257,1596.85,167.257,1596.296,167.269,1595.451z M175.681,1604.322c-0.492,0.664-1.337,0.927-2.186,0.786
			c0.222,0.492,0.354,1.028,0.354,1.604c0,2.147-1.743,3.89-3.889,3.89c-2.15,0-3.891-1.743-3.891-3.89
			c0-0.576,0.131-1.112,0.353-1.604c-0.851,0.141-1.694-0.122-2.183-0.786c-0.746-1.001-0.41-2.52,0.757-3.383
			c1.16-0.863,2.71-0.754,3.456,0.249c0.391,0.529,0.474,1.2,0.302,1.843c0.383-0.124,0.783-0.209,1.206-0.209
			c0.422,0,0.82,0.085,1.202,0.209c-0.171-0.643-0.087-1.314,0.304-1.843c0.746-1.003,2.292-1.112,3.458-0.249
			C176.087,1601.803,176.426,1603.322,175.681,1604.322z"/>
		<text transform="matrix(1 0 0 1 198.5974 1721.4546)"><tspan x="0" y="0" fill="#A1AFC0" font-family="'Avenir-Book'" font-size="14px">The Art of</tspan><tspan x="0.371" y="16" fill="#A1AFC0" font-family="'Avenir-Book'" font-size="14px">Disney on</tspan><tspan x="4.522" y="32" fill="#A1AFC0" font-family="'Avenir-Book'" font-size="14px">Demand</tspan></text>
		<path fill="#A1AFC0" d="M238.427,1691.051c-0.025-0.542-0.469-0.907-1.011-0.907h-3.357c0.014-0.403,0.006-1.334-0.002-1.847
			c0-1.737-1.565-3.641-4.092-3.641c-2.372,0-4.093,1.563-4.093,3.68c-0.007,0.49-0.016,1.405-0.002,1.808h-3.357
			c-0.543,0-0.987,0.365-1.012,0.907l-0.657,14.529c-0.012,0.252,0.069,0.538,0.234,0.71c0.187,0.196,0.462,0.365,0.776,0.365
			h16.225c0.279,0,0.537-0.19,0.729-0.392c0.191-0.202,0.29-0.474,0.277-0.752L238.427,1691.051z M227.274,1688.342l0.001-0.075
			c0-1.3,1.106-2.222,2.689-2.222c1.755,0,2.689,1.275,2.689,2.2l0.001,0.1c0.012,0.845,0.013,1.396,0.001,1.798h-5.382
			C227.262,1689.741,227.262,1689.187,227.274,1688.342z M235.686,1697.213c-0.492,0.664-1.337,0.927-2.186,0.786
			c0.222,0.492,0.354,1.028,0.354,1.604c0,2.147-1.743,3.89-3.889,3.89c-2.149,0-3.891-1.743-3.891-3.89
			c0-0.576,0.131-1.112,0.353-1.604c-0.851,0.141-1.694-0.122-2.183-0.786c-0.746-1.001-0.41-2.52,0.757-3.383
			c1.16-0.863,2.71-0.754,3.456,0.249c0.391,0.529,0.474,1.2,0.302,1.843c0.383-0.124,0.783-0.209,1.206-0.209
			c0.422,0,0.82,0.085,1.202,0.209c-0.171-0.643-0.087-1.314,0.304-1.843c0.746-1.003,2.292-1.112,3.458-0.249
			C236.092,1694.694,236.431,1696.213,235.686,1697.213z"/>
		<path fill="#A1AFC0" d="M245.572,1962.826c-0.025-0.542-0.469-0.907-1.011-0.907h-3.357c0.014-0.403,0.006-1.334-0.002-1.847
			c0-1.737-1.565-3.641-4.092-3.641c-2.372,0-4.093,1.563-4.093,3.68c-0.007,0.49-0.016,1.405-0.002,1.808h-3.357
			c-0.543,0-0.987,0.365-1.012,0.907l-0.657,14.529c-0.012,0.252,0.069,0.538,0.234,0.71c0.187,0.196,0.462,0.365,0.776,0.365
			h16.225c0.279,0,0.537-0.19,0.729-0.392c0.191-0.202,0.29-0.474,0.277-0.752L245.572,1962.826z M234.419,1960.117l0.001-0.075
			c0-1.3,1.106-2.222,2.689-2.222c1.755,0,2.689,1.275,2.689,2.2l0.001,0.1c0.012,0.845,0.013,1.396,0.001,1.798h-5.382
			C234.407,1961.516,234.407,1960.963,234.419,1960.117z M242.831,1968.989c-0.492,0.664-1.337,0.927-2.186,0.786
			c0.222,0.492,0.354,1.028,0.354,1.604c0,2.147-1.743,3.89-3.889,3.89c-2.149,0-3.891-1.743-3.891-3.89
			c0-0.576,0.131-1.112,0.353-1.604c-0.851,0.141-1.694-0.122-2.183-0.786c-0.746-1.001-0.41-2.52,0.757-3.383
			c1.16-0.863,2.71-0.754,3.456,0.249c0.391,0.529,0.474,1.2,0.302,1.843c0.383-0.124,0.783-0.209,1.206-0.209
			c0.422,0,0.82,0.085,1.202,0.209c-0.171-0.643-0.087-1.314,0.304-1.843c0.746-1.003,2.292-1.112,3.458-0.249
			C243.237,1966.469,243.577,1967.988,242.831,1968.989z"/>
		<path fill="#A1AFC0" d="M346.794,1962.826c-0.025-0.542-0.469-0.907-1.011-0.907h-3.357c0.014-0.403,0.006-1.334-0.002-1.847
			c0-1.737-1.565-3.641-4.092-3.641c-2.372,0-4.093,1.563-4.093,3.68c-0.007,0.49-0.016,1.405-0.002,1.808h-3.357
			c-0.543,0-0.987,0.365-1.012,0.907l-0.657,14.529c-0.012,0.252,0.069,0.538,0.234,0.71c0.187,0.196,0.462,0.365,0.776,0.365
			h16.225c0.279,0,0.537-0.19,0.729-0.392c0.191-0.202,0.29-0.474,0.277-0.752L346.794,1962.826z M335.641,1960.117l0.001-0.075
			c0-1.3,1.106-2.222,2.689-2.222c1.755,0,2.689,1.275,2.689,2.2l0.001,0.1c0.012,0.845,0.013,1.396,0.001,1.798h-5.382
			C335.629,1961.516,335.629,1960.963,335.641,1960.117z M344.053,1968.989c-0.492,0.664-1.337,0.927-2.186,0.786
			c0.222,0.492,0.354,1.028,0.354,1.604c0,2.147-1.743,3.89-3.889,3.89c-2.149,0-3.891-1.743-3.891-3.89
			c0-0.576,0.131-1.112,0.353-1.604c-0.851,0.141-1.694-0.122-2.183-0.786c-0.746-1.001-0.41-2.52,0.757-3.383
			c1.16-0.863,2.71-0.754,3.456,0.249c0.391,0.529,0.474,1.2,0.302,1.843c0.383-0.124,0.783-0.209,1.206-0.209
			c0.422,0,0.82,0.085,1.202,0.209c-0.171-0.643-0.087-1.314,0.304-1.843c0.746-1.003,2.292-1.112,3.458-0.249
			C344.459,1966.469,344.798,1967.988,344.053,1968.989z"/>
		<g>
			<path id="restroom-icon6_00000065068022574463201890000011617918559716608187_" fill="#A1AFC0" d="M341.842,2233.322
				c0-1.299,1.063-2.243,2.243-2.243c1.299,0,2.243,1.063,2.243,2.243c0,1.299-1.063,2.244-2.243,2.244
				C342.787,2235.684,341.842,2234.621,341.842,2233.322z M341.606,2236.156c-1.653,0-2.952,0.827-2.952,2.48
				c0,0.826,0,4.251,0,4.841s0.472,0.945,0.945,0.945c0.59,0,0.945-0.472,0.945-0.945c0-0.59,0-4.133,0-4.133h0.472
				c0,0,0,9.328,0,10.391c0,0.708,0.59,1.299,1.299,1.299c0.708,0,1.299-0.591,1.299-1.299c0-1.063,0-5.314,0-5.314h0.59
				c0,0,0,4.133,0,5.314c0,0.708,0.59,1.299,1.299,1.299c0.708,0,1.299-0.591,1.299-1.299c0-1.063,0-10.391,0-10.391h0.472
				c0,0,0,3.424,0,4.133c0,0.59,0.472,0.945,0.945,0.945c0.59,0,0.945-0.472,0.945-0.945c0-0.59,0-4.015,0-4.841
				c0-1.653-1.299-2.48-2.952-2.48C345.739,2236.156,342.314,2236.156,341.606,2236.156z"/>
			<path id="restroom-icon3_00000007403222504846291960000009215107421197222531_" fill="#A1AFC0" d="M354.476,2233.44
				c0-1.181,0.945-2.362,2.362-2.362c1.181,0,2.362,0.945,2.362,2.362c0,1.181-0.945,2.362-2.362,2.362
				C355.539,2235.566,354.476,2234.621,354.476,2233.44z M357.074,2245.839c0,0,0,3.188,0,4.133c0,0.591,0.472,1.063,1.063,1.063
				s1.063-0.472,1.063-1.063c0-0.472,0-0.59,0-4.133c0,0,0.827,0,1.653,0c0.827,0,0.472-0.827,0.472-0.827l-2.362-6.14h0.59
				l1.417,3.779c0.118,0.472,0.708,0.827,1.063,0.59c0.472-0.118,0.708-0.708,0.59-1.063s-1.417-3.779-1.417-3.779
				s-0.472-2.125-2.48-2.125c-0.59,0-3.07,0-3.66,0c-1.771,0-2.48,2.125-2.48,2.125s-1.417,3.424-1.535,3.779
				c-0.118,0.472,0.118,0.945,0.59,1.063c0.472,0.118,0.945-0.118,1.063-0.59l1.417-3.779h0.59l-2.362,6.14
				c0,0-0.472,0.827,0.59,0.827c1.063,0,1.535,0,1.535,0c0,3.66,0,3.66,0,4.133c0,0.591,0.472,1.063,1.063,1.063
				s1.063-0.472,1.063-1.063c0-0.826,0-4.133,0-4.133H357.074z"/>
		</g>
		<g>
			<path id="restroom-icon6_00000008848812365862095980000002223819314539487671_" fill="#A1AFC0" d="M201.794,2233.322
				c0-1.299,1.063-2.243,2.243-2.243c1.299,0,2.243,1.063,2.243,2.243c0,1.299-1.063,2.244-2.243,2.244
				C202.739,2235.684,201.794,2234.621,201.794,2233.322z M201.558,2236.156c-1.653,0-2.952,0.827-2.952,2.48
				c0,0.826,0,4.251,0,4.841s0.472,0.945,0.945,0.945c0.59,0,0.945-0.472,0.945-0.945c0-0.59,0-4.133,0-4.133h0.472
				c0,0,0,9.328,0,10.391c0,0.708,0.59,1.299,1.299,1.299c0.708,0,1.299-0.591,1.299-1.299c0-1.063,0-5.314,0-5.314h0.59
				c0,0,0,4.133,0,5.314c0,0.708,0.59,1.299,1.299,1.299s1.299-0.591,1.299-1.299c0-1.063,0-10.391,0-10.391h0.472
				c0,0,0,3.424,0,4.133c0,0.59,0.472,0.945,0.945,0.945c0.59,0,0.945-0.472,0.945-0.945c0-0.59,0-4.015,0-4.841
				c0-1.653-1.299-2.48-2.952-2.48C205.691,2236.156,202.266,2236.156,201.558,2236.156z"/>
			<path id="restroom-icon3_00000007430325461455149640000007031643008534225076_" fill="#A1AFC0" d="M214.428,2233.44
				c0-1.181,0.945-2.362,2.362-2.362c1.181,0,2.362,0.945,2.362,2.362c0,1.181-0.945,2.362-2.362,2.362
				C215.491,2235.566,214.428,2234.621,214.428,2233.44z M217.026,2245.839c0,0,0,3.188,0,4.133c0,0.591,0.472,1.063,1.063,1.063
				s1.063-0.472,1.063-1.063c0-0.472,0-0.59,0-4.133c0,0,0.827,0,1.653,0c0.827,0,0.472-0.827,0.472-0.827l-2.362-6.14h0.59
				l1.417,3.779c0.118,0.472,0.708,0.827,1.063,0.59c0.472-0.118,0.708-0.708,0.59-1.063s-1.417-3.779-1.417-3.779
				s-0.472-2.125-2.48-2.125c-0.59,0-3.07,0-3.66,0c-1.771,0-2.48,2.125-2.48,2.125s-1.417,3.424-1.535,3.779
				c-0.118,0.472,0.118,0.945,0.59,1.063s0.945-0.118,1.063-0.59l1.417-3.779h0.59l-2.362,6.14c0,0-0.472,0.827,0.59,0.827
				s1.535,0,1.535,0c0,3.66,0,3.66,0,4.133c0,0.591,0.472,1.063,1.063,1.063s1.063-0.472,1.063-1.063c0-0.826,0-4.133,0-4.133
				H217.026z"/>
		</g>
	</g>
	<g id="sections">
		<rect id="aft" x="1.188" y="2201.232" opacity="0.32" fill="none" width="588" height="1168.768"/>
		<rect id="mid" x="1.188" y="1157.319" opacity="0.32" fill="none" width="588" height="1043.912"/>
		<rect id="forward" x="1.188" y="75.193" opacity="0.32" fill="none" width="588" height="1082.126"/>
	</g>
</g>
<g id="AED" display="none">
	<g display="inline">
		<text transform="matrix(1 0 0 1 213.2655 2417.5217)" fill="#FF0000" font-family="'Avenir-Black'" font-size="9px">AED</text>
		<path fill="#FF0000" d="M227.975,2401.059c-0.186-1.572-1.606-2.396-2.914-2.396c-0.824,0-1.558,0.314-2.068,0.875
			c-0.51-0.56-1.244-0.875-2.068-0.875c-1.308,0-2.728,0.823-2.914,2.396c-0.065,0.545,0.043,1.324,0.255,1.852
			c0.384,0.959,1.316,2.191,2.068,2.987c0.655,0.695,1.274,1.333,1.84,1.9l0.25,0.248c0.135,0.131,0.267,0.262,0.312,0.31
			c0.052,0.073,0.136,0.115,0.226,0.115h0.062c0.09,0,0.173-0.043,0.225-0.115c0.046-0.05,0.185-0.186,0.323-0.322l0.241-0.236
			c0.559-0.561,1.178-1.2,1.839-1.899c0.752-0.796,1.683-2.028,2.068-2.988C227.931,2402.385,228.039,2401.607,227.975,2401.059z
			 M225.044,2403.527l-2.066,3.273c-0.012,0.019-0.031,0.029-0.051,0.029c-0.008,0-0.016-0.001-0.024-0.005
			c-0.027-0.011-0.043-0.041-0.035-0.07l0.46-2.047h-1.045c-0.02,0-0.038-0.009-0.05-0.025c-0.012-0.015-0.014-0.036-0.009-0.054
			l0.397-1.318h-1.075c-0.02,0-0.037-0.009-0.049-0.024c-0.012-0.016-0.015-0.036-0.01-0.054l0.842-2.794
			c0.008-0.025,0.032-0.043,0.059-0.043h1.223c0.02,0,0.038,0.009,0.049,0.024c0.012,0.016,0.015,0.036,0.01,0.054l-0.396,1.317
			h1.075c0.02,0,0.037,0.01,0.049,0.025c0.012,0.016,0.015,0.035,0.01,0.054l-0.471,1.563h1.057c0.022,0,0.043,0.012,0.053,0.032
			C225.057,2403.485,225.057,2403.508,225.044,2403.527z"/>
	</g>
	
		<text transform="matrix(1 0 0 1 213.2655 1328.6615)" display="inline" fill="#FF0000" font-family="'Avenir-Black'" font-size="9px">AED</text>
	<path display="inline" fill="#FF0000" d="M227.975,1312.199c-0.186-1.572-1.606-2.395-2.914-2.395
		c-0.824,0-1.558,0.314-2.068,0.875c-0.51-0.56-1.244-0.875-2.068-0.875c-1.308,0-2.728,0.823-2.914,2.395
		c-0.065,0.545,0.043,1.325,0.255,1.852c0.384,0.959,1.316,2.191,2.068,2.987c0.655,0.695,1.274,1.333,1.84,1.9l0.25,0.248
		c0.135,0.131,0.267,0.262,0.312,0.31c0.052,0.073,0.136,0.115,0.226,0.115h0.062c0.09,0,0.173-0.043,0.225-0.115
		c0.046-0.05,0.185-0.186,0.323-0.321l0.241-0.236c0.559-0.561,1.178-1.2,1.839-1.899c0.752-0.796,1.683-2.028,2.068-2.987
		C227.931,1313.526,228.039,1312.747,227.975,1312.199z M225.044,1314.667l-2.066,3.273c-0.012,0.019-0.031,0.028-0.051,0.028
		c-0.008,0-0.016-0.001-0.024-0.005c-0.027-0.011-0.043-0.041-0.035-0.07l0.46-2.047h-1.045c-0.02,0-0.038-0.009-0.05-0.025
		c-0.012-0.015-0.014-0.036-0.009-0.054l0.397-1.318h-1.075c-0.02,0-0.037-0.009-0.049-0.024c-0.012-0.016-0.015-0.036-0.01-0.054
		l0.842-2.794c0.008-0.025,0.032-0.043,0.059-0.043h1.223c0.02,0,0.038,0.009,0.049,0.024c0.012,0.016,0.015,0.036,0.01,0.054
		l-0.396,1.318h1.075c0.02,0,0.037,0.01,0.049,0.025c0.012,0.016,0.015,0.036,0.01,0.054l-0.471,1.563h1.057
		c0.022,0,0.043,0.012,0.053,0.032C225.057,1314.625,225.057,1314.648,225.044,1314.667z"/>
</g>
</svg>
