<?xml version="1.0" encoding="utf-8"?>
<!-- Generator: Adobe Illustrator 28.2.0, SVG Export Plug-In . SVG Version: 6.00 Build 0)  -->
<svg version="1.1" id="nav" xmlns="http://www.w3.org/2000/svg" xmlns:xlink="http://www.w3.org/1999/xlink" x="0px" y="0px"
	 viewBox="0 0 53 293" enable-background="new 0 0 53 293" xml:space="preserve">
<path id="deckBase_00000112619160826207613670000018433375245054640060_" fill="#EBEEF0" d="M45.135,63.349v-4.786
	c0-4.148-1.595-6.318-1.595-6.318s-1.659-9.19-7.467-21.379c-5.807-12.189-9.381-11.36-9.381-11.36v0.014
	c-0.953,0.086-4.245,1.184-9.096,11.365c-5.807,12.189-7.467,21.379-7.467,21.379s-1.595,2.17-1.595,6.318v4.786
	c0,0-2.149,1.915-2.149,5.361c0,3.446,0,45.374,0,45.374v35.099v46.65v39.184v16.146H8.47v9.253c0,0,0.319,6.063,3.829,7.658
	c0,0,2.808,2.17,14.55,2.17v-0.02c11.717-0.004,14.52-2.17,14.52-2.17c3.51-1.595,3.829-7.658,3.829-7.658v-29.788h2.085v-0.006
	v-34.79v-46.65v-35.099c0,0,0-41.928,0-45.374S45.135,63.349,45.135,63.349z"/>
<path id="outline_00000167361159148532122060000015343527962905690272_" fill="none" stroke="#A1AFC0" stroke-miterlimit="10" d="
	M51.255,278.974c0,6.6-5.4,12-12,12h-26c-6.6,0-12-5.4-12-12v-266c0-6.6,5.4-12,12-12h26c6.6,0,12,5.4,12,12V278.974z"/>
<path id="deck07" fill="#C2DEEF" d="M44.214,259.36v-5.868v-48.506v-44.65v-52.753V71.985c0-13.835-2.026-21.38-2.026-21.38
	c-2.79-12.832-8.798-22.103-8.798-22.103c-3.943-7.356-6.237-7.49-6.554-7.501c-0.027-0.006-0.14-0.006-0.167,0
	c-0.316,0.011-2.85,0.162-6.626,7.501c0,0-6.18,10.257-8.884,22.231c0,0-1.867,7.534-1.867,21.252v35.597v52.753v44.65v48.506v5.868
	c0,0-0.112,1.677,0.167,2.403c0.272,0.708,1.655,4.836,7.247,6.104c0.262,0.059,0.695,0.131,0.963,0.159
	c1.461,0.157,5.498,0.552,9.032,0.552h0.105c3.68,0,7.903-0.428,9.199-0.57c0.281-0.031,0.557-0.089,0.832-0.15
	c5.608-1.235,6.939-5.39,7.21-6.096C44.325,261.037,44.214,259.36,44.214,259.36z"/>
<g id="selection" display="none">
	<path display="inline" fill="#A1AFC0" d="M49.234,107.057v40.7h-46v-40.7L49.234,107.057 M51.234,105.057h-50v44.7h50V105.057
		L51.234,105.057z"/>
</g>
</svg>
