<?xml version="1.0" encoding="utf-8"?>
<!-- Generator: Adobe Illustrator 28.2.0, SVG Export Plug-In . SVG Version: 6.00 Build 0)  -->
<svg version="1.1" id="nav" xmlns="http://www.w3.org/2000/svg" xmlns:xlink="http://www.w3.org/1999/xlink" x="0px" y="0px"
	 viewBox="0 0 53 293" enable-background="new 0 0 53 293" xml:space="preserve">
<path id="outline_00000167361159148532122060000015343527962905690272_" fill="none" stroke="#A1AFC0" stroke-miterlimit="10" d="
	M51.255,278.974c0,6.6-5.4,12-12,12h-26c-6.6,0-12-5.4-12-12v-266c0-6.6,5.4-12,12-12h26c6.6,0,12,5.4,12,12V278.974z"/>
<path id="deckBase_00000112619160826207613670000018433375245054640060_" fill="#EBEEF0" d="M44.546,64.492v-4.786
	c0-4.148-1.595-6.318-1.595-6.318s-1.659-9.19-7.467-21.379c-5.807-12.189-9.381-11.36-9.381-11.36v0.014
	c-0.953,0.086-4.245,1.184-9.096,11.365C11.199,44.218,9.54,53.407,9.54,53.407s-1.595,2.17-1.595,6.318v4.786
	c0,0-2.149,1.915-2.149,5.361c0,3.446,0,45.374,0,45.374v35.099v46.65v39.184v16.146h2.085v9.253c0,0,0.319,6.063,3.829,7.658
	c0,0,2.808,2.17,14.55,2.17v-0.02c11.717-0.004,14.52-2.17,14.52-2.17c3.51-1.595,3.829-7.658,3.829-7.658v-29.787h2.085v-0.006
	v-34.79v-46.65v-35.099c0,0,0-41.928,0-45.374S44.546,64.492,44.546,64.492z"/>
<path id="deck05" fill="#C2DEEF" d="M43.706,261.139v-5.859v-48.432v-44.582v-52.673V74.051c0.056-8.035-2.957-21.203-2.957-21.203
	c-3.515-12.666-9.262-22.151-9.262-22.151c-3.55-6.964-4.842-7.54-5.158-7.551c-0.027-0.006-0.14-0.006-0.167,0
	c-0.316,0.011-1.608,0.588-5.158,7.551c0,0-5.747,9.486-9.262,22.151c0,0-3.013,13.168-2.957,21.203v35.543v52.673v44.582v48.432
	v5.859c0,0-0.112,1.674,0.167,2.399c0.279,0.725,2.343,4.185,7.644,5.357c0,0,5.189,0.614,9.597,0.614h0.105
	c4.408,0,9.597-0.614,9.597-0.614c5.301-1.172,7.365-4.631,7.644-5.357C43.818,262.813,43.706,261.139,43.706,261.139z"/>
<g id="selection" display="none">
	<path display="inline" fill="#A1AFC0" d="M49.234,107.057v40.7h-46v-40.7L49.234,107.057 M51.234,105.057h-50v44.7h50V105.057
		L51.234,105.057z"/>
</g>
</svg>
