<?xml version="1.0" encoding="utf-8"?>
<!-- Generator: Adobe Illustrator 28.2.0, SVG Export Plug-In . SVG Version: 6.00 Build 0)  -->
<svg version="1.1" id="nav" xmlns="http://www.w3.org/2000/svg" xmlns:xlink="http://www.w3.org/1999/xlink" x="0px" y="0px"
	 viewBox="0 0 53 293" enable-background="new 0 0 53 293" xml:space="preserve">
<path id="deckBase_00000112619160826207613670000018433375245054640060_" fill="#EBEEF0" d="M44.643,64.492v-4.786
	c0-4.148-1.595-6.318-1.595-6.318s-1.659-9.19-7.467-21.379C29.773,19.82,26.2,20.649,26.2,20.649v0.014
	c-0.953,0.086-4.245,1.184-9.096,11.365c-5.807,12.189-7.467,21.379-7.467,21.379s-1.595,2.17-1.595,6.318v4.786
	c0,0-2.149,1.915-2.149,5.361c0,3.446,0,45.374,0,45.374v35.099v46.65v39.184v16.146h2.085v9.253c0,0,0.319,6.063,3.829,7.658
	c0,0,2.808,2.17,14.55,2.17v-0.02c11.717-0.004,14.52-2.17,14.52-2.17c3.51-1.595,3.829-7.658,3.829-7.658v-29.787h2.085v-0.006
	v-34.79v-46.65v-35.099c0,0,0-41.928,0-45.374S44.643,64.492,44.643,64.492z"/>
<path id="outline_00000167361159148532122060000015343527962905690272_" fill="none" stroke="#A1AFC0" stroke-miterlimit="10" d="
	M51.255,278.974c0,6.6-5.4,12-12,12h-26c-6.6,0-12-5.4-12-12v-266c0-6.6,5.4-12,12-12h26c6.6,0,12,5.4,12,12V278.974z"/>
<path id="deck15" fill="#C2DEEF" d="M46.139,56.61v-2.234l-15.991-4.841l-2.132-3.552h-1.839h-1.839l-2.132,3.552L6.215,54.376
	v2.234l4.611,1.06h0.114c-0.627,0.95-1.246,2.204-1.73,3.848c0,0-0.347,1.345-0.347,3.72H7.896c0,0,0,93.436,0,149.669
	c0,8.34,0,15.854,0,22.13h0.05v12.774c0,0-0.105,3.47,1.459,3.47c1.564,0,1.062-2.305,6.079-2.305s16.464,0,21.482,0
	c5.017,0,4.516,2.305,6.079,2.305c1.564,0,1.459-3.47,1.459-3.47v-12.774h-0.021c0.001-6.265,0.002-13.788,0.004-22.13
	c0.013-56.163,0.043-149.669,0.043-149.669h-0.966c0-2.375-0.347-3.72-0.347-3.72c-0.484-1.644-1.103-2.898-1.73-3.848h0.043
	L46.139,56.61z"/>
<g id="selection" display="none">
	<path display="inline" fill="#A1AFC0" d="M49.234,107.057v40.7h-46v-40.7L49.234,107.057 M51.234,105.057h-50v44.7h50V105.057
		L51.234,105.057z"/>
</g>
</svg>
