<?xml version="1.0" encoding="utf-8"?>
<!-- Generator: Adobe Illustrator 28.2.0, SVG Export Plug-In . SVG Version: 6.00 Build 0)  -->
<svg version="1.1" id="nav" xmlns="http://www.w3.org/2000/svg" xmlns:xlink="http://www.w3.org/1999/xlink" x="0px" y="0px"
	 viewBox="0 0 53 293" enable-background="new 0 0 53 293" xml:space="preserve">
<path id="deckBase_00000112619160826207613670000018433375245054640060_" fill="#EBEEF0" d="M44.655,64.492v-4.786
	c0-4.148-1.595-6.318-1.595-6.318s-1.659-9.19-7.467-21.379c-5.807-12.189-9.381-11.36-9.381-11.36v0.014
	c-0.953,0.086-4.245,1.184-9.096,11.365C11.309,44.218,9.65,53.407,9.65,53.407s-1.595,2.17-1.595,6.318v4.786
	c0,0-2.149,1.915-2.149,5.361c0,3.446,0,45.374,0,45.374v35.099v46.65v39.184v16.146H7.99v9.253c0,0,0.319,6.063,3.829,7.658
	c0,0,2.808,2.17,14.55,2.17v-0.02c11.717-0.004,14.52-2.17,14.52-2.17c3.51-1.595,3.829-7.658,3.829-7.658v-29.787h2.085v-0.006
	v-34.79v-46.65v-35.099c0,0,0-41.928,0-45.374S44.655,64.492,44.655,64.492z"/>
<path id="outline_00000167361159148532122060000015343527962905690272_" fill="none" stroke="#A1AFC0" stroke-miterlimit="10" d="
	M51.255,278.974c0,6.6-5.4,12-12,12h-26c-6.6,0-12-5.4-12-12v-266c0-6.6,5.4-12,12-12h26c6.6,0,12,5.4,12,12V278.974z"/>
<path id="deck16" fill="#C2DEEF" d="M44.607,65.811h-0.974h-0.004c-0.827-5.66-4.145-7.603-4.145-7.603
	c-2.111-1.557-6.604-2.427-9.13-2.628c-1.226-0.144-2.67-0.227-4.216-0.227c-1.51,0-2.923,0.079-4.13,0.217
	c-2.581,0.182-7.068,1.054-9.216,2.638c0,0-3.318,1.942-4.145,7.603H8.642H7.667c0,0,0,135.478,0,177.96v4.381v0.571v1.019v0.05
	h0.001c0,0-0.003,2.385,1.395,2.328c0,0,0.081,0.142,1.344-0.398s4.755-0.77,4.755-0.77h10.884h0.135h10.884
	c0,0,3.491,0.231,4.755,0.77c1.263,0.54,1.344,0.398,1.344,0.398c1.398,0.057,1.395-2.328,1.395-2.328h0.001v-6.02h0
	C44.562,201.521,44.607,65.811,44.607,65.811z"/>
<g id="selection" display="none">
	<path display="inline" fill="#A1AFC0" d="M49.234,107.057v40.7h-46v-40.7L49.234,107.057 M51.234,105.057h-50v44.7h50V105.057
		L51.234,105.057z"/>
</g>
</svg>
