<?xml version="1.0" encoding="utf-8"?>
<!-- Generator: Adobe Illustrator 28.2.0, SVG Export Plug-In . SVG Version: 6.00 Build 0)  -->
<svg version="1.1" id="nav" xmlns="http://www.w3.org/2000/svg" xmlns:xlink="http://www.w3.org/1999/xlink" x="0px" y="0px"
	 viewBox="0 0 53 293" enable-background="new 0 0 53 293" xml:space="preserve">
<path id="deckBase_00000112619160826207613670000018433375245054640060_" fill="#EBEEF0" d="M44.807,64.492v-4.786
	c0-4.148-1.595-6.318-1.595-6.318s-1.659-9.19-7.467-21.379c-5.807-12.189-9.381-11.36-9.381-11.36v0.014
	c-0.953,0.086-4.245,1.184-9.096,11.365c-5.807,12.189-7.467,21.379-7.467,21.379s-1.595,2.17-1.595,6.318v4.786
	c0,0-2.149,1.915-2.149,5.361c0,3.446,0,45.374,0,45.374v35.099v46.65v39.184v16.146h2.085v9.253c0,0,0.319,6.063,3.829,7.658
	c0,0,2.808,2.17,14.55,2.17v-0.02c11.717-0.004,14.52-2.17,14.52-2.17c3.51-1.595,3.829-7.658,3.829-7.658v-29.787h2.085v-0.006
	v-34.79v-46.65v-35.099c0,0,0-41.928,0-45.374S44.807,64.492,44.807,64.492z"/>
<path id="outline_00000167361159148532122060000015343527962905690272_" fill="none" stroke="#A1AFC0" stroke-miterlimit="10" d="
	M51.255,278.974c0,6.6-5.4,12-12,12h-26c-6.6,0-12-5.4-12-12v-266c0-6.6,5.4-12,12-12h26c6.6,0,12,5.4,12,12V278.974z"/>
<path id="deck18" fill="#C2DEEF" d="M26.768,243.273c6.114,0,15.576-0.25,16.621-0.324s1.074-1.177,1.074-1.177V85.425h-1.074
	v-0.589c0-8.851-0.665-11.967-6.048-14.237c-3.664-1.545-10.595-1.545-10.595-1.545h-0.478c0,0-6.931,0-10.595,1.545
	c-5.383,2.27-6.048,5.386-6.048,14.237v0.589H8.551v156.347c0,0,0.029,1.104,1.074,1.177s10.507,0.324,16.621,0.324H26.768z"/>
<g id="selection" display="none">
	<path display="inline" fill="#A1AFC0" d="M49.234,107.057v40.7h-46v-40.7L49.234,107.057 M51.234,105.057h-50v44.7h50V105.057
		L51.234,105.057z"/>
</g>
</svg>
