<?xml version="1.0" encoding="utf-8"?>
<!-- Generator: Adobe Illustrator 28.2.0, SVG Export Plug-In . SVG Version: 6.00 Build 0)  -->
<svg version="1.1" id="nav" xmlns="http://www.w3.org/2000/svg" xmlns:xlink="http://www.w3.org/1999/xlink" x="0px" y="0px"
	 viewBox="0 0 53 293" enable-background="new 0 0 53 293" xml:space="preserve">
<path id="deckBase_00000112619160826207613670000018433375245054640060_" fill="#EBEEF0" d="M44.562,64.492v-4.786
	c0-4.148-1.595-6.318-1.595-6.318s-1.659-9.19-7.467-21.379c-5.807-12.189-9.381-11.36-9.381-11.36v0.014
	c-0.953,0.086-4.245,1.184-9.096,11.365c-5.807,12.189-7.467,21.379-7.467,21.379s-1.595,2.17-1.595,6.318v4.786
	c0,0-2.149,1.915-2.149,5.361c0,3.446,0,45.374,0,45.374v35.099v46.65v39.184v16.146h2.085v9.253c0,0,0.319,6.063,3.829,7.658
	c0,0,2.808,2.17,14.55,2.17v-0.02c11.717-0.004,14.52-2.17,14.52-2.17c3.51-1.595,3.829-7.658,3.829-7.658v-29.787h2.085v-0.006
	v-34.79v-46.65v-35.099c0,0,0-41.928,0-45.374S44.562,64.492,44.562,64.492z"/>
<path id="outline_00000167361159148532122060000015343527962905690272_" fill="none" stroke="#A1AFC0" stroke-miterlimit="10" d="
	M51.255,278.974c0,6.6-5.4,12-12,12h-26c-6.6,0-12-5.4-12-12v-266c0-6.6,5.4-12,12-12h26c6.6,0,12,5.4,12,12V278.974z"/>
<g id="Deck11">
	<path id="shipBase_00000169556812757779605190000001042713769240130225_" fill="#C2DEEF" d="M26.261,47.541
		c0,0-7.987-0.284-12.041,3.248c-3.877,3.378-4.956,7.826-4.956,9.235c0,1.409,0,6.144,0,6.144H8.199c0,0,0,179.064,0,183.29
		c0,4.226,1.757,8.998,3.723,11.502c0.041,0,0.912-3.642,3.608-6.728c2.758-3.157,6.758-4.07,6.758-4.07v-1.37h7.905v1.37
		c0,0,3.82,0.754,6.799,4.148c2.976,3.391,3.559,6.65,3.559,6.65s1.847-2.11,2.748-5.202c0.901-3.091,1.024-4.97,1.024-6.418
		c0-1.448,0-183.173,0-183.173h-1.006c0,0-0.055-4.074-0.055-6.144c0-2.07-1.754-6.377-4.897-9.187
		C34.398,47.289,26.261,47.541,26.261,47.541z"/>
</g>
<g id="selection" display="none">
	<path display="inline" fill="#A1AFC0" d="M49.234,107.057v40.7h-46v-40.7L49.234,107.057 M51.234,105.057h-50v44.7h50V105.057
		L51.234,105.057z"/>
</g>
</svg>
