<?xml version="1.0" encoding="utf-8"?>
<!-- Generator: Adobe Illustrator 28.2.0, SVG Export Plug-In . SVG Version: 6.00 Build 0)  -->
<svg version="1.1" id="nav" xmlns="http://www.w3.org/2000/svg" xmlns:xlink="http://www.w3.org/1999/xlink" x="0px" y="0px"
	 viewBox="0 0 53 293" enable-background="new 0 0 53 293" xml:space="preserve">
<path id="outline_00000167361159148532122060000015343527962905690272_" fill="none" stroke="#A1AFC0" stroke-miterlimit="10" d="
	M51.255,278.974c0,6.6-5.4,12-12,12h-26c-6.6,0-12-5.4-12-12v-266c0-6.6,5.4-12,12-12h26c6.6,0,12,5.4,12,12V278.974z"/>
<path id="deckBase_00000112619160826207613670000018433375245054640060_" fill="#EBEEF0" d="M44.515,64.492v-4.786
	c0-4.148-1.595-6.318-1.595-6.318s-1.659-9.19-7.467-21.379c-5.807-12.189-9.381-11.36-9.381-11.36v0.014
	c-0.953,0.086-4.245,1.184-9.096,11.365c-5.807,12.189-7.467,21.379-7.467,21.379s-1.595,2.17-1.595,6.318v4.786
	c0,0-2.149,1.915-2.149,5.361c0,3.446,0,45.374,0,45.374v35.099v46.65v39.184v16.146H7.85v9.253c0,0,0.319,6.063,3.829,7.658
	c0,0,2.808,2.17,14.55,2.17v-0.02c11.717-0.004,14.52-2.17,14.52-2.17c3.51-1.595,3.829-7.658,3.829-7.658v-29.787h2.085v-0.006
	v-34.79v-46.65v-35.099c0,0,0-41.928,0-45.374S44.515,64.492,44.515,64.492z"/>
<path id="deck06" fill="#C2DEEF" d="M43.676,260.468V254.6v-48.506v-44.65V108.69V73.093c0-13.835-2.499-21.236-2.499-21.236
	c-3.515-12.685-8.857-22.186-8.857-22.186c-3.787-6.946-5.705-7.552-6.022-7.563c-0.027-0.006-0.14-0.006-0.167,0
	c-0.316,0.011-2.143,0.559-6.164,7.563c0,0-5.342,9.5-8.857,22.186c0,0-2.357,7.518-2.357,21.236v35.597v52.753v44.65V254.6v5.868
	c0,0-0.112,1.676,0.167,2.403c0.279,0.727,2.343,4.191,7.644,5.365c0,0,5.189,0.615,9.597,0.615h0.105
	c4.408,0,9.597-0.615,9.597-0.615c5.301-1.174,7.365-4.638,7.644-5.365C43.787,262.145,43.676,260.468,43.676,260.468z"/>
<g id="selection" display="none">
	<path display="inline" fill="#A1AFC0" d="M49.234,107.057v40.7h-46v-40.7L49.234,107.057 M51.234,105.057h-50v44.7h50V105.057
		L51.234,105.057z"/>
</g>
</svg>
