<?xml version="1.0" encoding="utf-8"?>
<!-- Generator: Adobe Illustrator 28.2.0, SVG Export Plug-In . SVG Version: 6.00 Build 0)  -->
<svg version="1.1" id="nav" xmlns="http://www.w3.org/2000/svg" xmlns:xlink="http://www.w3.org/1999/xlink" x="0px" y="0px"
	 viewBox="0 0 53 293" enable-background="new 0 0 53 293" xml:space="preserve">
<path id="deckBase_00000112619160826207613670000018433375245054640060_" fill="#EBEEF0" d="M44.705,64.492v-4.786
	c0-4.148-1.595-6.318-1.595-6.318s-1.659-9.19-7.467-21.379c-5.807-12.189-9.381-11.36-9.381-11.36v0.014
	c-0.953,0.086-4.245,1.184-9.096,11.365C11.359,44.218,9.7,53.407,9.7,53.407s-1.595,2.17-1.595,6.318v4.786
	c0,0-2.149,1.915-2.149,5.361c0,3.446,0,45.374,0,45.374v35.099v46.65v39.184v16.146h2.085v9.253c0,0,0.319,6.063,3.829,7.658
	c0,0,2.808,2.17,14.55,2.17v-0.02c11.717-0.004,14.52-2.17,14.52-2.17c3.51-1.595,3.829-7.658,3.829-7.658v-29.787h2.085v-0.006
	v-34.79v-46.65v-35.099c0,0,0-41.928,0-45.374S44.705,64.492,44.705,64.492z"/>
<path id="outline_00000167361159148532122060000015343527962905690272_" fill="none" stroke="#A1AFC0" stroke-miterlimit="10" d="
	M51.255,278.974c0,6.6-5.4,12-12,12h-26c-6.6,0-12-5.4-12-12v-266c0-6.6,5.4-12,12-12h26c6.6,0,12,5.4,12,12V278.974z"/>
<path id="deck13" fill="#C2DEEF" d="M46.532,56.559v-2.223l-16.124-4.817l-2.15-3.535h-1.854h-1.854l-2.15,3.535L6.277,54.335v2.223
	l4.649,1.055h0.115c-0.633,0.945-1.256,2.193-1.745,3.829c0,0-0.35,1.338-0.35,3.702H7.973c0,0,0,145.695,0,182.097
	c0,0.192,0,0.383,0,0.569c0,1.282,0,2.382,0,3.281c0.001,2.187,1.048,2.539,1.938,2.406c1.06-0.159,2.771-2.065,3.422-2.503
	c1.268-0.853,2.123-0.965,2.123-0.965h21.921c0,0,1.157,0,2.288,1.047c1.131,1.047,2.369,2.275,3.257,2.421
	c0.888,0.146,1.937-0.219,1.938-2.405c0-0.032,0-0.065,0-0.098c0-0.002,0-0.003,0-0.005c0-2.563,0-4.5,0-4.5h0
	c0.001-37.305,0.049-181.344,0.049-181.344h-0.974c0-2.363-0.35-3.702-0.35-3.702c-0.488-1.636-1.112-2.884-1.745-3.829h0.043
	L46.532,56.559z"/>
<g id="selection" display="none">
	<path display="inline" fill="#A1AFC0" d="M49.234,107.057v40.7h-46v-40.7L49.234,107.057 M51.234,105.057h-50v44.7h50V105.057
		L51.234,105.057z"/>
</g>
</svg>
